<svg width="268" height="209" viewBox="0 0 268 209" fill="none" xmlns="http://www.w3.org/2000/svg">
<path d="M6.45605 8.89126C6.45605 6.03911 8.45841 4.88305 10.9284 6.30912L551.528 318.425C553.998 319.851 556.001 323.319 556.001 326.171V511.439C556.001 514.291 553.998 515.447 551.528 514.021L10.9284 201.906C8.45841 200.48 6.45605 197.012 6.45605 194.159V8.89126Z" fill="#E2E2E2"/>
<path d="M0 15.3466C0 12.4945 2.00236 11.3384 4.47239 12.7645L545.072 324.88C547.542 326.306 549.545 329.774 549.545 332.626V517.895C549.545 520.747 547.542 521.903 545.072 520.477L4.47239 208.361C2.00236 206.935 0 203.467 0 200.615V15.3466Z" fill="#EEF2F4"/>
<path d="M0 52.7876C0 49.9355 2.00236 48.7794 4.47239 50.2055L545.072 362.321C547.542 363.747 549.545 367.215 549.545 370.067V517.895C549.545 520.747 547.542 521.903 545.072 520.477L4.47239 208.361C2.00236 206.935 0 203.467 0 200.615V52.7876Z" fill="white"/>
<path d="M20.8947 86.5923L19.2831 85.6619L19.2743 84.8751L20.7375 85.7199C20.9791 85.8594 21.1902 85.9342 21.3708 85.9443C21.5513 85.9544 21.691 85.9006 21.79 85.7829C21.892 85.6635 21.9429 85.4812 21.9429 85.2357C21.9429 84.9667 21.8978 84.7221 21.8075 84.5019C21.7202 84.28 21.5848 84.0775 21.4013 83.8942C21.2208 83.7093 20.9908 83.5361 20.7113 83.3748L19.4709 82.6586V89.2047L18.6279 88.7181V81.3751L20.7113 82.5779C21.0374 82.7662 21.3285 82.973 21.5848 83.1983C21.841 83.4202 22.0579 83.6631 22.2355 83.927C22.4161 84.1892 22.5529 84.47 22.6461 84.7692C22.7393 85.0684 22.7859 85.3895 22.7859 85.7325C22.7859 86.0351 22.7189 86.2704 22.5849 86.4385C22.451 86.6033 22.2647 86.694 22.0259 86.7109C21.79 86.7294 21.5134 86.6688 21.1961 86.5293L20.8947 86.5923ZM20.8554 90.0041L18.9511 88.9047L19.4272 88.3877L20.8554 89.2123C21.1233 89.367 21.3504 89.4443 21.5367 89.4443C21.726 89.446 21.8701 89.3779 21.9691 89.24C22.0681 89.0988 22.1176 88.8937 22.1176 88.6248C22.1176 88.3524 22.0754 88.0927 21.991 87.8456C21.9065 87.5985 21.774 87.369 21.5935 87.1572C21.413 86.9454 21.18 86.7571 20.8947 86.5923L19.6936 85.8989L19.7024 85.1222L21.3446 86.0704L21.5236 86.4562C21.8294 86.6629 22.0885 86.9134 22.3011 87.2076C22.5136 87.4984 22.6752 87.8069 22.7859 88.1331C22.8994 88.4609 22.9562 88.7828 22.9562 89.0988C22.9562 89.5561 22.8688 89.8923 22.6941 90.1075C22.5223 90.321 22.2792 90.4193 21.9648 90.4025C21.6503 90.3823 21.2805 90.2495 20.8554 90.0041Z" fill="black"/>
<path d="M26.2974 90.7454L24.7469 89.8503L24.7382 89.0988L26.0047 89.8301C26.2552 89.9747 26.4633 90.0663 26.6293 90.105C26.7982 90.1453 26.9248 90.1327 27.0093 90.0671C27.0937 90.0016 27.1359 89.8847 27.1359 89.7166C27.1359 89.5855 27.1112 89.4569 27.0617 89.3308C27.0151 89.2031 26.9438 89.0795 26.8477 88.9601C26.7516 88.8374 26.6322 88.7197 26.4895 88.6071C26.3498 88.4928 26.1853 88.381 25.996 88.2717L24.9609 87.6741V92.3744L24.1529 91.9079V86.4511L25.996 87.5153C26.2959 87.6884 26.5653 87.8742 26.804 88.0725C27.0457 88.2726 27.251 88.4836 27.4198 88.7055C27.5916 88.9257 27.7227 89.156 27.8129 89.3964C27.9032 89.6368 27.9483 89.8847 27.9483 90.1403C27.9483 90.305 27.9192 90.4445 27.861 90.5588C27.8027 90.6732 27.7168 90.7547 27.6033 90.8034C27.4897 90.8522 27.35 90.8656 27.184 90.8438C27.018 90.8186 26.8273 90.7539 26.6118 90.6496L26.2974 90.7454ZM26.2974 93.146L24.4543 92.0819L24.8561 91.5574L26.2974 92.3895C26.5216 92.519 26.7079 92.5946 26.8564 92.6165C27.0049 92.635 27.1156 92.6047 27.1884 92.5257C27.2641 92.445 27.3019 92.3189 27.3019 92.1475C27.3019 91.976 27.2641 91.8079 27.1884 91.6431C27.1156 91.4767 27.0049 91.3187 26.8564 91.1691C26.7079 91.0161 26.5216 90.8749 26.2974 90.7454L25.0701 90.0369L25.0788 89.2955L26.6118 90.1806L26.9045 90.632C27.1636 90.8051 27.3834 91.006 27.564 91.2346C27.7445 91.4633 27.8813 91.7003 27.9745 91.9457C28.0677 92.1878 28.1143 92.4198 28.1143 92.6417C28.1143 92.8972 28.0721 93.0981 27.9876 93.2444C27.9061 93.3923 27.7867 93.4864 27.6295 93.5268C27.4723 93.5638 27.2815 93.5512 27.0573 93.489C26.8331 93.4234 26.5798 93.3091 26.2974 93.146Z" fill="black"/>
<path d="M31.1585 96.0534C30.8295 95.8635 30.531 95.6273 30.2631 95.3449C29.9982 95.0608 29.7696 94.7456 29.5774 94.3993C29.3882 94.0546 29.2426 93.6915 29.1407 93.3099C29.0388 92.9283 28.9878 92.5459 28.9878 92.1626V91.9508C28.9878 91.507 29.0446 91.1447 29.1581 90.864C29.2717 90.5799 29.426 90.3731 29.6211 90.2436C29.8162 90.1142 30.0375 90.0587 30.285 90.0772C30.5325 90.0957 30.7887 90.1814 31.0537 90.3344C31.3914 90.5294 31.6826 90.7648 31.9272 91.0405C32.1747 91.3179 32.377 91.623 32.5343 91.9558C32.6915 92.2853 32.808 92.635 32.8837 93.0048C32.9594 93.3713 32.9972 93.7462 32.9972 94.1295V94.548L29.4682 92.5106V91.749L32.1892 93.32V93.2494C32.1776 93.0006 32.1339 92.74 32.0582 92.4677C31.9854 92.1971 31.8689 91.9415 31.7088 91.7011C31.5486 91.4607 31.3303 91.2607 31.0537 91.101C30.8702 90.9951 30.7013 90.943 30.547 90.9447C30.3927 90.943 30.2602 90.9976 30.1496 91.1086C30.0389 91.2195 29.953 91.3834 29.8919 91.6003C29.8307 91.8171 29.8002 92.0903 29.8002 92.4198V92.6316C29.8002 92.8905 29.8307 93.1519 29.8919 93.4158C29.9559 93.6781 30.0477 93.9294 30.167 94.1698C30.2893 94.4119 30.4364 94.6313 30.6082 94.8279C30.7829 95.0263 30.9809 95.1894 31.2022 95.3171C31.4875 95.4819 31.7292 95.5542 31.9272 95.534C32.1252 95.5138 32.2984 95.434 32.4469 95.2944L32.9361 96.0257C32.8342 96.1451 32.7046 96.24 32.5474 96.3107C32.3901 96.3813 32.1965 96.4006 31.9665 96.3686C31.7394 96.3384 31.47 96.2333 31.1585 96.0534Z" fill="black"/>
<path d="M34.7923 92.5938L35.6003 93.0603L35.5304 95.0625C35.5129 95.5701 35.462 95.9879 35.3775 96.3157C35.2931 96.6435 35.1854 96.9024 35.0543 97.0924C34.9233 97.279 34.7763 97.4143 34.6132 97.4983C34.4531 97.5841 34.2871 97.6379 34.1153 97.6597L33.7135 97.4277L33.7353 96.6788L33.9013 96.7696C33.9974 96.6939 34.0906 96.6132 34.1808 96.5275C34.2711 96.4384 34.3541 96.3199 34.4298 96.172C34.5055 96.0207 34.5681 95.8198 34.6176 95.5693C34.67 95.3171 34.7035 94.9918 34.718 94.5934L34.7923 92.5938ZM34.9932 92.7098L37.8365 94.3514V99.8081L37.0285 99.3416V94.7472L34.9932 93.5722V92.7098ZM33.5301 96.5552L38.4436 99.3921V101.767L37.6356 101.301V99.6921L34.3381 97.7883V99.3971L33.5257 98.9281L33.5301 96.5552Z" fill="black"/>
<path d="M40.2124 99.7022L42.3919 96.9814L43.2042 97.4504V102.907L42.3919 102.438V98.4591L40.2124 101.18L39.4088 100.716V95.2591L40.2124 95.7231V99.7022Z" fill="black"/>
<path d="M46.4275 99.3114V104.768L45.6151 104.299V98.8424L46.4275 99.3114ZM48.0129 100.227V100.983L44.0603 98.7011V97.9447L48.0129 100.227Z" fill="black"/>
<path d="M50.4194 107.174C50.0904 106.984 49.792 106.748 49.5241 106.465C49.2591 106.181 49.0306 105.866 48.8384 105.52C48.6491 105.175 48.5035 104.812 48.4016 104.43C48.2997 104.049 48.2488 103.666 48.2488 103.283V103.071C48.2488 102.627 48.3055 102.265 48.4191 101.984C48.5327 101.7 48.687 101.493 48.8821 101.364C49.0771 101.235 49.2984 101.179 49.5459 101.198C49.7934 101.216 50.0497 101.302 50.3146 101.455C50.6524 101.65 50.9436 101.885 51.1881 102.161C51.4356 102.438 51.638 102.743 51.7952 103.076C51.9525 103.406 52.0689 103.755 52.1446 104.125C52.2203 104.492 52.2582 104.866 52.2582 105.25V105.668L48.7292 103.631V102.869L51.4502 104.44V104.37C51.4385 104.121 51.3949 103.86 51.3192 103.588C51.2464 103.317 51.1299 103.062 50.9698 102.821C50.8096 102.581 50.5912 102.381 50.3146 102.221C50.1312 102.115 49.9623 102.063 49.808 102.065C49.6537 102.063 49.5212 102.118 49.4105 102.229C49.2999 102.34 49.214 102.504 49.1529 102.721C49.0917 102.937 49.0611 103.211 49.0611 103.54V103.752C49.0611 104.011 49.0917 104.272 49.1529 104.536C49.2169 104.798 49.3086 105.05 49.428 105.29C49.5503 105.532 49.6973 105.752 49.8691 105.948C50.0438 106.147 50.2418 106.31 50.4631 106.437C50.7485 106.602 50.9901 106.674 51.1881 106.654C51.3861 106.634 51.5594 106.554 51.7079 106.415L52.197 107.146C52.0951 107.265 51.9656 107.36 51.8083 107.431C51.6511 107.502 51.4575 107.521 51.2274 107.489C51.0003 107.459 50.731 107.354 50.4194 107.174Z" fill="black"/>
<path d="M58.6261 108.72V109.476L56.1279 108.034V107.277L58.6261 108.72ZM56.2982 105.01V110.467L55.4902 110.001V104.544L56.2982 105.01ZM59.2812 106.732V112.189L58.4689 111.72V106.263L59.2812 106.732Z" fill="black"/>
<path d="M63.3693 113.616V110.807C63.3693 110.592 63.3314 110.384 63.2557 110.182C63.1829 109.979 63.0723 109.79 62.9238 109.617C62.7753 109.444 62.5919 109.294 62.3735 109.168C62.1697 109.051 61.9906 108.988 61.8363 108.979C61.6849 108.973 61.5655 109.01 61.4781 109.09C61.3937 109.173 61.3515 109.289 61.3515 109.441L60.5435 108.974C60.5435 108.779 60.5871 108.611 60.6745 108.47C60.7618 108.329 60.887 108.228 61.0501 108.167C61.2161 108.105 61.4141 108.095 61.6441 108.137C61.877 108.177 62.1362 108.28 62.4215 108.445C62.7651 108.643 63.0679 108.885 63.33 109.171C63.5949 109.458 63.8017 109.781 63.9502 110.139C64.1016 110.496 64.1773 110.877 64.1773 111.284V113.826C64.1773 114.007 64.1904 114.208 64.2166 114.428C64.2457 114.65 64.2879 114.851 64.3432 115.031V115.112L63.5003 114.625C63.4595 114.494 63.4275 114.333 63.4042 114.141C63.3809 113.946 63.3693 113.771 63.3693 113.616ZM63.509 111.322L63.5178 111.982L62.701 111.511C62.471 111.378 62.2657 111.281 62.0852 111.221C61.9047 111.157 61.7533 111.132 61.631 111.145C61.5087 111.159 61.4155 111.211 61.3515 111.302C61.2874 111.389 61.2554 111.517 61.2554 111.685C61.2554 111.856 61.2889 112.032 61.3558 112.212C61.4228 112.392 61.5233 112.562 61.6572 112.724C61.794 112.884 61.9615 113.021 62.1595 113.135C62.407 113.278 62.6253 113.343 62.8146 113.332C63.0039 113.32 63.1538 113.258 63.2645 113.147C63.378 113.038 63.4392 112.904 63.4479 112.744L63.7929 113.392C63.7726 113.522 63.7172 113.646 63.627 113.765C63.5367 113.885 63.4159 113.98 63.2645 114.05C63.116 114.119 62.9383 114.146 62.7316 114.131C62.5278 114.114 62.2978 114.032 62.0415 113.884C61.7213 113.699 61.4403 113.464 61.1986 113.18C60.9598 112.898 60.7735 112.597 60.6395 112.278C60.5085 111.956 60.443 111.645 60.443 111.342C60.443 111.049 60.4925 110.821 60.5915 110.656C60.6905 110.488 60.8332 110.384 61.0195 110.343C61.2059 110.3 61.4301 110.315 61.6921 110.389C61.9542 110.463 62.2468 110.593 62.57 110.78L63.509 111.322Z" fill="black"/>
<path d="M67.2127 114.161L66.3436 113.659V113.084L67.1472 113.548C67.3714 113.678 67.549 113.748 67.6801 113.76C67.8111 113.769 67.9043 113.73 67.9596 113.644C68.0149 113.559 68.0426 113.437 68.0426 113.279C68.0426 113.137 68.0105 112.986 67.9465 112.825C67.8853 112.662 67.7863 112.502 67.6495 112.346C67.5126 112.186 67.3292 112.04 67.0992 111.907C66.9128 111.799 66.744 111.74 66.5925 111.73C66.4411 111.717 66.3203 111.75 66.23 111.829C66.1427 111.906 66.099 112.025 66.099 112.187L65.291 111.72C65.291 111.387 65.3725 111.149 65.5356 111.004C65.7016 110.858 65.9214 110.798 66.1951 110.825C66.4717 110.854 66.7731 110.962 67.0992 111.15C67.3729 111.308 67.6175 111.485 67.8329 111.68C68.0513 111.873 68.2362 112.081 68.3876 112.303C68.539 112.521 68.654 112.752 68.7327 112.996C68.8142 113.238 68.8549 113.489 68.8549 113.748C68.8549 113.933 68.8171 114.086 68.7414 114.207C68.6657 114.328 68.5565 114.411 68.4138 114.456C68.2711 114.498 68.0979 114.496 67.8941 114.449C67.6932 114.403 67.4661 114.307 67.2127 114.161ZM66.3436 113.306L67.2127 113.808C67.4952 113.971 67.7441 114.147 67.9596 114.335C68.1751 114.52 68.3556 114.715 68.5012 114.92C68.6468 115.125 68.7559 115.338 68.8287 115.558C68.9044 115.777 68.9423 116 68.9423 116.229C68.9423 116.484 68.8972 116.689 68.8069 116.842C68.7195 116.993 68.5943 117.092 68.4313 117.139C68.2682 117.186 68.0731 117.181 67.846 117.124C67.6218 117.069 67.3729 116.962 67.0992 116.804C66.7935 116.627 66.4965 116.395 66.2082 116.108C65.9199 115.82 65.6826 115.497 65.4963 115.137C65.3099 114.774 65.2168 114.396 65.2168 114.002L66.0248 114.469C66.0248 114.634 66.0699 114.816 66.1602 115.016C66.2504 115.216 66.3756 115.408 66.5358 115.591C66.6988 115.776 66.8866 115.93 67.0992 116.052C67.3263 116.184 67.5156 116.252 67.667 116.259C67.8184 116.266 67.9319 116.224 68.0076 116.133C68.0863 116.044 68.1256 115.92 68.1256 115.762C68.1256 115.557 68.0906 115.372 68.0207 115.208C67.9509 115.043 67.8431 114.89 67.6975 114.749C67.5549 114.606 67.3714 114.47 67.1472 114.34L66.3436 113.876V113.306Z" fill="black"/>
<path d="M72.2092 117.253L70.6587 116.357L70.65 115.606L71.9166 116.337C72.167 116.482 72.3752 116.574 72.5412 116.612C72.71 116.653 72.8367 116.64 72.9211 116.574C73.0056 116.509 73.0478 116.392 73.0478 116.224C73.0478 116.093 73.0231 115.964 72.9736 115.838C72.927 115.71 72.8556 115.587 72.7595 115.467C72.6635 115.345 72.5441 115.227 72.4014 115.114C72.2616 115 72.0971 114.888 71.9079 114.779L70.8728 114.181V118.882L70.0648 118.415V112.958L71.9079 114.022C72.2078 114.196 72.4771 114.381 72.7159 114.58C72.9575 114.78 73.1628 114.991 73.3317 115.213C73.5035 115.433 73.6345 115.663 73.7248 115.904C73.815 116.144 73.8602 116.392 73.8602 116.647C73.8602 116.812 73.8311 116.952 73.7728 117.066C73.7146 117.18 73.6287 117.262 73.5151 117.311C73.4016 117.359 73.2618 117.373 73.0959 117.351C72.9299 117.326 72.7392 117.261 72.5237 117.157L72.2092 117.253ZM72.2092 119.653L70.3661 118.589L70.7679 118.065L72.2092 118.897C72.4334 119.026 72.6198 119.102 72.7683 119.124C72.9168 119.142 73.0274 119.112 73.1002 119.033C73.1759 118.952 73.2138 118.826 73.2138 118.655C73.2138 118.483 73.1759 118.315 73.1002 118.15C73.0274 117.984 72.9168 117.826 72.7683 117.676C72.6198 117.523 72.4334 117.382 72.2092 117.253L70.9819 116.544L70.9907 115.803L72.5237 116.688L72.8163 117.139C73.0755 117.312 73.2953 117.513 73.4758 117.742C73.6564 117.97 73.7932 118.208 73.8864 118.453C73.9796 118.695 74.0261 118.927 74.0261 119.149C74.0261 119.404 73.9839 119.605 73.8995 119.752C73.818 119.9 73.6986 119.994 73.5413 120.034C73.3841 120.071 73.1934 120.058 72.9692 119.996C72.745 119.931 72.4917 119.816 72.2092 119.653Z" fill="black"/>
<path d="M77.8958 122.003V119.194C77.8958 118.979 77.858 118.771 77.7822 118.569C77.7095 118.366 77.5988 118.177 77.4503 118.004C77.3018 117.831 77.1184 117.681 76.9 117.555C76.6962 117.438 76.5171 117.375 76.3628 117.366C76.2114 117.359 76.092 117.396 76.0046 117.477C75.9202 117.559 75.878 117.676 75.878 117.828L75.07 117.361C75.07 117.166 75.1137 116.998 75.201 116.857C75.2884 116.716 75.4136 116.615 75.5766 116.554C75.7426 116.492 75.9406 116.482 76.1706 116.524C76.4036 116.564 76.6627 116.667 76.948 116.832C77.2916 117.03 77.5944 117.272 77.8565 117.558C78.1215 117.845 78.3282 118.168 78.4767 118.526C78.6281 118.882 78.7038 119.264 78.7038 119.671V122.213C78.7038 122.394 78.7169 122.595 78.7431 122.815C78.7722 123.037 78.8145 123.238 78.8698 123.418V123.499L78.0268 123.012C77.9861 122.881 77.954 122.72 77.9307 122.528C77.9075 122.333 77.8958 122.158 77.8958 122.003ZM78.0356 119.709L78.0443 120.369L77.2276 119.898C76.9975 119.765 76.7923 119.668 76.6117 119.608C76.4312 119.544 76.2798 119.519 76.1575 119.532C76.0352 119.546 75.942 119.598 75.878 119.689C75.8139 119.776 75.7819 119.904 75.7819 120.072C75.7819 120.243 75.8154 120.419 75.8824 120.599C75.9493 120.779 76.0498 120.949 76.1837 121.111C76.3206 121.27 76.488 121.407 76.686 121.522C76.9335 121.665 77.1519 121.73 77.3411 121.718C77.5304 121.707 77.6803 121.645 77.791 121.534C77.9045 121.425 77.9657 121.291 77.9744 121.131L78.3195 121.779C78.2991 121.908 78.2438 122.033 78.1535 122.152C78.0632 122.272 77.9424 122.367 77.791 122.437C77.6425 122.506 77.4649 122.533 77.2581 122.518C77.0543 122.501 76.8243 122.419 76.5681 122.271C76.2478 122.086 75.9668 121.851 75.7251 121.567C75.4864 121.285 75.3 120.984 75.1661 120.664C75.0351 120.343 74.9695 120.031 74.9695 119.729C74.9695 119.436 75.019 119.208 75.118 119.043C75.217 118.875 75.3597 118.771 75.5461 118.73C75.7324 118.687 75.9566 118.702 76.2187 118.776C76.4807 118.85 76.7733 118.98 77.0965 119.167L78.0356 119.709Z" fill="black"/>
<path d="M83.1806 122.896V123.653L80.6823 122.21V121.454L83.1806 122.896ZM80.8526 119.187V124.644L80.0446 124.177V118.72L80.8526 119.187ZM83.8357 120.909V126.366L83.0233 125.897V120.44L83.8357 120.909Z" fill="black"/>
<path d="M86.0107 126.144L88.1902 123.423L89.0025 123.892V129.349L88.1902 128.88V124.901L86.0107 127.622L85.2071 127.158V121.701L86.0107 122.165V126.144Z" fill="black"/>
<path d="M92.2607 131.331C91.9317 131.141 91.6333 130.905 91.3654 130.622C91.1004 130.338 90.8718 130.023 90.6797 129.677C90.4904 129.332 90.3448 128.969 90.2429 128.587C90.141 128.206 90.09 127.823 90.09 127.44V127.228C90.09 126.784 90.1468 126.422 90.2604 126.141C90.3739 125.857 90.5283 125.65 90.7233 125.521C90.9184 125.392 91.1397 125.336 91.3872 125.355C91.6347 125.373 91.8909 125.459 92.1559 125.612C92.4937 125.807 92.7848 126.042 93.0294 126.318C93.2769 126.595 93.4793 126.9 93.6365 127.233C93.7937 127.563 93.9102 127.912 93.9859 128.282C94.0616 128.649 94.0995 129.024 94.0995 129.407V129.825L90.5705 127.788V127.026L93.2915 128.597V128.527C93.2798 128.278 93.2362 128.017 93.1604 127.745C93.0877 127.474 92.9712 127.219 92.811 126.979C92.6509 126.738 92.4325 126.538 92.1559 126.378C91.9725 126.272 91.8036 126.22 91.6493 126.222C91.495 126.22 91.3625 126.275 91.2518 126.386C91.1412 126.497 91.0553 126.661 90.9941 126.878C90.933 127.095 90.9024 127.368 90.9024 127.697V127.909C90.9024 128.168 90.933 128.429 90.9941 128.693C91.0582 128.955 91.1499 129.207 91.2693 129.447C91.3916 129.689 91.5386 129.909 91.7104 130.105C91.8851 130.304 92.0831 130.467 92.3044 130.595C92.5898 130.759 92.8314 130.832 93.0294 130.811C93.2274 130.791 93.4007 130.711 93.5492 130.572L94.0383 131.303C93.9364 131.422 93.8069 131.517 93.6496 131.588C93.4924 131.659 93.2988 131.678 93.0687 131.646C92.8416 131.616 92.5723 131.511 92.2607 131.331Z" fill="black"/>
<path d="M99.0261 132.529L98.1569 132.027V131.452L98.9606 131.916C99.1848 132.045 99.3624 132.116 99.4934 132.128C99.6244 132.136 99.7176 132.097 99.7729 132.012C99.8283 131.926 99.8559 131.804 99.8559 131.646C99.8559 131.505 99.8239 131.354 99.7598 131.192C99.6987 131.029 99.5997 130.869 99.4628 130.713C99.326 130.553 99.1426 130.407 98.9125 130.274C98.7262 130.167 98.5573 130.108 98.4059 130.098C98.2545 130.084 98.1337 130.117 98.0434 130.196C97.956 130.273 97.9124 130.393 97.9124 130.554L97.1044 130.088C97.1044 129.755 97.1859 129.516 97.3489 129.372C97.5149 129.225 97.7347 129.166 98.0084 129.193C98.2851 129.221 98.5864 129.33 98.9125 129.518C99.1862 129.676 99.4308 129.852 99.6463 130.047C99.8647 130.241 100.05 130.448 100.201 130.67C100.352 130.889 100.467 131.12 100.546 131.364C100.628 131.606 100.668 131.856 100.668 132.115C100.668 132.3 100.63 132.453 100.555 132.574C100.479 132.695 100.37 132.778 100.227 132.824C100.084 132.866 99.9112 132.863 99.7074 132.816C99.5065 132.771 99.2794 132.675 99.0261 132.529ZM98.1569 131.674L99.0261 132.176C99.3085 132.339 99.5575 132.514 99.7729 132.703C99.9884 132.888 100.169 133.083 100.315 133.288C100.46 133.493 100.569 133.705 100.642 133.926C100.718 134.144 100.756 134.368 100.756 134.596C100.756 134.852 100.711 135.056 100.62 135.209C100.533 135.36 100.408 135.46 100.245 135.507C100.082 135.554 99.8865 135.549 99.6594 135.492C99.4352 135.436 99.1862 135.329 98.9125 135.171C98.6068 134.995 98.3098 134.763 98.0215 134.475C97.7333 134.188 97.496 133.864 97.3096 133.504C97.1233 133.141 97.0301 132.763 97.0301 132.37L97.8381 132.836C97.8381 133.001 97.8832 133.183 97.9735 133.383C98.0638 133.583 98.189 133.775 98.3491 133.958C98.5122 134.143 98.7 134.297 98.9125 134.42C99.1396 134.551 99.3289 134.62 99.4803 134.627C99.6317 134.633 99.7453 134.591 99.821 134.501C99.8996 134.411 99.9389 134.288 99.9389 134.13C99.9389 133.925 99.904 133.74 99.8341 133.575C99.7642 133.41 99.6565 133.257 99.5109 133.116C99.3682 132.973 99.1848 132.837 98.9606 132.708L98.1569 132.244V131.674Z" fill="black"/>
<path d="M104.59 137.416V134.606C104.59 134.391 104.553 134.183 104.477 133.981C104.404 133.778 104.293 133.589 104.145 133.416C103.996 133.243 103.813 133.093 103.595 132.967C103.391 132.85 103.212 132.787 103.057 132.778C102.906 132.772 102.787 132.809 102.699 132.889C102.615 132.972 102.573 133.088 102.573 133.24L101.765 132.773C101.765 132.578 101.808 132.41 101.896 132.269C101.983 132.128 102.108 132.027 102.271 131.966C102.437 131.904 102.635 131.894 102.865 131.936C103.098 131.976 103.357 132.079 103.643 132.244C103.986 132.442 104.289 132.684 104.551 132.97C104.816 133.257 105.023 133.58 105.171 133.938C105.323 134.295 105.398 134.676 105.398 135.083V137.625C105.398 137.806 105.411 138.007 105.438 138.227C105.467 138.449 105.509 138.65 105.564 138.83V138.911L104.721 138.424C104.681 138.293 104.649 138.132 104.625 137.94C104.602 137.745 104.59 137.57 104.59 137.416ZM104.73 135.121L104.739 135.781L103.922 135.31C103.692 135.177 103.487 135.08 103.306 135.02C103.126 134.956 102.974 134.931 102.852 134.944C102.73 134.958 102.637 135.01 102.573 135.101C102.508 135.188 102.476 135.316 102.476 135.484C102.476 135.655 102.51 135.831 102.577 136.011C102.644 136.191 102.744 136.361 102.878 136.523C103.015 136.683 103.183 136.82 103.381 136.934C103.628 137.077 103.846 137.142 104.036 137.131C104.225 137.119 104.375 137.057 104.486 136.946C104.599 136.837 104.66 136.703 104.669 136.543L105.014 137.191C104.994 137.321 104.938 137.445 104.848 137.564C104.758 137.684 104.637 137.779 104.486 137.849C104.337 137.918 104.159 137.945 103.953 137.93C103.749 137.913 103.519 137.831 103.263 137.683C102.942 137.498 102.661 137.263 102.42 136.979C102.181 136.697 101.995 136.396 101.861 136.077C101.73 135.755 101.664 135.444 101.664 135.141C101.664 134.848 101.714 134.62 101.813 134.455C101.912 134.287 102.054 134.183 102.241 134.142C102.427 134.099 102.651 134.114 102.913 134.188C103.175 134.262 103.468 134.392 103.791 134.579L104.73 135.121Z" fill="black"/>
<path d="M107.521 134.584L108.329 135.05L108.259 137.052C108.242 137.56 108.191 137.978 108.106 138.306C108.022 138.633 107.914 138.892 107.783 139.082C107.652 139.269 107.505 139.404 107.342 139.488C107.182 139.574 107.016 139.628 106.844 139.65L106.442 139.418L106.464 138.669L106.63 138.76C106.726 138.684 106.819 138.603 106.91 138.517C107 138.428 107.083 138.31 107.158 138.162C107.234 138.011 107.297 137.81 107.346 137.559C107.399 137.307 107.432 136.982 107.447 136.583L107.521 134.584ZM107.722 134.7L110.565 136.341V141.798L109.757 141.332V136.737L107.722 135.562V134.7ZM106.259 138.545L111.172 141.382V143.757L110.364 143.291V141.682L107.067 139.778V141.387L106.254 140.918L106.259 138.545Z" fill="black"/>
<path d="M114.854 143.341V140.532C114.854 140.317 114.816 140.109 114.741 139.907C114.668 139.703 114.557 139.515 114.409 139.342C114.26 139.169 114.077 139.019 113.858 138.893C113.655 138.775 113.475 138.712 113.321 138.704C113.17 138.697 113.05 138.734 112.963 138.815C112.879 138.897 112.836 139.014 112.836 139.166L112.028 138.699C112.028 138.504 112.072 138.336 112.159 138.195C112.247 138.053 112.372 137.953 112.535 137.892C112.701 137.83 112.899 137.82 113.129 137.862C113.362 137.902 113.621 138.005 113.906 138.169C114.25 138.368 114.553 138.61 114.815 138.896C115.08 139.183 115.287 139.506 115.435 139.864C115.586 140.22 115.662 140.602 115.662 141.009V143.551C115.662 143.732 115.675 143.933 115.701 144.153C115.731 144.375 115.773 144.576 115.828 144.756V144.837L114.985 144.35C114.944 144.219 114.912 144.057 114.889 143.866C114.866 143.671 114.854 143.496 114.854 143.341ZM114.994 141.047L115.003 141.707L114.186 141.236C113.956 141.103 113.751 141.006 113.57 140.946C113.39 140.882 113.238 140.857 113.116 140.87C112.994 140.884 112.9 140.936 112.836 141.026C112.772 141.114 112.74 141.242 112.74 141.41C112.74 141.581 112.774 141.757 112.841 141.937C112.908 142.117 113.008 142.287 113.142 142.449C113.279 142.608 113.446 142.745 113.644 142.86C113.892 143.003 114.11 143.068 114.299 143.056C114.489 143.045 114.639 142.983 114.749 142.872C114.863 142.763 114.924 142.629 114.933 142.469L115.278 143.117C115.257 143.246 115.202 143.371 115.112 143.49C115.022 143.609 114.901 143.704 114.749 143.775C114.601 143.844 114.423 143.871 114.216 143.856C114.013 143.839 113.783 143.757 113.526 143.609C113.206 143.424 112.925 143.189 112.683 142.905C112.445 142.623 112.258 142.322 112.124 142.002C111.993 141.681 111.928 141.369 111.928 141.067C111.928 140.774 111.977 140.546 112.076 140.381C112.175 140.213 112.318 140.109 112.504 140.068C112.691 140.025 112.915 140.04 113.177 140.114C113.439 140.188 113.732 140.318 114.055 140.504L114.994 141.047Z" fill="black"/>
<path d="M120.497 142.075V147.532L119.689 147.066V141.609L120.497 142.075ZM120.222 144.423V145.19C120.059 145.166 119.893 145.134 119.724 145.094C119.558 145.052 119.382 144.994 119.196 144.92C119.012 144.844 118.813 144.744 118.597 144.62C118.224 144.405 117.901 144.144 117.628 143.838C117.354 143.529 117.143 143.18 116.994 142.792C116.846 142.4 116.772 141.972 116.772 141.508V139.914L117.58 140.381V141.975C117.58 142.277 117.619 142.545 117.697 142.779C117.776 143.013 117.891 143.219 118.042 143.397C118.194 143.572 118.379 143.722 118.597 143.848C118.807 143.969 119.003 144.068 119.187 144.143C119.373 144.217 119.551 144.276 119.72 144.32C119.891 144.365 120.059 144.4 120.222 144.423Z" fill="black"/>
<path d="M122.672 147.31L124.852 144.589L125.664 145.059V150.515L124.852 150.046V146.067L122.672 148.788L121.868 148.324V142.867L122.672 143.331V147.31Z" fill="black"/>
<path d="M22.7048 123.02V123.708C22.7048 124.158 22.6539 124.536 22.5519 124.842C22.4526 125.147 22.3074 125.373 22.1163 125.522C21.9277 125.672 21.701 125.739 21.436 125.725C21.1711 125.71 20.873 125.607 20.5418 125.416C20.2182 125.229 19.9227 124.989 19.6552 124.696C19.3902 124.405 19.1622 124.075 18.9711 123.706C18.78 123.337 18.6322 122.941 18.5278 122.519C18.4233 122.094 18.3711 121.656 18.3711 121.206V120.518C18.3711 120.067 18.422 119.691 18.524 119.388C18.6284 119.083 18.7762 118.857 18.9673 118.708C19.1583 118.56 19.3864 118.493 19.6513 118.507C19.9163 118.522 20.2106 118.623 20.5341 118.81C20.8653 119.001 21.1634 119.242 21.4284 119.533C21.6934 119.825 21.9214 120.155 22.1125 120.524C22.3035 120.893 22.45 121.29 22.5519 121.713C22.6539 122.134 22.7048 122.569 22.7048 123.02ZM22.2386 123.439V122.742C22.2386 122.362 22.2004 121.999 22.1239 121.652C22.05 121.306 21.9392 120.983 21.7914 120.683C21.6462 120.384 21.4679 120.117 21.2564 119.88C21.045 119.643 20.8042 119.447 20.5341 119.291C20.2717 119.139 20.036 119.061 19.8271 119.055C19.6182 119.049 19.4399 119.111 19.2921 119.24C19.1469 119.371 19.0348 119.565 18.9558 119.822C18.8794 120.081 18.8412 120.401 18.8412 120.78V121.477C18.8412 121.86 18.8794 122.226 18.9558 122.576C19.0348 122.925 19.1482 123.251 19.2959 123.554C19.4437 123.854 19.622 124.121 19.831 124.357C20.0424 124.593 20.2794 124.788 20.5418 124.939C20.8144 125.097 21.0551 125.178 21.2641 125.184C21.473 125.19 21.65 125.127 21.7953 124.997C21.9405 124.863 22.05 124.666 22.1239 124.405C22.2004 124.143 22.2386 123.821 22.2386 123.439Z" fill="#5E6675"/>
<path d="M25.2462 123.269V128.044L24.7914 127.781V123.006L25.2462 123.269ZM26.7519 124.138V124.588L23.3392 122.618V122.168L26.7519 124.138Z" fill="#5E6675"/>
<path d="M29.3353 128.202L27.8831 127.364L27.8755 126.918L29.1137 127.633C29.3633 127.777 29.571 127.866 29.7366 127.9C29.9047 127.933 30.0309 127.91 30.1149 127.832C30.2016 127.755 30.2449 127.624 30.2449 127.439C30.2449 127.298 30.2194 127.16 30.1684 127.024C30.12 126.89 30.0461 126.761 29.9468 126.636C29.85 126.512 29.7277 126.392 29.5799 126.274C29.4347 126.155 29.2653 126.039 29.0716 125.928L28.013 125.316V129.641L27.5583 129.378V124.604L29.0716 125.478C29.3239 125.623 29.5493 125.78 29.7481 125.947C29.9493 126.114 30.1213 126.289 30.264 126.475C30.4067 126.66 30.5149 126.855 30.5888 127.06C30.6652 127.263 30.7035 127.473 30.7035 127.691C30.7035 127.838 30.6793 127.962 30.6309 128.063C30.5824 128.162 30.5111 128.236 30.4168 128.284C30.3251 128.331 30.2117 128.348 30.0767 128.335C29.9417 128.319 29.7863 128.267 29.6105 128.18L29.3353 128.202ZM29.3353 130.404L27.7417 129.484L27.9175 129.136L29.3353 129.954C29.5646 130.087 29.7595 130.165 29.92 130.19C30.0805 130.215 30.2016 130.185 30.2831 130.1C30.3672 130.016 30.4092 129.88 30.4092 129.692C30.4092 129.515 30.3672 129.338 30.2831 129.16C30.2016 128.984 30.0805 128.814 29.92 128.65C29.7595 128.484 29.5646 128.335 29.3353 128.202L28.2806 127.593L28.2882 127.157L29.6449 127.94L29.8398 128.22C30.0487 128.361 30.2296 128.53 30.3824 128.728C30.5353 128.925 30.6538 129.131 30.7379 129.348C30.8219 129.561 30.864 129.766 30.864 129.963C30.864 130.181 30.8283 130.353 30.757 130.479C30.6856 130.603 30.5824 130.682 30.4474 130.716C30.3149 130.748 30.1544 130.738 29.9659 130.685C29.7774 130.632 29.5672 130.538 29.3353 130.404Z" fill="#5E6675"/>
<path d="M33.4856 132.889C33.2155 132.733 32.9671 132.532 32.7404 132.287C32.5162 132.042 32.32 131.767 32.1519 131.461C31.9863 131.157 31.8576 130.835 31.7659 130.497C31.6767 130.157 31.6321 129.817 31.6321 129.476V129.286C31.6321 128.918 31.6793 128.613 31.7735 128.37C31.8678 128.127 31.9977 127.948 32.1633 127.832C32.3289 127.716 32.5175 127.663 32.7289 127.673C32.9429 127.682 33.1671 127.754 33.4015 127.889C33.6639 128.041 33.8971 128.23 34.1009 128.456C34.3047 128.68 34.4754 128.93 34.613 129.206C34.7531 129.481 34.8588 129.773 34.9302 130.082C35.0015 130.388 35.0372 130.702 35.0372 131.022V131.344L31.9073 129.537V129.087L34.5824 130.632V130.57C34.5773 130.299 34.5302 130.022 34.441 129.738C34.3544 129.453 34.2244 129.187 34.0512 128.939C33.878 128.692 33.6614 128.494 33.4015 128.344C33.2079 128.232 33.0296 128.176 32.8665 128.176C32.706 128.177 32.5671 128.233 32.4499 128.341C32.3353 128.449 32.2461 128.605 32.1824 128.809C32.1213 129.012 32.0907 129.259 32.0907 129.551V129.74C32.0907 130.005 32.1238 130.271 32.1901 130.539C32.2589 130.805 32.3557 131.061 32.4805 131.307C32.6079 131.554 32.7582 131.776 32.9315 131.973C33.1047 132.17 33.2958 132.329 33.5047 132.45C33.7493 132.591 33.9659 132.665 34.1544 132.67C34.3429 132.673 34.5123 132.605 34.6627 132.465L34.9493 132.887C34.8601 132.988 34.748 133.065 34.613 133.116C34.4805 133.169 34.3213 133.18 34.1353 133.149C33.9493 133.118 33.7327 133.032 33.4856 132.889Z" fill="#5E6675"/>
<path d="M37.3531 130.259V135.034L36.8983 134.771V129.996L37.3531 130.259ZM38.8588 131.128V131.578L35.4461 129.608V129.158L38.8588 131.128Z" fill="#5E6675"/>
<path d="M40.8346 136.677C41.0282 136.789 41.2091 136.852 41.3773 136.867C41.5479 136.88 41.6881 136.836 41.7976 136.735C41.9097 136.632 41.9734 136.464 41.9887 136.232L42.4244 136.483C42.4116 136.779 42.3314 137.003 42.1836 137.156C42.0384 137.308 41.8473 137.383 41.6104 137.381C41.376 137.378 41.1174 137.295 40.8346 137.132C40.5467 136.966 40.2919 136.758 40.0703 136.51C39.8511 136.262 39.6677 135.989 39.5199 135.689C39.3722 135.386 39.2601 135.068 39.1836 134.736C39.1098 134.402 39.0728 134.067 39.0728 133.732V133.546C39.0728 133.211 39.1098 132.92 39.1836 132.675C39.2601 132.428 39.3722 132.239 39.5199 132.11C39.6677 131.978 39.8511 131.914 40.0703 131.92C40.2894 131.926 40.5429 132.012 40.8308 132.178C41.1263 132.349 41.3913 132.571 41.6257 132.845C41.8626 133.12 42.0511 133.424 42.1913 133.758C42.3339 134.094 42.4116 134.439 42.4244 134.793L41.9887 134.541C41.976 134.278 41.9174 134.024 41.8129 133.778C41.7085 133.532 41.5709 133.31 41.4002 133.112C41.2295 132.913 41.0397 132.754 40.8308 132.633C40.5964 132.498 40.3964 132.435 40.2308 132.445C40.0652 132.453 39.9301 132.517 39.8257 132.64C39.7238 132.76 39.6486 132.923 39.6002 133.127C39.5518 133.329 39.5276 133.556 39.5276 133.809V133.994C39.5276 134.25 39.5505 134.508 39.5964 134.767C39.6448 135.024 39.7199 135.272 39.8218 135.51C39.9263 135.75 40.0613 135.97 40.2269 136.172C40.3951 136.372 40.5976 136.54 40.8346 136.677Z" fill="#5E6675"/>
<path d="M44.8052 134.561V139.336L44.3505 139.073V134.299L44.8052 134.561ZM46.311 135.431V135.881L42.8983 133.91V133.46L46.311 135.431Z" fill="#5E6675"/>
<path d="M48.8944 139.495L47.4422 138.656L47.4345 138.211L48.6727 138.926C48.9224 139.07 49.13 139.159 49.2956 139.193C49.4638 139.225 49.5899 139.202 49.674 139.124C49.7606 139.048 49.8039 138.917 49.8039 138.731C49.8039 138.59 49.7784 138.452 49.7275 138.317C49.6791 138.183 49.6052 138.053 49.5058 137.928C49.409 137.805 49.2867 137.684 49.139 137.566C48.9937 137.447 48.8243 137.332 48.6307 137.22L47.5721 136.609V140.933L47.1173 140.671V135.896L48.6307 136.77C48.8829 136.916 49.1084 137.072 49.3071 137.24C49.5084 137.406 49.6804 137.582 49.823 137.767C49.9657 137.953 50.074 138.147 50.1479 138.352C50.2243 138.555 50.2625 138.765 50.2625 138.983C50.2625 139.13 50.2383 139.254 50.1899 139.356C50.1415 139.454 50.0702 139.528 49.9759 139.577C49.8842 139.624 49.7708 139.64 49.6358 139.627C49.5007 139.611 49.3453 139.56 49.1695 139.473L48.8944 139.495ZM48.8944 141.697L47.3008 140.777L47.4766 140.428L48.8944 141.247C49.1237 141.379 49.3186 141.458 49.4791 141.483C49.6396 141.508 49.7606 141.478 49.8421 141.392C49.9262 141.309 49.9683 141.172 49.9683 140.984C49.9683 140.808 49.9262 140.63 49.8421 140.452C49.7606 140.276 49.6396 140.106 49.4791 139.943C49.3186 139.777 49.1237 139.627 48.8944 139.495L47.8396 138.886L47.8473 138.449L49.2039 139.232L49.3988 139.513C49.6077 139.654 49.7886 139.823 49.9415 140.02C50.0944 140.217 50.2128 140.424 50.2969 140.64C50.381 140.853 50.423 141.058 50.423 141.256C50.423 141.473 50.3874 141.645 50.316 141.772C50.2447 141.895 50.1415 141.974 50.0065 142.008C49.874 142.04 49.7135 142.03 49.5249 141.977C49.3364 141.924 49.1262 141.831 48.8944 141.697Z" fill="#5E6675"/>
<path d="M53.0447 144.181C52.7746 144.025 52.5262 143.825 52.2994 143.579C52.0752 143.335 51.8791 143.06 51.7109 142.754C51.5453 142.449 51.4166 142.128 51.3249 141.79C51.2358 141.45 51.1912 141.109 51.1912 140.768V140.578C51.1912 140.21 51.2383 139.905 51.3326 139.663C51.4268 139.42 51.5568 139.24 51.7224 139.124C51.888 139.008 52.0765 138.955 52.288 138.965C52.502 138.974 52.7262 139.046 52.9606 139.182C53.223 139.333 53.4561 139.522 53.6599 139.749C53.8638 139.972 54.0345 140.222 54.172 140.499C54.3122 140.774 54.4179 141.066 54.4892 141.375C54.5606 141.681 54.5962 141.994 54.5962 142.315V142.637L51.4663 140.83V140.38L54.1415 141.924V141.862C54.1364 141.592 54.0892 141.314 54.0001 141.031C53.9134 140.745 53.7835 140.479 53.6103 140.232C53.437 139.985 53.2205 139.786 52.9606 139.636C52.767 139.524 52.5886 139.468 52.4256 139.468C52.265 139.47 52.1262 139.525 52.009 139.634C51.8943 139.741 51.8052 139.897 51.7415 140.102C51.6803 140.305 51.6498 140.552 51.6498 140.843V141.033C51.6498 141.298 51.6829 141.564 51.7491 141.831C51.8179 142.098 51.9147 142.354 52.0396 142.599C52.167 142.846 52.3173 143.069 52.4905 143.266C52.6638 143.463 52.8548 143.622 53.0638 143.742C53.3083 143.883 53.5249 143.957 53.7134 143.963C53.902 143.966 54.0714 143.897 54.2217 143.758L54.5083 144.179C54.4192 144.281 54.3071 144.357 54.172 144.409C54.0396 144.462 53.8803 144.473 53.6943 144.442C53.5083 144.411 53.2918 144.324 53.0447 144.181Z" fill="#5E6675"/>
<path d="M58.3185 144.499V144.949L55.865 143.533V143.082L58.3185 144.499ZM55.9835 141.015V145.79L55.5287 145.527V140.753L55.9835 141.015ZM58.6701 142.566V147.341L58.2115 147.076V142.301L58.6701 142.566Z" fill="#5E6675"/>
<path d="M62.721 147.041V147.491L60.2675 146.074V145.624L62.721 147.041ZM60.386 143.557V148.332L59.9312 148.069V143.294L60.386 143.557ZM63.0726 145.108V149.883L62.614 149.618V144.843L63.0726 145.108Z" fill="#5E6675"/>
<path d="M64.6433 147.745L65.9923 148.524C66.3184 148.712 66.5936 148.937 66.8178 149.199C67.042 149.458 67.2114 149.735 67.3261 150.03C67.4433 150.328 67.5018 150.62 67.5018 150.909C67.5018 151.126 67.4687 151.31 67.4025 151.46C67.3388 151.609 67.242 151.715 67.112 151.778C66.9847 151.843 66.8267 151.859 66.6382 151.827C66.4522 151.796 66.2369 151.71 65.9923 151.568L64.3528 150.622V145.847L64.8076 146.11V150.43L65.9923 151.114C66.2445 151.259 66.4484 151.327 66.6038 151.317C66.7592 151.304 66.8713 151.236 66.9401 151.114C67.0114 150.993 67.0471 150.842 67.0471 150.659C67.0471 150.48 67.0114 150.289 66.9401 150.086C66.8713 149.881 66.7592 149.683 66.6038 149.49C66.4484 149.294 66.2445 149.124 65.9923 148.978L64.6433 148.199V147.745ZM68.9044 148.475V153.25L68.4496 152.987V148.212L68.9044 148.475Z" fill="#5E6675"/>
<path d="M70.6623 153.409L72.898 150.781L73.3566 151.045V155.82L72.898 155.555V151.637L70.6623 154.265L70.2114 154.004V149.23L70.6623 149.49V153.409ZM72.4776 148.826L72.8674 149.051C72.8674 149.271 72.8228 149.441 72.7336 149.561C72.647 149.681 72.5209 149.742 72.3553 149.744C72.1897 149.745 71.9935 149.68 71.7668 149.549C71.4254 149.352 71.1553 149.091 70.9566 148.764C70.7604 148.439 70.6623 148.11 70.6623 147.778L71.0483 148.001C71.0483 148.204 71.1018 148.411 71.2088 148.623C71.3184 148.833 71.5044 149.014 71.7668 149.166C72.0215 149.313 72.2037 149.343 72.3133 149.256C72.4228 149.169 72.4776 149.026 72.4776 148.826Z" fill="#5E6675"/>
<path d="M19.0824 154.21V160.635L18.6123 160.363V153.938L19.0824 154.21ZM22.5677 156.222L20.0989 158.208L18.8951 157.513L18.8531 157.021L19.8238 157.581L21.9792 155.882L22.5677 156.222ZM22.1511 162.407L19.8008 157.974L20.0722 157.654L22.7358 162.744L22.1511 162.407Z" fill="#5E6675"/>
<path d="M23.8479 159.529V165.222L23.3893 164.957V158.347L23.8174 158.594L23.8479 159.529ZM26.7218 162.614V162.707C26.7218 163.063 26.6861 163.369 26.6148 163.625C26.5434 163.88 26.4403 164.078 26.3052 164.218C26.1727 164.356 26.0084 164.428 25.8122 164.432C25.6161 164.436 25.3931 164.367 25.1435 164.222C24.8963 164.08 24.6759 163.908 24.4823 163.708C24.2887 163.508 24.1218 163.287 23.9817 163.044C23.8441 162.8 23.7333 162.545 23.6492 162.279C23.5677 162.011 23.5103 161.737 23.4772 161.456V160.233C23.5154 159.967 23.5779 159.741 23.6645 159.556C23.7511 159.371 23.8619 159.232 23.997 159.139C24.1345 159.048 24.2976 159.011 24.4861 159.029C24.6747 159.046 24.89 159.125 25.132 159.265C25.3842 159.41 25.6084 159.597 25.8046 159.825C26.0033 160.052 26.1702 160.311 26.3052 160.604C26.4428 160.895 26.546 161.211 26.6148 161.55C26.6861 161.889 26.7218 162.243 26.7218 162.614ZM26.2632 162.442V162.349C26.2632 162.07 26.2377 161.796 26.1868 161.528C26.1383 161.262 26.0632 161.011 25.9613 160.776C25.8619 160.539 25.7345 160.326 25.5791 160.136C25.4263 159.948 25.2441 159.793 25.0326 159.671C24.8135 159.544 24.6263 159.479 24.4708 159.474C24.318 159.468 24.1906 159.505 24.0887 159.585C23.9868 159.661 23.9065 159.763 23.8479 159.891C23.7893 160.019 23.746 160.153 23.718 160.293V161.701C23.7664 161.952 23.8441 162.204 23.9511 162.457C24.0581 162.707 24.2008 162.941 24.3791 163.159C24.56 163.375 24.7804 163.558 25.0403 163.708C25.2492 163.829 25.4301 163.883 25.5829 163.872C25.7358 163.86 25.8619 163.793 25.9613 163.671C26.0632 163.55 26.1383 163.385 26.1868 163.174C26.2377 162.966 26.2632 162.721 26.2632 162.442Z" fill="#5E6675"/>
<path d="M30.253 166.228V163.766C30.253 163.539 30.2122 163.32 30.1307 163.108C30.0491 162.896 29.9294 162.701 29.7714 162.521C29.6135 162.342 29.4186 162.185 29.1867 162.051C28.9727 161.928 28.7816 161.862 28.6135 161.853C28.4479 161.842 28.3167 161.883 28.2199 161.974C28.1256 162.064 28.0785 162.197 28.0785 162.373L27.6199 162.104C27.6199 161.925 27.6581 161.773 27.7345 161.65C27.8109 161.526 27.9192 161.439 28.0594 161.387C28.1995 161.336 28.3664 161.328 28.56 161.363C28.7562 161.397 28.9714 161.481 29.2058 161.617C29.5014 161.787 29.7612 161.995 29.9854 162.239C30.2122 162.485 30.3893 162.759 30.5167 163.062C30.644 163.365 30.7077 163.69 30.7077 164.037V166.345C30.7077 166.51 30.7179 166.686 30.7383 166.875C30.7612 167.064 30.7931 167.228 30.8338 167.367V167.42L30.3485 167.139C30.3179 167.016 30.2937 166.869 30.2759 166.7C30.2606 166.53 30.253 166.372 30.253 166.228ZM30.36 164.366L30.3676 164.776L29.4695 164.258C29.2351 164.122 29.0249 164.026 28.839 163.969C28.6555 163.91 28.5001 163.891 28.3727 163.911C28.2453 163.929 28.1472 163.983 28.0785 164.072C28.0122 164.164 27.9791 164.292 27.9791 164.456C27.9791 164.627 28.016 164.804 28.0899 164.988C28.1664 165.173 28.2734 165.348 28.4109 165.513C28.5511 165.676 28.7167 165.813 28.9078 165.924C29.1625 166.071 29.3867 166.146 29.5804 166.149C29.7765 166.153 29.9383 166.104 30.0657 166.001C30.1931 165.898 30.2784 165.754 30.3218 165.571L30.5205 165.99C30.4874 166.118 30.4262 166.234 30.337 166.338C30.2504 166.441 30.137 166.52 29.9969 166.574C29.8568 166.626 29.6912 166.639 29.5001 166.614C29.3116 166.588 29.0976 166.505 28.8581 166.367C28.588 166.211 28.3523 166.016 28.1511 165.782C27.9523 165.55 27.7969 165.3 27.6848 165.032C27.5753 164.763 27.5205 164.499 27.5205 164.24C27.5205 164.005 27.5638 163.819 27.6504 163.684C27.7371 163.546 27.8619 163.459 28.025 163.424C28.1906 163.387 28.3893 163.402 28.6211 163.468C28.8555 163.533 29.1179 163.649 29.4084 163.816L30.36 164.366Z" fill="#5E6675"/>
<path d="M32.416 167.477L34.6516 164.849L35.1102 165.114V169.889L34.6516 169.624V165.705L32.416 168.333L31.965 168.073V163.298L32.416 163.558V167.477ZM34.2313 162.894L34.6211 163.119C34.6211 163.34 34.5765 163.51 34.4873 163.629C34.4007 163.75 34.2746 163.811 34.109 163.812C33.9434 163.814 33.7472 163.749 33.5204 163.618C33.179 163.421 32.909 163.159 32.7103 162.832C32.5141 162.507 32.416 162.179 32.416 161.846L32.802 162.069C32.802 162.272 32.8555 162.479 32.9625 162.691C33.072 162.902 33.258 163.082 33.5204 163.234C33.7752 163.381 33.9574 163.411 34.0669 163.324C34.1765 163.238 34.2313 163.094 34.2313 162.894Z" fill="#5E6675"/>
<path d="M39.1573 169.586V170.036L36.7039 168.62V168.17L39.1573 169.586ZM36.8223 166.102V170.877L36.3676 170.614V165.84L36.8223 166.102ZM39.5089 167.653V172.428L39.0503 172.163V167.389L39.5089 167.653Z" fill="#5E6675"/>
<path d="M41.221 172.56L43.4567 169.933L43.9153 170.197V174.972L43.4567 174.707V170.789L41.221 173.417L40.7701 173.156V168.382L41.221 168.642V172.56Z" fill="#5E6675"/>
<path d="M45.6235 175.102L47.8592 172.474L48.3178 172.739V177.514L47.8592 177.249V173.331L45.6235 175.958L45.1726 175.698V170.923L45.6235 171.184V175.102ZM47.4388 170.52L47.8286 170.745C47.8286 170.965 47.784 171.135 47.6948 171.254C47.6082 171.375 47.4821 171.436 47.3165 171.437C47.1509 171.439 46.9547 171.374 46.728 171.243C46.3866 171.046 46.1165 170.784 45.9178 170.458C45.7216 170.133 45.6235 169.804 45.6235 169.472L46.0095 169.694C46.0095 169.897 46.063 170.105 46.17 170.317C46.2796 170.527 46.4655 170.708 46.728 170.859C46.9827 171.006 47.1649 171.037 47.2745 170.95C47.384 170.863 47.4388 170.72 47.4388 170.52Z" fill="#5E6675"/>
<path d="M52.9801 179.839C53.1738 179.951 53.3547 180.014 53.5228 180.029C53.6935 180.042 53.8336 179.998 53.9432 179.897C54.0553 179.794 54.119 179.626 54.1343 179.394L54.5699 179.645C54.5572 179.941 54.4769 180.165 54.3292 180.318C54.1839 180.47 53.9929 180.545 53.7559 180.543C53.5215 180.54 53.2629 180.457 52.9801 180.294C52.6922 180.128 52.4375 179.92 52.2158 179.672C51.9967 179.425 51.8133 179.151 51.6655 178.851C51.5177 178.548 51.4056 178.23 51.3292 177.898C51.2553 177.564 51.2184 177.229 51.2184 176.894V176.709C51.2184 176.373 51.2553 176.083 51.3292 175.837C51.4056 175.59 51.5177 175.402 51.6655 175.272C51.8133 175.14 51.9967 175.077 52.2158 175.082C52.4349 175.088 52.6884 175.174 52.9763 175.341C53.2719 175.511 53.5368 175.733 53.7712 176.007C54.0082 176.282 54.1967 176.586 54.3368 176.92C54.4795 177.256 54.5572 177.601 54.5699 177.955L54.1343 177.704C54.1215 177.44 54.0629 177.186 53.9585 176.94C53.854 176.695 53.7164 176.472 53.5457 176.274C53.375 176.075 53.1852 175.916 52.9763 175.795C52.7419 175.66 52.5419 175.597 52.3763 175.608C52.2107 175.615 52.0757 175.68 51.9712 175.802C51.8693 175.922 51.7942 176.085 51.7458 176.289C51.6973 176.491 51.6731 176.718 51.6731 176.971V177.156C51.6731 177.412 51.6961 177.67 51.7419 177.929C51.7903 178.186 51.8655 178.434 51.9674 178.672C52.0719 178.912 52.2069 179.133 52.3725 179.334C52.5407 179.534 52.7432 179.703 52.9801 179.839Z" fill="#5E6675"/>
<path d="M55.9419 178.059V183.751L55.4833 183.487V176.876L55.9113 177.123L55.9419 178.059ZM58.8158 181.143V181.236C58.8158 181.592 58.7801 181.898 58.7087 182.154C58.6374 182.41 58.5342 182.608 58.3992 182.748C58.2667 182.886 58.1024 182.957 57.9062 182.962C57.71 182.966 57.4871 182.896 57.2374 182.752C56.9903 182.609 56.7699 182.438 56.5763 182.238C56.3827 182.038 56.2158 181.816 56.0757 181.574C55.9381 181.33 55.8272 181.074 55.7432 180.808C55.6616 180.54 55.6043 180.266 55.5712 179.985V178.763C55.6094 178.496 55.6718 178.271 55.7585 178.085C55.8451 177.9 55.9559 177.761 56.0909 177.668C56.2285 177.577 56.3916 177.54 56.5801 177.558C56.7686 177.576 56.9839 177.654 57.226 177.794C57.4782 177.94 57.7024 178.127 57.8986 178.355C58.0973 178.581 58.2642 178.841 58.3992 179.133C58.5368 179.425 58.64 179.74 58.7087 180.08C58.7801 180.418 58.8158 180.773 58.8158 181.143ZM58.3572 180.971V180.879C58.3572 180.599 58.3317 180.326 58.2807 180.058C58.2323 179.792 58.1572 179.541 58.0553 179.306C57.9559 179.069 57.8285 178.855 57.6731 178.666C57.5202 178.477 57.3381 178.322 57.1266 178.2C56.9075 178.074 56.7202 178.008 56.5648 178.004C56.412 177.998 56.2846 178.035 56.1827 178.114C56.0807 178.191 56.0005 178.293 55.9419 178.421C55.8833 178.549 55.84 178.683 55.812 178.822V180.23C55.8604 180.482 55.9381 180.734 56.0451 180.987C56.1521 181.237 56.2948 181.471 56.4731 181.688C56.654 181.905 56.8744 182.088 57.1342 182.238C57.3432 182.358 57.524 182.413 57.6769 182.401C57.8298 182.389 57.9559 182.322 58.0553 182.2C58.1572 182.08 58.2323 181.914 58.2807 181.704C58.3317 181.495 58.3572 181.251 58.3572 180.971Z" fill="#5E6675"/>
<path d="M59.5801 181.704V181.558C59.5801 181.211 59.6234 180.915 59.71 180.671C59.7966 180.427 59.9202 180.244 60.0807 180.122C60.2438 180.001 60.4387 179.948 60.6654 179.961C60.8922 179.971 61.1444 180.056 61.4221 180.217C61.7023 180.379 61.9559 180.585 62.1826 180.837C62.4093 181.085 62.6043 181.364 62.7673 181.673C62.9304 181.982 63.0552 182.308 63.1418 182.653C63.2284 182.997 63.2718 183.343 63.2718 183.69V183.835C63.2718 184.182 63.2284 184.478 63.1418 184.722C63.0552 184.963 62.9304 185.144 62.7673 185.265C62.6068 185.387 62.4132 185.443 62.1864 185.433C61.9597 185.419 61.7074 185.333 61.4297 185.172C61.1495 185.011 60.896 184.805 60.6692 184.557C60.4425 184.305 60.2476 184.025 60.0845 183.716C59.9215 183.407 59.7966 183.082 59.71 182.741C59.6234 182.397 59.5801 182.051 59.5801 181.704ZM60.0348 181.821V181.966C60.0348 182.228 60.0654 182.495 60.1266 182.765C60.1877 183.033 60.2769 183.292 60.3941 183.542C60.5113 183.789 60.6565 184.014 60.8297 184.217C61.003 184.42 61.203 184.587 61.4297 184.718C61.6539 184.847 61.8514 184.91 62.0221 184.905C62.1953 184.902 62.3406 184.845 62.4578 184.733C62.575 184.619 62.6629 184.462 62.7214 184.263C62.7826 184.063 62.8132 183.832 62.8132 183.57V183.425C62.8132 183.166 62.7826 182.903 62.7214 182.635C62.6629 182.369 62.5737 182.11 62.4539 181.858C62.3367 181.608 62.1915 181.38 62.0183 181.174C61.845 180.968 61.6463 180.801 61.4221 180.671C61.1979 180.542 60.9992 180.48 60.8259 180.486C60.6552 180.493 60.51 180.554 60.3903 180.667C60.2731 180.782 60.1839 180.938 60.1227 181.135C60.0641 181.333 60.0348 181.562 60.0348 181.821Z" fill="#5E6675"/>
<path d="M64.7049 182.2V186.975L64.2463 186.71V181.936L64.7049 182.2ZM67.4259 183.771L65.5303 185.263L64.5444 184.694L64.4947 184.193L65.3354 184.678L66.8488 183.438L67.4259 183.771ZM67.0131 188.308L65.2896 185.053L65.58 184.815L67.6169 188.656L67.0131 188.308Z" fill="#5E6675"/>
<path d="M20.4884 194.98L18.9024 194.064V193.601L20.4884 194.517C20.8196 194.708 21.0884 194.801 21.2947 194.797C21.5037 194.791 21.6552 194.708 21.7495 194.547C21.8463 194.389 21.8947 194.175 21.8947 193.908C21.8947 193.646 21.8463 193.377 21.7495 193.1C21.6552 192.825 21.5037 192.561 21.2947 192.308C21.0884 192.053 20.8196 191.831 20.4884 191.639L19.0667 190.819V196.776L18.5967 196.505V190.079L20.4884 191.172C20.896 191.407 21.2387 191.686 21.5164 192.008C21.7966 192.331 22.0081 192.679 22.1508 193.049C22.2935 193.42 22.3648 193.794 22.3648 194.17C22.3648 194.564 22.2935 194.863 22.1508 195.066C22.0081 195.266 21.7979 195.361 21.5202 195.351C21.2425 195.34 20.8986 195.217 20.4884 194.98Z" fill="#5E6675"/>
<path d="M24.8565 200.207C24.5864 200.051 24.338 199.85 24.1113 199.605C23.8871 199.36 23.6909 199.085 23.5227 198.779C23.3571 198.475 23.2285 198.153 23.1368 197.815C23.0476 197.475 23.003 197.135 23.003 196.794V196.604C23.003 196.236 23.0501 195.931 23.1444 195.688C23.2387 195.445 23.3686 195.266 23.5342 195.15C23.6998 195.034 23.8884 194.981 24.0998 194.991C24.3138 195 24.538 195.072 24.7724 195.207C25.0348 195.359 25.268 195.548 25.4718 195.774C25.6756 195.998 25.8463 196.248 25.9839 196.524C26.124 196.799 26.2297 197.091 26.3011 197.4C26.3724 197.706 26.4081 198.02 26.4081 198.34V198.662L23.2782 196.855V196.405L25.9533 197.95V197.888C25.9482 197.617 25.9011 197.34 25.8119 197.056C25.7253 196.771 25.5953 196.505 25.4221 196.257C25.2488 196.01 25.0323 195.812 24.7724 195.662C24.5788 195.55 24.4004 195.494 24.2374 195.494C24.0769 195.495 23.938 195.551 23.8208 195.659C23.7062 195.767 23.617 195.923 23.5533 196.127C23.4922 196.33 23.4616 196.577 23.4616 196.869V197.058C23.4616 197.323 23.4947 197.589 23.561 197.857C23.6298 198.123 23.7266 198.379 23.8514 198.625C23.9788 198.872 24.1291 199.094 24.3024 199.291C24.4756 199.488 24.6667 199.647 24.8756 199.768C25.1202 199.909 25.3367 199.983 25.5253 199.988C25.7138 199.991 25.8832 199.923 26.0336 199.783L26.3202 200.205C26.231 200.306 26.1189 200.383 25.9839 200.434C25.8514 200.487 25.6922 200.498 25.5062 200.467C25.3202 200.436 25.1036 200.35 24.8565 200.207Z" fill="#5E6675"/>
<path d="M28.7393 200.048L28.0743 199.664V199.307L28.701 199.669C28.9558 199.816 29.1584 199.899 29.3087 199.918C29.459 199.934 29.5673 199.898 29.6335 199.81C29.6998 199.721 29.7329 199.592 29.7329 199.421C29.7329 199.257 29.6972 199.086 29.6259 198.91C29.5571 198.734 29.4463 198.562 29.2934 198.391C29.1405 198.22 28.938 198.062 28.6858 197.917C28.4921 197.805 28.3138 197.742 28.1507 197.727C27.9877 197.712 27.8565 197.745 27.7571 197.826C27.6603 197.909 27.6119 198.041 27.6119 198.223L27.1533 197.959C27.1533 197.676 27.2246 197.473 27.3673 197.35C27.51 197.226 27.6972 197.175 27.9291 197.197C28.1635 197.221 28.4157 197.311 28.6858 197.467C28.9202 197.602 29.1303 197.753 29.3163 197.919C29.5023 198.085 29.6603 198.263 29.7902 198.453C29.9201 198.643 30.0195 198.843 30.0883 199.053C30.1571 199.26 30.1915 199.473 30.1915 199.691C30.1915 199.855 30.1584 199.991 30.0921 200.097C30.0284 200.204 29.9342 200.278 29.8093 200.317C29.687 200.355 29.5354 200.353 29.3545 200.311C29.1762 200.269 28.9711 200.182 28.7393 200.048ZM28.0743 199.421L28.7393 199.805C28.994 199.952 29.217 200.109 29.408 200.275C29.5991 200.439 29.7584 200.61 29.8857 200.789C30.0131 200.969 30.1074 201.154 30.1685 201.345C30.2322 201.535 30.2641 201.73 30.2641 201.93C30.2641 202.148 30.2259 202.321 30.1494 202.451C30.0756 202.582 29.9685 202.667 29.8284 202.707C29.6883 202.746 29.5214 202.741 29.3278 202.691C29.1342 202.641 28.9202 202.549 28.6858 202.413C28.4335 202.268 28.1839 202.072 27.9367 201.826C27.6921 201.582 27.4896 201.306 27.3291 200.999C27.1686 200.692 27.0883 200.372 27.0883 200.039L27.5431 200.302C27.5431 200.484 27.5928 200.681 27.6921 200.891C27.7915 201.101 27.9265 201.301 28.0972 201.491C28.2705 201.682 28.4667 201.841 28.6858 201.968C28.9329 202.11 29.1393 202.19 29.3049 202.206C29.4705 202.219 29.5953 202.179 29.6794 202.087C29.7635 201.994 29.8055 201.857 29.8055 201.674C29.8055 201.459 29.7647 201.262 29.6832 201.083C29.6042 200.905 29.4832 200.738 29.3201 200.582C29.1571 200.426 28.9507 200.276 28.701 200.132L28.0743 199.77V199.421Z" fill="#5E6675"/>
<path d="M32.5036 204.057L33.7914 200.503L34.2844 200.787L32.5341 205.319C32.4985 205.407 32.4526 205.502 32.3966 205.602C32.343 205.703 32.2717 205.788 32.1825 205.858C32.0959 205.931 31.9864 205.968 31.8539 205.968C31.7239 205.972 31.5647 205.92 31.3762 205.811C31.3278 205.783 31.2654 205.74 31.1889 205.681C31.115 205.627 31.0615 205.584 31.0284 205.553L31.0246 205.105C31.0526 205.13 31.0934 205.161 31.1469 205.198C31.2004 205.235 31.2373 205.259 31.2577 205.271C31.4233 205.366 31.5622 205.414 31.6743 205.414C31.7889 205.416 31.8845 205.374 31.9609 205.288C32.0373 205.206 32.1048 205.086 32.1634 204.929L32.5036 204.057ZM31.2997 199.064L32.6182 203.925L32.7405 204.547L32.408 204.571L30.8029 198.777L31.2997 199.064Z" fill="#5E6675"/>
<path d="M37.6436 202.727V203.186L35.5494 201.976V201.518L37.6436 202.727ZM38.0143 202.941V207.715L37.5596 207.453V202.678L38.0143 202.941ZM35.4271 201.447L35.8819 201.709L35.7902 203.894C35.7749 204.247 35.7494 204.553 35.7137 204.812C35.6806 205.072 35.6347 205.285 35.5761 205.452C35.5175 205.615 35.4424 205.733 35.3507 205.807C35.2615 205.882 35.1532 205.913 35.0258 205.902C34.8984 205.887 34.7494 205.83 34.5787 205.732L34.4067 205.632V205.156L34.5481 205.233C34.6577 205.29 34.7532 205.319 34.8347 205.319C34.9188 205.321 34.9902 205.287 35.0488 205.218C35.1099 205.15 35.1596 205.043 35.1978 204.898C35.2386 204.754 35.2704 204.568 35.2933 204.34C35.3188 204.11 35.3379 203.834 35.3507 203.512L35.4271 201.447Z" fill="#5E6675"/>
<path d="M39.5888 205.58L40.9379 206.358C41.264 206.547 41.5391 206.772 41.7633 207.034C41.9875 207.292 42.157 207.57 42.2716 207.865C42.3888 208.162 42.4474 208.455 42.4474 208.744C42.4474 208.961 42.4143 209.145 42.3481 209.295C42.2844 209.444 42.1875 209.55 42.0576 209.613C41.9302 209.678 41.7723 209.694 41.5837 209.661C41.3977 209.63 41.1825 209.544 40.9379 209.403L39.2984 208.457V203.682L39.7532 203.945V208.265L40.9379 208.949C41.1901 209.094 41.3939 209.162 41.5493 209.152C41.7047 209.138 41.8168 209.071 41.8856 208.949C41.957 208.828 41.9926 208.677 41.9926 208.494C41.9926 208.315 41.957 208.124 41.8856 207.921C41.8168 207.716 41.7047 207.517 41.5493 207.325C41.3939 207.129 41.1901 206.959 40.9379 206.813L39.5888 206.034V205.58Z" fill="#5E6675"/>
<path d="M44.6296 206.76V211.535L44.1748 211.272V206.497L44.6296 206.76ZM46.1353 207.629V208.079L42.7226 206.109V205.659L46.1353 207.629Z" fill="#5E6675"/>
<path d="M49.3454 213.401V210.939C49.3454 210.712 49.3047 210.493 49.2231 210.281C49.1416 210.07 49.0219 209.874 48.8639 209.694C48.706 209.515 48.5111 209.358 48.2792 209.225C48.0652 209.101 47.8741 209.035 47.706 209.026C47.5404 209.016 47.4092 209.056 47.3123 209.147C47.2181 209.237 47.1709 209.37 47.1709 209.547L46.7123 209.277C46.7123 209.098 46.7506 208.947 46.827 208.823C46.9034 208.699 47.0117 208.612 47.1518 208.56C47.292 208.509 47.4588 208.501 47.6525 208.536C47.8486 208.57 48.0639 208.655 48.2983 208.79C48.5939 208.96 48.8537 209.168 49.0779 209.412C49.3047 209.658 49.4817 209.932 49.6091 210.235C49.7365 210.538 49.8002 210.863 49.8002 211.21V213.518C49.8002 213.683 49.8104 213.859 49.8308 214.048C49.8537 214.237 49.8856 214.402 49.9263 214.54V214.593L49.441 214.313C49.4104 214.189 49.3862 214.043 49.3684 213.873C49.3531 213.703 49.3454 213.545 49.3454 213.401ZM49.4524 211.539L49.4601 211.949L48.562 211.431C48.3276 211.296 48.1174 211.199 47.9314 211.142C47.748 211.083 47.5926 211.064 47.4652 211.085C47.3378 211.102 47.2397 211.156 47.1709 211.246C47.1047 211.337 47.0716 211.465 47.0716 211.63C47.0716 211.8 47.1085 211.977 47.1824 212.161C47.2588 212.347 47.3658 212.522 47.5034 212.686C47.6435 212.85 47.8091 212.986 48.0002 213.097C48.255 213.244 48.4792 213.319 48.6728 213.322C48.869 213.326 49.0308 213.277 49.1582 213.174C49.2856 213.071 49.3709 212.928 49.4142 212.744L49.613 213.163C49.5798 213.291 49.5187 213.407 49.4295 213.512C49.3429 213.615 49.2295 213.693 49.0894 213.748C48.9493 213.799 48.7837 213.812 48.5926 213.787C48.404 213.761 48.19 213.679 47.9505 213.54C47.6805 213.384 47.4448 213.189 47.2435 212.956C47.0448 212.723 46.8894 212.473 46.7773 212.205C46.6678 211.936 46.613 211.672 46.613 211.413C46.613 211.178 46.6563 210.993 46.7429 210.857C46.8295 210.719 46.9544 210.632 47.1174 210.597C47.283 210.56 47.4818 210.575 47.7136 210.641C47.948 210.706 48.2104 210.822 48.5009 210.99L49.4524 211.539Z" fill="#5E6675"/>
<path d="M52.4257 211.261V216.036L51.9709 215.773V210.998L52.4257 211.261ZM53.9314 212.13V212.58L50.5187 210.61V210.16L53.9314 212.13Z" fill="#5E6675"/>
<path d="M58.0282 216.958L57.3632 216.574V216.217L57.9899 216.578C58.2447 216.726 58.4473 216.809 58.5976 216.828C58.7479 216.844 58.8562 216.808 58.9224 216.72C58.9887 216.631 59.0218 216.502 59.0218 216.331C59.0218 216.167 58.9861 215.996 58.9148 215.819C58.846 215.644 58.7352 215.472 58.5823 215.301C58.4294 215.13 58.2269 214.972 57.9747 214.827C57.781 214.715 57.6027 214.652 57.4396 214.637C57.2766 214.622 57.1454 214.655 57.046 214.736C56.9492 214.819 56.9008 214.951 56.9008 215.133L56.4422 214.869C56.4422 214.586 56.5135 214.383 56.6562 214.26C56.7989 214.136 56.9861 214.085 57.218 214.107C57.4524 214.131 57.7046 214.221 57.9747 214.376C58.2091 214.512 58.4192 214.663 58.6052 214.829C58.7912 214.995 58.9492 215.173 59.0791 215.363C59.209 215.553 59.3084 215.753 59.3772 215.963C59.446 216.17 59.4804 216.383 59.4804 216.601C59.4804 216.765 59.4473 216.901 59.381 217.007C59.3173 217.114 59.2231 217.187 59.0982 217.227C58.9759 217.265 58.8243 217.263 58.6434 217.221C58.4651 217.179 58.26 217.092 58.0282 216.958ZM57.3632 216.331L58.0282 216.715C58.2829 216.862 58.5059 217.019 58.6969 217.185C58.888 217.349 59.0473 217.52 59.1746 217.699C59.302 217.879 59.3963 218.064 59.4574 218.255C59.5211 218.445 59.553 218.64 59.553 218.84C59.553 219.058 59.5148 219.231 59.4383 219.361C59.3645 219.492 59.2574 219.577 59.1173 219.617C58.9772 219.656 58.8103 219.651 58.6167 219.601C58.4231 219.551 58.2091 219.459 57.9747 219.323C57.7224 219.178 57.4728 218.982 57.2256 218.736C56.981 218.492 56.7785 218.216 56.618 217.909C56.4575 217.602 56.3772 217.282 56.3772 216.949L56.832 217.212C56.832 217.394 56.8817 217.591 56.981 217.801C57.0804 218.011 57.2154 218.211 57.3861 218.401C57.5594 218.592 57.7556 218.751 57.9747 218.878C58.2218 219.02 58.4282 219.1 58.5938 219.116C58.7594 219.129 58.8842 219.089 58.9683 218.997C59.0524 218.904 59.0944 218.767 59.0944 218.584C59.0944 218.369 59.0536 218.172 58.9721 217.993C58.8931 217.815 58.7721 217.648 58.609 217.492C58.446 217.336 58.2396 217.186 57.9899 217.042L57.3632 216.68V216.331Z" fill="#5E6675"/>
<path d="M63.0803 221.331V218.869C63.0803 218.642 63.0396 218.423 62.9581 218.211C62.8765 217.999 62.7568 217.804 62.5988 217.624C62.4409 217.445 62.246 217.288 62.0141 217.154C61.8001 217.031 61.609 216.965 61.4409 216.956C61.2753 216.945 61.1441 216.986 61.0472 217.077C60.953 217.167 60.9058 217.3 60.9058 217.477L60.4472 217.207C60.4472 217.028 60.4855 216.876 60.5619 216.753C60.6383 216.629 60.7466 216.542 60.8867 216.49C61.0269 216.439 61.1937 216.431 61.3874 216.466C61.5835 216.5 61.7988 216.584 62.0332 216.72C62.3288 216.89 62.5886 217.098 62.8128 217.342C63.0396 217.588 63.2166 217.862 63.344 218.165C63.4714 218.468 63.5351 218.793 63.5351 219.14V221.448C63.5351 221.613 63.5453 221.789 63.5657 221.978C63.5886 222.167 63.6205 222.331 63.6612 222.47V222.523L63.1759 222.242C63.1453 222.119 63.1211 221.972 63.1033 221.803C63.088 221.633 63.0803 221.475 63.0803 221.331ZM63.1873 219.469L63.195 219.879L62.2969 219.361C62.0625 219.225 61.8523 219.129 61.6663 219.072C61.4829 219.013 61.3275 218.994 61.2001 219.014C61.0727 219.032 60.9746 219.086 60.9058 219.175C60.8396 219.267 60.8065 219.395 60.8065 219.559C60.8065 219.73 60.8434 219.907 60.9173 220.091C60.9937 220.276 61.1007 220.451 61.2383 220.616C61.3784 220.78 61.5441 220.916 61.7351 221.027C61.9899 221.174 62.2141 221.249 62.4077 221.252C62.6039 221.256 62.7657 221.207 62.8931 221.104C63.0205 221.001 63.1058 220.857 63.1491 220.674L63.3479 221.093C63.3147 221.221 63.2536 221.337 63.1644 221.441C63.0778 221.544 62.9644 221.623 62.8243 221.678C62.6842 221.729 62.5186 221.742 62.3275 221.717C62.139 221.691 61.9249 221.608 61.6855 221.47C61.4154 221.314 61.1797 221.119 60.9785 220.885C60.7797 220.653 60.6243 220.403 60.5122 220.135C60.4027 219.866 60.3479 219.602 60.3479 219.343C60.3479 219.108 60.3912 218.922 60.4778 218.787C60.5644 218.649 60.6893 218.562 60.8523 218.527C61.0179 218.49 61.2167 218.505 61.4485 218.571C61.6829 218.636 61.9453 218.752 62.2358 218.919L63.1873 219.469Z" fill="#5E6675"/>
<path d="M65.4956 218.807L65.9504 219.07L65.8816 220.751C65.8638 221.199 65.8192 221.572 65.7478 221.869C65.679 222.165 65.5937 222.403 65.4918 222.582C65.3899 222.759 65.2778 222.893 65.1555 222.984C65.0357 223.073 64.9134 223.137 64.7886 223.173L64.5402 223.03L64.5478 222.584L64.6625 222.646C64.7364 222.586 64.8128 222.514 64.8918 222.43C64.9733 222.345 65.051 222.228 65.1249 222.079C65.1988 221.931 65.2625 221.729 65.316 221.475C65.3695 221.22 65.4052 220.891 65.423 220.486L65.4956 218.807ZM65.6446 218.893L67.9338 220.215V224.989L67.479 224.727V220.446L65.6446 219.387V218.893ZM64.3644 222.474L68.3656 224.784V226.642L67.9071 226.377V224.974L64.8001 223.18V224.583L64.3644 224.332V222.474Z" fill="#5E6675"/>
<path d="M71.7631 226.344V223.882C71.7631 223.655 71.7223 223.436 71.6408 223.224C71.5592 223.012 71.4395 222.817 71.2815 222.637C71.1236 222.458 70.9287 222.301 70.6968 222.167C70.4828 222.044 70.2917 221.978 70.1236 221.969C69.958 221.958 69.8268 221.999 69.73 222.09C69.6357 222.18 69.5886 222.313 69.5886 222.489L69.13 222.22C69.13 222.041 69.1682 221.889 69.2446 221.766C69.321 221.642 69.4293 221.555 69.5695 221.503C69.7096 221.452 69.8765 221.444 70.0701 221.479C70.2663 221.513 70.4815 221.597 70.7159 221.733C71.0115 221.903 71.2714 222.111 71.4956 222.355C71.7223 222.601 71.8994 222.875 72.0268 223.178C72.1541 223.481 72.2178 223.806 72.2178 224.153V226.461C72.2178 226.626 72.228 226.802 72.2484 226.991C72.2713 227.18 72.3032 227.344 72.344 227.483V227.536L71.8586 227.255C71.828 227.132 71.8038 226.985 71.786 226.816C71.7707 226.646 71.7631 226.488 71.7631 226.344ZM71.8701 224.482L71.8777 224.892L70.9796 224.374C70.7452 224.238 70.5351 224.142 70.3491 224.085C70.1656 224.026 70.0102 224.007 69.8828 224.027C69.7554 224.045 69.6574 224.099 69.5886 224.188C69.5223 224.28 69.4892 224.408 69.4892 224.572C69.4892 224.743 69.5261 224.92 69.6 225.104C69.6765 225.289 69.7835 225.464 69.921 225.629C70.0612 225.792 70.2268 225.929 70.4179 226.04C70.6726 226.187 70.8968 226.262 71.0905 226.265C71.2866 226.269 71.4484 226.22 71.5758 226.117C71.7032 226.014 71.7885 225.87 71.8319 225.687L72.0306 226.106C71.9975 226.234 71.9363 226.35 71.8471 226.454C71.7605 226.557 71.6471 226.636 71.507 226.69C71.3669 226.742 71.2013 226.755 71.0102 226.73C70.8217 226.704 70.6077 226.621 70.3682 226.483C70.0981 226.327 69.8624 226.132 69.6612 225.898C69.4625 225.666 69.307 225.416 69.1949 225.148C69.0854 224.879 69.0306 224.615 69.0306 224.356C69.0306 224.121 69.0739 223.935 69.1605 223.8C69.2472 223.662 69.372 223.575 69.5351 223.54C69.7007 223.503 69.8994 223.518 70.1312 223.584C70.3656 223.649 70.628 223.765 70.9185 223.932L71.8701 224.482Z" fill="#5E6675"/>
<path d="M76.3834 225.093V229.868L75.9286 229.605V224.83L76.3834 225.093ZM76.2267 227.169V227.624C76.1095 227.621 75.9745 227.605 75.8216 227.575C75.6713 227.547 75.5121 227.504 75.3439 227.445C75.1783 227.385 75.0127 227.307 74.8471 227.211C74.5057 227.014 74.2165 226.79 73.9796 226.538C73.7452 226.288 73.5681 225.998 73.4484 225.667C73.3287 225.333 73.2688 224.945 73.2688 224.504V223.29L73.7236 223.553V224.766C73.7236 225.105 73.7643 225.396 73.8458 225.64C73.9274 225.881 74.0509 226.091 74.2165 226.269C74.3821 226.447 74.5923 226.61 74.8471 226.757C75.0229 226.852 75.1974 226.932 75.3707 226.997C75.5439 227.059 75.7044 227.105 75.8522 227.134C76.0025 227.162 76.1274 227.174 76.2267 227.169Z" fill="#5E6675"/>
<path d="M78.0917 229.998L80.3273 227.37L80.7859 227.635V232.41L80.3273 232.145V228.226L78.0917 230.854L77.6407 230.594V225.819L78.0917 226.079V229.998Z" fill="#5E6675"/>
<path d="M25.5144 42.7238V43.5181L19.7164 40.1706V39.3763L25.5144 42.7238ZM19.9064 34.5462V45.5606L19.1006 45.0954V34.0809L19.9064 34.5462ZM26.1629 38.1584V49.1728L25.3571 48.7076V37.6931L26.1629 38.1584Z" fill="black"/>
<path d="M27.9842 46.2603V46.0107C27.9842 45.4156 28.0585 44.9087 28.207 44.4902C28.3555 44.0716 28.5673 43.7576 28.8424 43.5483C29.122 43.3416 29.4561 43.2495 29.8448 43.2722C30.2335 43.2899 30.6659 43.4361 31.142 43.711C31.6224 43.9884 32.057 44.3426 32.4457 44.7738C32.8344 45.2 33.1685 45.6778 33.448 46.2074C33.7276 46.7369 33.9416 47.2967 34.0901 47.8868C34.2386 48.4768 34.3128 49.0694 34.3128 49.6645V49.9142C34.3128 50.5093 34.2386 51.0161 34.0901 51.4347C33.9416 51.8482 33.7276 52.1584 33.448 52.3652C33.1729 52.5745 32.8409 52.6703 32.4522 52.6526C32.0635 52.6299 31.6311 52.4812 31.1551 52.2063C30.6746 51.9289 30.2401 51.5772 29.8513 51.151C29.4626 50.7198 29.1285 50.2394 28.849 49.7099C28.5695 49.1804 28.3555 48.6231 28.207 48.0381C28.0585 47.448 27.9842 46.8554 27.9842 46.2603ZM28.7638 46.4608V46.7104C28.7638 47.1593 28.8162 47.6157 28.9211 48.0797C29.0259 48.5386 29.1787 48.9824 29.3797 49.4111C29.5806 49.8347 29.8295 50.2205 30.1265 50.5685C30.4235 50.9165 30.7664 51.2027 31.1551 51.4271C31.5394 51.649 31.8779 51.7562 32.1705 51.7486C32.4675 51.7436 32.7165 51.6452 32.9174 51.4536C33.1183 51.2569 33.269 50.9884 33.3694 50.6479C33.4742 50.305 33.5267 49.9091 33.5267 49.4603V49.2106C33.5267 48.7668 33.4742 48.3155 33.3694 47.8565C33.269 47.4001 33.1161 46.9563 32.9108 46.5251C32.7099 46.0964 32.461 45.7056 32.164 45.3526C31.867 44.9995 31.5263 44.7121 31.142 44.4902C30.7576 44.2683 30.4169 44.1624 30.12 44.1724C29.8273 44.185 29.5784 44.2884 29.3731 44.4826C29.1722 44.6793 29.0193 44.9466 28.9145 45.2845C28.8141 45.6249 28.7638 46.017 28.7638 46.4608Z" fill="black"/>
<path d="M39.0691 52.8493L36.5796 51.412L36.5665 50.6479L38.6891 51.8735C39.1171 52.1206 39.4731 52.2731 39.757 52.3311C40.0452 52.3866 40.2614 52.3475 40.4056 52.2139C40.5541 52.0827 40.6283 51.8583 40.6283 51.5406C40.6283 51.2985 40.5846 51.0615 40.4973 50.8295C40.4143 50.6 40.2876 50.3781 40.1173 50.1638C39.9513 49.952 39.7417 49.7452 39.4884 49.5435C39.2394 49.3392 38.949 49.1413 38.6171 48.9496L36.8023 47.9019V55.3155L36.0227 54.8653V46.6802L38.6171 48.178C39.0494 48.4277 39.436 48.6962 39.7766 48.9837C40.1217 49.2686 40.4165 49.57 40.6611 49.8877C40.9057 50.2054 41.0913 50.5395 41.2179 50.89C41.349 51.238 41.4145 51.5986 41.4145 51.9718C41.4145 52.224 41.373 52.437 41.29 52.611C41.207 52.78 41.0847 52.9061 40.9231 52.9893C40.7659 53.07 40.5715 53.099 40.3401 53.0763C40.1086 53.0485 39.8422 52.9603 39.5408 52.8115L39.0691 52.8493ZM39.0691 56.6242L36.3372 55.0469L36.6385 54.4493L39.0691 55.8526C39.4622 56.0795 39.7963 56.2144 40.0715 56.2573C40.3466 56.3001 40.5541 56.2485 40.6938 56.1022C40.838 55.9585 40.91 55.7252 40.91 55.4025C40.91 55.0999 40.838 54.796 40.6938 54.4909C40.5541 54.1883 40.3466 53.897 40.0715 53.6171C39.7963 53.3322 39.4622 53.0763 39.0691 52.8493L37.2609 51.8054L37.274 51.0564L39.5998 52.3992L39.9339 52.8796C40.292 53.1217 40.6021 53.4116 40.8642 53.7495C41.1262 54.0874 41.3293 54.4417 41.4734 54.8124C41.6176 55.178 41.6896 55.5298 41.6896 55.8677C41.6896 56.2409 41.6285 56.5359 41.5062 56.7528C41.3839 56.9646 41.207 57.0995 40.9755 57.1575C40.7484 57.213 40.4733 57.1953 40.1501 57.1045C39.8269 57.0138 39.4665 56.8536 39.0691 56.6242Z" fill="black"/>
<path d="M47.7562 60.1721V55.9509C47.7562 55.5626 47.6863 55.1869 47.5465 54.8237C47.4068 54.4606 47.2015 54.1253 46.9307 53.8176C46.6599 53.51 46.3258 53.2414 45.9284 53.012C45.5615 52.8001 45.2339 52.6867 44.9457 52.6715C44.6618 52.6539 44.4368 52.7232 44.2709 52.8796C44.1093 53.0334 44.0285 53.2616 44.0285 53.5642L43.2423 53.1027C43.2423 52.7951 43.3078 52.5354 43.4388 52.3236C43.5699 52.1117 43.7555 51.9617 43.9957 51.8735C44.2359 51.7852 44.522 51.7713 44.8539 51.8318C45.1902 51.8898 45.5593 52.0348 45.9611 52.2668C46.4678 52.5593 46.9132 52.9149 47.2976 53.3335C47.6863 53.7546 47.9899 54.2249 48.2082 54.7443C48.4266 55.2638 48.5358 55.821 48.5358 56.4161V60.3726C48.5358 60.655 48.5533 60.9576 48.5882 61.2803C48.6275 61.6056 48.6821 61.8868 48.752 62.1238V62.2146L47.92 61.7342C47.8676 61.5224 47.8261 61.2715 47.7955 60.9815C47.7693 60.689 47.7562 60.4192 47.7562 60.1721ZM47.9396 56.9797L47.9527 57.6833L46.4132 56.7944C46.0113 56.5624 45.651 56.3972 45.3322 56.2989C45.0177 56.198 44.7513 56.1652 44.5329 56.2005C44.3145 56.2308 44.1464 56.3228 44.0285 56.4767C43.9149 56.633 43.8581 56.8524 43.8581 57.1348C43.8581 57.4273 43.9215 57.7312 44.0481 58.0464C44.1791 58.3641 44.3626 58.6642 44.5984 58.9466C44.8387 59.2265 45.1225 59.461 45.4501 59.6501C45.8869 59.9023 46.2712 60.0309 46.6031 60.0359C46.9395 60.0435 47.2168 59.959 47.4352 59.7825C47.6535 59.606 47.7999 59.3601 47.8741 59.0449L48.2148 59.7636C48.158 59.983 48.0532 60.1822 47.9003 60.3612C47.7518 60.5377 47.5575 60.6726 47.3172 60.7659C47.077 60.8542 46.7931 60.8769 46.4656 60.834C46.1424 60.7886 45.7755 60.6474 45.3649 60.4104C44.902 60.1431 44.498 59.809 44.1529 59.408C43.8123 59.0096 43.5459 58.5809 43.3537 58.122C43.1659 57.6606 43.072 57.2079 43.072 56.7641C43.072 56.3607 43.1462 56.0429 43.2947 55.811C43.4432 55.5739 43.6572 55.4251 43.9367 55.3646C44.2206 55.3016 44.5613 55.3268 44.9588 55.4403C45.3606 55.5512 45.8104 55.7504 46.3083 56.0379L47.9396 56.9797Z" fill="black"/>
<path d="M52.1849 60.4444L53.0497 60.9437L51.0843 63.5611L50.2195 63.0619L52.1849 60.4444ZM53.0169 56.4918L55.8012 58.0993V66.2845L55.0216 65.8344V58.4208L53.0169 57.2634C52.602 57.0239 52.2635 56.9091 52.0015 56.9192C51.7438 56.9268 51.5538 57.0238 51.4315 57.2104C51.3136 57.3996 51.2546 57.6404 51.2546 57.9329C51.2546 58.2103 51.307 58.5053 51.4118 58.818C51.521 59.1332 51.6892 59.437 51.9163 59.7295C52.1434 60.017 52.4382 60.2654 52.8007 60.4747L55.3033 61.9196V62.6987L52.8007 61.2539C52.4295 61.0395 52.0997 60.7886 51.8115 60.5012C51.5232 60.2137 51.2786 59.9035 51.0777 59.5707C50.8812 59.2353 50.7305 58.8886 50.6257 58.5305C50.5252 58.1699 50.475 57.8156 50.475 57.4677C50.475 57.1146 50.5296 56.8234 50.6388 56.5939C50.7523 56.3619 50.9161 56.1968 51.1301 56.0984C51.3485 56.0026 51.6149 55.9849 51.9294 56.0455C52.2482 56.1085 52.6107 56.2573 53.0169 56.4918Z" fill="black"/>
<path d="M63.6498 66.8518L62.5098 66.1937V65.581L63.5842 66.2013C64.021 66.4534 64.3682 66.5959 64.6259 66.6287C64.8836 66.6564 65.0692 66.5946 65.1828 66.4433C65.2963 66.292 65.3531 66.0701 65.3531 65.7776C65.3531 65.4952 65.292 65.2027 65.1697 64.9001C65.0517 64.6 64.8618 64.3038 64.5997 64.0112C64.3377 63.7187 63.9904 63.4477 63.558 63.198C63.2261 63.0064 62.9204 62.898 62.6408 62.8727C62.3613 62.8475 62.1364 62.9043 61.9661 63.0429C61.8001 63.1842 61.7171 63.4111 61.7171 63.7238L60.9309 63.2699C60.9309 62.7857 61.0532 62.4378 61.2978 62.2259C61.5424 62.0141 61.8634 61.9271 62.2609 61.965C62.6627 62.0053 63.0951 62.1591 63.558 62.4264C63.9599 62.6584 64.3202 62.9169 64.639 63.2018C64.9578 63.4867 65.2286 63.7919 65.4514 64.1172C65.6741 64.4424 65.8445 64.7854 65.9624 65.146C66.0803 65.5015 66.1393 65.8659 66.1393 66.2391C66.1393 66.5215 66.0825 66.7535 65.9689 66.9351C65.8597 67.1191 65.6981 67.2452 65.4841 67.3133C65.2745 67.3789 65.0146 67.3751 64.7045 67.302C64.3988 67.2313 64.0472 67.0813 63.6498 66.8518ZM62.5098 65.7776L63.6498 66.4358C64.0865 66.6879 64.4687 66.9565 64.7962 67.2414C65.1238 67.5213 65.3968 67.8151 65.6152 68.1227C65.8335 68.4304 65.9951 68.7481 66.1 69.0759C66.2092 69.4012 66.2637 69.7353 66.2637 70.0783C66.2637 70.4515 66.1982 70.749 66.0672 70.9709C65.9405 71.1953 65.7571 71.3416 65.5169 71.4097C65.2767 71.4777 64.9906 71.4689 64.6587 71.3832C64.3267 71.2975 63.9599 71.1386 63.558 70.9066C63.1256 70.657 62.6976 70.3216 62.274 69.9005C61.8547 69.4819 61.5075 69.0091 61.2323 68.4821C60.9572 67.9551 60.8196 67.4066 60.8196 66.8367L61.5992 67.2868C61.5992 67.5995 61.6844 67.9361 61.8547 68.2967C62.025 68.6573 62.2565 69.0003 62.5491 69.3256C62.8461 69.6534 63.1824 69.9257 63.558 70.1426C63.9817 70.3872 64.3355 70.5233 64.6194 70.5511C64.9033 70.5738 65.1173 70.5057 65.2614 70.3468C65.4055 70.1879 65.4776 69.9522 65.4776 69.6395C65.4776 69.2713 65.4077 68.9334 65.2679 68.6258C65.1325 68.3207 64.9251 68.0345 64.6456 67.7672C64.366 67.4999 64.0123 67.2427 63.5842 66.9956L62.5098 66.3753V65.7776Z" fill="black"/>
<path d="M72.3106 74.3486V70.1274C72.3106 69.7391 72.2408 69.3634 72.101 69.0003C71.9612 68.6371 71.756 68.3018 71.4852 67.9941C71.2144 67.6865 70.8803 67.4179 70.4828 67.1885C70.1159 66.9767 69.7884 66.8632 69.5001 66.8481C69.2162 66.8304 68.9913 66.8998 68.8253 67.0561C68.6637 67.2099 68.5829 67.4381 68.5829 67.7407L67.7968 67.2793C67.7968 66.9716 67.8623 66.7119 67.9933 66.5001C68.1243 66.2883 68.31 66.1382 68.5502 66.05C68.7904 65.9617 69.0765 65.9478 69.4084 66.0084C69.7447 66.0664 70.1138 66.2114 70.5156 66.4433C71.0222 66.7358 71.4677 67.0914 71.852 67.51C72.2408 67.9311 72.5443 68.4014 72.7627 68.9208C72.9811 69.4403 73.0903 69.9976 73.0903 70.5927V74.5491C73.0903 74.8315 73.1077 75.1341 73.1427 75.4569C73.182 75.7821 73.2366 76.0633 73.3064 76.3003V76.3911L72.4744 75.9107C72.422 75.6989 72.3805 75.448 72.3499 75.158C72.3237 74.8655 72.3106 74.5957 72.3106 74.3486ZM72.4941 71.1562L72.5072 71.8598L70.9676 70.9709C70.5658 70.7389 70.2055 70.5738 69.8866 70.4754C69.5722 70.3745 69.3058 70.3418 69.0874 70.3771C68.869 70.4073 68.7008 70.4994 68.5829 70.6532C68.4694 70.8095 68.4126 71.0289 68.4126 71.3113C68.4126 71.6038 68.4759 71.9077 68.6026 72.2229C68.7336 72.5406 68.917 72.8407 69.1529 73.1231C69.3931 73.403 69.677 73.6375 70.0046 73.8266C70.4413 74.0788 70.8257 74.2074 71.1576 74.2124C71.4939 74.22 71.7712 74.1355 71.9896 73.959C72.208 73.7825 72.3543 73.5366 72.4286 73.2214L72.7692 73.9401C72.7125 74.1595 72.6076 74.3587 72.4548 74.5377C72.3063 74.7142 72.1119 74.8491 71.8717 74.9424C71.6315 75.0307 71.3476 75.0534 71.02 75.0105C70.6968 74.9651 70.33 74.8239 69.9194 74.5869C69.4564 74.3196 69.0524 73.9855 68.7074 73.5846C68.3667 73.1861 68.1003 72.7575 67.9081 72.2985C67.7203 71.8371 67.6264 71.3844 67.6264 70.9406C67.6264 70.5372 67.7007 70.2195 67.8492 69.9875C67.9977 69.7504 68.2117 69.6017 68.4912 69.5411C68.7751 69.4781 69.1158 69.5033 69.5132 69.6168C69.915 69.7277 70.3649 69.927 70.8628 70.2144L72.4941 71.1562Z" fill="black"/>
<path d="M76.4511 70.0215L77.2307 70.4716L77.1128 73.3538C77.0822 74.1229 77.0058 74.7622 76.8835 75.2715C76.7656 75.7784 76.6192 76.1856 76.4445 76.4932C76.2698 76.7958 76.0777 77.0253 75.868 77.1816C75.6627 77.3355 75.4531 77.4439 75.2391 77.5069L74.8133 77.2611L74.8264 76.497L75.0229 76.6029C75.1496 76.4995 75.2806 76.376 75.416 76.2323C75.5557 76.086 75.689 75.8855 75.8156 75.6308C75.9423 75.3762 76.0515 75.0307 76.1432 74.5945C76.2349 74.1582 76.296 73.5934 76.3266 72.8999L76.4511 70.0215ZM76.7066 70.169L80.6309 72.4347V80.6199L79.8512 80.1698V72.8319L76.7066 71.0163V70.169ZM74.5119 76.3079L81.3712 80.2681V83.4529L80.585 82.999V80.5934L75.2587 77.5183V79.9239L74.5119 79.4927V76.3079Z" fill="black"/>
<path d="M87.1953 82.9423V78.7211C87.1953 78.3328 87.1254 77.957 86.9857 77.5939C86.8459 77.2308 86.6406 76.8954 86.3698 76.5878C86.0991 76.2802 85.7649 76.0116 85.3675 75.7821C85.0006 75.5703 84.673 75.4569 84.3848 75.4417C84.1009 75.4241 83.876 75.4934 83.71 75.6498C83.5484 75.8036 83.4676 76.0318 83.4676 76.3344L82.6814 75.8729C82.6814 75.5653 82.7469 75.3056 82.878 75.0937C83.009 74.8819 83.1946 74.7319 83.4348 74.6436C83.675 74.5554 83.9611 74.5415 84.2931 74.602C84.6294 74.66 84.9984 74.805 85.4002 75.037C85.9069 75.3295 86.3524 75.6851 86.7367 76.1036C87.1254 76.5248 87.429 76.995 87.6473 77.5145C87.8657 78.0339 87.9749 78.5912 87.9749 79.1863V83.1427C87.9749 83.4252 87.9924 83.7278 88.0273 84.0505C88.0666 84.3758 88.1212 84.657 88.1911 84.894V84.9848L87.3591 84.5044C87.3067 84.2926 87.2652 84.0417 87.2346 83.7517C87.2084 83.4592 87.1953 83.1894 87.1953 82.9423ZM87.3787 79.7499L87.3918 80.4534L85.8523 79.5646C85.4505 79.3326 85.0901 79.1674 84.7713 79.0691C84.4568 78.9682 84.1904 78.9354 83.972 78.9707C83.7537 79.001 83.5855 79.093 83.4676 79.2468C83.354 79.4032 83.2973 79.6226 83.2973 79.905C83.2973 80.1975 83.3606 80.5013 83.4872 80.8166C83.6183 81.1343 83.8017 81.4343 84.0376 81.7168C84.2778 81.9967 84.5617 82.2312 84.8892 82.4203C85.326 82.6725 85.7103 82.8011 86.0423 82.8061C86.3786 82.8137 86.6559 82.7292 86.8743 82.5527C87.0927 82.3762 87.239 82.1303 87.3132 81.8151L87.6539 82.5338C87.5971 82.7532 87.4923 82.9524 87.3394 83.1314C87.1909 83.3079 86.9966 83.4428 86.7564 83.5361C86.5162 83.6244 86.2323 83.6471 85.9047 83.6042C85.5815 83.5588 85.2146 83.4176 84.8041 83.1806C84.3411 82.9133 83.9371 82.5792 83.5921 82.1782C83.2514 81.7798 82.985 81.3511 82.7928 80.8922C82.605 80.4307 82.5111 79.9781 82.5111 79.5343C82.5111 79.1308 82.5853 78.8131 82.7338 78.5811C82.8823 78.3441 83.0963 78.1953 83.3759 78.1348C83.6598 78.0718 84.0004 78.097 84.3979 78.2105C84.7997 78.3214 85.2496 78.5206 85.7475 78.8081L87.3787 79.7499Z" fill="black"/>
<path d="M95.1159 80.7976V88.9828L94.3363 88.5327V80.3475L95.1159 80.7976ZM94.8473 84.3569V85.1361C94.6464 85.131 94.4149 85.1033 94.1528 85.0529C93.8951 85.005 93.6222 84.9306 93.3339 84.8297C93.05 84.7263 92.7661 84.5927 92.4822 84.4288C91.897 84.0909 91.4013 83.7063 90.9951 83.2751C90.5933 82.8465 90.2897 82.3484 90.0845 81.7811C89.8792 81.2087 89.7765 80.5442 89.7765 79.7877V77.7074L90.5561 78.1575V80.2378C90.5561 80.8178 90.626 81.3171 90.7658 81.7357C90.9056 82.1492 91.1174 82.5086 91.4013 82.8137C91.6852 83.1188 92.0455 83.3974 92.4822 83.6496C92.7836 83.8135 93.0828 83.9509 93.3798 84.0619C93.6768 84.1678 93.9519 84.2459 94.2052 84.2964C94.4629 84.3443 94.6769 84.3645 94.8473 84.3569Z" fill="black"/>
<path d="M101.53 91.2182V86.997C101.53 86.6087 101.46 86.233 101.32 85.8699C101.18 85.5068 100.975 85.1714 100.704 84.8637C100.433 84.5561 100.099 84.2876 99.7018 84.0581C99.335 83.8463 99.0074 83.7328 98.7191 83.7177C98.4352 83.7 98.2103 83.7694 98.0443 83.9257C97.8827 84.0795 97.8019 84.3077 97.8019 84.6103L97.0158 84.1489C97.0158 83.8412 97.0813 83.5815 97.2123 83.3697C97.3433 83.1579 97.529 83.0078 97.7692 82.9196C98.0094 82.8313 98.2955 82.8174 98.6274 82.878C98.9637 82.936 99.3328 83.081 99.7346 83.313C100.241 83.6055 100.687 83.961 101.071 84.3796C101.46 84.8007 101.763 85.271 101.982 85.7904C102.2 86.3099 102.309 86.8672 102.309 87.4623V91.4187C102.309 91.7011 102.327 92.0037 102.362 92.3265C102.401 92.6518 102.456 92.9329 102.525 93.1699V93.2607L101.693 92.7804C101.641 92.5685 101.6 92.3176 101.569 92.0277C101.543 91.7351 101.53 91.4653 101.53 91.2182ZM101.713 88.0259L101.726 88.7294L100.187 87.8405C99.7848 87.6085 99.4245 87.4434 99.1057 87.345C98.7912 87.2441 98.5248 87.2114 98.3064 87.2467C98.088 87.2769 97.9199 87.369 97.8019 87.5228C97.6884 87.6791 97.6316 87.8985 97.6316 88.1809C97.6316 88.4734 97.6949 88.7773 97.8216 89.0925C97.9526 89.4102 98.1361 89.7103 98.3719 89.9927C98.6121 90.2726 98.896 90.5071 99.2236 90.6962C99.6603 90.9484 100.045 91.077 100.377 91.082C100.713 91.0896 100.99 91.0051 101.209 90.8286C101.427 90.6521 101.573 90.4063 101.648 90.0911L101.988 90.8097C101.931 91.0291 101.827 91.2283 101.674 91.4073C101.525 91.5838 101.331 91.7188 101.091 91.8121C100.851 91.9003 100.567 91.923 100.239 91.8801C99.9158 91.8347 99.549 91.6935 99.1384 91.4565C98.6755 91.1892 98.2715 90.8551 97.9264 90.4542C97.5857 90.0558 97.3193 89.6271 97.1272 89.1681C96.9393 88.7067 96.8454 88.2541 96.8454 87.8103C96.8454 87.4068 96.9197 87.0891 97.0682 86.8571C97.2167 86.62 97.4307 86.4713 97.7102 86.4108C97.9941 86.3477 98.3348 86.3729 98.7322 86.4864C99.1341 86.5974 99.5839 86.7966 100.082 87.084L101.713 88.0259Z" fill="black"/>
<path d="M17.8896 103.139L531.655 399.762V400.407L17.8896 103.785V103.139Z" fill="#F4F4F5"/>
<path d="M17.8896 139.289L531.655 435.912V436.557L17.8896 139.935V139.289Z" fill="#F4F4F5"/>
<path d="M17.8896 175.439L531.655 472.062V472.707L17.8896 176.084V175.439Z" fill="#F4F4F5"/>
<path d="M91.557 190.213C91.557 189.064 92.3643 188.597 93.3602 189.172L189.517 244.688C190.512 245.263 191.32 246.662 191.32 247.812V267.823C191.32 268.973 190.512 269.439 189.517 268.864L93.3602 213.348C92.3643 212.773 91.557 211.375 91.557 210.225V190.213Z" fill="white" stroke="#C6CDD3"/>
<g filter="url(#filter0_f_1332_1693)">
<path d="M83.2734 152.845C83.2734 151.419 84.2746 150.841 85.5096 151.554L274.468 260.649C275.703 261.362 276.704 263.097 276.704 264.523V284.534C276.704 285.96 275.703 286.538 274.468 285.825L85.5096 176.73C84.2746 176.017 83.2734 174.283 83.2734 172.857V152.845Z" fill="#2067C2"/>
</g>
<path d="M77.8959 155.032C77.8959 153.882 78.7032 153.416 79.6991 153.991L268.657 263.086C269.653 263.661 270.461 265.059 270.461 266.209V286.221C270.461 287.371 269.653 287.837 268.657 287.262L79.6991 178.167C78.7032 177.592 77.8959 176.193 77.8959 175.043V155.032Z" fill="white" stroke="#C6CDD3"/>
<path d="M99.7537 179.684V180.562L95.6531 178.195V177.317L99.7537 179.684ZM95.8901 177.453V179.911L94.9729 179.382L94.9385 176.904L95.8901 177.453ZM100.495 180.112L100.438 182.532L99.5359 182.012V179.558L100.495 180.112ZM99.0811 173.749V174.631L96.513 173.149V172.266L99.0811 173.749ZM99.8149 174.172V180.597L98.8595 180.046V173.621L99.8149 174.172ZM96.3219 172.156L97.2811 172.71L97.1474 175.236C97.127 175.636 97.09 175.985 97.0365 176.284C96.983 176.583 96.9181 176.841 96.8416 177.058C96.7678 177.275 96.6837 177.456 96.5894 177.601C96.4951 177.744 96.3945 177.856 96.2875 177.939C96.1805 178.021 96.071 178.081 95.9588 178.12C95.8493 178.156 95.741 178.178 95.634 178.184L95.1219 177.888V177.01L95.3703 177.153C95.4391 177.119 95.5155 177.058 95.5996 176.968C95.6837 176.875 95.7652 176.738 95.8442 176.558C95.9257 176.375 95.9971 176.132 96.0582 175.829C96.1194 175.526 96.1614 175.143 96.1843 174.68L96.3219 172.156Z" fill="#2067C2"/>
<path d="M100.954 178.921V178.819C100.954 178.475 100.997 178.181 101.084 177.937C101.17 177.689 101.295 177.504 101.458 177.381C101.624 177.255 101.825 177.201 102.062 177.217C102.301 177.232 102.572 177.326 102.872 177.5C103.175 177.675 103.445 177.892 103.682 178.153C103.922 178.412 104.124 178.699 104.29 179.015C104.456 179.329 104.582 179.659 104.668 180.006C104.755 180.35 104.798 180.695 104.798 181.039V181.14C104.798 181.484 104.755 181.779 104.668 182.023C104.582 182.267 104.456 182.452 104.29 182.577C104.124 182.699 103.923 182.753 103.686 182.74C103.449 182.724 103.18 182.629 102.88 182.455C102.577 182.28 102.305 182.063 102.066 181.804C101.829 181.544 101.628 181.257 101.462 180.944C101.296 180.628 101.17 180.297 101.084 179.953C100.997 179.609 100.954 179.265 100.954 178.921ZM101.875 179.351V179.452C101.875 179.667 101.894 179.881 101.932 180.094C101.97 180.308 102.03 180.51 102.112 180.701C102.193 180.892 102.298 181.066 102.425 181.222C102.552 181.378 102.704 181.506 102.88 181.608C103.051 181.707 103.198 181.751 103.323 181.74C103.45 181.732 103.555 181.679 103.636 181.582C103.718 181.484 103.778 181.351 103.816 181.182C103.857 181.014 103.877 180.823 103.877 180.608V180.507C103.877 180.295 103.857 180.083 103.816 179.872C103.778 179.658 103.717 179.454 103.633 179.258C103.551 179.064 103.447 178.889 103.319 178.733C103.194 178.576 103.045 178.447 102.872 178.347C102.699 178.247 102.549 178.203 102.421 178.215C102.296 178.225 102.193 178.28 102.112 178.38C102.03 178.48 101.97 178.615 101.932 178.784C101.894 178.95 101.875 179.139 101.875 179.351Z" fill="#2067C2"/>
<path d="M108.165 178.552L108.91 178.982C108.91 179.244 108.878 179.442 108.815 179.576C108.754 179.708 108.662 179.794 108.54 179.832C108.42 179.869 108.271 179.868 108.092 179.83C107.917 179.793 107.713 179.734 107.481 179.653C107.267 179.583 107.073 179.555 106.9 179.569C106.729 179.583 106.586 179.657 106.468 179.792C106.354 179.926 106.271 180.136 106.22 180.421C106.169 180.706 106.154 181.081 106.174 181.546V181.846L105.444 181.5V181.2C105.444 180.638 105.489 180.174 105.578 179.808C105.667 179.441 105.793 179.163 105.956 178.971C106.122 178.779 106.318 178.662 106.545 178.623C106.774 178.584 107.029 178.614 107.309 178.711C107.5 178.774 107.659 178.819 107.787 178.846C107.914 178.869 108.008 178.86 108.07 178.819C108.133 178.776 108.165 178.687 108.165 178.552ZM107.519 180.54C107.794 180.699 108.039 180.896 108.253 181.131C108.467 181.364 108.648 181.621 108.796 181.904C108.943 182.186 109.056 182.483 109.132 182.795C109.211 183.108 109.25 183.422 109.25 183.737V183.834C109.25 184.164 109.208 184.444 109.124 184.675C109.04 184.906 108.917 185.079 108.754 185.193C108.591 185.305 108.391 185.352 108.154 185.332C107.919 185.312 107.65 185.214 107.347 185.039C107.047 184.865 106.778 184.65 106.541 184.392C106.304 184.135 106.104 183.852 105.941 183.543C105.778 183.231 105.654 182.905 105.57 182.566C105.486 182.226 105.444 181.884 105.444 181.54V181.443C105.442 181.379 105.456 181.327 105.486 181.286C105.519 181.246 105.559 181.206 105.605 181.165C105.65 181.123 105.691 181.069 105.727 181.001C105.854 180.778 106.005 180.604 106.178 180.481C106.351 180.357 106.549 180.296 106.77 180.297C106.994 180.3 107.244 180.381 107.519 180.54ZM107.34 181.279C107.11 181.147 106.923 181.102 106.778 181.145C106.635 181.186 106.529 181.29 106.461 181.456C106.394 181.623 106.361 181.828 106.361 182.069V182.166C106.361 182.363 106.38 182.561 106.419 182.76C106.457 182.958 106.514 183.147 106.591 183.327C106.67 183.505 106.771 183.668 106.896 183.817C107.024 183.967 107.174 184.092 107.347 184.192C107.523 184.293 107.672 184.341 107.794 184.335C107.919 184.331 108.02 184.284 108.096 184.196C108.175 184.106 108.233 183.984 108.268 183.828C108.307 183.673 108.326 183.497 108.326 183.3V183.203C108.326 183.021 108.307 182.838 108.268 182.654C108.233 182.471 108.175 182.296 108.096 182.126C108.017 181.954 107.915 181.796 107.791 181.65C107.666 181.504 107.515 181.381 107.34 181.279Z" fill="#2067C2"/>
<path d="M112.304 186.85V184.573C112.304 184.403 112.277 184.24 112.224 184.086C112.17 183.931 112.089 183.789 111.979 183.658C111.872 183.528 111.737 183.417 111.574 183.322C111.424 183.236 111.294 183.19 111.184 183.186C111.075 183.181 110.989 183.211 110.928 183.276C110.867 183.341 110.836 183.436 110.836 183.563L109.919 183.033C109.919 182.845 109.959 182.685 110.038 182.555C110.117 182.424 110.231 182.332 110.382 182.281C110.532 182.229 110.712 182.224 110.92 182.266C111.129 182.307 111.364 182.402 111.624 182.552C111.934 182.732 112.21 182.951 112.449 183.21C112.691 183.47 112.881 183.762 113.019 184.086C113.159 184.408 113.229 184.751 113.229 185.116V187.239C113.229 187.456 113.241 187.659 113.267 187.848C113.295 188.035 113.334 188.206 113.385 188.362V188.432L112.441 187.887C112.398 187.748 112.364 187.582 112.338 187.391C112.315 187.198 112.304 187.018 112.304 186.85ZM112.438 184.982L112.445 185.644L111.784 185.262C111.613 185.163 111.463 185.096 111.333 185.059C111.203 185.019 111.095 185.01 111.008 185.03C110.922 185.051 110.857 185.099 110.813 185.174C110.77 185.249 110.749 185.349 110.749 185.476C110.749 185.602 110.774 185.733 110.825 185.869C110.876 186.001 110.95 186.125 111.047 186.239C111.146 186.355 111.266 186.454 111.406 186.535C111.594 186.644 111.759 186.695 111.899 186.687C112.042 186.678 112.154 186.633 112.235 186.55C112.317 186.465 112.36 186.365 112.365 186.25L112.663 186.895C112.633 186.998 112.58 187.097 112.506 187.192C112.433 187.288 112.336 187.365 112.216 187.422C112.099 187.478 111.957 187.498 111.792 187.481C111.629 187.467 111.44 187.398 111.226 187.274C110.956 187.118 110.715 186.917 110.504 186.672C110.292 186.423 110.127 186.158 110.007 185.877C109.887 185.594 109.828 185.316 109.828 185.046C109.828 184.793 109.868 184.593 109.95 184.445C110.034 184.297 110.156 184.203 110.317 184.163C110.48 184.125 110.678 184.139 110.913 184.207C111.147 184.272 111.415 184.391 111.715 184.565L112.438 184.982Z" fill="#2067C2"/>
<path d="M116.202 188.015L114.88 187.252L114.872 186.497L115.957 187.124C116.136 187.227 116.282 187.291 116.397 187.316C116.514 187.342 116.601 187.331 116.657 187.281C116.713 187.228 116.741 187.141 116.741 187.02C116.741 186.92 116.724 186.824 116.691 186.731C116.658 186.636 116.607 186.544 116.538 186.458C116.472 186.369 116.388 186.286 116.286 186.206C116.187 186.125 116.071 186.047 115.938 185.97L115.185 185.535V189.472L114.264 188.94V184.165L115.938 185.132C116.203 185.285 116.441 185.449 116.653 185.624C116.867 185.8 117.049 185.986 117.199 186.182C117.35 186.378 117.464 186.582 117.543 186.795C117.625 187.007 117.666 187.225 117.666 187.448C117.666 187.595 117.638 187.718 117.582 187.815C117.528 187.913 117.448 187.982 117.341 188.02C117.234 188.058 117.103 188.065 116.947 188.04C116.792 188.012 116.613 187.947 116.412 187.846L116.202 188.015ZM116.202 190.059L114.612 189.141L114.979 188.514L116.202 189.22C116.365 189.314 116.5 189.369 116.607 189.383C116.714 189.398 116.793 189.376 116.844 189.317C116.898 189.257 116.924 189.165 116.924 189.041C116.924 188.915 116.899 188.791 116.848 188.671C116.797 188.55 116.718 188.435 116.611 188.327C116.506 188.216 116.37 188.112 116.202 188.015L115.151 187.409L115.159 186.663L116.408 187.384L116.672 187.828C116.934 188 117.152 188.19 117.326 188.399C117.499 188.608 117.629 188.82 117.715 189.035C117.802 189.25 117.845 189.454 117.845 189.648C117.845 189.872 117.808 190.048 117.734 190.175C117.663 190.305 117.556 190.386 117.413 190.418C117.273 190.449 117.101 190.435 116.898 190.376C116.694 190.314 116.462 190.209 116.202 190.059Z" fill="#2067C2"/>
<path d="M119.592 190.462L121.216 188.179L122.137 188.71V193.485L121.216 192.953V189.728L119.592 192.016L118.671 191.484V186.709L119.592 187.241V190.462Z" fill="#2067C2"/>
<path d="M125.03 190.381V195.155L124.105 194.621V189.847L125.03 190.381ZM126.387 191.164V192.002L122.771 189.915V189.077L126.387 191.164Z" fill="#2067C2"/>
<path d="M127.686 193.432L128.905 194.136C129.262 194.342 129.565 194.586 129.815 194.869C130.064 195.151 130.254 195.453 130.384 195.775C130.516 196.096 130.583 196.414 130.583 196.729C130.583 196.961 130.546 197.156 130.472 197.313C130.398 197.468 130.288 197.577 130.143 197.64C130.001 197.705 129.825 197.718 129.616 197.68C129.409 197.643 129.173 197.547 128.905 197.393L127.074 196.336V191.561L127.999 192.095V196.027L128.905 196.55C129.088 196.656 129.235 196.704 129.345 196.693C129.454 196.683 129.533 196.633 129.581 196.543C129.632 196.455 129.658 196.345 129.658 196.212C129.658 196.077 129.632 195.934 129.581 195.784C129.533 195.636 129.454 195.491 129.345 195.352C129.235 195.212 129.088 195.089 128.905 194.983L127.686 194.279V193.432Z" fill="#2067C2"/>
<path d="M135.092 201.053C134.787 200.877 134.51 200.66 134.263 200.402C134.018 200.143 133.809 199.859 133.636 199.551C133.466 199.243 133.334 198.922 133.243 198.586C133.151 198.251 133.105 197.92 133.105 197.593V197.417C133.105 197.043 133.152 196.732 133.246 196.484C133.341 196.235 133.472 196.052 133.64 195.934C133.808 195.814 134.007 195.762 134.236 195.78C134.465 195.797 134.714 195.883 134.981 196.038C135.277 196.209 135.536 196.415 135.757 196.658C135.979 196.901 136.162 197.168 136.308 197.461C136.455 197.752 136.565 198.061 136.636 198.388C136.71 198.716 136.747 199.052 136.747 199.396V199.851L133.552 198.006V197.243L135.837 198.562V198.478C135.832 198.284 135.799 198.085 135.738 197.882C135.679 197.681 135.589 197.493 135.467 197.32C135.344 197.146 135.181 197.001 134.978 196.883C134.825 196.795 134.688 196.754 134.569 196.762C134.451 196.768 134.353 196.818 134.274 196.914C134.195 197.009 134.134 197.145 134.091 197.32C134.05 197.493 134.03 197.704 134.03 197.951V198.127C134.03 198.336 134.054 198.544 134.102 198.752C134.153 198.958 134.227 199.155 134.324 199.343C134.421 199.531 134.538 199.704 134.676 199.859C134.813 200.012 134.97 200.14 135.146 200.241C135.367 200.369 135.565 200.432 135.738 200.429C135.911 200.426 136.062 200.367 136.189 200.252L136.674 201.075C136.585 201.174 136.469 201.251 136.327 201.307C136.184 201.36 136.009 201.369 135.803 201.336C135.599 201.303 135.362 201.209 135.092 201.053Z" fill="#2067C2"/>
<path d="M143.576 205.02L143.504 207.238L142.659 206.75V205.334L142.162 205.047V204.204L143.576 205.02ZM137.469 197.563L138.39 198.094V202.022L139.705 202.781V198.853L140.63 199.387V203.315L141.941 204.071V200.144L142.862 200.676V205.45L137.469 202.337V197.563Z" fill="#2067C2"/>
<path d="M146.083 207.399C145.777 207.222 145.501 207.005 145.254 206.748C145.009 206.489 144.8 206.205 144.627 205.896C144.456 205.589 144.325 205.267 144.234 204.932C144.142 204.597 144.096 204.266 144.096 203.939V203.763C144.096 203.389 144.143 203.078 144.237 202.829C144.332 202.581 144.463 202.398 144.631 202.28C144.799 202.159 144.998 202.108 145.227 202.125C145.456 202.143 145.705 202.229 145.972 202.384C146.268 202.554 146.527 202.761 146.748 203.004C146.97 203.246 147.153 203.514 147.298 203.807C147.446 204.098 147.556 204.407 147.627 204.733C147.701 205.061 147.738 205.398 147.738 205.742V206.196L144.543 204.352V203.588L146.828 204.908V204.824C146.823 204.63 146.79 204.431 146.729 204.228C146.67 204.027 146.58 203.839 146.458 203.666C146.335 203.492 146.172 203.346 145.969 203.229C145.816 203.14 145.679 203.1 145.56 203.107C145.442 203.113 145.344 203.164 145.265 203.26C145.186 203.355 145.125 203.49 145.082 203.666C145.041 203.839 145.021 204.049 145.021 204.297V204.473C145.021 204.682 145.045 204.89 145.093 205.097C145.144 205.303 145.218 205.501 145.315 205.689C145.412 205.877 145.529 206.049 145.667 206.205C145.804 206.358 145.961 206.485 146.137 206.587C146.358 206.715 146.556 206.777 146.729 206.774C146.902 206.771 147.053 206.713 147.18 206.598L147.665 207.421C147.576 207.519 147.46 207.597 147.318 207.652C147.175 207.705 147 207.715 146.794 207.681C146.59 207.649 146.353 207.555 146.083 207.399Z" fill="#2067C2"/>
<path d="M88.0853 168.661L88.6444 168.984V173.502L88.0853 173.179V168.661Z" fill="#2067B0"/>
<path d="M86.4082 170.275L86.4082 169.629L90.3215 171.888V172.534L86.4082 170.275Z" fill="#2067B0"/>
<defs>
<filter id="filter0_f_1332_1693" x="71.2734" y="139.249" width="217.431" height="158.882" filterUnits="userSpaceOnUse" color-interpolation-filters="sRGB">
<feFlood flood-opacity="0" result="BackgroundImageFix"/>
<feBlend mode="normal" in="SourceGraphic" in2="BackgroundImageFix" result="shape"/>
<feGaussianBlur stdDeviation="6" result="effect1_foregroundBlur_1332_1693"/>
</filter>
</defs>
</svg>
