<svg width="65" height="70" viewBox="0 0 65 70" fill="none" xmlns="http://www.w3.org/2000/svg">
<path d="M0.44 45.44H23.96C24.344 46.4 24.888 47.36 25.592 48.32C27.256 50.24 29.592 51.2 32.6 51.2C37.72 51.2 40.28 49.28 40.28 45.44C40.28 41.6 37.72 39.68 32.6 39.68H17.24V27.2L30.68 20V19.04H4.28V0.799995H60.44V18.56L42.68 26.24L41.624 26.72V27.776L41.72 27.68C49.016 27.68 54.68 29.504 58.712 33.152C62.744 36.736 64.76 41.472 64.76 47.36C64.76 53.952 62.04 59.36 56.6 63.584C51.224 67.808 43.384 69.92 33.08 69.92C20.472 69.92 11.32 65.856 5.624 57.728C3.064 54.208 1.336 50.112 0.44 45.44Z" fill="#FEDC5A"/>
</svg>
