<svg width="1440" height="373" viewBox="0 0 1440 373" fill="none" xmlns="http://www.w3.org/2000/svg">
<g opacity="0.4">
<g clip-path="url(#clip0_333_384)">
<path d="M19.3595 591.86C19.3595 591.86 -71.5405 346.57 55.7195 192.66C182.98 38.74 864.7 -11.73 946.51 165.58C1028.32 342.89 1516.13 549.69 1988.79 385.93" stroke="white" stroke-miterlimit="10"/>
<path d="M7.91955 584.93C7.91955 584.93 -71.2704 338.55 59.7696 189.95C190.49 41.72 857.94 -2.72001 945.29 169.49C1032.64 341.7 1503.82 537.56 1977.22 376.53" stroke="#FFFEFB" stroke-miterlimit="10"/>
<path d="M-3.51952 577.99C-3.51952 577.99 -71.0495 330.54 63.8205 187.24C197.961 44.71 851.18 6.28 944.07 173.4C1036.96 340.52 1491.51 525.43 1965.65 367.13" stroke="#FFFDF7" stroke-miterlimit="10"/>
<path d="M-14.9601 571.06C-14.9601 571.06 -70.8501 322.54 67.8699 184.54C205.4 47.72 844.42 15.3 942.85 177.32C1041.28 339.34 1479.2 513.31 1954.09 357.74" stroke="#FFFCF3" stroke-miterlimit="10"/>
<path d="M-26.4104 564.12C-26.4104 564.12 -70.7105 314.54 71.9095 181.82C212.8 50.71 837.64 24.3 941.62 181.22C1045.6 338.15 1466.88 501.18 1942.51 348.32" stroke="#FFFCEF" stroke-miterlimit="10"/>
<path d="M-37.8502 557.19C-37.8502 557.19 -70.5902 306.55 75.9598 179.12C220.16 53.73 830.88 33.31 940.4 185.14C1049.92 336.97 1454.57 489.06 1930.94 338.93" stroke="#FFFBEB" stroke-miterlimit="10"/>
<path d="M-49.2899 550.25C-49.2899 550.25 -70.5099 298.56 80.0101 176.41C227.49 56.72 824.12 42.32 939.18 189.05C1054.24 335.78 1442.25 476.93 1919.37 329.53" stroke="#FFFAE7" stroke-miterlimit="10"/>
<path d="M-60.7298 543.32C-60.7298 543.32 -70.4599 290.57 84.0701 173.7C234.79 59.72 817.36 51.32 937.97 192.96C1058.57 334.6 1429.95 464.8 1907.81 320.13" stroke="#FFF9E3" stroke-miterlimit="10"/>
<path d="M-72.1797 536.38C-72.1797 536.38 -70.4697 282.56 88.1103 170.99C242.03 62.69 810.59 60.33 936.74 196.87C1062.89 333.41 1417.63 452.67 1896.23 310.73" stroke="#FFF8DF" stroke-miterlimit="10"/>
<path d="M-83.6201 529.45C-83.6201 529.45 -70.5002 274.55 92.1599 168.29C249.24 65.67 803.83 69.34 935.52 200.79C1067.21 332.24 1405.32 440.55 1884.66 301.33" stroke="#FFF7DB" stroke-miterlimit="10"/>
<path d="M-95.0596 522.51C-95.0596 522.51 -70.5695 266.52 96.2104 165.57C256.42 68.6 797.071 78.34 934.301 204.69C1071.53 331.04 1393.01 428.41 1873.09 291.92" stroke="#FFF6D7" stroke-miterlimit="10"/>
<path d="M-106.51 515.58C-106.51 515.58 -70.6797 258.47 100.25 162.87C263.55 71.54 790.29 87.35 933.07 208.61C1075.84 329.86 1380.69 416.3 1861.51 282.53" stroke="#FFF6D3" stroke-miterlimit="10"/>
<path d="M-117.95 508.64C-117.95 508.64 -70.8202 250.39 104.3 160.16C270.67 74.44 783.53 96.36 931.85 212.52C1080.17 328.68 1368.38 404.17 1849.94 273.13" stroke="#FFF5CF" stroke-miterlimit="10"/>
<path d="M-129.39 501.71C-129.39 501.71 -70.9797 242.29 108.35 157.45C277.75 77.31 776.77 105.36 930.63 216.43C1084.49 327.49 1356.07 392.04 1838.38 263.72" stroke="#FFF4CB" stroke-miterlimit="10"/>
<path d="M-140.83 494.77C-140.83 494.77 -71.17 234.16 112.4 154.74C284.81 80.15 770 114.37 929.41 220.33C1088.81 326.3 1343.76 379.9 1826.81 254.31" stroke="#FFF3C7" stroke-miterlimit="10"/>
<path d="M-152.28 487.84C-152.28 487.84 -71.3902 226 116.44 152.03C291.84 82.96 763.23 123.37 928.17 224.24C1093.11 325.11 1331.42 367.77 1815.22 244.91" stroke="#FFF2C3" stroke-miterlimit="10"/>
<path d="M-163.72 480.91C-163.72 480.91 -71.6098 217.81 120.49 149.33C298.87 85.75 756.47 132.39 926.95 228.16C1097.44 323.93 1319.11 355.65 1803.65 235.52" stroke="#FFF1BF" stroke-miterlimit="10"/>
<path d="M-175.16 473.97C-175.16 473.97 -71.8602 209.57 124.55 146.62C305.89 88.5 749.72 141.4 925.74 232.07C1101.77 322.75 1306.81 343.52 1792.09 226.12" stroke="#FFF0BB" stroke-miterlimit="10"/>
<path d="M-186.61 467.04C-186.61 467.04 -72.1203 201.31 128.59 143.91C312.88 91.21 742.94 150.4 924.51 235.98C1106.08 321.56 1294.49 331.4 1780.51 216.71" stroke="#FFF0B7" stroke-miterlimit="10"/>
<path d="M-198.05 460.1C-198.05 460.1 -72.3798 193 132.64 141.2C319.87 93.89 736.18 159.41 923.29 239.89C1110.4 320.38 1282.18 319.27 1768.94 207.31" stroke="#FFEFB3" stroke-miterlimit="10"/>
<path d="M-209.49 453.17C-209.49 453.17 -72.6502 184.67 136.69 138.5C326.86 96.55 729.42 168.42 922.07 243.81C1114.73 319.2 1269.87 307.15 1757.37 197.92" stroke="#FFEEAF" stroke-miterlimit="10"/>
<path d="M-220.93 446.23C-220.93 446.23 -72.9097 176.3 140.74 135.78C333.85 99.16 722.65 177.42 920.85 247.71C1119.05 318 1257.56 295.01 1745.8 188.51" stroke="#FEEDAA" stroke-miterlimit="10"/>
<path d="M-232.38 439.3C-232.38 439.3 -73.1898 167.9 144.78 133.08C340.83 101.76 715.88 186.43 919.62 251.63C1123.36 316.83 1245.24 282.89 1734.22 179.12" stroke="#FEECA6" stroke-miterlimit="10"/>
<path d="M-243.82 432.36C-243.82 432.36 -73.4503 159.46 148.83 130.37C347.82 104.33 709.12 195.44 918.4 255.54C1127.68 315.64 1232.93 270.76 1722.66 169.71" stroke="#FEEBA2" stroke-miterlimit="10"/>
<path d="M-255.26 425.43C-255.26 425.43 -73.6998 150.99 152.88 127.66C354.83 106.87 702.36 204.44 917.18 259.45C1132.01 314.46 1220.62 258.63 1711.09 160.31" stroke="#FEEB9E" stroke-miterlimit="10"/>
<path d="M-266.71 418.49C-266.71 418.49 -73.95 142.5 156.93 124.95C361.84 109.38 695.59 213.45 915.96 263.36C1136.33 313.27 1208.3 246.51 1699.52 150.91" stroke="#FEEA9A" stroke-miterlimit="10"/>
<path d="M-278.15 411.56C-278.15 411.56 -74.1904 133.97 160.98 122.25C368.86 111.88 688.83 222.46 914.74 267.28C1140.65 312.09 1195.99 234.39 1687.95 141.52" stroke="#FEE996" stroke-miterlimit="10"/>
<path d="M-289.59 404.62C-289.59 404.62 -74.4098 125.43 165.02 119.54C375.88 114.35 682.06 231.47 913.51 271.19C1144.96 310.91 1183.67 222.26 1676.37 132.12" stroke="#FEE892" stroke-miterlimit="10"/>
<path d="M-301.03 397.69C-301.03 397.69 -74.4803 125.13 169.07 116.83C382.8 109.54 675.29 240.47 912.29 275.1C1149.29 309.72 1171.36 210.13 1664.8 122.71" stroke="#FEE78E" stroke-miterlimit="10"/>
<path d="M-312.48 390.75C-312.48 390.75 -74.8205 108.26 173.12 114.12C389.98 119.24 668.529 249.48 911.069 279C1153.61 308.53 1159.05 197.99 1653.23 113.3" stroke="#FEE68A" stroke-miterlimit="10"/>
<path d="M-323.92 383.82C-323.92 383.82 -74.9999 99.65 177.17 111.41C397.05 121.66 661.77 258.48 909.85 282.91C1157.93 307.34 1146.74 185.86 1641.66 103.9" stroke="#FEE586" stroke-miterlimit="10"/>
<path d="M-335.36 376.88C-335.36 376.88 -75.1704 91.03 181.22 108.71C404.13 124.08 655.01 267.5 908.63 286.83C1162.25 306.16 1134.43 173.74 1630.09 94.51" stroke="#FEE582" stroke-miterlimit="10"/>
<path d="M-346.8 369.95C-346.8 369.95 -75.3198 82.38 185.27 106C411.23 126.48 648.24 276.51 907.41 290.74C1166.58 304.98 1122.12 161.62 1618.52 85.11" stroke="#FEE47E" stroke-miterlimit="10"/>
<path d="M-358.25 363.02C-358.25 363.02 -75.46 73.72 189.31 103.29C418.33 128.86 641.47 285.51 906.18 294.65C1170.89 303.79 1109.8 149.49 1606.95 75.7" stroke="#FEE37A" stroke-miterlimit="10"/>
<path d="M-369.69 356.08C-369.69 356.08 -75.5804 65.05 193.36 100.58C425.46 131.24 634.709 294.52 904.959 298.56C1175.21 302.61 1097.49 137.36 1595.38 66.3" stroke="#FEE276" stroke-miterlimit="10"/>
<path d="M-381.13 349.15C-381.13 349.15 -75.6799 56.37 197.41 97.87C432.6 133.61 627.94 303.52 903.74 302.47C1179.53 301.42 1085.17 125.23 1583.81 56.9" stroke="#FEE172" stroke-miterlimit="10"/>
<path d="M-392.58 342.21C-392.58 342.21 -75.7701 47.68 201.46 95.16C439.75 135.97 621.18 312.53 902.52 306.38C1183.85 300.23 1072.86 113.1 1572.24 47.5" stroke="#FEE06E" stroke-miterlimit="10"/>
<path d="M-404.02 335.28C-404.02 335.28 -75.8495 38.99 205.51 92.46C446.921 138.34 614.421 321.54 901.301 310.3C1188.18 299.06 1060.55 100.98 1560.67 38.1" stroke="#FEDF6A" stroke-miterlimit="10"/>
<path d="M-415.46 328.34C-415.46 328.34 -75.9099 30.28 209.55 89.75C454.09 140.69 607.65 330.55 900.07 314.21C1192.49 297.87 1048.23 88.85 1549.09 28.7" stroke="#FEDF66" stroke-miterlimit="10"/>
<path d="M-426.9 321.41C-426.9 321.41 -75.9604 21.57 213.6 87.04C461.29 143.04 600.88 339.55 898.85 318.12C1196.81 296.69 1035.92 76.73 1537.52 19.3" stroke="#FEDE62" stroke-miterlimit="10"/>
<path d="M-438.35 314.47C-438.35 314.47 -75.8996 12.49 217.65 84.33C468.57 145.07 594.12 348.56 897.63 322.03C1201.13 295.5 1023.61 64.6 1525.95 9.89999" stroke="#FEDD5E" stroke-miterlimit="10"/>
<path d="M-449.79 307.54C-449.79 307.54 -76.01 4.14 221.7 81.62C475.71 147.73 587.36 357.56 896.41 325.94C1205.46 294.31 1011.3 52.47 1514.38 0.5" stroke="#FEDC5A" stroke-miterlimit="10"/>
<path d="M-457.06 301.98C-457.06 301.98 -299.34 184.85 -101.26 114.66C11.9104 74.94 130.06 56.34 237.43 84.85C486.63 151.04 599.24 355.32 904.16 324.24C1209.05 293.17 1022.94 56.43 1515.13 4.29001" stroke="#FEDD5E" stroke-miterlimit="10"/>
<path d="M-464.32 296.41C-464.32 296.41 -302.95 186.51 -95.5503 115.75C25.1597 74.56 145.12 58.81 253.17 88.08C497.58 154.29 611.13 353.07 911.91 322.55C1212.64 292.03 1034.58 60.39 1515.88 8.09" stroke="#FEDE62" stroke-miterlimit="10"/>
<path d="M-471.59 290.85C-471.59 290.85 -306.45 188.52 -89.8399 116.84C38.4801 74.37 160.17 61.28 268.91 91.31C508.53 157.49 623.02 350.83 919.67 320.86C1216.24 290.89 1046.24 64.36 1516.63 11.89" stroke="#FEDF66" stroke-miterlimit="10"/>
<path d="M-478.86 285.29C-478.86 285.29 -309.94 190.57 -84.1404 117.93C51.7996 74.2 175.22 63.74 284.63 94.54C519.47 160.65 634.88 348.58 927.4 319.16C1219.81 289.75 1057.86 68.32 1517.36 15.69" stroke="#FEDF6A" stroke-miterlimit="10"/>
<path d="M-486.12 279.73C-486.12 279.73 -313.4 192.64 -78.4301 119.02C65.1399 74.04 190.26 66.19 300.37 97.77C530.44 163.75 646.77 346.34 935.16 317.47C1223.41 288.61 1069.51 72.29 1518.12 19.49" stroke="#FEE06E" stroke-miterlimit="10"/>
<path d="M-493.39 274.17C-493.39 274.17 -316.87 194.74 -72.7196 120.11C78.4704 73.89 205.31 68.64 316.11 101C541.41 166.8 658.66 344.09 942.92 315.78C1227.01 287.47 1081.16 76.25 1518.87 23.29" stroke="#FEE172" stroke-miterlimit="10"/>
<path d="M-500.66 268.61C-500.66 268.61 -320.32 196.86 -67.0202 121.2C91.8098 73.76 220.34 71.08 331.84 104.23C552.39 169.8 670.54 341.85 950.66 314.08C1230.59 286.33 1092.8 80.21 1519.61 27.08" stroke="#FEE276" stroke-miterlimit="10"/>
<path d="M-507.93 263.05C-507.93 263.05 -323.77 199 -61.3197 122.29C105.15 73.64 235.38 73.51 347.57 107.46C563.38 172.76 682.42 339.6 958.41 312.39C1234.18 285.19 1104.44 84.18 1520.35 30.89" stroke="#FEE37A" stroke-miterlimit="10"/>
<path d="M-515.19 257.48C-515.19 257.48 -327.21 201.14 -55.6104 123.37C118.5 73.52 250.42 75.92 363.31 110.67C574.39 175.66 694.31 337.34 966.16 310.68C1237.77 284.03 1116.08 88.13 1521.1 34.67" stroke="#FEE47E" stroke-miterlimit="10"/>
<path d="M-522.46 251.92C-522.46 251.92 -330.65 203.31 -49.9 124.46C131.85 73.41 265.46 78.33 379.05 113.9C585.4 178.52 706.2 335.09 973.92 308.99C1241.37 282.9 1127.73 92.1 1521.86 38.47" stroke="#FEE582" stroke-miterlimit="10"/>
<path d="M-529.73 246.36C-529.73 246.36 -334.091 205.5 -44.2005 125.55C145.199 73.32 280.49 80.74 394.78 117.13C596.42 181.35 718.08 332.85 981.66 307.29C1244.95 281.75 1139.37 96.05 1522.59 42.27" stroke="#FEE586" stroke-miterlimit="10"/>
<path d="M-536.99 240.8C-536.99 240.8 -337.52 207.69 -38.4902 126.65C158.55 73.24 295.53 83.14 410.52 120.37C607.46 184.14 729.97 330.61 989.42 305.61C1248.55 280.63 1151.02 100.03 1523.35 46.08" stroke="#FEE68A" stroke-miterlimit="10"/>
<path d="M-544.26 235.24C-544.26 235.24 -340.95 209.9 -32.7897 127.74C171.9 73.17 310.56 85.52 426.24 123.6C618.48 186.88 741.84 328.37 997.16 303.92C1252.13 279.49 1162.65 104 1524.09 49.88" stroke="#FEE78E" stroke-miterlimit="10"/>
<path d="M-551.53 229.68C-551.53 229.68 -344.38 212.11 -27.0803 128.83C185.26 73.09 325.61 87.89 441.98 126.83C629.54 189.58 753.72 326.12 1004.91 302.22C1255.72 278.34 1174.3 107.96 1524.83 53.67" stroke="#FEE892" stroke-miterlimit="10"/>
<path d="M-558.79 224.12C-558.79 224.12 -347.8 214.34 -21.3701 129.92C198.63 73.03 340.65 90.25 457.72 130.06C640.6 192.24 765.61 323.88 1012.67 300.53C1259.32 277.21 1185.95 111.92 1525.59 57.48" stroke="#FEE996" stroke-miterlimit="10"/>
<path d="M-566.06 218.55C-566.06 218.55 -351.23 216.56 -15.6696 131C211.98 72.96 355.68 92.59 473.45 133.28C651.67 194.85 777.49 321.62 1020.41 298.83C1262.9 276.06 1197.58 115.88 1526.33 61.27" stroke="#FEEA9A" stroke-miterlimit="10"/>
<path d="M-573.33 212.99C-573.33 212.99 -354.65 218.79 -9.97003 132.09C225.33 72.9 370.72 94.93 489.18 136.51C662.75 197.44 789.37 319.38 1028.16 297.13C1266.49 274.91 1209.22 119.84 1527.07 65.06" stroke="#FEEB9E" stroke-miterlimit="10"/>
<path d="M-580.6 207.43C-580.6 207.43 -358.08 221.04 -4.25964 133.18C238.7 72.85 385.77 97.25 504.92 139.74C673.85 199.98 801.26 317.14 1035.92 295.44C1270.09 273.78 1220.88 123.81 1527.83 68.86" stroke="#FEEBA2" stroke-miterlimit="10"/>
<path d="M-587.86 201.87C-587.86 201.87 -361.49 223.29 1.44965 134.27C252.07 72.8 400.83 99.55 520.66 142.96C684.96 202.49 813.15 314.88 1043.67 293.74C1273.68 272.63 1232.52 127.76 1528.57 72.66" stroke="#FEECA6" stroke-miterlimit="10"/>
<path d="M-595.13 196.31C-595.13 196.31 -364.91 225.54 7.15015 135.36C265.42 72.76 415.87 101.84 536.39 146.19C696.07 204.96 825.03 312.64 1051.42 292.04C1277.27 271.48 1244.16 131.72 1529.32 76.45" stroke="#FEEDAA" stroke-miterlimit="10"/>
<path d="M-602.4 190.75C-602.4 190.75 -368.34 227.8 12.8596 136.45C278.79 72.72 430.94 104.11 552.12 149.42C707.19 207.4 836.91 310.39 1059.16 290.35C1280.85 270.35 1255.79 135.69 1530.06 80.25" stroke="#FFEEAF" stroke-miterlimit="10"/>
<path d="M-609.66 185.19C-609.66 185.19 -371.75 230.07 18.5698 137.55C292.16 72.7 446.01 106.37 567.86 152.66C718.33 209.82 848.8 308.16 1066.92 288.67C1284.45 269.22 1267.45 139.67 1530.81 84.06" stroke="#FFEFB3" stroke-miterlimit="10"/>
<path d="M-616.93 179.62C-616.93 179.62 -375.17 232.32 24.2703 138.63C305.52 72.66 461.07 108.59 583.59 155.88C729.47 212.19 860.68 305.9 1074.67 286.96C1288.04 268.06 1279.09 143.61 1531.56 87.85" stroke="#FFF0B7" stroke-miterlimit="10"/>
<path d="M-624.199 174.06C-624.199 174.06 -378.589 234.6 29.9708 139.72C318.881 72.63 476.151 110.8 599.321 159.11C740.621 214.54 872.561 303.66 1082.41 285.27C1291.62 266.93 1290.72 147.58 1532.3 91.65" stroke="#FFF0BB" stroke-miterlimit="10"/>
<path d="M-631.461 168.5C-631.461 168.5 -382.001 236.87 35.6891 140.81C332.259 72.6 491.249 112.98 615.069 162.34C751.809 216.85 884.449 301.41 1090.18 283.58C1295.23 265.79 1302.39 151.55 1533.06 95.45" stroke="#FFF1BF" stroke-miterlimit="10"/>
<path d="M-638.73 162.94C-638.73 162.94 -385.42 239.15 41.3895 141.9C345.62 72.58 506.34 115.14 630.8 165.57C762.99 219.13 896.33 299.17 1097.92 281.88C1298.81 264.64 1314.02 155.51 1533.8 99.24" stroke="#FFF2C3" stroke-miterlimit="10"/>
<path d="M-646 157.38C-646 157.38 -388.84 241.43 47.09 142.99C358.98 72.56 521.45 117.26 646.53 168.8C774.18 221.39 908.21 296.92 1105.67 280.19C1302.4 263.51 1325.66 159.47 1534.55 103.05" stroke="#FFF3C7" stroke-miterlimit="10"/>
<path d="M-653.26 151.82C-653.26 151.82 -392.25 243.71 52.8002 144.08C372.35 72.54 536.58 119.36 662.27 172.03C785.39 223.62 920.1 294.68 1113.43 278.5C1306 262.37 1337.31 163.44 1535.3 106.85" stroke="#FFF4CB" stroke-miterlimit="10"/>
<path d="M-660.529 146.26C-660.529 146.26 -395.669 246 58.5107 145.17C385.721 72.53 551.721 121.42 678.001 175.25C796.601 225.81 931.981 292.42 1121.17 276.8C1309.58 261.22 1348.95 167.4 1536.04 110.64" stroke="#FFF5CF" stroke-miterlimit="10"/>
<path d="M-667.801 140.69C-667.801 140.69 -398.891 249.17 64.2092 146.25C399.219 73.15 566.879 123.44 693.729 178.47C807.829 227.97 943.859 290.17 1128.92 275.09C1313.17 260.07 1360.59 171.35 1536.78 114.43" stroke="#FFF6D3" stroke-miterlimit="10"/>
<path d="M-675.07 135.13C-675.07 135.13 -402.33 251.39 69.9097 147.34C412.57 73.08 582.05 125.42 709.46 181.7C819.07 230.12 955.74 287.92 1136.66 273.4C1316.75 258.93 1372.22 175.32 1537.52 118.23" stroke="#FFF6D7" stroke-miterlimit="10"/>
<path d="M-682.33 129.57C-682.33 129.57 -405.75 253.61 75.6299 148.44C425.94 73.03 597.27 127.36 725.21 184.94C830.35 232.26 967.64 285.69 1144.43 271.72C1320.36 257.81 1383.88 179.29 1538.29 122.04" stroke="#FFF7DB" stroke-miterlimit="10"/>
<path d="M-689.6 124.01C-689.6 124.01 -409.19 255.83 81.3304 149.53C439.29 72.97 612.49 129.24 740.94 188.17C841.62 234.36 979.52 283.44 1152.18 270.02C1323.95 256.66 1395.53 183.25 1539.03 125.83" stroke="#FFF8DF" stroke-miterlimit="10"/>
<path d="M-696.869 118.45C-696.869 118.45 -412.619 258.05 87.0309 150.62C452.641 72.91 627.751 131.07 756.671 191.4C852.901 236.44 991.401 281.2 1159.92 268.33C1327.53 255.52 1407.16 187.22 1539.77 129.64" stroke="#FFF9E3" stroke-miterlimit="10"/>
<path d="M-704.131 112.89C-704.131 112.89 -416.051 260.26 92.7391 151.71C465.999 72.85 643.049 132.82 772.409 194.63C864.209 238.49 1003.28 278.95 1167.68 266.64C1331.13 254.39 1418.81 191.19 1540.53 133.44" stroke="#FFFAE7" stroke-miterlimit="10"/>
<path d="M-711.4 107.33C-711.4 107.33 -419.49 262.48 98.4496 152.8C479.36 72.79 658.4 134.5 788.15 197.86C875.54 240.53 1015.17 276.71 1175.43 264.94C1334.72 253.24 1430.46 195.14 1541.27 137.23" stroke="#FFFBEB" stroke-miterlimit="10"/>
<path d="M-718.67 101.76C-718.67 101.76 -422.92 264.69 104.15 153.88C492.71 72.72 673.78 136.09 803.87 201.08C886.87 242.54 1027.04 274.45 1183.17 263.24C1338.3 252.09 1442.09 199.1 1542.01 141.02" stroke="#FFFCEF" stroke-miterlimit="10"/>
<path d="M-725.93 96.2C-725.93 96.2 -426.35 266.91 109.86 154.97C506.07 72.66 689.24 137.59 819.61 204.3C898.23 244.53 1038.93 272.2 1190.93 261.54C1341.9 250.95 1453.74 203.06 1542.77 144.82" stroke="#FFFCF3" stroke-miterlimit="10"/>
<path d="M-733.199 90.64C-733.199 90.64 -429.779 269.13 115.561 156.06C519.421 72.59 704.751 138.99 835.341 207.53C909.611 246.51 1050.81 269.95 1198.67 259.84C1345.48 249.8 1465.37 207.02 1543.5 148.61" stroke="#FFFDF7" stroke-miterlimit="10"/>
<path d="M-740.471 85.08C-740.471 85.08 -433.221 271.35 121.269 157.15C532.779 72.53 720.349 140.25 851.079 210.76C921.019 248.49 1062.7 267.71 1206.43 258.15C1349.08 248.66 1477.03 210.98 1544.26 152.41" stroke="#FFFEFB" stroke-miterlimit="10"/>
<path d="M-747.74 79.52C-747.74 79.52 -436.66 273.57 126.97 158.24C546.13 72.47 736.05 141.37 866.81 213.99C997.57 286.61 1431.88 274.15 1545 156.21" stroke="white" stroke-miterlimit="10"/>
</g>
</g>
<defs>
<clipPath id="clip0_333_384">
<rect width="2736.96" height="592.03" fill="white" transform="translate(-748)"/>
</clipPath>
</defs>
</svg>
