<svg width="32" height="32" viewBox="0 0 32 32" fill="none" xmlns="http://www.w3.org/2000/svg">
<path d="M25.3333 18.6666V14.6666C25.3333 12.781 25.3333 11.8382 24.7475 11.2524C24.1618 10.6666 23.219 10.6666 21.3333 10.6666H17.6569C16.8394 10.6666 16.4306 10.6666 16.0631 10.5144C15.6955 10.3621 15.4065 10.0731 14.8284 9.49505L13.1716 7.8382C12.5935 7.26014 12.3045 6.97111 11.9369 6.81887C11.5694 6.66663 11.1606 6.66663 10.3431 6.66663H8C6.11438 6.66663 5.17157 6.66663 4.58579 7.25241C4 7.8382 4 8.78101 4 10.6666V21.3333C4 23.2189 4 24.1617 4.58579 24.7475C5.17157 25.3333 6.11438 25.3333 8 25.3333H18.6667" stroke="#7A7A7A" stroke-width="2"/>
<path d="M21.3335 25.3334H25.3335M25.3335 25.3334H29.3335M25.3335 25.3334V29.3334M25.3335 25.3334V21.3334" stroke="#7A7A7A" stroke-width="2"/>
</svg>
