<svg width="148" height="64" viewBox="0 0 148 64" fill="none" xmlns="http://www.w3.org/2000/svg">
<path fill-rule="evenodd" clip-rule="evenodd" d="M38.4076 0.777141C39.7231 0.264035 41.1323 0 42.5554 0H43.3193C44.7613 0 46.1771 0.365098 47.4196 1.05737C48.9273 1.89746 50.1056 3.17788 50.7772 4.70591L50.8564 4.88605C51.2959 5.88595 51.5221 6.9581 51.5221 8.04092V10.8775C51.5221 12.3113 51.3767 13.7418 51.088 15.1495L50.0249 20.3325C49.8656 21.1094 49.0704 21.617 48.2488 21.4663C47.4272 21.3157 46.8903 20.5638 47.0497 19.7869L48.1127 14.6039C48.3646 13.376 48.4914 12.1282 48.4914 10.8775V8.04092C48.4914 7.33555 48.344 6.63714 48.0577 5.98579L47.9785 5.80566C47.559 4.85103 46.8228 4.0511 45.8809 3.52625C45.1047 3.09376 44.2202 2.86567 43.3193 2.86567H42.5554C41.5288 2.86567 40.5122 3.05614 39.5633 3.42628L38.0862 4.00237C37.0506 4.40631 36.063 4.91256 35.1398 5.51268L32.5236 7.21335C30.4554 8.55779 28.5074 10.0604 26.6992 11.7061L25.6019 12.7047C23.3621 14.7431 21.2813 16.9321 19.3759 19.2546L18.772 19.9907C15.9629 23.4146 13.4784 27.0659 11.3473 30.9022L8.27869 36.4262L5.8635 42.0194C4.91948 44.2057 4.20459 46.4742 3.7291 48.7924L3.3308 50.7343C3.1312 51.7074 3.03071 52.6964 3.03071 53.6877V55.1089C3.03071 55.787 3.14305 56.461 3.36363 57.1063L3.57309 57.719C3.99676 58.9584 4.92169 59.9889 6.14602 60.5859C6.88526 60.9463 7.70492 61.1343 8.53665 61.1343H10.2454L12.9661 60.8396C13.9217 60.736 14.8626 60.5347 15.7723 60.239C16.6164 59.9646 17.4292 59.6105 18.1982 59.182L20.3245 57.9972L22.7596 56.5726C23.4712 56.1562 24.4052 56.3642 24.8455 57.0371C25.2859 57.7101 25.0659 58.5931 24.3542 59.0095L21.8913 60.4505L19.7369 61.6509C18.7924 62.1771 17.7942 62.612 16.7575 62.949C15.6403 63.3121 14.4847 63.5594 13.3111 63.6866L10.4185 64H8.53665C7.2217 64 5.92581 63.7027 4.75708 63.1329C2.82141 62.1892 1.35911 60.5598 0.689283 58.6004L0.479829 57.9877C0.161905 57.0576 0 56.0863 0 55.1089V53.6877C0 52.5133 0.119052 51.3416 0.355522 50.1887L0.75383 48.2468C1.26706 45.7445 2.0387 43.296 3.05765 40.9362L5.52788 35.2156L8.66421 29.5696C10.8781 25.5842 13.4591 21.7911 16.3773 18.2342L16.9812 17.4981C18.9764 15.0663 21.155 12.7743 23.5002 10.64L24.5975 9.64141C26.5252 7.88703 28.6018 6.28516 30.8066 4.85192L33.4228 3.15125C34.5218 2.4368 35.6976 1.83412 36.9305 1.35323L38.4076 0.777141Z" fill="#FEDC5A"/>
<path fill-rule="evenodd" clip-rule="evenodd" d="M28.8297 12.1556C28.983 11.6483 29.5422 11.3546 30.0786 11.4995L31.5844 11.9063C32.9949 12.2874 34.365 12.7913 35.6771 13.4116L36.3487 13.7291C37.3969 14.2247 38.3868 14.8236 39.3019 15.5158L39.3352 15.541C40.1857 16.1843 40.9656 16.9071 41.6629 17.6983C42.7526 18.9347 43.6296 20.3257 44.2618 21.8201L44.3773 22.0931C44.5845 22.5829 44.3325 23.1388 43.8145 23.3347C43.2965 23.5307 42.7085 23.2924 42.5013 22.8026L42.3858 22.5296C41.8324 21.2214 41.0646 20.0037 40.1107 18.9213C39.5003 18.2287 38.8176 17.596 38.073 17.0328L38.0397 17.0076C37.2357 16.3994 36.366 15.8733 35.4451 15.4379L34.7736 15.1204C33.5732 14.5529 32.3198 14.0919 31.0293 13.7433L29.5236 13.3365C28.9871 13.1915 28.6765 12.6628 28.8297 12.1556Z" fill="#CFCDCD"/>
<path fill-rule="evenodd" clip-rule="evenodd" d="M4.02886 30.0993C3.48504 29.9814 3.14533 29.4689 3.27008 28.9547L3.62023 27.5115C3.94823 26.1595 4.40813 24.8392 4.99402 23.5676L5.29389 22.9167C5.76194 21.9008 6.34219 20.9345 7.02496 20.0339L7.0498 20.0011C7.68439 19.1641 8.40654 18.3896 9.20533 17.6894C10.4537 16.5953 11.8764 15.6937 13.4213 15.0179L13.7035 14.8945C14.2099 14.673 14.8103 14.8815 15.0445 15.3603C15.2788 15.8391 15.0582 16.4068 14.5518 16.6283L14.2696 16.7518C12.9172 17.3434 11.6717 18.1326 10.5789 19.0905C9.87965 19.7034 9.24746 20.3814 8.69194 21.1142L8.6671 21.1469C8.06723 21.9382 7.55745 22.7871 7.14623 23.6797L6.84635 24.3306C6.31036 25.4939 5.88962 26.7018 5.58955 27.9386L5.2394 29.3819C5.11465 29.8961 4.57267 30.2173 4.02886 30.0993Z" fill="#C8C6C6"/>
<path fill-rule="evenodd" clip-rule="evenodd" d="M25.9051 50.5631C25.8493 51.088 25.354 51.4708 24.7989 51.418L23.2407 51.27C21.7811 51.1313 20.3383 50.8649 18.9307 50.4743L18.2102 50.2743C17.0857 49.9622 15.9993 49.5387 14.9689 49.0107L14.9314 48.9915C13.9738 48.5009 13.0709 47.9202 12.2363 47.2584C10.9321 46.2241 9.80829 45.0021 8.90605 43.6373L8.74122 43.3879C8.44549 42.9406 8.58929 42.3513 9.0624 42.0716C9.53552 41.792 10.1588 41.928 10.4545 42.3753L10.6194 42.6247C11.4092 43.8194 12.393 44.8892 13.5347 45.7946C14.2653 46.374 15.0557 46.8823 15.8941 47.3119L15.9315 47.3311C16.8368 47.7949 17.7913 48.167 18.7793 48.4412L19.4997 48.6411C20.7874 48.9985 22.1074 49.2422 23.4428 49.3691L25.0009 49.5172C25.5561 49.5699 25.9609 50.0382 25.9051 50.5631Z" fill="#CFCDCD"/>
<path d="M34.2711 51.2764H37.1413L48.6221 26.1182H45.7519L39.0305 40.9612L32.7451 26.1182H29.8023L37.5046 44.1272L34.2711 51.2764Z" fill="black"/>
<path d="M70.3002 26.1182H67.6116V29.4204C65.6134 26.8331 63.1792 25.6756 59.8003 25.6756C53.9873 25.6756 49.6638 29.863 49.6638 35.5142C49.6638 40.9612 54.1689 45.1826 60.0183 45.1826C63.6151 45.1826 66.0494 43.8208 67.6116 40.9612V42.2208C67.6116 44.0591 67.3936 45.2166 66.8123 46.3741C65.7587 48.5189 63.3972 49.7444 60.309 49.7444C58.1654 49.7444 56.4578 49.1657 55.0409 47.9742C54.3142 47.3614 53.8783 46.7826 53.0063 45.3188H50.3904C51.8437 49.6763 55.3679 52.0594 60.3816 52.0594C63.8331 52.0594 66.7397 50.8679 68.4473 48.7231C69.7915 47.0209 70.3002 45.0464 70.3002 41.4037V26.1182ZM59.764 27.9906C64.2691 27.9906 67.6116 31.0545 67.6116 35.2419C67.6116 39.5654 64.3418 42.8676 60.0183 42.8676C55.6585 42.8676 52.3887 39.6335 52.3887 35.3099C52.3887 31.1566 55.5858 27.9906 59.764 27.9906Z" fill="black"/>
<path d="M95.0307 36.2632C95.0307 33.778 94.7037 32.3141 93.8317 30.7481C92.0878 27.6161 88.5637 25.6756 84.6398 25.6756C78.8994 25.6756 74.358 29.931 74.358 35.344C74.358 40.859 78.9721 45.1826 84.8578 45.1826C89.1813 45.1826 93.0688 42.5272 94.522 38.6122H91.7245C90.5982 41.1654 87.8007 42.8676 84.7852 42.8676C80.6797 42.8676 77.2645 39.9399 77.0465 36.2632H95.0307ZM77.1192 33.9822C77.8458 30.4077 80.8613 27.9906 84.6398 27.9906C88.491 27.9906 91.4339 30.2715 92.3421 33.9822H77.1192Z" fill="black"/>
<path d="M98.7507 44.74H101.439V34.4929C101.439 32.4843 101.694 31.3949 102.384 30.3736C103.438 28.8757 105.327 27.9906 107.507 27.9906C109.432 27.9906 111.14 28.6714 112.23 29.897C113.247 31.0545 113.647 32.4503 113.647 34.9695V44.74H116.335V34.9695C116.335 31.8375 115.863 30.1694 114.591 28.5693C113.029 26.6969 110.631 25.6756 107.834 25.6756C105.218 25.6756 103.111 26.5948 101.439 28.5353V26.1182H98.7507V44.74Z" fill="black"/>
<path d="M120.926 44.74H123.614V26.1182H120.926V44.74ZM120.926 23.8713H123.614V19.5818H120.926V23.8713Z" fill="black"/>
<path d="M144.948 39.259C142.877 41.8463 140.988 42.8676 138.154 42.8676C133.685 42.8676 130.161 39.5994 130.161 35.4461C130.161 31.2587 133.613 27.9906 138.045 27.9906C140.988 27.9906 143.422 29.3183 144.948 31.7694H147.964C146.365 28.0246 142.587 25.6756 138.081 25.6756C132.123 25.6756 127.436 29.9651 127.436 35.378C127.436 40.9271 132.159 45.1826 138.263 45.1826C140.661 45.1826 142.914 44.5017 144.73 43.174C146.074 42.2208 146.874 41.2335 148 39.259H144.948Z" fill="black"/>
</svg>
