<svg width="843" height="447" viewBox="0 0 843 447" fill="none" xmlns="http://www.w3.org/2000/svg">
<path d="M752.02 9.78744C752.732 7.082 757.395 2.98818 761.926 1.09122C763.712 0.343408 764.857 0.735498 767.602 3.03621C769.287 4.44789 769.419 5.2957 768.543 9.07554C768.089 11.0361 768.093 11.6543 768.562 11.9431C768.891 12.1454 771.387 12.6991 774.109 13.1738C780.41 14.2719 781.188 14.6402 781.849 16.8381C782.584 19.2805 781.092 22.3106 778.764 23.1011C777.884 23.4001 775.847 25.0345 774.239 26.7325C771.698 29.4161 771.021 29.862 769.067 30.144C766.179 30.5608 764.92 31.9055 764.243 35.2933C763.278 40.1276 763.2 40.2111 759.737 40.1296C755.152 40.0218 754.991 40.0529 754.991 41.0458C754.991 42.4764 756.008 42.9903 760.326 43.741C762.538 44.1259 764.741 44.7941 765.221 45.2265C766.013 45.9408 768.148 53.0463 768.148 54.969C768.148 55.4072 767.6 56.4146 766.93 57.2076C764.423 60.1741 766.049 60.5439 770.341 57.9835L773.639 56.0167L776.935 56.6029C779.904 57.1314 780.552 57.0901 783.498 56.1836C785.297 55.6309 787.142 55.1781 787.599 55.1781C788.055 55.1781 789.617 56.238 791.069 57.5332L793.71 59.8883L790.188 63.9209C788.25 66.1387 786.665 68.3641 786.665 68.8669C786.665 69.9355 789.884 82.8585 792.32 91.5741C795.205 101.895 796.919 106.748 798.727 109.722C800.386 112.45 800.425 112.613 799.565 113.239C798.38 114.102 793.697 115.838 792.555 115.838C791.073 115.838 790.499 117.05 789.811 121.639L789.155 126.011L790.59 129.164C791.38 130.898 792.026 132.649 792.026 133.055C792.026 134.003 790.678 133.994 788.368 133.033L786.539 132.272L786.856 133.639C787.856 137.961 787.808 138.472 786.179 140.829C784.269 143.593 784.046 142.959 790.395 152.811C793.692 157.927 795.294 160.003 795.857 159.894C796.296 159.809 796.685 159.416 796.721 159.02C796.757 158.624 796.812 158.049 796.843 157.741C796.913 157.036 799.509 156.116 801.431 156.116C802.582 156.116 803.473 156.725 805.622 158.98C807.963 161.437 808.717 161.919 810.932 162.377C812.353 162.67 814.358 162.91 815.388 162.91C816.57 162.91 817.36 163.169 817.53 163.61C817.847 164.432 817.407 167.659 816.823 168.799C816.245 169.927 817.565 174.608 818.726 175.543C819.254 175.969 820.914 176.592 822.415 176.926C825.59 177.634 826.824 178.881 827.303 181.868C827.581 183.598 827.418 184.186 826.118 186.131C824.793 188.114 824.65 188.652 824.932 190.571C825.109 191.772 825.287 192.775 825.33 192.8C826.461 193.46 831.413 197.207 831.824 197.713C832.138 198.1 832.548 200.769 832.735 203.645L833.075 208.873L835.771 212.218C837.254 214.058 838.769 216.281 839.139 217.159C840.247 219.796 842.215 227.579 842.216 229.336C842.218 230.944 842.184 230.971 840.491 230.698C838.471 230.371 821.338 222.292 807.331 215.06L797.542 210.006L792.665 204.777C788.712 200.54 787.723 199.181 787.447 197.608C786.574 192.637 785.716 190.673 783.739 189.113C781.521 187.364 781.333 186.269 782.501 181.897L783.198 179.289L778.579 166.126C773.203 150.806 772.734 149.099 772.289 143.256C772.105 140.854 771.646 138.234 771.268 137.433C770.885 136.623 768.94 134.794 766.879 133.308C762.022 129.806 761.657 129.281 762.568 127.11C764.149 123.342 762.649 124.122 760.815 128.022L759.635 130.53L763.001 133.644L766.367 136.758L766.268 139.522C766.213 141.042 766.614 144.578 767.158 147.38C768.266 153.079 768.381 154.945 767.653 155.394C767.38 155.562 765.94 155.548 764.452 155.362C762.342 155.1 761.224 154.613 759.359 153.145C758.044 152.11 756.626 151.264 756.207 151.264C755.419 151.264 750.79 157.985 750.31 159.826C750.002 161.006 751.161 165.425 754.364 175.285C757.55 185.091 758.099 185.863 760.566 184.004C761.855 183.034 762.162 183.093 763.542 184.576C765.208 186.366 765.044 187.55 762.748 190.317C760.102 193.505 759.696 194.365 758.15 200.042C756.299 206.835 756.35 206.766 753.493 206.429C749.837 205.998 749.046 205.411 749.424 203.405C749.598 202.485 749.541 201.733 749.299 201.733C748.841 201.733 740.859 206.517 740.859 206.792C740.859 206.878 741.188 207.877 741.59 209.012C742.769 212.338 742.578 213.322 740.594 214.148C738.845 214.876 738.726 215.035 738.221 217.343C738.005 218.328 737.409 218.837 735.721 219.479C733.383 220.368 732.575 221.32 732.575 223.182C732.575 224.1 732.119 224.474 730.156 225.168C728.124 225.888 727.179 226.699 724.236 230.256C722.31 232.582 720.178 235.324 719.498 236.347C718.288 238.168 718.279 238.251 719.043 240.304C719.882 242.558 719.665 244.532 718.169 248.255C717.412 250.139 717.416 250.16 719.16 252.875L720.912 255.602L719.349 261.457L717.786 267.311L718.575 274.093L719.363 280.875L717.745 288.255C715.414 298.887 715.357 299.274 716.143 299.274C716.509 299.274 718.409 298.255 720.363 297.01L723.916 294.746L725.517 295.605C726.89 296.341 727.477 296.387 729.627 295.927C733.267 295.15 733.431 295.198 734.543 297.369C735.377 298.996 735.68 299.243 736.258 298.765C737.221 297.97 737.139 296.672 735.986 294.421C734.627 291.767 734.75 290.985 736.839 288.996C739.938 286.046 740.141 286.004 748.216 286.645C752.193 286.96 755.651 287.093 755.899 286.941C756.147 286.788 756.486 285.733 756.653 284.597C757.31 280.11 757.367 280.281 754.783 278.932C751.684 277.315 751.101 276.391 752.08 274.653C752.489 273.927 753.541 272.851 754.419 272.262L756.014 271.192L764.037 279.288C768.45 283.741 772.575 287.931 773.203 288.598C773.832 289.265 779.804 292.848 786.475 296.561C800.41 304.315 802.259 305.464 802.259 306.369C802.259 306.73 800.74 307.788 798.884 308.719C797.028 309.65 795.378 310.623 795.217 310.882C794.879 311.427 798.316 319.875 800.133 322.966C801.506 325.301 802.511 325.837 810.992 328.758C816.235 330.564 818.764 332.232 820.068 334.744C821.037 336.608 820.49 336.812 815.619 336.408C812.734 336.169 811.518 336.228 811.518 336.607C811.518 336.903 812.066 338.489 812.736 340.131C814.95 345.556 814.398 345.926 808.584 342.914C805.366 341.247 804.317 340.369 801.866 337.291C800.269 335.285 797.83 331.723 796.446 329.375C794.553 326.164 793.402 324.774 791.798 323.764C790.625 323.026 787.73 320.125 785.363 317.318C782.997 314.511 779.297 310.121 777.139 307.564C773.895 303.717 772.674 302.644 770.073 301.354C768.344 300.496 766.575 299.787 766.14 299.777C763.892 299.726 768.175 309.419 773.163 315.67C776.821 320.253 780.283 325.374 782.419 329.361C784.076 332.453 784.121 332.69 784.671 341.251C784.994 346.272 785.645 351.74 786.203 354.111C787.033 357.639 787.243 361.105 787.655 378.078L788.136 397.919L784.938 405.011C783.179 408.91 781.478 412.35 781.157 412.653C780.836 412.957 778.272 413.906 775.458 414.763C772.643 415.62 770.099 416.519 769.803 416.76C769.507 417.001 769.005 418.771 768.686 420.693C768.017 424.725 766.598 428.236 765.462 428.671C764.467 429.051 758.613 427.498 757.923 426.67C757.539 426.209 757.864 425.505 759.187 423.928C760.166 422.762 761.406 420.91 761.941 419.815L762.914 417.822L760.173 413.677C758.623 411.334 756.161 408.435 754.506 407.008C752.897 405.62 751.58 404.09 751.58 403.608C751.58 402.02 753.985 395.614 754.805 395.015C755.248 394.693 756.622 394.297 757.859 394.137C761.705 393.638 762.449 393.149 762.113 391.343C761.954 390.482 761.607 387.68 761.341 385.116C760.967 381.489 760.371 379.206 758.656 374.841C757.137 370.971 756.453 368.509 756.453 366.91C756.453 365.157 756.071 363.964 754.888 362.02C754.028 360.606 753.145 359.449 752.928 359.449C752.53 359.449 747.997 366.21 746.583 368.913C746.165 369.713 744.245 372.169 742.317 374.371L738.813 378.375H736.268C733.724 378.375 733.719 378.372 730.086 374.568L726.451 370.762L720.99 370.418C715.624 370.079 715.437 370.103 710.173 371.798C707.228 372.746 704.38 373.522 703.845 373.522C702.857 373.522 699.464 370.658 685.308 357.877C676.441 349.871 675.404 349.312 671.73 350.557C670.04 351.131 668.399 351.255 665.219 351.051L660.968 350.778L657.24 353.202C652.636 356.195 648.478 360.057 647.224 362.505C646.284 364.34 646.284 364.366 647.244 365.913C647.777 366.771 648.787 368.011 649.491 368.669C650.194 369.327 651.204 370.565 651.734 371.419L652.698 372.972L651.46 375.902C650.35 378.527 650.222 379.479 650.222 385.087C650.222 391.308 650.23 391.354 651.684 393.176C652.488 394.183 653.146 395.198 653.146 395.431C653.146 395.663 652.041 396.531 650.69 397.358C648.902 398.454 647.902 399.517 647.009 401.272C645.623 403.997 644.248 404.783 639.989 405.288C638.19 405.501 636.548 405.373 634.996 404.898L632.684 404.191L631.179 406.084C629.55 408.132 627.835 408.517 625.047 407.461C624.298 407.178 622.643 406.923 621.368 406.894C618.605 406.831 617.705 407.508 615.533 411.288C613.324 415.132 611.816 416.666 605.964 421.015L600.724 424.909L592.946 425.905C582.11 427.292 580.328 427.236 577.643 425.424C574.167 423.079 570.86 422.315 564.139 422.303L558.217 422.292L554.552 424.84C552.231 426.453 550.382 427.387 549.51 427.387C547.343 427.385 538.602 425.145 537.899 424.411C537.55 424.046 536.723 422.22 536.061 420.351C534.631 416.316 535.104 416.55 523.606 414.197C515.813 412.602 515.813 412.602 514.731 413.565C513.098 415.019 508.905 421.12 508.905 422.041C508.905 422.486 509.682 425.078 510.632 427.8C511.582 430.522 512.224 432.968 512.058 433.235C511.892 433.503 510.193 434.505 508.281 435.464L504.807 437.206L495.702 437.011C489.592 436.88 486.365 436.624 485.891 436.233C485.503 435.912 484.923 434.777 484.602 433.71C484.281 432.644 483.617 431.557 483.126 431.296C482.635 431.034 479.78 430.38 476.781 429.842L471.328 428.865L464.412 432.302C456.482 436.243 454.566 437.538 454.137 439.241C453.903 440.168 453.341 440.584 451.764 440.995C445.374 442.663 444.279 443.113 442.787 444.682C441.441 446.098 440.925 446.313 438.889 446.307C435.803 446.297 434.345 445.501 433.015 443.098L431.92 441.122L426.758 440.831C423.918 440.671 421.319 440.312 420.982 440.033C420.645 439.755 418.247 436.611 415.654 433.048L410.939 426.568L403.291 426.254C394.7 425.901 394.51 425.822 393.474 422.171C393.152 421.037 392.689 420.109 392.444 420.109C392.199 420.109 391.295 420.982 390.433 422.05C389.571 423.117 388.562 423.991 388.19 423.991C387.294 423.991 386.098 421.178 380.97 407.006C377.055 396.189 376.447 394.854 374.225 392.205C373.273 391.07 372.283 389.888 371.647 389.13L371.071 388.443C370.679 387.974 370.229 386.864 370.07 385.974L369.781 384.356L364.421 386.066C359.99 387.48 358.328 387.777 354.836 387.778C349.562 387.779 348.938 387.376 349.356 384.232C349.653 382.006 349.626 381.951 347.619 380.565C346.087 379.508 344.863 379.107 342.689 378.951C341.098 378.836 339.704 378.593 339.591 378.41C339.41 378.119 337.863 367.14 337.863 366.151C337.863 365.609 334.702 364.111 331.005 362.901L327.801 361.853L325.02 363.078C322.367 364.247 322.034 364.28 317.747 363.82C315.276 363.555 309.527 363.249 304.97 363.14C296.308 362.934 291 362.183 284.135 360.19C278.638 358.595 278.316 358.918 280.056 364.29C282.101 370.603 281.859 371.155 277.723 369.613C276.232 369.058 274.407 368.673 273.667 368.757C272.495 368.892 272.205 369.276 271.424 371.734C270.931 373.286 270.273 374.633 269.962 374.727C269.652 374.82 268.794 375.028 268.058 375.189C267.32 375.35 266.717 375.732 266.717 376.038C266.717 376.344 267.726 378.206 268.958 380.174C270.517 382.665 271.116 384.08 270.927 384.826C270.779 385.415 269.561 386.971 268.221 388.284L265.786 390.671L262.889 388.89C261.296 387.911 259.852 387.11 259.68 387.11C259.509 387.11 258.731 387.579 257.952 388.153C256.593 389.153 256.483 389.162 255.259 388.363C252.579 386.614 250.286 383.863 249.929 381.968C249.276 378.501 248.964 378.248 245.801 378.613L242.995 378.938L240.846 376.474L238.698 374.01L234.668 374.85C230.061 375.808 229.327 375.59 228.456 373.004C227.941 371.473 227.718 371.327 225.706 371.194L223.518 371.049L222.635 366.341C221.458 360.064 221.323 359.781 219.013 358.744C217.441 358.038 216.916 357.478 216.531 356.101C216.263 355.14 216.043 354.05 216.041 353.679C216.039 353.153 215.457 353.064 213.398 353.275C210.497 353.574 209.216 352.823 209.216 350.825C209.216 350.262 209.026 349.683 208.794 349.54C208.429 349.316 194.64 351.246 191.917 351.903C191.377 352.033 190.399 353.174 189.724 354.459C188.548 356.699 188.432 356.778 186.408 356.736C183.824 356.682 183.22 356.078 182.209 352.534C181.771 350.999 181.145 349.749 180.817 349.757C179.822 349.78 174.475 352.848 174.075 353.625C173.869 354.026 173.581 354.899 173.432 355.566C173.255 356.366 172.088 357.506 170.01 358.909L166.857 361.039L166.896 363.519C166.918 364.884 166.776 366.704 166.581 367.565C166.262 368.976 166.422 369.304 168.213 370.906C170.622 373.058 171.069 374.351 171.49 380.36L171.817 385.014L170.05 386.101C168.386 387.125 168.302 387.298 168.59 389.09L168.895 390.992H166.17C164.671 390.992 161.292 390.748 158.659 390.45L153.874 389.908L149.544 392.381C147.162 393.741 144.483 395.094 143.591 395.387L141.969 395.92V401.4V406.88L139.532 410.209L137.096 413.537V420.888C137.096 426.369 136.933 428.375 136.456 428.769C135.599 429.476 129.994 430.769 127.743 430.778C125.144 430.788 124.426 429.532 124.426 424.968C124.426 421.572 124.3 421.123 122.675 418.72C119.951 414.691 119.095 412.479 119.593 410.751C119.907 409.66 119.788 408.763 119.131 407.293C117.639 403.948 115.89 402.29 112.962 401.443C109.947 400.57 109.458 399.912 108.081 394.874C106.928 390.658 106.156 389.174 103.917 386.859C102.88 385.787 100.546 382.73 98.7314 380.065C96.3431 376.559 94.9163 374.952 93.5651 374.25C92.5378 373.716 91.5199 372.952 91.3025 372.551C91.0852 372.151 90.671 368.984 90.382 365.515C90.0097 361.042 89.4864 358.147 88.5853 355.566C87.8866 353.565 86.8993 349.963 86.3925 347.564C85.8852 345.164 85.2366 343.123 84.9511 343.029C83.784 342.641 81.6316 340.45 81.3602 339.374C81.1379 338.494 80.6351 338.153 79.2248 337.929C78.2103 337.767 76.6295 337.084 75.7124 336.41C74.7953 335.736 73.5288 335.185 72.8972 335.185C70.0319 335.185 67.2684 332.661 67.4999 330.256C67.6261 328.942 67.8878 328.604 68.8741 328.478C71.5021 328.142 71.5732 326.919 69.2371 322.267C67.8264 319.458 68.3059 318.471 70.8803 318.881C71.9748 319.055 73.7081 319.678 74.7319 320.265C76.5344 321.298 76.6246 321.304 77.5704 320.451C79.2365 318.95 80.1853 319.604 81.1696 322.933C81.6628 324.6 82.2734 325.964 82.5272 325.964C82.7806 325.964 83.0058 327.002 83.0277 328.27C83.0491 329.537 83.1354 331.284 83.2192 332.152C83.3025 333.019 83.3985 334.056 83.4322 334.457C83.4658 334.857 83.9316 335.185 84.4677 335.185C85.0037 335.185 85.4423 335.37 85.4423 335.596C85.4423 335.936 87.2224 338.044 89.3972 340.28C89.6569 340.547 90.439 341.36 91.1354 342.087L92.4019 343.408L94.3126 341.901C96.0664 340.517 96.4421 340.416 98.8732 340.665L101.523 340.938V338.564C101.523 335.629 102.244 335.13 105.665 335.695C109.176 336.275 109.257 336.263 108.976 335.192C107.893 331.069 113.766 328.284 118.091 330.87C119.029 331.431 120.308 332.357 120.931 332.929L122.066 333.969L125.073 330.687C127.354 328.198 128.638 327.221 130.389 326.641C132.426 325.967 132.766 325.65 133.278 323.945C133.835 322.096 133.762 321.82 131.606 317.558C129.975 314.336 129.272 312.299 129.062 310.193C128.547 305.018 128.464 304.842 125.866 303.434C123.447 302.123 121.798 300.348 120.353 297.499C119.626 296.068 119.643 295.744 120.604 292.559L121.633 289.151L120.583 285.356L119.533 281.561L121.723 279.62C122.928 278.553 124.269 276.818 124.703 275.765C125.445 273.967 125.44 273.812 124.623 273.217C124.144 272.869 122.93 272.584 121.925 272.584C119.844 272.584 119.448 272.146 119.083 269.439C118.859 267.775 118.533 267.348 116.751 266.369C115.612 265.744 114.68 264.932 114.68 264.566C114.68 263.474 121.499 253.658 122.257 253.658C122.642 253.658 123.342 254.472 123.813 255.466C124.808 257.566 126.835 258.57 128.052 257.564C128.593 257.117 128.812 256.058 128.812 253.895C128.812 250.626 130.728 243.161 132.131 240.967C132.584 240.26 134.094 238.351 135.487 236.725L138.021 233.77L137.136 231.218C136.65 229.814 135.455 226.752 134.481 224.414C133.507 222.075 132.71 219.746 132.71 219.237C132.71 218.095 140.207 206.174 141.651 205.019C142.228 204.558 143.298 204.176 144.029 204.17C145.045 204.162 145.831 203.56 147.37 201.611C148.477 200.21 149.855 198.811 150.432 198.503C151.933 197.7 159.989 195.424 161.329 195.424C161.95 195.424 164.102 196.111 166.111 196.951C168.12 197.791 169.89 198.353 170.043 198.2C170.197 198.048 169.967 196.703 169.532 195.213C168.948 193.215 168.876 192.253 169.255 191.548C169.537 191.022 169.63 190.041 169.46 189.368C169.291 188.695 169.23 188.12 169.327 188.09C169.423 188.06 173.777 187.866 179.004 187.659C187.949 187.304 197.502 185.932 198.593 184.845C198.795 184.644 199.406 182.321 199.951 179.683C200.496 177.046 201.181 174.6 201.474 174.25C201.765 173.899 202.732 173.476 203.62 173.31C205.591 172.942 206.552 171.923 209.13 167.469C210.787 164.607 211.673 163.665 214.339 161.936C218.203 159.429 219.966 157.452 223.117 152.092L225.506 148.029L229.384 147.217C231.517 146.77 233.343 146.324 233.442 146.226C233.541 146.127 234.096 143.805 234.675 141.066C235.88 135.367 236.165 135.058 241.865 133.267C244.88 132.321 245.394 132.302 252.51 132.878C261.157 133.577 261.533 133.797 261.264 137.997C261.143 139.887 260.9 140.438 260.017 140.824C259.414 141.087 258.921 141.653 258.921 142.08C258.921 142.508 260.045 145.131 261.419 147.91C263.665 152.453 264.01 153.595 264.84 159.247C265.348 162.705 266.088 166.62 266.484 167.949C266.881 169.278 267.202 171.691 267.198 173.311C267.19 176.988 265.514 185.256 264.668 185.79C263.211 186.711 258.487 187.825 255.997 187.835C252.479 187.849 248.126 185.673 245.316 182.494C241.718 178.423 239.4 172.853 237.216 163.032C236.91 161.654 236.215 161.635 235.491 162.984C235.065 163.776 235.079 165.316 235.547 169.367L236.165 174.706L232.52 177.997C230.516 179.807 227.954 182.477 226.828 183.931L224.781 186.574L225.816 191.33C227.145 197.442 227.506 198.336 228.637 198.336C230.314 198.336 230.876 197.01 230.728 193.405C230.525 188.438 230.895 187.321 233.116 186.193C235.089 185.19 236.763 184.957 237.179 185.627C237.313 185.844 237.75 188.042 238.15 190.512C238.549 192.982 239.153 195.371 239.493 195.82C240.736 197.464 242.545 199.306 242.916 199.306C243.126 199.306 244.042 197.702 244.952 195.741C246.546 192.304 246.687 192.155 248.837 191.616C251.208 191.022 260.329 190.861 262.274 191.379C263.108 191.602 263.829 192.555 264.837 194.769C266.439 198.287 267.005 198.492 269.833 196.579L271.713 195.306L271.476 192.011L271.24 188.717L273.198 187.837C275.885 186.63 278.727 184.516 279.453 183.186C279.784 182.577 280.304 180.987 280.609 179.652C281.37 176.313 282.495 176.208 285.683 179.178C287.586 180.951 288.334 182.113 289.158 184.58L290.209 187.723L288.799 189.993C287.168 192.62 286.308 192.923 283.744 191.771C281.991 190.984 280.381 191.029 279.083 191.901C278.309 192.421 279.094 197.694 280.111 198.813C281.891 200.772 284.822 199.885 287.869 196.465C288.776 195.447 289.09 195.425 301.757 195.465C322.556 195.531 324.979 196.291 317.332 200.35C314.28 201.971 313.947 202.564 315.374 203.85C316.207 204.601 316.499 204.605 319.284 203.894C322.081 203.18 322.489 203.187 325.083 203.982C326.915 204.545 329.498 204.843 332.603 204.852L337.332 204.866L337.476 207.303C337.6 209.402 337.771 209.761 338.706 209.894C339.369 209.987 340.269 209.571 341.02 208.824C342.082 207.766 342.249 207.171 342.249 204.435C342.249 201.626 342.381 201.183 343.423 200.504C345.315 199.269 346.131 199.468 351.264 202.418L356.137 205.218L362.651 214.93L369.164 224.643L370.183 223.629C371.109 222.706 371.144 222.459 370.57 220.878C370.224 219.923 370.014 218.101 370.104 216.829C370.256 214.692 370.129 214.384 368.441 212.799C367.436 211.854 366.614 210.855 366.614 210.578C366.614 210.301 367.394 209.143 368.349 208.006C371.02 204.823 371.424 203.735 371.329 199.986C371.221 195.729 371.879 194.645 376.261 191.848C379.765 189.611 380.846 188.515 385.356 182.626L388.26 178.833L390.183 179.14C391.241 179.308 393.552 180.043 395.319 180.773C398.493 182.085 398.534 182.125 398.681 184.123C398.918 187.368 397.963 189.812 394.847 193.93L391.927 197.789L392.742 201.02C393.548 204.217 393.544 204.293 392.333 208.209C391.66 210.385 390.893 213.04 390.627 214.107C390.361 215.175 389.627 217.75 388.996 219.83L387.848 223.611L389.023 227.048L390.198 230.485L388.364 234.032C386.259 238.105 379.242 246.248 377.452 246.696C376.803 246.858 374.592 246.662 372.539 246.261C370.486 245.859 368.726 245.601 368.628 245.688C368.411 245.878 371.316 248.612 372.803 249.617C374.49 250.756 378.021 250.52 380.901 249.075C382.29 248.378 385.398 245.96 387.808 243.701L392.19 239.594L392.366 234.07L392.542 228.546L395.368 227.694C398.816 226.655 401.377 226.997 402.46 228.642C402.874 229.271 403.587 231.17 404.046 232.86C404.648 235.084 405.13 235.982 405.79 236.109C406.613 236.267 406.679 236.021 406.474 233.556C406.293 231.386 405.956 230.523 404.826 229.34C402.711 227.125 399.832 225.662 396.864 225.296C392.389 224.744 392.323 224.657 392.52 219.526C392.68 215.342 392.799 214.911 394.515 212.278C395.518 210.738 396.339 209.212 396.339 208.886C396.339 208.561 395.86 206.178 395.274 203.592L394.21 198.89L395.534 196.986C396.263 195.939 398.245 193.863 399.94 192.372C402.693 189.95 403.054 189.419 403.335 187.375C403.733 184.486 404.332 183.777 406.379 183.777C407.72 183.777 408.071 183.997 408.323 184.997C408.776 186.795 408.151 190.268 406.507 195.084C404.539 200.85 404.674 201.522 408.161 203.337C409.705 204.14 411.1 204.665 411.262 204.503C411.424 204.342 410.435 202.926 409.064 201.357C406.389 198.293 406.107 197.288 407.397 195.411C408.464 193.858 409.013 193.499 410.339 193.49C411.312 193.484 411.368 193.36 410.883 192.301C410.586 191.651 410.478 190.768 410.643 190.339C411.235 188.802 417.293 186.815 417.293 188.158C417.293 188.432 418.225 189.59 419.364 190.731C420.503 191.873 422.828 194.378 424.529 196.298C426.231 198.218 427.821 199.667 428.062 199.519C428.952 198.971 428.44 197.573 425.99 193.855C423.651 190.307 423.484 189.856 423.562 187.276C423.642 184.595 423.966 181.966 424.42 180.304C424.741 179.127 425.37 178.987 435 177.936C439.826 177.41 443.853 176.9 443.95 176.804C444.047 176.707 443.853 175.611 443.518 174.368C442.773 171.592 443.236 170.586 447.961 164.714C450.993 160.946 451.48 160.566 456.807 157.815C459.908 156.213 463.367 154.112 464.493 153.145C467.048 150.952 471.704 149.066 472.645 149.844C473.002 150.139 473.427 150.798 473.59 151.307C473.984 152.543 475.554 152.476 477.962 151.121C479.616 150.191 479.948 149.733 480.154 148.097C480.379 146.319 480.562 146.117 482.498 145.506L484.598 144.845L484.468 141.867C484.341 138.994 484.426 138.757 486.856 135.179C488.241 133.137 489.961 131.008 490.678 130.447C492.24 129.223 494.521 129.139 497.2 130.207C499.348 131.062 499.757 132.335 498.444 134.065C497.385 135.458 497.528 135.735 499.305 135.735C501.097 135.735 502.083 136.458 502.083 137.773C502.083 138.955 503.126 138.871 504.805 137.554C506.011 136.609 506.887 136.441 511.328 136.303L516.458 136.144L520.2 139.7L523.942 143.256L524.273 147.445C524.74 153.356 524.068 155.913 520.658 161.194C517.723 165.738 510.367 178.233 510.367 178.674C510.367 178.812 510.776 178.925 511.276 178.925C511.776 178.925 514.682 176.709 517.733 174.001C522.819 169.486 527.056 166.307 527.985 166.307C528.19 166.307 528.901 166.891 529.565 167.604L530.773 168.901L532.155 167.428C533.014 166.512 534.549 165.662 536.215 165.179C540.766 163.862 545.475 162.867 545.906 163.132C546.132 163.271 546.463 164.163 546.643 165.114C546.822 166.065 547.323 166.979 547.756 167.145C548.631 167.479 551.776 166.465 556.823 164.223C560.46 162.608 560.314 162.97 559.035 158.701C558.509 156.947 558.544 156.419 559.297 154.756L560.166 152.836L564.175 152.627C567.77 152.439 568.418 152.25 570.443 150.801C572.556 149.291 572.775 149.233 573.818 149.919C575.275 150.876 584.917 159.297 586.02 160.574C587.066 161.785 587.124 162.91 586.142 162.91C583.947 162.91 586.732 165.337 590.567 166.765C593.735 167.946 597.552 168.937 597.837 168.653C597.95 168.541 597.417 166.493 596.653 164.102C595.888 161.712 595.118 159.073 594.94 158.238C594.635 156.796 594.707 156.703 596.375 156.391C597.342 156.211 599.614 156.208 601.425 156.386L604.716 156.709L605.325 154.686C606.131 152.009 607.432 150.778 609.459 150.778C611.359 150.778 614.438 148.751 616.128 146.386L617.249 144.819L615.828 143.795C611.855 140.932 611.669 140.621 611.374 136.345C611.176 133.46 611.274 132.151 611.729 131.604C612.076 131.189 616.029 128.682 620.516 126.031C625.003 123.382 630.068 120.15 631.773 118.849C635.997 115.628 636.614 115.352 639.591 115.36C643.049 115.37 643.615 115.782 643.25 118.02C642.98 119.681 643.038 119.796 644.032 119.568C644.622 119.434 647.486 118.833 650.396 118.234C656.532 116.972 655.629 117.884 660.928 107.588L664.3 101.037L668.294 98.9159C672.027 96.9335 672.462 96.8151 674.942 97.1053C677.891 97.4504 679.731 98.2453 681.12 99.7744C682.331 101.106 682.835 101.063 684.724 99.4599C685.75 98.5898 686.869 96.7438 687.939 94.1534C688.842 91.9692 690.925 88.3266 692.569 86.0594C695.575 81.9127 697.459 78.4182 697.479 76.9536C697.498 75.5613 698.629 75.1435 703.814 74.6136C706.78 74.3108 709.054 73.8449 709.286 73.4931C709.505 73.1616 709.626 72.1265 709.556 71.1923L709.429 69.4939L706.13 69.2114C703.39 68.977 702.566 68.6898 701.264 67.5129C699.197 65.6436 698.968 65.3074 698.959 64.1272C698.955 63.5778 700.864 59.7562 703.201 55.6348C706.892 49.1281 708.031 47.5636 711.851 43.7532C716.947 38.6704 724.929 32.5408 736.578 24.7647C741.867 21.2338 745.271 19.2674 746.093 19.2674C746.798 19.2674 748.641 19.6217 750.19 20.054C751.738 20.4869 753.361 20.7053 753.795 20.5393C755.195 20.0041 754.256 19.0757 751.79 18.5574C749.658 18.1095 749.369 17.897 749.229 16.676C749.128 15.8025 749.515 14.6504 750.288 13.5226C750.957 12.5453 751.737 10.8643 752.02 9.78744Z" fill="#FDF8E4"/>
<path d="M696.648 22.1791C697.002 22.1791 698.487 21.4206 699.949 20.4932C701.411 19.5658 702.983 18.8015 703.442 18.7947C704.936 18.7724 705.438 20.6165 705.148 25.0607C704.648 32.7242 703.338 35.666 700.72 35.0113C699.222 34.6372 696.671 31.8895 695.723 29.6306C694.556 26.8484 695.135 22.1791 696.648 22.1791Z" fill="#FDF8E4"/>
<path d="M369.522 74.5893C367.073 74.5893 368.345 70.579 371.462 68.469C373.644 66.9932 373.907 67.0054 378.372 68.7946C383.756 70.9512 383.964 71.2181 383.669 75.5866L383.426 79.1995L380.816 80.0614C379.38 80.5355 376.95 81.0542 375.415 81.2139C372.93 81.4725 372.406 81.3604 370.63 80.1904C368.006 78.4604 367.69 77.5384 369.263 76.1912C370.771 74.8994 370.821 74.5893 369.522 74.5893Z" fill="#FDF8E4"/>
<path d="M387.546 79.5173C386.781 74.8252 386.826 74.7684 393.172 72.3551C397.082 70.8677 397.967 70.9138 399.463 72.6856C401.091 74.6117 401.053 75.4196 399.247 77.2748C397.502 79.0675 397.673 79.9551 400.043 81.4138C401.659 82.4082 401.783 82.414 404.886 81.639C406.637 81.2018 408.469 80.9703 408.958 81.1246C410.001 81.4541 411.616 84.7516 411.366 86.0424C411.138 87.2231 407.703 89.1298 405.785 89.14C404.951 89.1443 403.705 88.7071 403.017 88.1689L401.768 87.1896L399.906 88.4484C398.447 89.435 397.729 89.6311 396.583 89.3554C395.779 89.1623 393.531 89.0264 391.588 89.0541L388.055 89.104L388.051 85.8503C388.049 84.0605 387.822 81.211 387.546 79.5173Z" fill="#FDF8E4"/>
<path d="M460.476 95.8523C461.443 92.8062 462.197 91.3878 463.586 90.0037C464.595 88.9992 465.774 88.1772 466.206 88.1772C467.835 88.1772 472.352 95.7301 472.365 98.4734C472.375 100.743 473.346 102.344 475.038 102.878C475.842 103.132 477.186 103.986 478.025 104.775C479.227 105.906 479.6 106.719 479.782 108.608C479.909 109.927 480.146 111.138 480.307 111.299C480.468 111.459 481.39 111.127 482.354 110.56C484.614 109.232 485.237 109.262 486.327 110.748C486.818 111.418 487.714 112.061 488.319 112.177C488.922 112.292 489.664 112.538 489.966 112.724C490.659 113.15 494.286 120.812 494.286 121.848C494.286 122.318 492.931 123.299 490.82 124.358C484.868 127.343 478.64 129.937 478.15 129.634C477.863 129.458 477.806 127.514 478.004 124.654L478.328 119.963L475.952 120.11C474.51 120.199 472.044 119.818 469.678 119.14C466.037 118.096 465.718 117.896 464.848 116.123C464.302 115.008 463.822 112.752 463.688 110.663C463.561 108.705 463.278 107.103 463.058 107.103C462.838 107.103 462.303 106.359 461.869 105.449C461.435 104.539 460.658 103.413 460.141 102.947C458.897 101.827 458.953 100.654 460.476 95.8523Z" fill="#FDF8E4"/>
<path d="M601.979 97.1087C601.979 96.4526 609.597 92.402 613.39 91.0417C617.019 89.7402 618.547 89.9378 618.547 91.7076C618.547 93.8996 617.428 98.929 616.8 99.5536C616.104 100.247 608.137 102.25 606.073 102.25C605.184 102.25 604.513 101.672 603.43 99.9714C602.632 98.7184 601.979 97.43 601.979 97.1087Z" fill="#FDF8E4"/>
<path d="M590.311 100.802C590.996 100.798 593.079 100.26 594.94 99.607C596.802 98.9538 598.862 98.4622 599.519 98.5151C601.214 98.651 602.533 101.172 602.817 104.82C603.048 107.769 603.003 107.906 600.652 111.471C599.332 113.472 597.141 116.311 595.782 117.779C593.419 120.333 593.21 120.446 590.945 120.407C589.644 120.383 587.327 119.998 585.797 119.55C582.657 118.629 582.741 118.784 581.207 111.113C580.156 105.859 580.428 105.477 585.038 105.736L588.363 105.923L588.042 103.791C587.686 101.428 588.152 100.815 590.311 100.802Z" fill="#FDF8E4"/>
<path d="M603.31 121.837L605.447 120.555C607.051 119.592 608.253 119.268 610.271 119.254C613.159 119.234 616.242 120.484 616.501 121.781C616.719 122.876 606.706 130.882 605.119 130.882C604.254 130.882 603.92 129.706 603.596 125.532L603.31 121.837Z" fill="#FDF8E4"/>
<path d="M379.527 134.293C384.888 133.741 390.37 132.986 391.71 132.614C394.79 131.761 397.92 131.68 398.678 132.435C399 132.755 399.263 134.057 399.263 135.329C399.263 137.231 398.99 137.951 397.729 139.382C396.885 140.339 395.614 141.421 394.905 141.786C394.196 142.151 389.898 142.915 385.353 143.484C377.036 144.525 373.961 145.424 370.61 147.796C369.886 148.308 366.991 149.978 364.177 151.507C354.878 156.559 341.993 167.619 340.254 172.041C339.73 173.373 339.741 179.438 340.273 183.535C340.774 187.386 340.282 188.348 337.999 187.979C335.737 187.613 329.159 182.61 328.351 180.641C328.018 179.831 327.263 176.721 326.672 173.732C325.648 168.549 325.634 168.17 326.388 165.589C327.137 163.024 327.319 162.814 329.849 161.622C331.34 160.919 334.308 158.708 336.572 156.614C338.802 154.552 341.228 152.715 341.965 152.53C342.701 152.346 344.437 151.052 345.822 149.654C348.282 147.172 358.394 139.411 361.432 137.674C363.763 136.341 368.826 135.395 379.527 134.293Z" fill="#FDF8E4"/>
<path d="M85.9296 187.85C85.9296 187.514 86.5324 187.148 87.2696 187.037C88.0069 186.925 89.9644 186.802 91.6207 186.762C94.7268 186.687 95.2584 186.938 96.8811 189.245C97.5979 190.264 97.6662 190.271 99.0384 189.464C101.563 187.978 101.834 188.237 103.651 193.847C104.58 196.716 105.489 199.868 105.672 200.85L106.005 202.637L103.432 203.398C99.5174 204.556 97.5507 204.403 96.0561 202.825C94.2936 200.963 85.9296 188.595 85.9296 187.85Z" fill="#FDF8E4"/>
<g filter="url(#filter0_d_1407_1696)">
<rect x="20.0547" y="208.253" width="161" height="42" rx="20" fill="white" shape-rendering="crispEdges"/>
<g clip-path="url(#clip0_1407_1696)">
<path d="M53.0544 222.253C52.5269 222.253 52.0114 222.41 51.5728 222.703C51.1343 222.996 50.7925 223.412 50.5907 223.899C50.3889 224.387 50.336 224.923 50.4389 225.44C50.5418 225.957 50.7958 226.433 51.1687 226.806C51.5417 227.179 52.0168 227.432 52.5341 227.535C53.0514 227.638 53.5876 227.585 54.0749 227.384C54.5621 227.182 54.9786 226.84 55.2716 226.401C55.5646 225.963 55.721 225.447 55.721 224.92C55.721 224.213 55.4401 223.534 54.94 223.034C54.4399 222.534 53.7616 222.253 53.0544 222.253ZM53.0544 226.253C52.7907 226.253 52.5329 226.175 52.3136 226.029C52.0943 225.882 51.9234 225.674 51.8225 225.43C51.7216 225.187 51.6952 224.918 51.7466 224.66C51.7981 224.401 51.9251 224.164 52.1116 223.977C52.298 223.791 52.5356 223.664 52.7942 223.612C53.0529 223.561 53.321 223.587 53.5646 223.688C53.8082 223.789 54.0165 223.96 54.163 224.179C54.3095 224.398 54.3877 224.656 54.3877 224.92C54.3877 225.274 54.2472 225.613 53.9972 225.863C53.7471 226.113 53.408 226.253 53.0544 226.253Z" fill="#D32A1E"/>
<path d="M53.0549 234.253C52.4935 234.256 51.9396 234.124 51.4396 233.869C50.9396 233.614 50.508 233.243 50.1809 232.787C47.6402 229.282 46.3516 226.647 46.3516 224.955C46.3516 223.177 47.0578 221.472 48.3149 220.215C49.572 218.958 51.2771 218.252 53.0549 218.252C54.8327 218.252 56.5377 218.958 57.7949 220.215C59.052 221.472 59.7582 223.177 59.7582 224.955C59.7582 226.647 58.4696 229.282 55.9289 232.787C55.6018 233.243 55.1702 233.614 54.6702 233.869C54.1702 234.124 53.6163 234.256 53.0549 234.253V234.253ZM53.0549 219.707C51.6632 219.709 50.3289 220.262 49.3448 221.247C48.3607 222.231 47.8072 223.565 47.8056 224.957C47.8056 226.297 49.0676 228.775 51.3582 231.934C51.5527 232.202 51.8078 232.42 52.1027 232.57C52.3976 232.72 52.7239 232.799 53.0549 232.799C53.3859 232.799 53.7122 232.72 54.0071 232.57C54.302 232.42 54.5571 232.202 54.7516 231.934C57.0422 228.775 58.3042 226.297 58.3042 224.957C58.3026 223.565 57.7491 222.231 56.765 221.247C55.7809 220.262 54.4466 219.709 53.0549 219.707V219.707Z" fill="#D32A1E"/>
</g>
<line x1="77.0547" y1="219.253" x2="77.0547" y2="237.253" stroke="#DFDFDF" stroke-width="2" stroke-linecap="round"/>
<path d="M105.647 233.253H104.223L102.767 224.501L98.8947 232.965H98.5267L94.6547 224.517L93.1987 233.253H91.7587L93.6467 222.053H94.9907L98.7027 230.277L102.415 222.053H103.791L105.647 233.253ZM111.553 233.445C110.7 233.445 109.921 233.253 109.217 232.869C108.513 232.475 107.964 231.936 107.569 231.253C107.174 230.56 106.977 229.787 106.977 228.933C106.977 227.632 107.409 226.555 108.273 225.701C109.148 224.848 110.241 224.421 111.553 224.421C112.417 224.421 113.196 224.619 113.889 225.013C114.593 225.397 115.142 225.936 115.537 226.629C115.942 227.312 116.145 228.08 116.145 228.933C116.145 230.224 115.708 231.301 114.833 232.165C113.958 233.019 112.865 233.445 111.553 233.445ZM109.265 231.237C109.873 231.835 110.636 232.133 111.553 232.133C112.481 232.133 113.244 231.835 113.841 231.237C114.449 230.629 114.753 229.861 114.753 228.933C114.753 228.005 114.449 227.243 113.841 226.645C113.244 226.037 112.481 225.733 111.553 225.733C110.636 225.733 109.873 226.037 109.265 226.645C108.668 227.243 108.369 228.005 108.369 228.933C108.369 229.861 108.668 230.629 109.265 231.237ZM122.02 233.445C121.177 233.445 120.409 233.253 119.716 232.869C119.033 232.475 118.495 231.931 118.1 231.237C117.716 230.544 117.524 229.776 117.524 228.933C117.524 227.643 117.951 226.571 118.804 225.717C119.668 224.853 120.74 224.421 122.02 224.421C123.044 224.421 123.929 224.704 124.676 225.269C125.433 225.835 125.945 226.587 126.212 227.525H124.868C124.612 226.971 124.228 226.533 123.716 226.213C123.215 225.893 122.649 225.733 122.02 225.733C121.135 225.733 120.393 226.043 119.796 226.661C119.209 227.269 118.916 228.027 118.916 228.933C118.916 229.531 119.049 230.075 119.316 230.565C119.583 231.045 119.951 231.429 120.42 231.717C120.9 231.995 121.433 232.133 122.02 232.133C122.649 232.133 123.209 231.973 123.7 231.653C124.201 231.323 124.585 230.869 124.852 230.293H126.228C125.961 231.253 125.444 232.021 124.676 232.597C123.919 233.163 123.033 233.445 122.02 233.445ZM133.686 233.253L130.726 229.381H129.494V233.253H128.134V224.613H129.494V228.117H130.742L133.414 224.613H135.062L131.91 228.757L135.382 233.253H133.686ZM142.326 228.773C142.764 228.933 143.11 229.2 143.366 229.573C143.633 229.947 143.766 230.368 143.766 230.837C143.766 231.531 143.51 232.107 142.998 232.565C142.497 233.024 141.868 233.253 141.11 233.253H136.774V224.613H141.062C141.777 224.613 142.358 224.821 142.806 225.237C143.254 225.643 143.478 226.165 143.478 226.805C143.478 227.093 143.43 227.365 143.334 227.621C143.238 227.877 143.105 228.107 142.934 228.309C142.764 228.501 142.561 228.656 142.326 228.773ZM142.134 227.045C142.134 226.693 142.017 226.416 141.782 226.213C141.548 226 141.244 225.893 140.87 225.893H138.102V228.181H140.87C141.254 228.181 141.558 228.08 141.782 227.877C142.017 227.664 142.134 227.387 142.134 227.045ZM140.95 231.973C141.217 231.973 141.457 231.92 141.67 231.813C141.894 231.696 142.065 231.541 142.182 231.349C142.3 231.157 142.358 230.944 142.358 230.709C142.358 230.464 142.3 230.245 142.182 230.053C142.065 229.851 141.894 229.696 141.67 229.589C141.457 229.483 141.212 229.429 140.934 229.429H138.102V231.973H140.95ZM153.322 224.613H154.41V233.253H153.274L153.13 231.941C152.725 232.421 152.229 232.795 151.642 233.061C151.066 233.317 150.431 233.445 149.738 233.445C148.469 233.445 147.407 233.019 146.554 232.165C145.701 231.301 145.274 230.224 145.274 228.933C145.274 227.643 145.701 226.571 146.554 225.717C147.407 224.853 148.469 224.421 149.738 224.421C150.442 224.421 151.082 224.555 151.658 224.821C152.245 225.088 152.741 225.461 153.146 225.941L153.322 224.613ZM147.562 231.221C148.17 231.829 148.933 232.133 149.85 232.133C150.767 232.133 151.525 231.829 152.122 231.221C152.719 230.613 153.018 229.851 153.018 228.933C153.018 228.016 152.719 227.253 152.122 226.645C151.525 226.037 150.767 225.733 149.85 225.733C148.933 225.733 148.17 226.043 147.562 226.661C146.965 227.269 146.666 228.027 146.666 228.933C146.666 229.84 146.965 230.603 147.562 231.221Z" fill="black"/>
</g>
<ellipse cx="179.217" cy="276.72" rx="10.5405" ry="10.5333" fill="#CF2A20"/>
<rect x="173.947" y="271.453" width="10.5405" height="10.5333" rx="5.26667" fill="white"/>
<ellipse cx="250.892" cy="343.08" rx="10.5405" ry="10.5333" fill="#CF2A20"/>
<rect x="245.622" y="337.813" width="10.5405" height="10.5333" rx="5.26667" fill="white"/>
<ellipse cx="271.973" cy="230.373" rx="10.5405" ry="10.5333" fill="#CF2A20"/>
<rect x="266.703" y="225.107" width="10.5405" height="10.5333" rx="5.26667" fill="white"/>
<ellipse cx="420.595" cy="383.107" rx="10.5405" ry="10.5333" fill="#CF2A20"/>
<rect x="415.325" y="377.84" width="10.5405" height="10.5333" rx="5.26667" fill="white"/>
<ellipse cx="473.297" cy="192.453" rx="10.5405" ry="10.5333" fill="#CF2A20"/>
<rect x="468.027" y="187.187" width="10.5405" height="10.5333" rx="5.26667" fill="white"/>
<ellipse cx="494.378" cy="292.52" rx="10.5405" ry="10.5333" fill="#CF2A20"/>
<rect x="489.108" y="287.253" width="10.5405" height="10.5333" rx="5.26667" fill="white"/>
<ellipse cx="741.027" cy="96.6" rx="10.5405" ry="10.5333" fill="#CF2A20"/>
<rect x="735.757" y="91.3334" width="10.5405" height="10.5333" rx="5.26667" fill="white"/>
<ellipse cx="729.433" cy="332.547" rx="10.5405" ry="10.5333" fill="#CF2A20"/>
<rect x="724.163" y="327.28" width="10.5405" height="10.5333" rx="5.26667" fill="white"/>
<ellipse cx="611.378" cy="235.64" rx="10.5405" ry="10.5333" fill="#CF2A20"/>
<rect x="606.108" y="230.374" width="10.5405" height="10.5333" rx="5.26667" fill="white"/>
<ellipse cx="558.676" cy="358.88" rx="10.5405" ry="10.5333" fill="#CF2A20"/>
<rect x="553.406" y="353.614" width="10.5405" height="10.5333" rx="5.26667" fill="white"/>
<ellipse cx="357.352" cy="292.52" rx="10.5405" ry="10.5333" fill="#CF2A20"/>
<rect x="352.082" y="287.253" width="10.5405" height="10.5333" rx="5.26667" fill="white"/>
<defs>
<filter id="filter0_d_1407_1696" x="0.0546875" y="188.253" width="241" height="122" filterUnits="userSpaceOnUse" color-interpolation-filters="sRGB">
<feFlood flood-opacity="0" result="BackgroundImageFix"/>
<feColorMatrix in="SourceAlpha" type="matrix" values="0 0 0 0 0 0 0 0 0 0 0 0 0 0 0 0 0 0 127 0" result="hardAlpha"/>
<feOffset dx="20" dy="20"/>
<feGaussianBlur stdDeviation="20"/>
<feComposite in2="hardAlpha" operator="out"/>
<feColorMatrix type="matrix" values="0 0 0 0 0.0204688 0 0 0 0 0.170573 0 0 0 0 0.545833 0 0 0 0.1 0"/>
<feBlend mode="normal" in2="BackgroundImageFix" result="effect1_dropShadow_1407_1696"/>
<feBlend mode="normal" in="SourceGraphic" in2="effect1_dropShadow_1407_1696" result="shape"/>
</filter>
<clipPath id="clip0_1407_1696">
<rect width="16" height="16" fill="white" transform="translate(45.0547 218.253)"/>
</clipPath>
</defs>
</svg>
