<svg width="32" height="32" viewBox="0 0 32 32" fill="none" xmlns="http://www.w3.org/2000/svg">
<path d="M12.0003 30.3332C12.7367 30.3332 13.3337 29.7362 13.3337 28.9998C13.3337 28.2635 12.7367 27.6665 12.0003 27.6665C11.2639 27.6665 10.667 28.2635 10.667 28.9998C10.667 29.7362 11.2639 30.3332 12.0003 30.3332Z" stroke="black" stroke-width="2.66667" stroke-linecap="round" stroke-linejoin="round"/>
<path d="M26.6663 30.3332C27.4027 30.3332 27.9997 29.7362 27.9997 28.9998C27.9997 28.2635 27.4027 27.6665 26.6663 27.6665C25.93 27.6665 25.333 28.2635 25.333 28.9998C25.333 29.7362 25.93 30.3332 26.6663 30.3332Z" stroke="black" stroke-width="2.66667" stroke-linecap="round" stroke-linejoin="round"/>
<path d="M1.33301 2.3335H6.66634L10.2397 20.1868C10.3616 20.8007 10.6956 21.3521 11.1831 21.7446C11.6706 22.137 12.2806 22.3455 12.9063 22.3335H25.8663C26.4921 22.3455 27.1021 22.137 27.5896 21.7446C28.0771 21.3521 28.4111 20.8007 28.533 20.1868L30.6663 9.00016H7.99967" stroke="black" stroke-width="2.66667" stroke-linecap="round" stroke-linejoin="round"/>
</svg>
