<svg width="48" height="48" viewBox="0 0 48 48" fill="none" xmlns="http://www.w3.org/2000/svg">
<path d="M24 0C37.2545 0 48 10.7455 48 24C48 37.2545 37.2545 48 24 48C10.7455 48 0 37.2545 0 24C0 10.7455 10.7455 0 24 0ZM32.2789 33.7833C32.7196 32.4295 34.7891 18.9305 35.0433 16.2698C35.1207 15.4647 34.8655 14.9291 34.368 14.6891C33.7647 14.4 32.8724 14.544 31.8349 14.9182C30.4135 15.4309 12.2444 23.1447 11.1949 23.592C10.2 24.0153 9.25854 24.4756 9.25854 25.1444C9.25854 25.6145 9.53782 25.8785 10.3058 26.1524C11.1044 26.4371 13.1171 27.0469 14.3073 27.3753C15.4527 27.6916 16.7542 27.4167 17.4851 26.9629C18.2585 26.4818 27.1953 20.5036 27.8356 19.9789C28.476 19.4553 28.9876 20.1262 28.464 20.6509C27.9404 21.1745 21.8073 27.1276 20.9978 27.9524C20.0149 28.9527 20.712 29.9902 21.372 30.4058C22.1236 30.8804 27.5345 34.5087 28.3495 35.0913C29.1644 35.6738 29.9902 35.9378 30.7473 35.9378C31.5044 35.9367 31.9025 34.9396 32.2789 33.7833Z" fill="#FEDC5A"/>
</svg>
