<svg width="65" height="70" viewBox="0 0 65 70" fill="none" xmlns="http://www.w3.org/2000/svg">
<path d="M1.36 70V50.32L24.4 38.32C30.864 34.992 34.96 32.624 36.688 31.216C38.416 29.744 39.28 28.112 39.28 26.32C39.28 24.912 38.672 23.696 37.456 22.672C36.304 21.584 34.672 21.04 32.56 21.04C29.744 21.04 27.632 22 26.224 23.92C25.648 24.688 25.2 25.648 24.88 26.8H0.88C1.776 22 3.504 17.68 6.064 13.84C12.016 5.2 21.168 0.879997 33.52 0.879997C42.992 0.879997 50.48 3.184 55.984 7.792C61.488 12.336 64.24 17.872 64.24 24.4C64.24 27.344 63.632 30.128 62.416 32.752C61.2 35.376 59.728 37.552 58 39.28C56.336 40.944 54.384 42.48 52.144 43.888C49.904 45.296 48.016 46.352 46.48 47.056C45.008 47.696 43.536 48.272 42.064 48.784L40.24 49.36L38.32 49.84L36.88 50.32V51.376L43.6 50.32H64.24V70H1.36Z" fill="#FEDC5A"/>
</svg>
