<svg width="270" height="270" viewBox="0 0 270 270" fill="none" xmlns="http://www.w3.org/2000/svg">
<rect width="370.789" height="225.698" rx="4" transform="matrix(0.866081 0.499903 -0.000111703 1 46.5293 73.4576)" fill="#E2E2E2"/>
<rect width="370.789" height="225.698" rx="4" transform="matrix(0.866081 0.499903 -0.000111703 1 39.9434 77.5713)" fill="white"/>
<path d="M49.578 191.32L49.5781 190.565L53.386 192.763L53.3859 193.518L51.7894 192.597L51.7887 198.876L51.1739 198.521L51.1746 192.242L49.578 191.32Z" fill="#313545"/>
<path d="M55.2991 201.012C54.9322 200.8 54.6157 200.505 54.3496 200.127C54.0852 199.748 53.8811 199.314 53.7374 198.826C53.5953 198.336 53.5243 197.821 53.5244 197.281C53.5244 196.74 53.5955 196.305 53.7377 195.975C53.8816 195.643 54.0816 195.436 54.3378 195.352C54.5956 195.268 54.8964 195.324 55.2402 195.523C55.4385 195.637 55.6344 195.796 55.8277 195.999C56.0211 196.203 56.1971 196.453 56.3557 196.751C56.5144 197.046 56.6408 197.389 56.735 197.78C56.8291 198.171 56.8762 198.613 56.8761 199.105L56.8761 199.449L53.9408 197.755L53.9409 197.054L56.2812 198.405C56.2812 198.107 56.2383 197.817 56.1524 197.533C56.0681 197.251 55.9475 196.997 55.7905 196.771C55.6351 196.547 55.4517 196.373 55.2401 196.251C55.0071 196.117 54.8055 196.08 54.6352 196.142C54.4666 196.203 54.3368 196.334 54.2459 196.536C54.155 196.738 54.1095 196.984 54.1095 197.275L54.1094 197.742C54.1094 198.14 54.1589 198.507 54.2581 198.841C54.3588 199.174 54.4985 199.464 54.6769 199.712C54.8554 199.957 55.0628 200.147 55.2992 200.284C55.4529 200.372 55.5917 200.423 55.7157 200.435C55.8413 200.445 55.9496 200.416 56.0405 200.347C56.1314 200.276 56.2016 200.163 56.2512 200.009L56.8165 200.555C56.7569 200.786 56.6569 200.962 56.5164 201.082C56.3759 201.201 56.2023 201.256 55.9957 201.249C55.7891 201.24 55.5569 201.161 55.2991 201.012Z" fill="#313545"/>
<path d="M57.4287 202.131L57.4287 201.375L57.5676 201.456C57.6816 201.521 57.7767 201.545 57.8527 201.527C57.9287 201.507 57.9899 201.431 58.0362 201.3C58.0841 201.167 58.1205 200.966 58.1453 200.697C58.1718 200.426 58.1909 200.073 58.2025 199.637L58.2721 197.342L60.8107 198.807L60.8102 204.083L60.2251 203.745L60.2256 199.225L58.8274 198.418L58.7677 200.266C58.7544 200.691 58.7263 201.056 58.6833 201.361C58.6419 201.665 58.5782 201.903 58.4923 202.075C58.408 202.249 58.2956 202.351 58.1551 202.382C58.0146 202.413 57.8385 202.368 57.627 202.246L57.4287 202.131Z" fill="#313545"/>
<path d="M63.4801 205.734C63.1132 205.522 62.7967 205.227 62.5307 204.849C62.2663 204.47 62.0622 204.036 61.9184 203.548C61.7764 203.058 61.7053 202.543 61.7054 202.003C61.7055 201.462 61.7766 201.027 61.9188 200.697C62.0626 200.365 62.2626 200.158 62.5188 200.074C62.7767 199.99 63.0775 200.047 63.4213 200.245C63.6196 200.359 63.8154 200.518 64.0088 200.722C64.2021 200.925 64.3781 201.175 64.5368 201.473C64.6954 201.768 64.8218 202.111 64.916 202.502C65.0102 202.893 65.0572 203.335 65.0572 203.827L65.0571 204.171L62.1219 202.477L62.1219 201.776L64.4622 203.127C64.4623 202.829 64.4193 202.539 64.3334 202.255C64.2491 201.973 64.1285 201.719 63.9715 201.494C63.8162 201.269 63.6327 201.095 63.4212 200.973C63.1881 200.839 62.9865 200.802 62.8162 200.864C62.6476 200.925 62.5179 201.056 62.427 201.258C62.336 201.46 62.2905 201.706 62.2905 201.997L62.2905 202.464C62.2904 202.863 62.34 203.229 62.4391 203.563C62.5399 203.896 62.6795 204.186 62.858 204.434C63.0365 204.679 63.2439 204.869 63.4802 205.006C63.6339 205.095 63.7728 205.145 63.8967 205.157C64.0223 205.168 64.1306 205.138 64.2215 205.07C64.3124 204.998 64.3827 204.885 64.4323 204.731L64.9975 205.277C64.938 205.508 64.838 205.684 64.6975 205.805C64.5569 205.923 64.3834 205.978 64.1768 205.971C63.9702 205.962 63.738 205.883 63.4801 205.734Z" fill="#313545"/>
<path d="M67.4936 209.741L67.4946 200.906L68.0797 201.244L68.0787 210.078L67.4936 209.741ZM67.4938 208.051C67.236 207.902 67.0013 207.702 66.7898 207.452C66.5782 207.199 66.3965 206.91 66.2444 206.584C66.0924 206.256 65.9751 205.901 65.8925 205.519C65.8099 205.137 65.7686 204.742 65.7687 204.334C65.7687 203.922 65.8101 203.573 65.8927 203.286C65.9754 202.997 66.0928 202.776 66.2449 202.624C66.3969 202.471 66.5788 202.392 66.7903 202.385C67.0019 202.377 67.2366 202.447 67.4944 202.596L67.6729 202.699L67.6723 208.154L67.4938 208.051ZM67.4939 207.322L67.5931 207.38L67.5935 203.381L67.4943 203.324C67.2993 203.212 67.1299 203.169 66.9861 203.196C66.8423 203.22 66.7233 203.299 66.6291 203.433C66.5365 203.565 66.4671 203.738 66.4207 203.952C66.3761 204.166 66.3538 204.406 66.3537 204.672C66.3537 205.025 66.3941 205.375 66.4751 205.725C66.556 206.074 66.6808 206.389 66.8494 206.672C67.0179 206.955 67.2328 207.172 67.4939 207.322ZM68.0789 208.388L67.9004 208.285L67.901 202.831L68.0795 202.934C68.3373 203.083 68.572 203.283 68.7835 203.536C68.9951 203.786 69.1768 204.076 69.3289 204.404C69.4809 204.732 69.5982 205.088 69.6808 205.473C69.7634 205.855 69.8047 206.252 69.8046 206.664C69.8046 207.071 69.7632 207.419 69.6806 207.705C69.5979 207.992 69.4805 208.212 69.3284 208.364C69.1764 208.515 68.9945 208.594 68.783 208.602C68.5714 208.609 68.3367 208.537 68.0789 208.388ZM68.079 207.66C68.2756 207.774 68.445 207.819 68.5872 207.796C68.731 207.771 68.8492 207.693 68.9418 207.56C69.036 207.427 69.1054 207.254 69.1501 207.042C69.1964 206.828 69.2195 206.59 69.2196 206.326C69.2196 205.974 69.1792 205.622 69.0982 205.27C69.0173 204.919 68.8925 204.601 68.7239 204.316C68.5554 204.031 68.3405 203.813 68.0794 203.662L67.9802 203.605L67.9798 207.603L68.079 207.66Z" fill="#313545"/>
<path d="M72.2456 210.793C71.9019 210.595 71.6003 210.308 71.3408 209.931C71.083 209.556 70.8814 209.122 70.736 208.63C70.5923 208.14 70.5204 207.622 70.5205 207.077C70.5205 206.527 70.5925 206.089 70.7363 205.762C70.8818 205.436 71.0835 205.234 71.3413 205.157C71.6008 205.08 71.9025 205.14 72.2462 205.339C72.59 205.537 72.8908 205.824 73.1486 206.2C73.4081 206.576 73.6097 207.011 73.7534 207.504C73.8988 207.998 73.9715 208.519 73.9714 209.069C73.9713 209.614 73.8986 210.048 73.7531 210.372C73.6092 210.697 73.4076 210.897 73.1481 210.974C72.8902 211.052 72.5894 210.992 72.2456 210.793ZM72.2457 210.065C72.5068 210.216 72.7217 210.247 72.8903 210.159C73.0589 210.071 73.1837 209.899 73.2647 209.644C73.3458 209.388 73.3863 209.084 73.3863 208.731C73.3864 208.379 73.3459 208.027 73.265 207.675C73.184 207.324 73.0593 207.006 72.8907 206.721C72.7221 206.436 72.5073 206.218 72.2462 206.067C71.985 205.916 71.7702 205.886 71.6016 205.977C71.433 206.067 71.3082 206.241 71.2271 206.499C71.1461 206.757 71.1056 207.062 71.1055 207.415C71.1055 207.767 71.146 208.118 71.2269 208.467C71.3079 208.816 71.4326 209.132 71.6012 209.415C71.7697 209.698 71.9846 209.915 72.2457 210.065Z" fill="#313545"/>
<path d="M77.4131 210.657L77.413 211.413L75.3107 210.199L75.3108 209.444L77.4131 210.657ZM75.4499 207.257L75.4493 212.533L74.8642 212.195L74.8648 206.919L75.4499 207.257ZM77.8595 208.648L77.859 213.924L77.2739 213.586L77.2745 208.31L77.8595 208.648Z" fill="#313545"/>
<path d="M80.8909 215.674L80.8915 210.398L83.8862 212.126L83.8857 217.402L83.3006 217.064L83.3011 212.544L81.4765 211.491L81.476 216.011L80.8909 215.674Z" fill="#313545"/>
<path d="M86.5011 219.022C86.1573 218.823 85.8557 218.536 85.5963 218.159C85.3385 217.784 85.1369 217.35 84.9915 216.859C84.8477 216.368 84.7759 215.85 84.776 215.305C84.776 214.756 84.848 214.318 84.9918 213.991C85.1373 213.665 85.3389 213.463 85.5968 213.385C85.8563 213.308 86.1579 213.369 86.5017 213.567C86.8455 213.765 87.1463 214.052 87.4041 214.428C87.6635 214.804 87.8651 215.239 88.0089 215.732C88.1543 216.226 88.2269 216.748 88.2269 217.297C88.2268 217.842 88.154 218.277 88.0085 218.6C87.8647 218.925 87.663 219.126 87.4035 219.203C87.1457 219.28 86.8449 219.22 86.5011 219.022ZM86.5012 218.294C86.7623 218.444 86.9772 218.476 87.1458 218.387C87.3144 218.299 87.4392 218.127 87.5202 217.872C87.6012 217.616 87.6418 217.312 87.6418 216.96C87.6418 216.607 87.6014 216.255 87.5204 215.904C87.4395 215.552 87.3147 215.234 87.1462 214.949C86.9776 214.664 86.7628 214.446 86.5016 214.295C86.2405 214.145 86.0256 214.114 85.857 214.205C85.6884 214.295 85.5636 214.47 85.4826 214.727C85.4016 214.985 85.3611 215.29 85.361 215.643C85.361 215.996 85.4014 216.347 85.4824 216.696C85.5633 217.045 85.6881 217.36 85.8566 217.643C86.0252 217.926 86.2401 218.143 86.5012 218.294Z" fill="#313545"/>
<path d="M89.1197 220.423L89.1203 215.147L89.7053 215.485L89.7051 217.779L90.0918 218.003L91.4605 216.498L92.2142 216.933L90.6769 218.588L92.2334 222.221L91.4798 221.786L90.2306 218.838L89.705 218.535L89.7047 220.761L89.1197 220.423Z" fill="#313545"/>
<path d="M93.2459 224.784C93.1468 224.726 93.0583 224.664 92.9807 224.596C92.903 224.531 92.8493 224.479 92.8195 224.441L92.9683 223.813C93.1105 223.945 93.2361 224.036 93.3452 224.085C93.4542 224.134 93.5509 224.123 93.6352 224.05C93.7212 223.98 93.7997 223.832 93.8708 223.605L93.9799 223.256L92.5724 217.14L93.2071 217.506L94.2577 222.317L94.2974 222.34L95.349 218.742L95.9837 219.109L94.3666 224.221C94.2939 224.452 94.2038 224.625 94.0963 224.742C93.9889 224.861 93.8641 224.923 93.7219 224.928C93.5814 224.934 93.4228 224.886 93.2459 224.784Z" fill="#313545"/>
<path d="M96.7553 224.831L96.7559 219.555L99.7507 221.283L99.7501 226.559L99.165 226.221L99.1655 221.701L97.3409 220.648L97.3404 225.168L96.7553 224.831Z" fill="#313545"/>
<path d="M101.939 227.946C101.698 227.807 101.479 227.618 101.282 227.378C101.085 227.136 100.929 226.862 100.814 226.555C100.698 226.245 100.64 225.919 100.64 225.575C100.64 225.273 100.683 225.053 100.769 224.915C100.855 224.774 100.97 224.692 101.114 224.667C101.258 224.642 101.416 224.654 101.59 224.701C101.765 224.747 101.941 224.805 102.118 224.875C102.349 224.968 102.537 225.045 102.681 225.108C102.826 225.169 102.932 225.192 102.998 225.177C103.066 225.164 103.1 225.092 103.1 224.961L103.1 224.934C103.1 224.595 103.033 224.293 102.899 224.028C102.767 223.764 102.566 223.554 102.297 223.398C102.017 223.237 101.798 223.196 101.64 223.273C101.481 223.351 101.369 223.468 101.305 223.623L100.75 223.028C100.849 222.764 100.981 222.591 101.146 222.508C101.313 222.423 101.495 222.402 101.692 222.445C101.89 222.486 102.085 222.562 102.277 222.673C102.399 222.743 102.54 222.845 102.698 222.978C102.859 223.109 103.013 223.28 103.162 223.489C103.312 223.7 103.437 223.958 103.536 224.265C103.635 224.572 103.685 224.935 103.685 225.354L103.684 228.83L103.099 228.492L103.099 227.778L103.07 227.761C103.03 227.852 102.964 227.937 102.871 228.014C102.779 228.091 102.656 228.131 102.502 228.134C102.348 228.137 102.161 228.074 101.939 227.946ZM102.028 227.27C102.26 227.403 102.455 227.453 102.614 227.418C102.774 227.385 102.895 227.292 102.976 227.14C103.058 226.988 103.1 226.802 103.1 226.583L103.1 225.841C103.075 225.867 103.02 225.874 102.936 225.859C102.853 225.844 102.757 225.817 102.648 225.779C102.541 225.74 102.436 225.7 102.334 225.659C102.233 225.617 102.151 225.584 102.088 225.559C101.936 225.499 101.794 225.461 101.662 225.447C101.531 225.431 101.425 225.46 101.344 225.535C101.265 225.608 101.225 225.748 101.225 225.954C101.225 226.236 101.3 226.492 101.451 226.723C101.603 226.953 101.795 227.135 102.028 227.27Z" fill="#313545"/>
<path d="M104.235 224.627L104.235 223.871L107.329 225.657L107.329 226.413L106.079 225.692L106.079 230.212L105.494 229.874L105.494 225.354L104.235 224.627Z" fill="#313545"/>
<path d="M109.58 232.343C109.213 232.131 108.897 231.836 108.631 231.458C108.366 231.079 108.162 230.645 108.019 230.157C107.877 229.667 107.806 229.152 107.806 228.612C107.806 228.071 107.877 227.636 108.019 227.306C108.163 226.974 108.363 226.767 108.619 226.684C108.877 226.599 109.178 226.656 109.521 226.854C109.72 226.969 109.916 227.127 110.109 227.331C110.302 227.534 110.478 227.784 110.637 228.082C110.796 228.377 110.922 228.721 111.016 229.112C111.11 229.503 111.157 229.944 111.157 230.437L111.157 230.78L108.222 229.086L108.222 228.385L110.562 229.736C110.562 229.438 110.519 229.148 110.434 228.865C110.349 228.582 110.229 228.328 110.072 228.103C109.916 227.878 109.733 227.704 109.521 227.582C109.288 227.448 109.087 227.412 108.916 227.474C108.748 227.534 108.618 227.665 108.527 227.867C108.436 228.069 108.391 228.315 108.391 228.606L108.391 229.073C108.391 229.472 108.44 229.838 108.539 230.172C108.64 230.505 108.78 230.795 108.958 231.043C109.137 231.288 109.344 231.478 109.58 231.615C109.734 231.704 109.873 231.754 109.997 231.766C110.123 231.777 110.231 231.748 110.322 231.679C110.413 231.607 110.483 231.495 110.532 231.34L111.098 231.886C111.038 232.117 110.938 232.293 110.798 232.414C110.657 232.532 110.484 232.587 110.277 232.58C110.07 232.571 109.838 232.492 109.58 232.343Z" fill="#313545"/>
<path d="M111.71 233.462L111.71 232.707L111.849 232.787C111.963 232.853 112.058 232.877 112.134 232.859C112.21 232.838 112.271 232.763 112.317 232.631C112.365 232.499 112.402 232.298 112.427 232.028C112.453 231.757 112.472 231.404 112.484 230.969L112.553 228.673L115.092 230.138L115.091 235.414L114.506 235.076L114.507 230.556L113.109 229.749L113.049 231.597C113.036 232.022 113.007 232.387 112.964 232.692C112.923 232.996 112.859 233.234 112.773 233.406C112.689 233.58 112.577 233.682 112.436 233.713C112.296 233.744 112.12 233.699 111.908 233.577L111.71 233.462Z" fill="#313545"/>
<path d="M118.456 237.356L118.456 232.822L117.445 232.238C117.216 232.106 117.037 232.076 116.907 232.147C116.776 232.219 116.711 232.382 116.711 232.639C116.711 232.891 116.769 233.123 116.887 233.335C117.006 233.548 117.168 233.714 117.375 233.833L118.605 234.543L118.605 235.298L117.375 234.589C117.117 234.44 116.895 234.249 116.708 234.015C116.521 233.781 116.378 233.518 116.277 233.227C116.176 232.932 116.126 232.624 116.126 232.301C116.126 231.976 116.179 231.727 116.284 231.555C116.39 231.382 116.541 231.29 116.738 231.277C116.936 231.266 117.172 231.339 117.445 231.496L119.011 232.4L119.011 237.676L118.456 237.356ZM115.917 235.891L116.998 233.89L117.633 234.257L116.552 236.257L115.917 235.891Z" fill="#313545"/>
<path d="M49.8488 259.827L49.8496 252.792L52.9138 254.561L52.9137 255.316L50.4643 253.902L50.4641 256.279L52.7547 257.602L52.7547 258.357L50.464 257.035L50.4637 259.426L52.9527 260.863L52.9526 261.618L49.8488 259.827Z" fill="#313545"/>
<path d="M56.1238 260.055L56.1237 260.81L53.9024 259.528L53.9025 258.773L56.1238 260.055Z" fill="#313545"/>
<path d="M57.1529 264.043L57.1534 258.767L57.7187 259.093L57.7186 259.917L57.7682 259.946C57.8475 259.71 57.9756 259.565 58.1525 259.511C58.3294 259.456 58.5418 259.499 58.7897 259.642C59.0409 259.787 59.2499 259.987 59.4169 260.241C59.5854 260.494 59.7168 260.789 59.811 261.125L59.8506 261.148C59.9482 260.932 60.0945 260.8 60.2895 260.752C60.4845 260.702 60.7184 260.756 60.9911 260.913C61.3316 261.109 61.61 261.418 61.8265 261.838C62.043 262.256 62.1512 262.776 62.1511 263.396L62.1507 266.927L61.5657 266.59L61.5661 263.059C61.5661 262.669 61.4893 262.347 61.3356 262.091C61.1819 261.835 61.0009 261.647 60.7927 261.527C60.525 261.372 60.3175 261.365 60.1704 261.504C60.0233 261.641 59.9497 261.881 59.9497 262.222L59.9493 265.657L59.3543 265.313L59.3547 261.7C59.3547 261.4 59.2845 261.118 59.1441 260.853C59.0036 260.587 58.8226 260.39 58.6012 260.262C58.4491 260.174 58.307 260.148 58.1747 260.184C58.0442 260.221 57.9384 260.315 57.8574 260.468C57.778 260.619 57.7383 260.824 57.7383 261.083L57.7379 264.38L57.1529 264.043Z" fill="#313545"/>
<path d="M64.341 268.315C64.0997 268.176 63.8807 267.987 63.6841 267.747C63.4874 267.505 63.3312 267.231 63.2156 266.924C63.0999 266.614 63.0421 266.288 63.0421 265.944C63.0422 265.642 63.0852 265.422 63.1711 265.283C63.2571 265.143 63.372 265.06 63.5158 265.036C63.6596 265.011 63.8183 265.023 63.9918 265.07C64.167 265.116 64.343 265.174 64.5199 265.244C64.7512 265.337 64.9388 265.414 65.0826 265.476C65.2281 265.538 65.3338 265.561 65.4 265.546C65.4677 265.533 65.5016 265.461 65.5016 265.33L65.5016 265.303C65.5017 264.964 65.4348 264.662 65.3009 264.397C65.1687 264.133 64.9679 263.923 64.6985 263.767C64.4192 263.606 64.2002 263.564 64.0415 263.642C63.8829 263.72 63.7713 263.837 63.7068 263.992L63.1515 263.397C63.2507 263.133 63.383 262.96 63.5483 262.877C63.7152 262.792 63.897 262.771 64.0937 262.814C64.292 262.855 64.4871 262.931 64.6788 263.041C64.8011 263.112 64.9416 263.214 65.1002 263.347C65.2605 263.478 65.4151 263.648 65.5638 263.858C65.7142 264.068 65.8389 264.327 65.9381 264.634C66.0372 264.941 66.0867 265.304 66.0867 265.723L66.0863 269.199L65.5012 268.861L65.5013 268.147L65.4716 268.13C65.4319 268.221 65.3658 268.306 65.2732 268.383C65.1806 268.46 65.0575 268.5 64.9038 268.503C64.7501 268.506 64.5625 268.443 64.341 268.315ZM64.4303 267.639C64.6617 267.772 64.8567 267.822 65.0154 267.787C65.1758 267.754 65.2964 267.661 65.3774 267.508C65.4601 267.357 65.5014 267.171 65.5015 266.951L65.5015 266.209C65.4767 266.236 65.4222 266.243 65.3379 266.228C65.2553 266.213 65.1594 266.186 65.0503 266.148C64.9429 266.109 64.8379 266.069 64.7355 266.028C64.6346 265.986 64.5528 265.953 64.49 265.928C64.338 265.868 64.1958 265.83 64.0636 265.816C63.933 265.8 63.8273 265.829 63.7463 265.904C63.6669 265.977 63.6272 266.117 63.6272 266.323C63.6272 266.605 63.7023 266.861 63.8527 267.092C64.0048 267.322 64.1973 267.504 64.4303 267.639Z" fill="#313545"/>
<path d="M67.1542 269.815L67.1548 264.539L67.7398 264.877L67.7393 270.153L67.1542 269.815ZM67.4524 263.832C67.3383 263.766 67.24 263.655 67.1574 263.5C67.0764 263.346 67.0359 263.193 67.0359 263.042C67.036 262.891 67.0765 262.785 67.1575 262.724C67.2401 262.664 67.3384 262.667 67.4525 262.732C67.5665 262.798 67.664 262.908 67.745 263.063C67.8276 263.218 67.8689 263.371 67.8689 263.522C67.8689 263.674 67.8276 263.779 67.7449 263.839C67.6639 263.9 67.5664 263.897 67.4524 263.832Z" fill="#313545"/>
<path d="M69.3967 264.075L69.3959 271.109L68.8108 270.772L68.8116 263.737L69.3967 264.075Z" fill="#313545"/>
<path d="M72.431 272.861L72.4315 267.585L75.4263 269.314L75.4257 274.59L74.8406 274.252L74.8412 269.732L73.0165 268.678L73.016 273.199L72.431 272.861Z" fill="#313545"/>
<path d="M78.0412 276.209C77.6974 276.011 77.3958 275.723 77.1363 275.347C76.8785 274.971 76.6769 274.538 76.5315 274.046C76.3878 273.556 76.3159 273.038 76.316 272.493C76.3161 271.943 76.388 271.505 76.5318 271.178C76.6773 270.852 76.879 270.65 77.1369 270.572C77.3964 270.495 77.698 270.556 78.0418 270.755C78.3855 270.953 78.6863 271.24 78.9441 271.615C79.2036 271.992 79.4052 272.427 79.5489 272.92C79.6943 273.413 79.767 273.935 79.7669 274.485C79.7669 275.03 79.6941 275.464 79.5486 275.788C79.4048 276.112 79.2031 276.313 78.9436 276.39C78.6857 276.468 78.3849 276.408 78.0412 276.209ZM78.0412 275.481C78.3024 275.632 78.5172 275.663 78.6858 275.575C78.8544 275.487 78.9792 275.315 79.0603 275.059C79.1413 274.804 79.1818 274.5 79.1819 274.147C79.1819 273.794 79.1414 273.442 79.0605 273.091C78.9795 272.74 78.8548 272.422 78.6862 272.136C78.5177 271.851 78.3028 271.634 78.0417 271.483C77.7806 271.332 77.5657 271.302 77.3971 271.392C77.2285 271.483 77.1037 271.657 77.0227 271.915C76.9416 272.173 76.9011 272.478 76.9011 272.831C76.901 273.183 76.9415 273.534 77.0224 273.883C77.1034 274.232 77.2281 274.548 77.3967 274.831C77.5653 275.114 77.7801 275.33 78.0412 275.481Z" fill="#313545"/>
<path d="M80.6597 277.611L80.6603 272.335L81.2454 272.672L81.2451 274.967L81.6319 275.19L83.0006 273.686L83.7542 274.121L82.2169 275.775L83.7735 279.408L83.0198 278.973L81.7706 276.026L81.245 275.723L81.2448 277.948L80.6597 277.611Z" fill="#313545"/>
<path d="M84.786 281.971C84.6868 281.914 84.5984 281.851 84.5207 281.784C84.443 281.718 84.3893 281.667 84.3596 281.629L84.5084 281C84.6505 281.133 84.7761 281.223 84.8852 281.273C84.9943 281.322 85.091 281.31 85.1753 281.237C85.2613 281.168 85.3398 281.02 85.4109 280.793L85.52 280.444L84.1125 274.327L84.7471 274.694L85.7978 279.505L85.8375 279.528L86.8891 275.93L87.5237 276.296L85.9067 281.409C85.8339 281.639 85.7438 281.813 85.6364 281.929C85.5289 282.048 85.4041 282.11 85.262 282.115C85.1215 282.121 84.9628 282.073 84.786 281.971Z" fill="#313545"/>
<path d="M88.2954 282.018L88.296 276.742L91.2907 278.471L91.2901 283.747L90.7051 283.409L90.7056 278.889L88.8809 277.835L88.8804 282.356L88.2954 282.018Z" fill="#313545"/>
<path d="M93.4792 285.134C93.2379 284.995 93.0189 284.805 92.8222 284.566C92.6256 284.324 92.4694 284.049 92.3537 283.742C92.2381 283.433 92.1802 283.106 92.1803 282.763C92.1803 282.46 92.2233 282.24 92.3093 282.102C92.3952 281.962 92.5101 281.879 92.6539 281.854C92.7977 281.83 92.9564 281.841 93.1299 281.889C93.3051 281.935 93.4812 281.993 93.658 282.063C93.8894 282.155 94.077 282.233 94.2208 282.295C94.3662 282.356 94.472 282.379 94.5381 282.365C94.6059 282.351 94.6398 282.279 94.6398 282.149L94.6398 282.121C94.6398 281.782 94.5729 281.48 94.4391 281.215C94.3069 280.951 94.1061 280.741 93.8367 280.586C93.5574 280.425 93.3384 280.383 93.1797 280.461C93.021 280.539 92.9094 280.655 92.8449 280.81L92.2897 280.215C92.3889 279.952 92.5211 279.778 92.6864 279.695C92.8533 279.611 93.0352 279.59 93.2318 279.632C93.4302 279.673 93.6252 279.749 93.8169 279.86C93.9392 279.931 94.0797 280.032 94.2384 280.165C94.3987 280.297 94.5532 280.467 94.7019 280.677C94.8523 280.887 94.9771 281.146 95.0762 281.453C95.1753 281.759 95.2249 282.122 95.2248 282.541L95.2245 286.018L94.6394 285.68L94.6395 284.965L94.6097 284.948C94.57 285.04 94.5039 285.124 94.4114 285.201C94.3188 285.278 94.1956 285.318 94.0419 285.321C93.8882 285.324 93.7006 285.262 93.4792 285.134ZM93.5685 284.457C93.7999 284.591 93.9949 284.64 94.1536 284.606C94.3139 284.572 94.4346 284.48 94.5156 284.327C94.5982 284.176 94.6396 283.99 94.6396 283.77L94.6397 283.028C94.6149 283.055 94.5603 283.061 94.4761 283.047C94.3934 283.031 94.2976 283.005 94.1885 282.967C94.081 282.928 93.9761 282.888 93.8736 282.847C93.7728 282.805 93.691 282.771 93.6282 282.747C93.4761 282.686 93.334 282.649 93.2018 282.634C93.0712 282.619 92.9654 282.648 92.8844 282.723C92.8051 282.796 92.7654 282.936 92.7654 283.142C92.7653 283.423 92.8405 283.68 92.9909 283.911C93.1429 284.14 93.3355 284.323 93.5685 284.457Z" fill="#313545"/>
<path d="M95.7747 281.814L95.7748 281.059L98.8687 282.845L98.8686 283.6L97.6192 282.879L97.6187 287.399L97.0336 287.062L97.0341 282.541L95.7747 281.814Z" fill="#313545"/>
<path d="M101.12 289.531C100.753 289.319 100.437 289.024 100.171 288.646C99.9065 288.267 99.7024 287.833 99.5587 287.344C99.4166 286.855 99.3456 286.34 99.3456 285.799C99.3457 285.259 99.4168 284.824 99.559 284.493C99.7028 284.162 99.9029 283.955 100.159 283.871C100.417 283.786 100.718 283.843 101.061 284.042C101.26 284.156 101.456 284.315 101.649 284.518C101.842 284.721 102.018 284.972 102.177 285.269C102.336 285.565 102.462 285.908 102.556 286.299C102.65 286.69 102.697 287.132 102.697 287.624L102.697 287.968L99.7621 286.273L99.7622 285.573L102.102 286.923C102.102 286.626 102.06 286.335 101.974 286.052C101.889 285.77 101.769 285.516 101.612 285.29C101.456 285.065 101.273 284.892 101.061 284.77C100.828 284.635 100.627 284.599 100.456 284.661C100.288 284.722 100.158 284.853 100.067 285.055C99.9763 285.256 99.9308 285.503 99.9307 285.794L99.9307 286.261C99.9307 286.659 99.9802 287.026 100.079 287.36C100.18 287.693 100.32 287.983 100.498 288.23C100.677 288.475 100.884 288.666 101.12 288.802C101.274 288.891 101.413 288.941 101.537 288.953C101.663 288.964 101.771 288.935 101.862 288.866C101.953 288.795 102.023 288.682 102.073 288.527L102.638 289.074C102.578 289.305 102.478 289.481 102.338 289.601C102.197 289.719 102.024 289.775 101.817 289.768C101.61 289.758 101.378 289.679 101.12 289.531Z" fill="#313545"/>
<path d="M103.25 290.65L103.25 289.894L103.389 289.974C103.503 290.04 103.598 290.064 103.674 290.046C103.75 290.026 103.811 289.95 103.857 289.819C103.905 289.686 103.942 289.485 103.967 289.215C103.993 288.944 104.012 288.591 104.024 288.156L104.093 285.86L106.632 287.326L106.631 292.602L106.046 292.264L106.047 287.744L104.649 286.937L104.589 288.785C104.576 289.21 104.548 289.575 104.505 289.88C104.463 290.183 104.4 290.421 104.314 290.594C104.229 290.767 104.117 290.87 103.976 290.901C103.836 290.932 103.66 290.886 103.448 290.764L103.25 290.65Z" fill="#313545"/>
<path d="M109.996 294.543L109.996 290.009L108.985 289.426C108.757 289.294 108.577 289.264 108.447 289.335C108.316 289.406 108.251 289.57 108.251 289.826C108.251 290.078 108.309 290.31 108.427 290.522C108.546 290.735 108.708 290.901 108.915 291.02L110.145 291.73L110.145 292.486L108.915 291.776C108.657 291.627 108.435 291.436 108.248 291.202C108.061 290.969 107.918 290.706 107.817 290.414C107.716 290.12 107.666 289.812 107.666 289.489C107.666 289.163 107.719 288.915 107.824 288.742C107.93 288.57 108.081 288.477 108.278 288.465C108.476 288.453 108.712 288.526 108.985 288.684L110.551 289.588L110.551 294.864L109.996 294.543ZM107.457 293.078L108.538 291.078L109.173 291.444L108.092 293.444L107.457 293.078Z" fill="#313545"/>
<g opacity="0.5">
<path d="M53.925 223.486L53.9258 216.452L55.7008 217.476C56.0545 217.68 56.3462 217.933 56.5759 218.235C56.8056 218.535 56.9767 218.86 57.089 219.208C57.2014 219.555 57.2575 219.9 57.2575 220.243C57.2575 220.546 57.2186 220.773 57.1409 220.925C57.0648 221.078 56.964 221.176 56.8384 221.218C56.7144 221.26 56.5797 221.267 56.4343 221.238L56.4343 221.307C56.5896 221.411 56.7458 221.576 56.9028 221.804C57.0598 222.032 57.1911 222.305 57.2969 222.623C57.4026 222.94 57.4555 223.284 57.4554 223.655C57.4554 224.008 57.3975 224.292 57.2818 224.507C57.1661 224.722 56.9834 224.839 56.7338 224.86C56.4843 224.881 56.1595 224.776 55.7595 224.545L53.925 223.486ZM54.5399 223.086L55.7596 223.79C56.1612 224.021 56.4463 224.078 56.6149 223.96C56.7852 223.841 56.8703 223.627 56.8704 223.318C56.8704 223.08 56.8266 222.834 56.7391 222.582C56.6515 222.328 56.5267 222.093 56.3648 221.879C56.2028 221.661 56.0111 221.489 55.7896 221.361L54.5402 220.64L54.5399 223.086ZM54.5403 219.898L55.6806 220.556C55.8657 220.663 56.0327 220.709 56.1814 220.694C56.3318 220.68 56.4509 220.607 56.5385 220.474C56.6277 220.342 56.6724 220.153 56.6724 219.906C56.6725 219.597 56.5948 219.29 56.4395 218.985C56.2841 218.677 56.0379 218.426 55.7007 218.232L54.5405 217.562L54.5403 219.898Z" fill="#313545"/>
<path d="M58.3861 226.061L58.3867 220.785L59.9436 221.684C60.3535 221.92 60.6791 222.237 60.9203 222.632C61.1616 223.028 61.2822 223.437 61.2822 223.858C61.2821 224.179 61.2135 224.388 61.0763 224.485C60.9391 224.58 60.7631 224.596 60.5482 224.534C60.6887 224.642 60.8251 224.79 60.9573 224.976C61.0911 225.163 61.2018 225.378 61.2894 225.621C61.377 225.862 61.4208 226.121 61.4207 226.398C61.4207 226.668 61.3711 226.881 61.2719 227.037C61.1727 227.192 61.0306 227.279 60.8454 227.295C60.6603 227.312 60.4388 227.246 60.181 227.097L58.3861 226.061ZM58.9415 225.64L60.1811 226.355C60.3827 226.472 60.5406 226.496 60.6546 226.429C60.7687 226.362 60.8257 226.214 60.8257 225.985C60.8258 225.713 60.7688 225.466 60.6548 225.244C60.5407 225.021 60.3829 224.85 60.1813 224.734L58.9417 224.019L58.9415 225.64ZM58.9418 223.318L59.9434 223.896C60.1004 223.987 60.2351 224.035 60.3475 224.04C60.4599 224.043 60.5458 224.006 60.6053 223.928C60.6665 223.848 60.6971 223.731 60.6971 223.575C60.6971 223.353 60.6302 223.141 60.4963 222.937C60.3625 222.732 60.1782 222.561 59.9435 222.426L58.942 221.848L58.9418 223.318Z" fill="#313545"/>
<path d="M63.9028 229.355C63.5359 229.144 63.2194 228.849 62.9533 228.471C62.6889 228.091 62.4848 227.658 62.3411 227.169C62.199 226.68 62.128 226.165 62.128 225.624C62.1281 225.084 62.1992 224.648 62.3414 224.318C62.4852 223.987 62.6852 223.779 62.9414 223.696C63.1993 223.611 63.5001 223.668 63.8439 223.866C64.0422 223.981 64.238 224.14 64.4314 224.343C64.6248 224.546 64.8008 224.797 64.9594 225.094C65.118 225.39 65.2444 225.733 65.3386 226.124C65.4328 226.515 65.4798 226.957 65.4798 227.449L65.4797 227.792L62.5445 226.098L62.5446 225.397L64.8848 226.748C64.8849 226.451 64.8419 226.16 64.756 225.877C64.6717 225.595 64.5511 225.341 64.3941 225.115C64.2388 224.89 64.0553 224.717 63.8438 224.595C63.6108 224.46 63.4091 224.424 63.2389 224.486C63.0703 224.547 62.9405 224.678 62.8496 224.88C62.7586 225.081 62.7132 225.328 62.7131 225.618L62.7131 226.086C62.713 226.484 62.7626 226.85 62.8617 227.185C62.9625 227.518 63.1021 227.808 63.2806 228.055C63.4591 228.3 63.6665 228.491 63.9028 228.627C64.0565 228.716 64.1954 228.766 64.3193 228.778C64.445 228.789 64.5532 228.76 64.6441 228.691C64.735 228.62 64.8053 228.507 64.8549 228.352L65.4201 228.898C65.3606 229.13 65.2606 229.306 65.1201 229.426C64.9796 229.544 64.806 229.6 64.5994 229.593C64.3928 229.583 64.1606 229.504 63.9028 229.355Z" fill="#313545"/>
<path d="M65.9627 231.946L65.963 229.679L66.2803 229.862C66.358 229.795 66.425 229.712 66.4812 229.614C66.5374 229.516 66.5861 229.389 66.6275 229.235C66.6705 229.079 66.7069 228.88 66.7366 228.638C66.7664 228.394 66.7929 228.095 66.8161 227.739L66.9452 225.725L69.3648 227.122L69.3643 231.642L69.9494 231.98L69.9491 234.247L69.3641 233.909L69.3642 232.398L66.548 230.772L66.5478 232.284L65.9627 231.946ZM66.9447 230.246L68.7793 231.304L68.7797 227.54L67.4905 226.796L67.3912 228.071C67.3498 228.599 67.2986 229.052 67.2374 229.429C67.1762 229.806 67.0786 230.078 66.9447 230.246Z" fill="#313545"/>
<path d="M71.3111 232.326L73.1461 229.304L73.8204 229.694L73.8198 234.97L73.2347 234.632L73.2352 230.551L71.4101 233.579L70.7259 233.184L70.7265 227.908L71.3115 228.245L71.3111 232.326Z" fill="#313545"/>
<path d="M74.3738 230.769L74.3739 230.013L77.4678 231.799L77.4677 232.555L76.2182 231.833L76.2177 236.354L75.6327 236.016L75.6332 231.496L74.3738 230.769Z" fill="#313545"/>
<path d="M79.7194 238.485C79.3525 238.273 79.036 237.978 78.77 237.6C78.5056 237.221 78.3015 236.787 78.1578 236.299C78.0157 235.809 77.9446 235.294 77.9447 234.754C77.9448 234.213 78.0159 233.778 78.1581 233.448C78.3019 233.116 78.5019 232.909 78.7581 232.825C79.016 232.741 79.3168 232.797 79.6606 232.996C79.8589 233.11 80.0547 233.269 80.2481 233.472C80.4414 233.676 80.6174 233.926 80.7761 234.224C80.9347 234.519 81.0611 234.862 81.1553 235.253C81.2495 235.644 81.2965 236.086 81.2965 236.578L81.2964 236.922L78.3612 235.228L78.3612 234.527L80.7015 235.878C80.7016 235.58 80.6586 235.289 80.5727 235.006C80.4884 234.724 80.3678 234.47 80.2108 234.244C80.0555 234.02 79.872 233.846 79.6605 233.724C79.4274 233.59 79.2258 233.553 79.0555 233.615C78.8869 233.676 78.7572 233.807 78.6663 234.009C78.5753 234.211 78.5298 234.457 78.5298 234.748L78.5298 235.215C78.5297 235.613 78.5793 235.98 78.6784 236.314C78.7792 236.647 78.9188 236.937 79.0973 237.185C79.2758 237.43 79.4832 237.62 79.7195 237.757C79.8732 237.845 80.0121 237.896 80.136 237.908C80.2616 237.918 80.3699 237.889 80.4608 237.82C80.5517 237.749 80.622 237.636 80.6716 237.482L81.2368 238.028C81.1773 238.259 81.0773 238.435 80.9368 238.555C80.7962 238.674 80.6227 238.729 80.4161 238.722C80.2095 238.713 79.9773 238.634 79.7194 238.485Z" fill="#313545"/>
<path d="M83.932 236.286L83.932 235.53L87.026 237.316L87.0259 238.072L85.7764 237.35L85.7759 241.871L85.1908 241.533L85.1913 237.013L83.932 236.286Z" fill="#313545"/>
<path d="M89.2776 244.002C88.9107 243.79 88.5942 243.495 88.3282 243.117C88.0638 242.738 87.8597 242.304 87.7159 241.816C87.5738 241.326 87.5028 240.811 87.5029 240.271C87.503 239.73 87.5741 239.295 87.7163 238.965C87.8601 238.633 88.0601 238.426 88.3163 238.342C88.5742 238.258 88.875 238.314 89.2187 238.513C89.4171 238.627 89.6129 238.786 89.8063 238.989C89.9996 239.193 90.1756 239.443 90.3343 239.741C90.4929 240.036 90.6193 240.379 90.7135 240.77C90.8077 241.161 90.8547 241.603 90.8547 242.095L90.8546 242.439L87.9194 240.745L87.9194 240.044L90.2597 241.395C90.2597 241.097 90.2168 240.806 90.1309 240.523C90.0466 240.241 89.926 239.987 89.769 239.761C89.6137 239.537 89.4302 239.363 89.2187 239.241C88.9856 239.107 88.784 239.07 88.6137 239.132C88.4451 239.193 88.3154 239.324 88.2244 239.526C88.1335 239.728 88.088 239.974 88.088 240.265L88.0879 240.732C88.0879 241.13 88.1374 241.497 88.2366 241.831C88.3374 242.164 88.477 242.454 88.6555 242.702C88.834 242.947 89.0414 243.137 89.2777 243.274C89.4314 243.362 89.5702 243.413 89.6942 243.425C89.8198 243.435 89.9281 243.406 90.019 243.337C90.1099 243.266 90.1802 243.153 90.2298 242.999L90.795 243.545C90.7355 243.776 90.6354 243.952 90.4949 244.072C90.3544 244.191 90.1809 244.246 89.9743 244.239C89.7677 244.23 89.5355 244.151 89.2776 244.002Z" fill="#313545"/>
<path d="M91.7444 245.316L91.7449 240.04L92.33 240.377L92.3297 242.672L92.7165 242.895L94.0852 241.39L94.8389 241.825L93.3015 243.48L94.8581 247.113L94.1045 246.678L92.8552 243.731L92.3297 243.428L92.3294 245.653L91.7444 245.316Z" fill="#313545"/>
<path d="M96.8841 248.392C96.5272 248.186 96.2198 247.892 95.962 247.51C95.7042 247.127 95.5059 246.691 95.3671 246.201C95.2283 245.711 95.1589 245.203 95.159 244.676C95.159 244.14 95.2302 243.708 95.3724 243.38C95.5162 243.051 95.7162 242.845 95.9724 242.761C96.2303 242.677 96.5311 242.734 96.8748 242.932C97.1426 243.086 97.3839 243.294 97.5987 243.556C97.8135 243.817 97.9895 244.111 98.1267 244.438C98.2638 244.764 98.3489 245.102 98.3819 245.451L97.7969 245.113C97.7523 244.847 97.6531 244.577 97.4995 244.302C97.3474 244.027 97.1425 243.815 96.8847 243.666C96.6566 243.534 96.4566 243.501 96.2847 243.567C96.1144 243.631 95.9814 243.785 95.8855 244.027C95.7912 244.268 95.7441 244.588 95.7441 244.986C95.744 245.394 95.7903 245.775 95.8828 246.131C95.9769 246.488 96.1091 246.799 96.2794 247.064C96.4512 247.331 96.6528 247.531 96.8842 247.664C97.0363 247.752 97.1743 247.795 97.2982 247.793C97.4222 247.791 97.5272 247.747 97.6131 247.659C97.6991 247.571 97.7603 247.442 97.7966 247.27L98.3817 247.608C98.3486 247.9 98.2668 248.134 98.1362 248.308C98.0072 248.481 97.8362 248.579 97.6229 248.602C97.4114 248.625 97.1651 248.555 96.8841 248.392Z" fill="#313545"/>
<path d="M98.9374 244.947L98.9374 244.191L102.031 245.977L102.031 246.733L100.782 246.011L100.781 250.532L100.196 250.194L100.197 245.674L98.9374 244.947Z" fill="#313545"/>
</g>
<rect x="0.432985" y="0.749952" width="348.294" height="28.8243" rx="3.5" transform="matrix(0.866081 0.499903 -0.000111712 1 49.2963 202.831)" stroke="#E9E9E9"/>
<path d="M56.4436 106.3C56.4436 107.099 56.3186 107.717 56.0688 108.154C55.8191 108.592 55.4764 108.842 55.041 108.906C54.6056 108.971 54.1082 108.841 53.549 108.518C52.9898 108.196 52.4925 107.751 52.0572 107.184C51.6218 106.617 51.2793 105.971 51.0296 105.245C50.78 104.52 50.6552 103.758 50.6553 102.959C50.6554 102.161 50.7803 101.543 51.0301 101.105C51.2799 100.668 51.6225 100.417 52.0579 100.353C52.4934 100.289 52.9907 100.418 53.5499 100.741C54.1091 101.064 54.6064 101.508 55.0418 102.075C55.4771 102.642 55.8196 103.288 56.0693 104.014C56.319 104.74 56.4437 105.502 56.4436 106.3ZM55.6753 105.857C55.6754 105.201 55.5804 104.593 55.3905 104.032C55.2028 103.473 54.9477 102.985 54.6255 102.567C54.3053 102.15 53.9468 101.828 53.5498 101.598C53.1528 101.369 52.7932 101.278 52.4708 101.323C52.1507 101.37 51.8956 101.564 51.7056 101.906C51.5177 102.248 51.4237 102.747 51.4236 103.403C51.4236 104.058 51.5174 104.666 51.7052 105.225C51.8951 105.786 52.1501 106.274 52.4702 106.691C52.7925 107.108 53.1521 107.432 53.5491 107.661C53.9461 107.89 54.3047 107.981 54.6249 107.934C54.9472 107.889 55.2023 107.695 55.3902 107.352C55.5802 107.011 55.6752 106.512 55.6753 105.857Z" fill="#313545"/>
<path d="M57.3946 105.77L57.3947 104.956L61.3902 107.263L61.3901 108.076L59.7766 107.145L59.776 112.009L59.0205 111.573L59.021 106.708L57.3946 105.77Z" fill="#313545"/>
<path d="M67.0251 116.312C66.5641 116.046 66.1671 115.691 65.8342 115.247C65.5012 114.804 65.2451 114.31 65.0659 113.765C64.8867 113.22 64.7971 112.665 64.7971 112.098C64.7972 111.521 64.889 111.065 65.0726 110.73C65.2584 110.394 65.5167 110.196 65.8475 110.139C66.1805 110.079 66.569 110.178 67.0129 110.434C67.3587 110.634 67.6703 110.887 67.9478 111.196C68.2252 111.504 68.4525 111.842 68.6296 112.21C68.8067 112.579 68.9166 112.953 68.9593 113.332L68.2037 112.896C68.1461 112.604 68.0181 112.301 67.8196 111.987C67.6233 111.671 67.3586 111.417 67.0257 111.225C66.7311 111.055 66.4728 110.995 66.2509 111.044C66.031 111.092 65.8591 111.241 65.7353 111.49C65.6136 111.737 65.5528 112.076 65.5527 112.504C65.5527 112.943 65.6124 113.359 65.7319 113.754C65.8535 114.149 66.0242 114.5 66.244 114.807C66.466 115.115 66.7264 115.356 67.0252 115.528C67.2215 115.641 67.3998 115.705 67.5598 115.718C67.7199 115.732 67.8555 115.697 67.9665 115.613C68.0775 115.529 68.1565 115.397 68.2034 115.217L68.959 115.653C68.9163 115.964 68.8106 116.205 68.642 116.376C68.4754 116.546 68.2545 116.631 67.9792 116.629C67.706 116.627 67.3879 116.521 67.0251 116.312Z" fill="#313545"/>
<path d="M70.0634 117.947L70.064 112.269L72.0746 113.43C72.6039 113.735 73.0243 114.116 73.3359 114.572C73.6475 115.028 73.8033 115.482 73.8032 115.936C73.8032 116.281 73.7146 116.497 73.5374 116.584C73.3602 116.67 73.1329 116.665 72.8554 116.572C73.0368 116.706 73.2129 116.881 73.3837 117.098C73.5565 117.316 73.6995 117.562 73.8126 117.834C73.9257 118.104 73.9822 118.388 73.9822 118.686C73.9822 118.977 73.9181 119.2 73.79 119.355C73.6619 119.51 73.4784 119.585 73.2393 119.581C73.0002 119.576 72.7142 119.477 72.3813 119.285L70.0634 117.947ZM70.7806 117.563L72.3814 118.487C72.6417 118.637 72.8456 118.683 72.9929 118.625C73.1402 118.567 73.2138 118.415 73.2138 118.169C73.2139 117.875 73.1403 117.602 72.993 117.35C72.8458 117.095 72.6419 116.892 72.3815 116.742L70.7808 115.818L70.7806 117.563ZM70.7809 115.064L72.0743 115.81C72.2771 115.927 72.451 115.996 72.5961 116.015C72.7413 116.033 72.8523 116.003 72.9291 115.927C73.0081 115.849 73.0476 115.726 73.0476 115.559C73.0477 115.32 72.9612 115.083 72.7884 114.847C72.6155 114.609 72.3775 114.403 72.0745 114.228L70.781 113.482L70.7809 115.064Z" fill="#313545"/>
<path d="M77.1235 122.141C76.6796 121.884 76.2901 121.537 75.955 121.1C75.6221 120.664 75.3617 120.172 75.1739 119.625C74.9883 119.079 74.8955 118.513 74.8956 117.927C74.8956 117.335 74.9886 116.873 75.1743 116.539C75.3622 116.206 75.6226 116.014 75.9556 115.962C76.2907 115.911 76.6802 116.014 77.1242 116.27C77.5681 116.527 77.9566 116.873 78.2895 117.309C78.6246 117.746 78.8849 118.239 79.0706 118.787C79.2583 119.337 79.3522 119.908 79.3521 120.499C79.3521 121.085 79.2581 121.544 79.0702 121.874C78.8845 122.206 78.624 122.397 78.2889 122.447C77.9559 122.499 77.5675 122.397 77.1235 122.141ZM77.1236 121.357C77.4608 121.551 77.7383 121.612 77.956 121.538C78.1738 121.464 78.3349 121.294 78.4396 121.03C78.5442 120.765 78.5965 120.442 78.5966 120.063C78.5966 119.683 78.5443 119.3 78.4398 118.911C78.3353 118.523 78.1741 118.165 77.9565 117.838C77.7388 117.51 77.4613 117.249 77.1241 117.054C76.7869 116.859 76.5094 116.8 76.2917 116.877C76.0739 116.953 75.9128 117.125 75.8081 117.392C75.7035 117.66 75.6512 117.983 75.6511 118.363C75.6511 118.742 75.7034 119.125 75.8079 119.511C75.9124 119.896 76.0736 120.252 76.2912 120.577C76.5089 120.902 76.7864 121.162 77.1236 121.357Z" fill="#313545"/>
<path d="M82.5669 125.282C82.0931 125.009 81.6844 124.652 81.3408 124.212C80.9993 123.771 80.7358 123.279 80.5501 122.736C80.3666 122.191 80.2749 121.628 80.275 121.046C80.275 120.465 80.3669 120.005 80.5505 119.668C80.7362 119.329 80.9945 119.13 81.3253 119.072C81.6583 119.013 82.0468 119.112 82.4908 119.368C82.7469 119.516 82.9998 119.711 83.2495 119.954C83.4992 120.196 83.7265 120.488 83.9314 120.828C84.1362 121.166 84.2995 121.551 84.4211 121.983C84.5427 122.416 84.6035 122.897 84.6034 123.427L84.6034 123.796L80.8128 121.608L80.8129 120.854L83.8351 122.599C83.8352 122.278 83.7797 121.96 83.6687 121.645C83.5599 121.331 83.4041 121.042 83.2014 120.78C83.0008 120.519 82.7639 120.309 82.4907 120.152C82.1897 119.978 81.9293 119.914 81.7095 119.959C81.4917 120.004 81.3242 120.129 81.2067 120.335C81.0893 120.541 81.0306 120.8 81.0306 121.113L81.0305 121.616C81.0305 122.044 81.0944 122.445 81.2225 122.817C81.3526 123.188 81.533 123.517 81.7635 123.806C81.994 124.092 82.2618 124.323 82.567 124.499C82.7655 124.613 82.9448 124.685 83.1049 124.713C83.2671 124.74 83.4069 124.722 83.5243 124.659C83.6417 124.594 83.7325 124.481 83.7965 124.321L84.5264 124.979C84.4496 125.221 84.3204 125.397 84.139 125.51C83.9575 125.619 83.7334 125.658 83.4666 125.624C83.1998 125.589 82.8999 125.475 82.5669 125.282Z" fill="#313545"/>
<path d="M88.7882 123.077L88.7881 123.89L86.5086 122.574L86.508 127.439L85.7525 127.003L85.7531 121.325L88.7882 123.077Z" fill="#313545"/>
<path d="M91.6329 130.515C91.1889 130.259 90.7994 129.912 90.4644 129.475C90.1314 129.039 89.8711 128.547 89.6833 128C89.4977 127.454 89.4049 126.888 89.4049 126.301C89.405 125.71 89.4979 125.247 89.6836 124.913C89.8715 124.581 90.1319 124.388 90.4649 124.337C90.8001 124.286 91.1896 124.389 91.6335 124.645C92.0775 124.901 92.4659 125.248 92.7989 125.684C93.1339 126.121 93.3943 126.614 93.5799 127.162C93.7677 127.712 93.8615 128.282 93.8615 128.874C93.8614 129.46 93.7674 129.919 93.5796 130.249C93.3938 130.58 93.1334 130.771 92.7983 130.822C92.4653 130.874 92.0768 130.772 91.6329 130.515ZM91.633 129.732C91.9702 129.926 92.2477 129.987 92.4654 129.913C92.6831 129.839 92.8443 129.669 92.9489 129.404C93.0535 129.139 93.1059 128.817 93.1059 128.438C93.106 128.058 93.0537 127.674 92.9492 127.286C92.8446 126.898 92.6835 126.54 92.4658 126.212C92.2481 125.885 91.9707 125.623 91.6334 125.429C91.2962 125.234 91.0187 125.175 90.801 125.251C90.5833 125.328 90.4221 125.5 90.3175 125.767C90.2129 126.035 90.1605 126.358 90.1605 126.738C90.1605 127.117 90.2127 127.5 90.3173 127.885C90.4218 128.271 90.5829 128.626 90.8006 128.952C91.0183 129.277 91.2957 129.537 91.633 129.732Z" fill="#313545"/>
<path d="M98.3058 132.962L100.675 129.938L101.546 130.441L101.546 136.119L100.79 135.683L100.791 131.291L98.4338 134.322L97.5501 133.812L97.5508 128.135L98.3063 128.571L98.3058 132.962Z" fill="#313545"/>
<path d="M105.619 137.287L107.335 133.782L108.053 134.196L105.926 138.647L105.311 138.292L103.225 131.41L103.929 131.816L105.619 137.287ZM103.686 131.676L103.685 137.354L102.93 136.917L102.93 131.24L103.686 131.676ZM107.553 139.586L107.553 133.908L108.309 134.344L108.308 140.022L107.553 139.586Z" fill="#313545"/>
<path d="M111.753 142.129C111.279 141.855 110.87 141.498 110.527 141.059C110.185 140.618 109.922 140.125 109.736 139.582C109.553 139.037 109.461 138.474 109.461 137.893C109.461 137.311 109.553 136.851 109.736 136.514C109.922 136.175 110.18 135.976 110.511 135.919C110.844 135.859 111.233 135.958 111.677 136.214C111.933 136.362 112.186 136.557 112.435 136.8C112.685 137.043 112.912 137.334 113.117 137.674C113.322 138.012 113.485 138.397 113.607 138.829C113.729 139.262 113.789 139.743 113.789 140.273L113.789 140.642L109.999 138.454L109.999 137.7L113.021 139.445C113.021 139.124 112.966 138.807 112.855 138.491C112.746 138.177 112.59 137.889 112.387 137.626C112.187 137.365 111.95 137.155 111.677 136.998C111.376 136.824 111.115 136.76 110.895 136.806C110.678 136.85 110.51 136.975 110.393 137.181C110.275 137.387 110.217 137.646 110.217 137.959L110.216 138.462C110.216 138.891 110.28 139.291 110.408 139.663C110.539 140.034 110.719 140.364 110.949 140.652C111.18 140.938 111.448 141.169 111.753 141.345C111.952 141.46 112.131 141.531 112.291 141.559C112.453 141.586 112.593 141.569 112.71 141.506C112.828 141.44 112.918 141.328 112.982 141.167L113.712 141.825C113.636 142.067 113.506 142.244 113.325 142.356C113.144 142.465 112.919 142.504 112.653 142.47C112.386 142.435 112.086 142.321 111.753 142.129Z" fill="#313545"/>
<path d="M118.23 142.511L118.23 143.324L115.515 141.757L115.515 140.943L118.23 142.511ZM115.695 138.607L115.694 144.285L114.938 143.849L114.939 138.171L115.695 138.607ZM118.807 140.403L118.806 146.081L118.05 145.645L118.051 139.967L118.807 140.403Z" fill="#313545"/>
<path d="M120.941 146.027L123.311 143.003L124.182 143.506L124.181 149.184L123.426 148.748L123.426 144.356L121.069 147.388L120.186 146.878L120.186 141.2L120.942 141.636L120.941 146.027Z" fill="#313545"/>
<rect width="370.789" height="0.806063" transform="matrix(0.866081 0.499903 -0.000111712 1 39.9346 171.881)" fill="#E9E9E9"/>
<rect x="0.432985" y="0.749952" width="348.294" height="28.8243" rx="3.5" transform="matrix(0.866081 0.499903 -0.000111712 1 49.2915 264.898)" stroke="#E9E9E9"/>
<rect width="370.789" height="0.806063" transform="matrix(0.866081 0.499903 -0.000111712 1 39.9414 118.04)" fill="#E9E9E9"/>
<rect width="370.789" height="0.806063" transform="matrix(0.866081 0.499903 -0.000111712 1 39.9268 233.947)" fill="#E9E9E9"/>
<g filter="url(#filter0_f_333_709)">
<rect width="370.789" height="62.873" rx="8" transform="matrix(0.866082 0.499901 -0.000114054 1 31.9443 122.154)" fill="#FC8314"/>
</g>
<rect width="370.789" height="62.873" rx="8" transform="matrix(0.866082 0.499901 -0.000114054 1 23.7197 124.622)" fill="white"/>
<path d="M37.4404 145.659L37.4396 152.693L36.8248 152.338L36.8255 146.059L34.2671 144.583L34.2664 150.862L33.6515 150.507L33.6523 143.472L37.4404 145.659Z" fill="#313545"/>
<path d="M40.1474 154.366C39.8036 154.168 39.502 153.88 39.2426 153.504C38.9848 153.128 38.7832 152.695 38.6378 152.203C38.494 151.713 38.4222 151.195 38.4223 150.65C38.4223 150.1 38.4943 149.662 38.6381 149.335C38.7836 149.009 38.9853 148.807 39.2431 148.729C39.5026 148.652 39.8043 148.713 40.148 148.911C40.4918 149.11 40.7926 149.397 41.0504 149.772C41.3099 150.149 41.5115 150.584 41.6552 151.076C41.8006 151.57 41.8733 152.092 41.8732 152.642C41.8731 153.187 41.8004 153.621 41.6549 153.945C41.511 154.269 41.3094 154.47 41.0499 154.547C40.792 154.625 40.4912 154.565 40.1474 154.366ZM40.1475 153.638C40.4086 153.789 40.6235 153.82 40.7921 153.732C40.9607 153.644 41.0855 153.472 41.1665 153.216C41.2476 152.961 41.2881 152.657 41.2881 152.304C41.2882 151.951 41.2477 151.599 41.1668 151.248C41.0858 150.897 40.9611 150.578 40.7925 150.293C40.6239 150.008 40.4091 149.79 40.148 149.64C39.8868 149.489 39.672 149.459 39.5034 149.549C39.3348 149.64 39.2099 149.814 39.1289 150.072C39.0479 150.33 39.0074 150.635 39.0073 150.987C39.0073 151.34 39.0478 151.691 39.1287 152.04C39.2097 152.389 39.3344 152.705 39.503 152.988C39.6715 153.27 39.8864 153.487 40.1475 153.638Z" fill="#313545"/>
<path d="M45.7019 152.186L45.7013 157.462L45.1162 157.124L45.1168 151.848L45.7019 152.186ZM45.4735 154.569L45.4734 155.324C45.3412 155.317 45.2098 155.301 45.0792 155.279C44.9486 155.254 44.8115 155.215 44.6677 155.161C44.5239 155.106 44.366 155.029 44.1942 154.929C43.7628 154.68 43.4166 154.319 43.1555 153.845C42.896 153.373 42.7663 152.814 42.7664 152.168L42.7666 150.478L43.3517 150.816L43.3515 152.506C43.3514 152.776 43.3886 153.019 43.463 153.236C43.5373 153.453 43.6381 153.641 43.7654 153.799C43.8926 153.957 44.0356 154.082 44.1942 154.174C44.4421 154.317 44.6661 154.415 44.8661 154.469C45.0677 154.521 45.2702 154.554 45.4735 154.569Z" fill="#313545"/>
<path d="M46.2571 153.262L46.2572 152.506L49.3511 154.292L49.351 155.048L48.1016 154.327L48.101 158.847L47.516 158.509L47.5165 153.989L46.2571 153.262Z" fill="#313545"/>
<path d="M51.5532 160.95C51.2094 160.751 50.9078 160.464 50.6484 160.087C50.3906 159.712 50.189 159.278 50.0436 158.787C49.8998 158.296 49.828 157.778 49.828 157.233C49.8281 156.684 49.9001 156.245 50.0439 155.918C50.1894 155.592 50.391 155.39 50.6489 155.313C50.9084 155.236 51.21 155.296 51.5538 155.495C51.8976 155.693 52.1984 155.98 52.4562 156.356C52.7156 156.732 52.9172 157.167 53.061 157.66C53.2064 158.154 53.279 158.675 53.279 159.225C53.2789 159.77 53.2061 160.204 53.0606 160.528C52.9168 160.853 52.7151 161.053 52.4556 161.13C52.1978 161.208 51.897 161.148 51.5532 160.95ZM51.5533 160.221C51.8144 160.372 52.0293 160.403 52.1979 160.315C52.3665 160.227 52.4913 160.055 52.5723 159.8C52.6533 159.544 52.6939 159.24 52.6939 158.887C52.6939 158.535 52.6535 158.183 52.5725 157.831C52.4916 157.48 52.3668 157.162 52.1983 156.877C52.0297 156.592 51.8149 156.374 51.5537 156.223C51.2926 156.072 51.0777 156.042 50.9091 156.133C50.7405 156.223 50.6157 156.397 50.5347 156.655C50.4537 156.913 50.4132 157.218 50.4131 157.571C50.4131 157.923 50.4535 158.274 50.5345 158.623C50.6154 158.972 50.7402 159.288 50.9087 159.571C51.0773 159.854 51.2921 160.071 51.5533 160.221Z" fill="#313545"/>
<path d="M54.1718 162.351L54.1724 157.075L55.7292 157.974C56.1391 158.21 56.4647 158.526 56.706 158.922C56.9472 159.318 57.0679 159.726 57.0678 160.148C57.0678 160.468 56.9992 160.677 56.862 160.774C56.7248 160.869 56.5487 160.886 56.3339 160.823C56.4743 160.932 56.6107 161.079 56.7429 161.266C56.8768 161.453 56.9875 161.668 57.075 161.911C57.1626 162.151 57.2064 162.41 57.2064 162.687C57.2063 162.958 57.1567 163.17 57.0575 163.326C56.9583 163.482 56.8162 163.568 56.6311 163.585C56.4459 163.602 56.2245 163.536 55.9666 163.387L54.1718 162.351ZM54.7272 161.93L55.9667 162.645C56.1684 162.761 56.3262 162.786 56.4403 162.719C56.5543 162.652 56.6114 162.504 56.6114 162.275C56.6114 162.003 56.5544 161.756 56.4404 161.534C56.3264 161.31 56.1685 161.14 55.9669 161.024L54.7274 160.308L54.7272 161.93ZM54.7274 159.608L55.729 160.186C55.886 160.276 56.0207 160.324 56.1331 160.33C56.2455 160.333 56.3314 160.295 56.391 160.217C56.4521 160.138 56.4827 160.021 56.4827 159.865C56.4828 159.643 56.4158 159.43 56.282 159.227C56.1481 159.021 55.9639 158.851 55.7292 158.716L54.7276 158.137L54.7274 159.608Z" fill="#313545"/>
<path d="M58.598 161.539L59.6888 162.169C60.135 162.427 60.4763 162.78 60.7126 163.231C60.9489 163.681 61.067 164.146 61.067 164.627C61.067 164.943 61.014 165.2 60.9082 165.398C60.8024 165.593 60.647 165.708 60.4421 165.744C60.2371 165.776 59.9859 165.707 59.6884 165.535L58.0919 164.614L58.0925 159.338L58.6775 159.675L58.677 164.196L59.6885 164.78C59.9199 164.913 60.11 164.938 60.2587 164.854C60.4075 164.771 60.4819 164.596 60.4819 164.331C60.4819 164.051 60.4076 163.78 60.2589 163.518C60.1101 163.256 59.9201 163.058 59.6887 162.925L58.5979 162.295L58.598 161.539ZM61.6717 166.68L61.6723 161.404L62.2574 161.742L62.2568 167.018L61.6717 166.68Z" fill="#313545"/>
<path d="M63.9129 166.778L65.748 163.756L66.4223 164.146L66.4217 169.422L65.8366 169.084L65.8371 165.003L64.012 168.031L63.3277 167.636L63.3283 162.36L63.9134 162.697L63.9129 166.778ZM65.3614 161.774L65.9068 162.089C65.9068 162.46 65.8142 162.71 65.6291 162.839C65.4439 162.968 65.1927 162.941 64.8754 162.758C64.563 162.578 64.3143 162.316 64.1292 161.974C63.9458 161.632 63.8541 161.275 63.8541 160.904L64.3995 161.219C64.3995 161.398 64.435 161.575 64.5061 161.751C64.5788 161.928 64.7019 162.067 64.8754 162.167C65.049 162.267 65.1729 162.271 65.2473 162.179C65.3234 162.088 65.3614 161.953 65.3614 161.774Z" fill="#313545"/>
<path d="M70.5773 171.944C70.336 171.805 70.117 171.615 69.9203 171.376C69.7237 171.134 69.5675 170.86 69.4518 170.552C69.3362 170.243 69.2784 169.916 69.2784 169.573C69.2784 169.271 69.3214 169.05 69.4074 168.912C69.4934 168.772 69.6082 168.689 69.752 168.665C69.8958 168.64 70.0545 168.651 70.2281 168.699C70.4033 168.745 70.5793 168.803 70.7561 168.873C70.9875 168.965 71.1751 169.043 71.3189 169.105C71.4643 169.166 71.5701 169.189 71.6362 169.175C71.704 169.161 71.7379 169.089 71.7379 168.959L71.7379 168.931C71.7379 168.592 71.671 168.29 71.5372 168.025C71.405 167.761 71.2042 167.552 70.9348 167.396C70.6555 167.235 70.4365 167.193 70.2778 167.271C70.1191 167.349 70.0075 167.465 69.9431 167.621L69.3878 167.025C69.487 166.762 69.6192 166.589 69.7845 166.505C69.9515 166.421 70.1333 166.4 70.33 166.442C70.5283 166.484 70.7233 166.559 70.9151 166.67C71.0374 166.741 71.1778 166.842 71.3365 166.975C71.4968 167.107 71.6513 167.277 71.8001 167.487C71.9504 167.697 72.0752 167.956 72.1743 168.263C72.2735 168.569 72.323 168.932 72.323 169.351L72.3226 172.828L71.7375 172.49L71.7376 171.775L71.7078 171.758C71.6682 171.85 71.602 171.934 71.5095 172.011C71.4169 172.088 71.2938 172.128 71.14 172.131C70.9863 172.134 70.7987 172.072 70.5773 171.944ZM70.6666 171.267C70.898 171.401 71.093 171.45 71.2517 171.416C71.412 171.383 71.5327 171.29 71.6137 171.137C71.6964 170.986 71.7377 170.8 71.7377 170.58L71.7378 169.838C71.713 169.865 71.6585 169.871 71.5742 169.857C71.4915 169.841 71.3957 169.815 71.2866 169.777C71.1792 169.738 71.0742 169.698 70.9717 169.657C70.8709 169.615 70.7891 169.581 70.7263 169.557C70.5742 169.496 70.4321 169.459 70.2999 169.444C70.1693 169.429 70.0635 169.458 69.9825 169.533C69.9032 169.606 69.8635 169.746 69.8635 169.952C69.8634 170.233 69.9386 170.49 70.089 170.721C70.241 170.951 70.4336 171.133 70.6666 171.267Z" fill="#313545"/>
<path d="M72.9837 174.721L72.984 172.454L73.3013 172.637C73.379 172.569 73.4459 172.487 73.5021 172.389C73.5583 172.291 73.6071 172.164 73.6485 172.009C73.6915 171.853 73.7278 171.654 73.7576 171.413C73.7874 171.169 73.8139 170.869 73.8371 170.514L73.9662 168.5L76.3858 169.897L76.3853 174.417L76.9704 174.755L76.9701 177.022L76.385 176.684L76.3852 175.173L73.569 173.547L73.5688 175.058L72.9837 174.721ZM73.9657 173.02L75.8002 174.079L75.8007 170.315L74.5115 169.57L74.4122 170.846C74.3708 171.374 74.3195 171.826 74.2583 172.203C74.1971 172.58 74.0996 172.853 73.9657 173.02Z" fill="#313545"/>
<path d="M77.7466 177.937L77.7475 170.682L78.3127 171.009L78.3126 171.847L78.382 171.887C78.425 171.82 78.4845 171.738 78.5606 171.64C78.6383 171.54 78.749 171.476 78.8928 171.447C79.0383 171.416 79.2349 171.472 79.4829 171.615C79.8035 171.8 80.0861 172.075 80.3307 172.438C80.5753 172.801 80.7661 173.226 80.9032 173.713C81.0404 174.2 81.1089 174.72 81.1088 175.275C81.1088 175.833 81.0401 176.278 80.9029 176.609C80.7657 176.937 80.5756 177.144 80.3326 177.228C80.0896 177.31 79.8095 177.259 79.4922 177.076C79.2475 176.935 79.0517 176.765 78.9046 176.568C78.7575 176.369 78.6443 176.174 78.565 175.984C78.4857 175.792 78.4246 175.635 78.3816 175.514L78.332 175.486L78.3317 178.275L77.7466 177.937ZM78.3223 173.652C78.3223 174.051 78.3644 174.427 78.4486 174.78C78.5329 175.131 78.656 175.439 78.8179 175.704C78.9799 175.967 79.1782 176.166 79.4129 176.302C79.6575 176.443 79.8616 176.472 80.0253 176.387C80.1906 176.302 80.3146 176.131 80.3972 175.874C80.4815 175.616 80.5237 175.299 80.5238 174.923C80.5238 174.552 80.4825 174.194 80.3999 173.849C80.319 173.502 80.1959 173.194 80.0306 172.924C79.867 172.654 79.6613 172.447 79.4134 172.304C79.1754 172.166 78.9754 172.134 78.8134 172.208C78.6514 172.279 78.5291 172.44 78.4464 172.69C78.3637 172.938 78.3224 173.259 78.3223 173.652Z" fill="#313545"/>
<path d="M83.5976 179.445C83.2307 179.234 82.9142 178.939 82.6481 178.561C82.3837 178.181 82.1796 177.748 82.0359 177.259C81.8938 176.77 81.8228 176.255 81.8228 175.714C81.8229 175.174 81.894 174.738 82.0362 174.408C82.18 174.077 82.38 173.869 82.6362 173.786C82.8941 173.701 83.1949 173.758 83.5387 173.956C83.737 174.071 83.9329 174.23 84.1262 174.433C84.3196 174.636 84.4956 174.887 84.6542 175.184C84.8129 175.48 84.9393 175.823 85.0334 176.214C85.1276 176.605 85.1747 177.047 85.1746 177.539L85.1746 177.882L82.2393 176.188L82.2394 175.487L84.5797 176.838C84.5797 176.541 84.5367 176.25 84.4508 175.967C84.3666 175.685 84.2459 175.431 84.0889 175.205C83.9336 174.98 83.7502 174.807 83.5386 174.685C83.3056 174.55 83.1039 174.514 82.9337 174.576C82.7651 174.637 82.6353 174.768 82.5444 174.97C82.4535 175.171 82.408 175.418 82.4079 175.708L82.4079 176.176C82.4078 176.574 82.4574 176.94 82.5565 177.275C82.6573 177.608 82.7969 177.898 82.9754 178.145C83.1539 178.39 83.3613 178.581 83.5976 178.717C83.7514 178.806 83.8902 178.856 84.0141 178.868C84.1398 178.879 84.248 178.85 84.3389 178.781C84.4299 178.71 84.5001 178.597 84.5497 178.442L85.1149 178.988C85.0554 179.22 84.9554 179.396 84.8149 179.516C84.6744 179.634 84.5008 179.69 84.2942 179.683C84.0876 179.673 83.8554 179.594 83.5976 179.445Z" fill="#313545"/>
<path d="M87.6112 181.762C87.2543 181.556 86.9469 181.262 86.6891 180.879C86.4313 180.497 86.233 180.061 86.0942 179.571C85.9554 179.081 85.886 178.572 85.8861 178.046C85.8862 177.51 85.9573 177.078 86.0995 176.75C86.2433 176.421 86.4433 176.215 86.6995 176.131C86.9574 176.046 87.2582 176.103 87.6019 176.302C87.8697 176.456 88.111 176.664 88.3258 176.926C88.5407 177.187 88.7167 177.481 88.8538 177.808C88.991 178.134 89.076 178.472 89.1091 178.821L88.524 178.483C88.4794 178.217 88.3803 177.946 88.2266 177.672C88.0745 177.397 87.8696 177.185 87.6118 177.036C87.3837 176.904 87.1837 176.871 87.0118 176.937C86.8416 177.001 86.7085 177.154 86.6126 177.397C86.5184 177.638 86.4712 177.958 86.4712 178.356C86.4711 178.764 86.5174 179.145 86.6099 179.501C86.704 179.858 86.8362 180.169 87.0065 180.434C87.1783 180.7 87.3799 180.9 87.6113 181.034C87.7634 181.122 87.9014 181.165 88.0254 181.163C88.1493 181.161 88.2543 181.116 88.3402 181.029C88.4262 180.941 88.4874 180.811 88.5237 180.64L89.1088 180.978C89.0757 181.27 88.9939 181.503 88.8633 181.678C88.7343 181.85 88.5633 181.949 88.35 181.972C88.1385 181.994 87.8922 181.924 87.6112 181.762Z" fill="#313545"/>
<path d="M91.9274 184.143L91.928 178.867L94.9228 180.596L94.9222 185.872L94.3371 185.534L94.3376 181.014L92.513 179.961L92.5125 184.481L91.9274 184.143Z" fill="#313545"/>
<path d="M97.5376 187.492C97.1938 187.293 96.8922 187.006 96.6328 186.629C96.375 186.254 96.1734 185.82 96.028 185.329C95.8842 184.838 95.8124 184.32 95.8125 183.775C95.8125 183.226 95.8845 182.787 96.0283 182.46C96.1738 182.135 96.3755 181.933 96.6333 181.855C96.8928 181.778 97.1945 181.839 97.5382 182.037C97.882 182.235 98.1828 182.522 98.4406 182.898C98.7 183.274 98.9016 183.709 99.0454 184.202C99.1908 184.696 99.2634 185.218 99.2634 185.767C99.2633 186.312 99.1905 186.746 99.045 187.07C98.9012 187.395 98.6995 187.595 98.44 187.672C98.1822 187.75 97.8814 187.69 97.5376 187.492ZM97.5377 186.763C97.7988 186.914 98.0137 186.945 98.1823 186.857C98.3509 186.769 98.4757 186.597 98.5567 186.342C98.6377 186.086 98.6783 185.782 98.6783 185.429C98.6783 185.077 98.6379 184.725 98.5569 184.373C98.476 184.022 98.3512 183.704 98.1827 183.419C98.0141 183.134 97.7993 182.916 97.5381 182.765C97.277 182.614 97.0621 182.584 96.8935 182.675C96.7249 182.765 96.6001 182.939 96.5191 183.197C96.4381 183.455 96.3976 183.76 96.3975 184.113C96.3975 184.466 96.4379 184.816 96.5189 185.165C96.5998 185.514 96.7246 185.83 96.8932 186.113C97.0617 186.396 97.2766 186.613 97.5377 186.763Z" fill="#313545"/>
<path d="M100.156 188.893L100.157 183.617L100.742 183.955L100.742 186.249L101.128 186.473L102.497 184.968L103.251 185.403L101.713 187.058L103.27 190.69L102.516 190.255L101.267 187.308L100.741 187.005L100.741 189.231L100.156 188.893Z" fill="#313545"/>
<path d="M104.282 193.253C104.183 193.196 104.095 193.134 104.017 193.066C103.939 193.001 103.886 192.949 103.856 192.911L104.005 192.283C104.147 192.415 104.273 192.506 104.382 192.555C104.491 192.604 104.587 192.592 104.672 192.52C104.758 192.45 104.836 192.302 104.907 192.075L105.016 191.726L103.609 185.61L104.244 185.976L105.294 190.787L105.334 190.81L106.386 187.212L107.02 187.579L105.403 192.691C105.33 192.922 105.24 193.095 105.133 193.212C105.025 193.331 104.901 193.393 104.758 193.398C104.618 193.404 104.459 193.356 104.282 193.253Z" fill="#313545"/>
<path d="M107.792 193.3L107.792 188.024L110.787 189.753L110.787 195.029L110.202 194.691L110.202 190.171L108.377 189.118L108.377 193.638L107.792 193.3Z" fill="#313545"/>
<path d="M112.976 196.416C112.734 196.277 112.515 196.088 112.319 195.848C112.122 195.606 111.966 195.332 111.85 195.025C111.735 194.715 111.677 194.389 111.677 194.045C111.677 193.743 111.72 193.523 111.806 193.384C111.892 193.244 112.007 193.161 112.15 193.137C112.294 193.112 112.453 193.124 112.626 193.171C112.802 193.217 112.978 193.275 113.155 193.345C113.386 193.438 113.573 193.515 113.717 193.577C113.863 193.638 113.968 193.662 114.035 193.647C114.102 193.634 114.136 193.562 114.136 193.431L114.136 193.404C114.136 193.065 114.069 192.763 113.936 192.498C113.803 192.234 113.603 192.024 113.333 191.868C113.054 191.707 112.835 191.665 112.676 191.743C112.518 191.821 112.406 191.938 112.341 192.093L111.786 191.497C111.885 191.234 112.018 191.061 112.183 190.978C112.35 190.893 112.532 190.872 112.728 190.915C112.927 190.956 113.122 191.032 113.313 191.142C113.436 191.213 113.576 191.315 113.735 191.447C113.895 191.579 114.05 191.749 114.198 191.959C114.349 192.169 114.474 192.428 114.573 192.735C114.672 193.042 114.721 193.405 114.721 193.824L114.721 197.3L114.136 196.962L114.136 196.248L114.106 196.231C114.067 196.322 114 196.407 113.908 196.484C113.815 196.561 113.692 196.601 113.538 196.604C113.385 196.606 113.197 196.544 112.976 196.416ZM113.065 195.739C113.296 195.873 113.491 195.923 113.65 195.888C113.81 195.855 113.931 195.762 114.012 195.609C114.095 195.458 114.136 195.272 114.136 195.052L114.136 194.31C114.111 194.337 114.057 194.344 113.973 194.329C113.89 194.314 113.794 194.287 113.685 194.249C113.578 194.21 113.473 194.17 113.37 194.129C113.269 194.087 113.187 194.054 113.125 194.029C112.973 193.969 112.83 193.931 112.698 193.917C112.568 193.901 112.462 193.93 112.381 194.005C112.302 194.078 112.262 194.218 112.262 194.424C112.262 194.706 112.337 194.962 112.487 195.193C112.639 195.423 112.832 195.605 113.065 195.739Z" fill="#313545"/>
<path d="M115.271 193.097L115.271 192.341L118.365 194.127L118.365 194.883L117.116 194.161L117.115 198.682L116.53 198.344L116.531 193.824L115.271 193.097Z" fill="#313545"/>
<path d="M120.617 200.813C120.25 200.601 119.933 200.306 119.667 199.928C119.403 199.549 119.199 199.115 119.055 198.627C118.913 198.137 118.842 197.622 118.842 197.082C118.842 196.541 118.913 196.106 119.056 195.776C119.199 195.444 119.399 195.237 119.656 195.153C119.913 195.069 120.214 195.126 120.558 195.324C120.756 195.438 120.952 195.597 121.146 195.8C121.339 196.004 121.515 196.254 121.674 196.552C121.832 196.847 121.959 197.19 122.053 197.581C122.147 197.972 122.194 198.414 122.194 198.906L122.194 199.25L119.259 197.556L119.259 196.855L121.599 198.206C121.599 197.908 121.556 197.618 121.47 197.334C121.386 197.052 121.265 196.798 121.108 196.572C120.953 196.348 120.769 196.174 120.558 196.052C120.325 195.918 120.123 195.881 119.953 195.943C119.784 196.004 119.655 196.135 119.564 196.337C119.473 196.539 119.427 196.785 119.427 197.076L119.427 197.543C119.427 197.941 119.477 198.308 119.576 198.642C119.677 198.975 119.816 199.265 119.995 199.513C120.173 199.758 120.381 199.948 120.617 200.085C120.771 200.173 120.91 200.224 121.033 200.236C121.159 200.247 121.267 200.217 121.358 200.148C121.449 200.077 121.519 199.964 121.569 199.81L122.134 200.356C122.075 200.587 121.975 200.763 121.834 200.884C121.694 201.002 121.52 201.057 121.314 201.05C121.107 201.041 120.875 200.962 120.617 200.813Z" fill="#313545"/>
<path d="M122.746 201.932L122.747 201.177L122.885 201.257C122.999 201.322 123.094 201.346 123.17 201.328C123.247 201.308 123.308 201.232 123.354 201.101C123.402 200.969 123.438 200.767 123.463 200.498C123.49 200.227 123.509 199.874 123.52 199.438L123.59 197.143L126.129 198.608L126.128 203.884L125.543 203.546L125.543 199.026L124.145 198.219L124.085 200.067C124.072 200.492 124.044 200.857 124.001 201.162C123.96 201.466 123.896 201.704 123.81 201.876C123.726 202.05 123.613 202.152 123.473 202.183C123.332 202.214 123.156 202.169 122.945 202.047L122.746 201.932Z" fill="#313545"/>
<path d="M129.492 205.826L129.493 201.292L128.481 200.708C128.253 200.576 128.074 200.546 127.943 200.617C127.813 200.688 127.747 200.852 127.747 201.109C127.747 201.361 127.806 201.593 127.923 201.805C128.042 202.017 128.205 202.184 128.412 202.303L129.641 203.013L129.641 203.768L128.411 203.059C128.154 202.91 127.931 202.718 127.745 202.485C127.558 202.251 127.414 201.988 127.313 201.696C127.213 201.402 127.162 201.094 127.162 200.771C127.162 200.446 127.215 200.197 127.321 200.024C127.427 199.852 127.578 199.759 127.775 199.747C127.973 199.736 128.209 199.809 128.481 199.966L130.048 200.87L130.047 206.146L129.492 205.826ZM126.954 204.361L128.035 202.36L128.669 202.726L127.588 204.727L126.954 204.361Z" fill="#313545"/>
<g opacity="0.5">
<path d="M37.7101 176.227L37.7109 169.193L39.486 170.217C39.8397 170.421 40.1314 170.674 40.3611 170.976C40.5908 171.276 40.7618 171.6 40.8742 171.949C40.9865 172.296 41.0427 172.641 41.0426 172.984C41.0426 173.287 41.0037 173.514 40.926 173.666C40.85 173.819 40.7492 173.916 40.6235 173.958C40.4996 174.001 40.3649 174.008 40.2194 173.979L40.2194 174.048C40.3748 174.152 40.5309 174.317 40.6879 174.545C40.8449 174.773 40.9763 175.046 41.082 175.364C41.1878 175.681 41.2406 176.025 41.2406 176.396C41.2406 176.749 41.1827 177.033 41.067 177.248C40.9512 177.463 40.7686 177.58 40.519 177.601C40.2694 177.622 39.9446 177.517 39.5447 177.286L37.7101 176.227ZM38.325 175.826L39.5448 176.531C39.9464 176.762 40.2315 176.819 40.4001 176.701C40.5704 176.582 40.6555 176.368 40.6555 176.059C40.6556 175.821 40.6118 175.575 40.5242 175.323C40.4366 175.069 40.3119 174.834 40.1499 174.619C39.988 174.402 39.7963 174.23 39.5748 174.102L38.3253 173.381L38.325 175.826ZM38.3254 172.639L39.4658 173.297C39.6509 173.404 39.8178 173.45 39.9666 173.435C40.117 173.421 40.236 173.348 40.3236 173.215C40.4129 173.083 40.4576 172.894 40.4576 172.647C40.4576 172.338 40.38 172.03 40.2246 171.726C40.0693 171.418 39.8231 171.167 39.4859 170.973L38.3257 170.303L38.3254 172.639Z" fill="#313545"/>
<path d="M42.1713 178.802L42.1719 173.526L43.7288 174.425C44.1387 174.661 44.4642 174.978 44.7055 175.373C44.9468 175.769 45.0674 176.178 45.0673 176.599C45.0673 176.92 44.9987 177.128 44.8615 177.226C44.7243 177.32 44.5483 177.337 44.3334 177.275C44.4739 177.383 44.6102 177.531 44.7424 177.717C44.8763 177.904 44.987 178.119 45.0746 178.362C45.1621 178.603 45.2059 178.861 45.2059 179.139C45.2059 179.409 45.1562 179.622 45.0571 179.777C44.9579 179.933 44.8157 180.019 44.6306 180.036C44.4455 180.053 44.224 179.987 43.9662 179.838L42.1713 178.802ZM42.7267 178.381L43.9663 179.096C44.1679 179.213 44.3257 179.237 44.4398 179.17C44.5538 179.103 44.6109 178.955 44.6109 178.726C44.6109 178.454 44.5539 178.207 44.4399 177.985C44.3259 177.762 44.1681 177.591 43.9664 177.475L42.7269 176.76L42.7267 178.381ZM42.727 176.059L43.7285 176.637C43.8855 176.728 44.0202 176.776 44.1326 176.781C44.245 176.784 44.331 176.747 44.3905 176.669C44.4517 176.589 44.4822 176.472 44.4823 176.316C44.4823 176.094 44.4154 175.881 44.2815 175.678C44.1477 175.473 43.9634 175.302 43.7287 175.167L42.7271 174.589L42.727 176.059Z" fill="#313545"/>
<path d="M47.6879 182.096C47.321 181.885 47.0045 181.59 46.7385 181.212C46.4741 180.832 46.27 180.399 46.1262 179.91C45.9841 179.421 45.9131 178.906 45.9132 178.365C45.9133 177.825 45.9844 177.389 46.1266 177.059C46.2704 176.728 46.4704 176.52 46.7266 176.437C46.9845 176.352 47.2853 176.409 47.629 176.607C47.8274 176.722 48.0232 176.881 48.2166 177.084C48.4099 177.287 48.5859 177.538 48.7446 177.835C48.9032 178.131 49.0296 178.474 49.1238 178.865C49.218 179.256 49.265 179.697 49.265 180.19L49.2649 180.533L46.3297 178.839L46.3297 178.138L48.67 179.489C48.67 179.191 48.6271 178.901 48.5412 178.618C48.4569 178.336 48.3363 178.082 48.1793 177.856C48.024 177.631 47.8405 177.458 47.629 177.336C47.3959 177.201 47.1943 177.165 47.024 177.227C46.8554 177.288 46.7257 177.419 46.6347 177.621C46.5438 177.822 46.4983 178.068 46.4983 178.359L46.4982 178.826C46.4982 179.225 46.5477 179.591 46.6469 179.926C46.7477 180.259 46.8873 180.549 47.0658 180.796C47.2443 181.041 47.4517 181.232 47.688 181.368C47.8417 181.457 47.9805 181.507 48.1045 181.519C48.2301 181.53 48.3384 181.501 48.4293 181.432C48.5202 181.361 48.5905 181.248 48.6401 181.093L49.2053 181.639C49.1458 181.871 49.0457 182.047 48.9052 182.167C48.7647 182.285 48.5912 182.341 48.3846 182.334C48.178 182.324 47.9458 182.245 47.6879 182.096Z" fill="#313545"/>
<path d="M49.7479 184.687L49.7482 182.42L50.0655 182.603C50.1432 182.536 50.2101 182.453 50.2663 182.355C50.3225 182.257 50.3713 182.13 50.4127 181.976C50.4557 181.819 50.492 181.621 50.5218 181.379C50.5516 181.135 50.5781 180.836 50.6013 180.48L50.7304 178.466L53.15 179.863L53.1495 184.383L53.7346 184.721L53.7343 186.988L53.1492 186.65L53.1494 185.139L50.3331 183.513L50.333 185.025L49.7479 184.687ZM50.7299 182.987L52.5644 184.045L52.5649 180.281L51.2757 179.537L51.1764 180.812C51.135 181.34 51.0837 181.793 51.0225 182.17C50.9613 182.546 50.8638 182.819 50.7299 182.987Z" fill="#313545"/>
<path d="M55.0963 185.067L56.9313 182.045L57.6056 182.435L57.605 187.711L57.0199 187.373L57.0204 183.292L55.1953 186.32L54.5111 185.925L54.5117 180.649L55.0967 180.986L55.0963 185.067Z" fill="#313545"/>
<path d="M58.159 183.51L58.1591 182.754L61.253 184.54L61.2529 185.295L60.0034 184.574L60.0029 189.095L59.4179 188.757L59.4184 184.237L58.159 183.51Z" fill="#313545"/>
<path d="M63.5047 191.226C63.1377 191.014 62.8213 190.719 62.5552 190.341C62.2908 189.962 62.0867 189.528 61.943 189.04C61.8009 188.55 61.7299 188.035 61.7299 187.495C61.73 186.954 61.8011 186.519 61.9433 186.189C62.0871 185.857 62.2871 185.65 62.5433 185.566C62.8012 185.482 63.102 185.538 63.4458 185.737C63.6441 185.851 63.84 186.01 64.0333 186.213C64.2267 186.417 64.4027 186.667 64.5613 186.965C64.72 187.26 64.8464 187.603 64.9405 187.994C65.0347 188.385 65.0817 188.827 65.0817 189.319L65.0817 189.663L62.1464 187.968L62.1465 187.268L64.4867 188.619C64.4868 188.321 64.4438 188.03 64.3579 187.747C64.2737 187.465 64.153 187.211 63.996 186.985C63.8407 186.761 63.6572 186.587 63.4457 186.465C63.2127 186.33 63.011 186.294 62.8408 186.356C62.6722 186.417 62.5424 186.548 62.4515 186.75C62.3605 186.952 62.3151 187.198 62.315 187.489L62.315 187.956C62.3149 188.354 62.3645 188.721 62.4636 189.055C62.5644 189.388 62.704 189.678 62.8825 189.925C63.061 190.17 63.2684 190.361 63.5047 190.498C63.6584 190.586 63.7973 190.637 63.9212 190.649C64.0469 190.659 64.1551 190.63 64.246 190.561C64.3369 190.49 64.4072 190.377 64.4568 190.223L65.022 190.769C64.9625 191 64.8625 191.176 64.722 191.296C64.5815 191.414 64.4079 191.47 64.2013 191.463C63.9947 191.454 63.7625 191.375 63.5047 191.226Z" fill="#313545"/>
<path d="M67.7172 189.027L67.7173 188.271L70.8112 190.057L70.8111 190.812L69.5617 190.091L69.5611 194.612L68.9761 194.274L68.9766 189.754L67.7172 189.027Z" fill="#313545"/>
<path d="M73.0629 196.743C72.696 196.531 72.3795 196.236 72.1134 195.858C71.849 195.479 71.6449 195.045 71.5012 194.557C71.3591 194.067 71.2881 193.552 71.2881 193.011C71.2882 192.471 71.3593 192.036 71.5015 191.706C71.6453 191.374 71.8454 191.167 72.1016 191.083C72.3594 190.998 72.6602 191.055 73.004 191.254C73.2023 191.368 73.3982 191.527 73.5915 191.73C73.7849 191.933 73.9609 192.184 74.1195 192.482C74.2782 192.777 74.4046 193.12 74.4987 193.511C74.5929 193.902 74.64 194.344 74.6399 194.836L74.6399 195.18L71.7046 193.485L71.7047 192.785L74.045 194.136C74.045 193.838 74.0021 193.547 73.9161 193.264C73.8319 192.982 73.7112 192.728 73.5542 192.502C73.3989 192.278 73.2155 192.104 73.0039 191.982C72.7709 191.847 72.5692 191.811 72.399 191.873C72.2304 191.934 72.1006 192.065 72.0097 192.267C71.9188 192.469 71.8733 192.715 71.8732 193.006L71.8732 193.473C71.8731 193.871 71.9227 194.238 72.0218 194.572C72.1226 194.905 72.2622 195.195 72.4407 195.442C72.6192 195.687 72.8266 195.878 73.063 196.015C73.2167 196.103 73.3555 196.154 73.4795 196.166C73.6051 196.176 73.7133 196.147 73.8042 196.078C73.8952 196.007 73.9654 195.894 74.015 195.74L74.5802 196.286C74.5207 196.517 74.4207 196.693 74.2802 196.813C74.1397 196.931 73.9661 196.987 73.7595 196.98C73.5529 196.971 73.3207 196.892 73.0629 196.743Z" fill="#313545"/>
<path d="M75.5296 198.057L75.5302 192.781L76.1153 193.118L76.115 195.413L76.5017 195.636L77.8705 194.131L78.6241 194.566L77.0868 196.221L78.6434 199.854L77.8897 199.419L76.6405 196.472L76.1149 196.168L76.1147 198.394L75.5296 198.057Z" fill="#313545"/>
<path d="M80.6694 201.133C80.3124 200.927 80.005 200.633 79.7472 200.251C79.4894 199.868 79.2911 199.432 79.1523 198.942C79.0136 198.452 78.9442 197.944 78.9442 197.417C78.9443 196.881 79.0154 196.449 79.1576 196.121C79.3015 195.792 79.5015 195.586 79.7577 195.502C80.0155 195.418 80.3163 195.474 80.6601 195.673C80.9279 195.827 81.1691 196.035 81.384 196.297C81.5988 196.558 81.7748 196.852 81.912 197.179C82.0491 197.505 82.1342 197.843 82.1672 198.192L81.5821 197.854C81.5376 197.588 81.4384 197.318 81.2847 197.043C81.1327 196.768 80.9278 196.556 80.6699 196.407C80.4419 196.275 80.2419 196.242 80.07 196.308C79.8997 196.372 79.7666 196.525 79.6707 196.768C79.5765 197.009 79.5294 197.329 79.5293 197.727C79.5293 198.135 79.5755 198.516 79.668 198.872C79.7622 199.229 79.8944 199.54 80.0646 199.805C80.2365 200.072 80.4381 200.271 80.6695 200.405C80.8215 200.493 80.9595 200.536 81.0835 200.534C81.2075 200.532 81.3124 200.488 81.3984 200.4C81.4843 200.312 81.5455 200.182 81.5819 200.011L82.167 200.349C82.1339 200.641 82.052 200.874 81.9214 201.049C81.7925 201.222 81.6214 201.32 81.4082 201.343C81.1966 201.365 80.9504 201.295 80.6694 201.133Z" fill="#313545"/>
<path d="M82.7226 197.688L82.7227 196.932L85.8166 198.718L85.8166 199.474L84.5671 198.752L84.5666 203.273L83.9815 202.935L83.982 198.415L82.7226 197.688Z" fill="#313545"/>
</g>
<rect x="0.432984" y="0.749951" width="348.294" height="28.8244" rx="3.5" transform="matrix(0.866082 0.499901 -0.000114069 1 33.0835 155.572)" stroke="#E9E9E9"/>
<defs>
<filter id="filter0_f_333_709" x="13.9385" y="107.207" width="357.14" height="278.124" filterUnits="userSpaceOnUse" color-interpolation-filters="sRGB">
<feFlood flood-opacity="0" result="BackgroundImageFix"/>
<feBlend mode="normal" in="SourceGraphic" in2="BackgroundImageFix" result="shape"/>
<feGaussianBlur stdDeviation="9" result="effect1_foregroundBlur_333_709"/>
</filter>
</defs>
</svg>
