<svg width="103" height="45" viewBox="0 0 103 45" fill="none" xmlns="http://www.w3.org/2000/svg">
<path fill-rule="evenodd" clip-rule="evenodd" d="M26.7296 0.546427C27.6451 0.18565 28.6259 0 29.6163 0H30.1479C31.1515 0 32.1368 0.256709 33.0015 0.743462C34.0507 1.33415 34.8708 2.23445 35.3382 3.30885L35.3933 3.4355C35.6992 4.13856 35.8566 4.89241 35.8566 5.65377V7.64823C35.8566 8.65639 35.7554 9.66224 35.5545 10.652L34.8147 14.2963C34.7038 14.8425 34.1504 15.1994 33.5786 15.0935C33.0068 14.9876 32.6331 14.4589 32.744 13.9127L33.4839 10.2683C33.6592 9.40501 33.7474 8.52763 33.7474 7.64823V5.65377C33.7474 5.15781 33.6448 4.66674 33.4456 4.20876L33.3905 4.0821C33.0985 3.41088 32.5862 2.84843 31.9306 2.4794C31.3904 2.1753 30.7749 2.01493 30.1479 2.01493H29.6163C28.9018 2.01493 28.1943 2.14885 27.5339 2.4091L26.506 2.81417C25.7852 3.09819 25.0979 3.45414 24.4554 3.8761L22.6347 5.07189C21.1953 6.0172 19.8396 7.07372 18.5812 8.23084L17.8175 8.93298C16.2588 10.3662 14.8107 11.9054 13.4846 13.5384L13.0643 14.056C11.1093 16.4634 9.38025 19.0307 7.89713 21.7281L5.76153 25.6122L4.08068 29.5449C3.42369 31.0821 2.92617 32.6771 2.59526 34.3071L2.31805 35.6726C2.17915 36.3568 2.10921 37.0522 2.10921 37.7491V38.7484C2.10921 39.2253 2.18739 39.6991 2.34091 40.1529L2.48668 40.5837C2.78153 41.4551 3.42523 42.1797 4.2773 42.5994C4.79177 42.8529 5.36221 42.9851 5.94105 42.9851H7.13027L9.02368 42.7778C9.68876 42.705 10.3436 42.5634 10.9767 42.3555C11.5641 42.1626 12.1298 41.9136 12.665 41.6123L14.1447 40.7793L15.8394 39.7776C16.3347 39.4848 16.9847 39.6311 17.2911 40.1042C17.5976 40.5774 17.4445 41.1983 16.9492 41.4911L15.2351 42.5042L13.7358 43.3483C13.0785 43.7183 12.3838 44.0241 11.6623 44.261C10.8848 44.5163 10.0806 44.6902 9.26379 44.7796L7.25072 45H5.94105C5.02591 45 4.12405 44.791 3.31067 44.3903C1.96355 43.7268 0.945866 42.5811 0.479704 41.2034L0.333935 40.7726C0.112677 40.1187 0 39.4357 0 38.7484V37.7491C0 36.9234 0.0828536 36.0996 0.247424 35.2889L0.524625 33.9235C0.881805 32.1641 1.41882 30.4425 2.12796 28.7833L3.84711 24.7609L6.02983 20.7911C7.57058 17.9889 9.36683 15.3219 11.3977 12.8209L11.818 12.3034C13.2065 10.5935 14.7228 8.98193 16.3549 7.48125L17.1185 6.77911C18.4601 5.54556 19.9053 4.41925 21.4398 3.41151L23.2605 2.21572C24.0253 1.71338 24.8436 1.28962 25.7017 0.951493L26.7296 0.546427Z" fill="#FEDC5A"/>
<path fill-rule="evenodd" clip-rule="evenodd" d="M20.0643 8.54684C20.171 8.19017 20.5602 7.98365 20.9335 8.08555L21.9814 8.37158C22.9631 8.63951 23.9166 8.99384 24.8298 9.43L25.2971 9.65324C26.0266 10.0017 26.7155 10.4228 27.3524 10.9095L27.3756 10.9272C27.9675 11.3796 28.5102 11.8877 28.9955 12.4441C29.7539 13.3134 30.3643 14.2915 30.8042 15.3422L30.8846 15.5342C31.0288 15.8786 30.8534 16.2694 30.4929 16.4072C30.1324 16.545 29.7232 16.3774 29.579 16.033L29.4987 15.8411C29.1135 14.9212 28.5792 14.0651 27.9153 13.304C27.4904 12.817 27.0153 12.3721 26.4972 11.9761L26.474 11.9584C25.9145 11.5308 25.3092 11.1608 24.6683 10.8547L24.2009 10.6315C23.3655 10.2324 22.4932 9.9083 21.5951 9.66318L20.5472 9.37715C20.1739 9.27525 19.9577 8.90351 20.0643 8.54684Z" fill="#CFCDCD"/>
<path fill-rule="evenodd" clip-rule="evenodd" d="M2.80385 21.1635C2.42539 21.0805 2.18896 20.7202 2.27578 20.3586L2.51947 19.3439C2.74774 18.3933 3.06781 17.4649 3.47555 16.5708L3.68425 16.1132C4.00999 15.3989 4.41381 14.7194 4.88898 14.0862L4.90626 14.0632C5.3479 13.4746 5.85048 12.9301 6.4064 12.4378C7.27517 11.6684 8.26531 11.0345 9.34046 10.5593L9.53689 10.4725C9.8893 10.3168 10.3071 10.4634 10.4702 10.8001C10.6332 11.1368 10.4797 11.5359 10.1273 11.6917L9.93087 11.7785C8.98966 12.1944 8.12288 12.7494 7.36234 13.4229C6.87569 13.8538 6.43572 14.3305 6.0491 14.8458L6.03182 14.8688C5.61434 15.4251 5.25956 16.0221 4.97338 16.6496L4.76468 17.1073C4.39166 17.9253 4.09885 18.7746 3.89001 19.6442L3.64633 20.659C3.55951 21.0205 3.18232 21.2464 2.80385 21.1635Z" fill="#C8C6C6"/>
<path fill-rule="evenodd" clip-rule="evenodd" d="M18.0283 35.5525C17.9895 35.9216 17.6448 36.1907 17.2585 36.1536L16.1741 36.0495C15.1583 35.952 14.1541 35.7647 13.1745 35.49L12.6731 35.3494C11.8905 35.13 11.1344 34.8322 10.4173 34.461L10.3912 34.4475C9.72477 34.1025 9.09638 33.6942 8.51559 33.2288C7.60794 32.5016 6.8258 31.6424 6.1979 30.6828L6.08318 30.5074C5.87737 30.1929 5.97744 29.7785 6.30671 29.5819C6.63597 29.3853 7.06973 29.4809 7.27555 29.7954L7.39026 29.9708C7.93994 30.8108 8.62464 31.563 9.41921 32.1996C9.92764 32.607 10.4777 32.9644 11.0612 33.2664L11.0873 33.2799C11.7173 33.6061 12.3816 33.8677 13.0691 34.0605L13.5705 34.2011C14.4667 34.4524 15.3854 34.6237 16.3147 34.713L17.3991 34.8171C17.7854 34.8541 18.0671 35.1834 18.0283 35.5525Z" fill="#CFCDCD"/>
<path d="M23.8513 36.054H25.8488L33.8388 18.3646H31.8413L27.1636 28.8011L22.7893 18.3646H20.7412L26.1016 31.0272L23.8513 36.054Z" fill="black"/>
<path d="M48.9256 18.3646H47.0545V20.6864C45.6638 18.8672 43.9697 18.0534 41.6182 18.0534C37.5727 18.0534 34.5637 20.9976 34.5637 24.9712C34.5637 28.8011 37.6991 31.7692 41.7699 31.7692C44.2732 31.7692 45.9672 30.8118 47.0545 28.8011V29.6867C47.0545 30.9793 46.9028 31.7932 46.4982 32.607C45.765 34.1151 44.1214 34.9768 41.9722 34.9768C40.4804 34.9768 39.292 34.5699 38.3059 33.7321C37.8002 33.3012 37.4968 32.8943 36.89 31.865H35.0694C36.0808 34.9289 38.5335 36.6045 42.0228 36.6045C44.4249 36.6045 46.4476 35.7667 47.636 34.2587C48.5716 33.0618 48.9256 31.6735 48.9256 29.1122V18.3646ZM41.593 19.6811C44.7283 19.6811 47.0545 21.8354 47.0545 24.7797C47.0545 27.8196 44.7788 30.1415 41.7699 30.1415C38.7358 30.1415 36.4601 27.8675 36.4601 24.8275C36.4601 21.9072 38.6852 19.6811 41.593 19.6811Z" fill="black"/>
<path d="M66.1367 25.4978C66.1367 23.7504 65.9091 22.7211 65.3023 21.62C64.0886 19.4178 61.636 18.0534 58.9052 18.0534C54.9102 18.0534 51.7496 21.0455 51.7496 24.8515C51.7496 28.7293 54.9608 31.7692 59.0569 31.7692C62.0658 31.7692 64.7713 29.9022 65.7827 27.1494H63.8358C63.0519 28.9447 61.105 30.1415 59.0063 30.1415C56.1491 30.1415 53.7724 28.083 53.6207 25.4978H66.1367ZM53.6712 23.894C54.1769 21.3806 56.2756 19.6811 58.9052 19.6811C61.5854 19.6811 63.6335 21.2849 64.2656 23.894H53.6712Z" fill="black"/>
<path d="M68.7256 31.4581H70.5967V24.253C70.5967 22.8408 70.7737 22.0748 71.2541 21.3567C71.9874 20.3035 73.3022 19.6811 74.8193 19.6811C76.1594 19.6811 77.3478 20.1598 78.1063 21.0216C78.8143 21.8354 79.0924 22.8168 79.0924 24.5882V31.4581H80.9635V24.5882C80.9635 22.386 80.6348 21.2131 79.7498 20.088C78.6626 18.7715 76.9938 18.0534 75.0468 18.0534C73.2263 18.0534 71.7598 18.6997 70.5967 20.0641V18.3646H68.7256V31.4581Z" fill="black"/>
<path d="M84.1583 31.4581H86.0294V18.3646H84.1583V31.4581ZM84.1583 16.7847H86.0294V13.7687H84.1583V16.7847Z" fill="black"/>
<path d="M100.877 27.6042C99.4353 29.4234 98.1205 30.1415 96.1483 30.1415C93.0382 30.1415 90.5856 27.8436 90.5856 24.9233C90.5856 21.979 92.9877 19.6811 96.0724 19.6811C98.1205 19.6811 99.8146 20.6146 100.877 22.3381H102.975C101.863 19.705 99.233 18.0534 96.0977 18.0534C91.951 18.0534 88.6892 21.0694 88.6892 24.8754C88.6892 28.7771 91.9763 31.7692 96.2241 31.7692C97.8929 31.7692 99.4606 31.2905 100.725 30.357C101.66 29.6867 102.217 28.9926 103 27.6042H100.877Z" fill="black"/>
</svg>
