<svg width="40" height="40" viewBox="0 0 40 40" fill="none" xmlns="http://www.w3.org/2000/svg">
<path d="M19.9998 0.800003C9.39661 0.800003 0.799805 9.3968 0.799805 20C0.799805 30.6032 9.39661 39.2 19.9998 39.2C30.603 39.2 39.1998 30.6032 39.1998 20C39.1998 9.3968 30.603 0.800003 19.9998 0.800003ZM30.1774 26.3472L27.1886 26.3888C27.1886 26.3888 26.5438 26.5152 25.7006 25.9328C24.5822 25.1648 23.5278 23.1664 22.7054 23.4256C21.8718 23.6912 21.8974 25.4896 21.8974 25.4896C21.8974 25.4896 21.9038 25.8064 21.7134 26.0128C21.507 26.2352 21.1022 26.2128 21.1022 26.2128H19.763C19.763 26.2128 16.8094 26.4576 14.2062 23.744C11.371 20.7856 8.86541 14.9472 8.86541 14.9472C8.86541 14.9472 8.7182 14.5792 8.875 14.3904C9.0526 14.1824 9.531 14.176 9.531 14.176L12.731 14.16C12.731 14.16 13.0318 14.2128 13.2494 14.3728C13.427 14.504 13.5278 14.7504 13.5278 14.7504C13.5278 14.7504 14.0446 16.0608 14.731 17.248C16.0686 19.5616 16.6894 20.0688 17.1438 19.8208C17.8062 19.4592 17.6078 16.5504 17.6078 16.5504C17.6078 16.5504 17.6206 15.4944 17.275 15.024C17.0062 14.6576 16.5006 14.5488 16.2798 14.5216C16.099 14.4976 16.3934 14.0784 16.7774 13.8896C17.3534 13.608 18.371 13.592 19.5726 13.6032C20.5086 13.6128 20.779 13.6704 21.1438 13.76C22.2478 14.0272 21.8734 15.0576 21.8734 17.5296C21.8734 18.3216 21.731 19.4352 22.3006 19.8016C22.547 19.96 23.147 19.8256 24.643 17.2752C25.355 16.0656 25.8878 14.6448 25.8878 14.6448C25.8878 14.6448 26.0046 14.392 26.1854 14.2832C26.371 14.1712 26.6206 14.2064 26.6206 14.2064L29.9886 14.1856C29.9886 14.1856 30.9998 14.064 31.1646 14.5232C31.3374 15.0032 30.787 16.1248 29.411 17.96C27.1518 20.9744 26.9006 20.6944 28.7774 22.4384C30.5694 24.104 30.939 24.9136 31.0014 25.016C31.7422 26.2496 30.1774 26.3472 30.1774 26.3472Z" fill="#FEDC5A"/>
</svg>
