<svg width="48" height="48" viewBox="0 0 48 48" fill="none" xmlns="http://www.w3.org/2000/svg">
<path fill-rule="evenodd" clip-rule="evenodd" d="M24.0091 0C30.4209 0.00152077 36.4448 2.50014 40.9769 7.03507C45.5089 11.57 48.0015 17.5983 48 24.0084C47.9954 37.2375 37.2296 48 24.0015 48H23.9924C19.6854 47.9985 15.4606 46.8427 11.7772 44.6558L10.8997 44.1357L1.81586 46.5173L4.24156 37.6649L3.66973 36.757C1.26684 32.9353 -0.00151898 28.522 0 23.9886C0.0060851 10.761 10.7719 0 24.0091 0ZM15.1589 10.6743C15.6745 10.6956 16.2432 10.7199 16.7831 11.9213C17.1603 12.7597 17.8003 14.3379 18.2999 15.5701C18.6503 16.4343 18.9317 17.1283 19.005 17.2775C19.186 17.6379 19.3062 18.0591 19.0659 18.5412C19.0296 18.6137 18.9961 18.6821 18.9641 18.7475C18.7839 19.1154 18.6511 19.3864 18.345 19.7441C18.2216 19.8878 18.0941 20.0427 17.9668 20.1975C17.7208 20.4964 17.4757 20.7944 17.2622 21.0079C16.9002 21.3683 16.5246 21.7592 16.9459 22.48C17.3671 23.2024 18.8149 25.5641 20.9593 27.4757C23.2625 29.5286 25.2633 30.3972 26.2799 30.8386C26.4803 30.9256 26.6425 30.996 26.7612 31.0556C27.4821 31.4176 27.9033 31.3567 28.3246 30.8746C28.7459 30.3941 30.1283 28.7684 30.6089 28.0475C31.091 27.3252 31.5715 27.4453 32.2331 27.6856C32.8947 27.9259 36.4427 29.6702 37.1636 30.0321C37.307 30.1042 37.441 30.169 37.5649 30.2289C38.0639 30.4703 38.401 30.6335 38.546 30.8746C38.7255 31.1758 38.7255 32.619 38.1247 34.304C37.524 35.989 34.5782 37.6132 33.2551 37.7333C33.1279 37.7449 33.0014 37.7597 32.8714 37.775C31.6485 37.9186 30.1051 38.1 24.5971 35.9282C17.8194 33.2548 13.3502 26.6312 12.4272 25.2633C12.3515 25.1512 12.2997 25.0744 12.2724 25.0379L12.2675 25.0314C11.8892 24.5271 9.32657 21.1109 9.32657 17.577C9.32657 14.2561 10.9588 12.5153 11.7107 11.7133C11.7625 11.6581 11.8101 11.6074 11.8526 11.5609C12.5142 10.8385 13.2959 10.6576 13.7765 10.6576C13.8108 10.6576 13.8451 10.6575 13.8794 10.6575C14.3254 10.6574 14.7677 10.6573 15.1589 10.6743Z" fill="#FEDC5A"/>
</svg>
