<svg width="231" height="76" viewBox="0 0 231 76" fill="none" xmlns="http://www.w3.org/2000/svg">
<g clip-path="url(#clip0_188_426)">
<path d="M72.2515 24.3165C68.5838 24.3165 65.7994 23.5549 63.4229 21.2045L66.4786 18.2256C68.0065 19.715 70.079 20.2121 72.3189 20.2121C75.1033 20.2121 76.5985 19.186 76.5985 17.2989C76.5985 16.4717 76.3599 15.7757 75.8499 15.3124C75.3746 14.8828 74.832 14.6502 73.7121 14.4852L70.791 14.0875C68.7204 13.7911 67.1925 13.1608 66.1053 12.1347C64.9507 11.0092 64.3735 9.48788 64.3735 7.50135C64.3735 3.29755 67.5659 0.350586 72.7942 0.350586C76.1232 0.350586 78.5324 1.14595 80.6049 3.09871L77.6165 5.97815C76.0886 4.55438 74.2547 4.35741 72.6595 4.35741C70.1463 4.35741 68.9244 5.71366 68.9244 7.33627C68.917 7.65036 68.9764 7.96254 69.099 8.25312C69.2215 8.5437 69.4045 8.80636 69.6364 9.02454C70.2724 9.54398 71.053 9.86663 71.8782 9.95121L74.73 10.347C76.9372 10.6453 78.3304 11.2418 79.3483 12.1685C80.6395 13.3596 81.2149 15.0817 81.2149 17.1676C81.2149 21.7353 77.3105 24.3165 72.2515 24.3165Z" fill="#005695"/>
<path d="M94.186 24.3169C89.2291 24.3169 85.29 21.0398 85.29 16.0425V0.549805H90.0103V15.8755C90.0103 18.5899 91.6402 20.2125 94.186 20.2125C96.7319 20.2125 98.3964 18.5899 98.3964 15.8755V0.549805H103.082V16.0369C103.082 21.0398 99.145 24.3169 94.186 24.3169Z" fill="white"/>
<path d="M94.186 24.3169C89.2291 24.3169 85.29 21.0398 85.29 16.0425V0.549805H90.0103V15.8755C90.0103 18.5899 91.6402 20.2125 94.186 20.2125C96.7319 20.2125 98.3964 18.5899 98.3964 15.8755V0.549805H103.082V16.0369C103.082 21.0398 99.145 24.3169 94.186 24.3169Z" fill="#D30630"/>
<path d="M117.719 15.2471H113.068V24.1181H108.348V0.549805H117.719C122.711 0.549805 125.699 3.89258 125.699 7.89941C125.699 11.9062 122.711 15.2471 117.719 15.2471ZM117.482 4.65418H113.068V11.109H117.482C119.62 11.109 120.979 9.81841 120.979 7.89941C120.979 5.98041 119.62 4.65418 117.482 4.65418Z" fill="white"/>
<path d="M117.719 15.2471H113.068V24.1181H108.348V0.549805H117.719C122.711 0.549805 125.699 3.89258 125.699 7.89941C125.699 11.9062 122.711 15.2471 117.719 15.2471ZM117.482 4.65418H113.068V11.109H117.482C119.62 11.109 120.979 9.81841 120.979 7.89941C120.979 5.98041 119.62 4.65418 117.482 4.65418Z" fill="#D30630"/>
<path d="M139.044 15.2471H134.393V24.1181H129.673V0.549805H139.044C144.036 0.549805 147.017 3.89258 147.017 7.89941C147.017 11.9062 144.036 15.2471 139.044 15.2471ZM138.807 4.65418H134.393V11.109H138.807C140.945 11.109 142.304 9.81841 142.304 7.89941C142.304 5.98041 140.945 4.65418 138.807 4.65418Z" fill="#005695"/>
<path d="M165.632 21.7353C163.935 23.3898 161.862 24.3165 159.112 24.3165C156.363 24.3165 154.257 23.3898 152.558 21.7353C150.114 19.3511 150.182 16.4117 150.182 12.3335C150.182 8.25544 150.114 5.31597 152.558 2.93364C154.257 1.27913 156.363 0.350586 159.112 0.350586C161.862 0.350586 163.935 1.28851 165.632 2.93364C168.076 5.31597 168.043 8.26294 168.043 12.3335C168.043 16.4042 168.076 19.3511 165.632 21.7353ZM162.134 5.71928C161.753 5.30932 161.286 4.98465 160.765 4.76768C160.243 4.5507 159.679 4.44656 159.112 4.46246C157.821 4.46246 156.736 4.95769 156.057 5.71928C155.139 6.71161 154.902 7.80523 154.902 12.3392C154.902 16.8731 155.139 17.9667 156.057 18.9591C156.736 19.7207 157.821 20.2178 159.112 20.2178C159.679 20.2333 160.243 20.1288 160.765 19.9115C161.286 19.6942 161.753 19.3693 162.134 18.9591C163.052 17.9667 163.323 16.875 163.323 12.3392C163.323 7.80336 163.052 6.70598 162.134 5.71928Z" fill="#005695"/>
<path d="M185.695 24.1181L180.98 14.7238H177.586V24.1237H172.865V0.549805H182.339C187.263 0.549805 190.182 3.82692 190.182 7.76622C190.182 11.0771 188.111 13.1293 185.768 13.9565L191.167 24.1181H185.695ZM182.038 4.65418H177.586V10.8783H182.038C184.111 10.8783 185.467 9.58768 185.467 7.76622C185.467 5.94477 184.105 4.65418 182.038 4.65418Z" fill="#005695"/>
<path d="M204.308 4.65418V24.1181H199.59V4.65418H193.272V0.549805H210.624V4.65418H204.308Z" fill="#005695"/>
<path d="M56.0393 54.7205H0V0.0917969H56.0393V54.7205ZM4.74339 50.0965H51.2959V4.71578H4.74339V50.0965Z" fill="#005695"/>
<path d="M74.9689 45.7765H70.316V54.6474H65.5957V31.0811H74.9689C79.9606 31.0811 82.9471 34.4238 82.9471 38.4288C82.9471 42.4337 79.9606 45.7765 74.9689 45.7765ZM74.7303 35.1854H70.316V41.6402H74.7303C76.8701 41.6402 78.2287 40.3478 78.2287 38.4288C78.2287 36.5098 76.8701 35.1854 74.7303 35.1854Z" fill="#005695"/>
<path d="M98.974 54.6474L97.5481 50.4774H88.9581L87.4975 54.6474H82.5752L91.3692 31.0811H95.0696L103.898 54.6474H98.974ZM93.3378 38.0311L90.282 46.6131H96.2935L93.3378 38.0311Z" fill="#005695"/>
<path d="M119.722 54.6474L115.003 45.2475H111.609V54.6474H106.887V31.0811H116.36C121.284 31.0811 124.203 34.3563 124.203 38.2956C124.203 41.6065 122.133 43.6587 119.791 44.4859L125.189 54.6474H119.722ZM116.066 35.1854H111.609V41.4076H116.058C118.128 41.4076 119.487 40.1171 119.487 38.2956C119.487 36.4741 118.127 35.1854 116.056 35.1854H116.066Z" fill="#005695"/>
<path d="M138.332 35.1854V54.6474H133.611V35.1854H127.296V31.0811H144.647V35.1854H138.332Z" fill="#005695"/>
<path d="M162.78 54.6474L153.205 40.1827V54.6474H148.484V31.0811H152.695L162.27 45.512V31.0811H166.99V54.6474H162.78Z" fill="#005695"/>
<path d="M172.629 54.6474V31.0811H188.554V35.1854H177.349V40.7117H186.89V44.8179H177.349V50.5524H188.554V54.6568L172.629 54.6474Z" fill="#005695"/>
<path d="M206.007 54.6474L201.281 45.2475H197.886V54.6474H193.166V31.0811H202.639C207.564 31.0811 210.483 34.3563 210.483 38.2956C210.483 41.6065 208.412 43.6587 206.07 44.4859L211.458 54.6474H206.007ZM202.339 35.1854H197.892V41.4076H202.339C204.412 41.4076 205.768 40.1171 205.768 38.2956C205.768 36.4741 204.412 35.1854 202.339 35.1854Z" fill="#005695"/>
<path d="M222.035 54.8459C218.379 54.8459 215.584 54.0862 213.206 51.7357L216.264 48.7569C217.792 50.2444 219.862 50.7415 222.104 50.7415C224.888 50.7415 226.382 49.7154 226.382 47.8283C226.382 47.0011 226.143 46.307 225.635 45.8437C225.16 45.4122 224.615 45.1815 223.495 45.0145L220.576 44.6187C218.504 44.3205 216.976 43.6921 215.89 42.666C214.736 41.5404 214.159 40.0173 214.159 38.0307C214.159 33.8269 217.349 30.8818 222.579 30.8818C225.906 30.8818 228.318 31.6753 230.388 33.63L227.4 36.5075C225.872 35.0856 224.038 34.8868 222.443 34.8868C219.93 34.8868 218.708 36.243 218.708 37.8656C218.7 38.1799 218.76 38.4922 218.883 38.7828C219.006 39.0734 219.189 39.336 219.422 39.5539C220.057 40.073 220.837 40.3956 221.661 40.4806L224.513 40.8783C226.72 41.1765 228.114 41.7712 229.132 42.6979C230.423 43.889 231 45.6111 231 47.697C231 52.2647 227.096 54.8459 222.035 54.8459Z" fill="#005695"/>
<path d="M65.6279 73.948V66H69.2475V67.1518H66.8922V69.3221H68.9435V70.4983H66.8922V72.7943H69.2475V73.948H65.6279Z" fill="white"/>
<path d="M65.6279 73.948V66H69.2475V67.1518H66.8922V69.3221H68.9435V70.4983H66.8922V72.7943H69.2475V73.948H65.6279Z" fill="#005695"/>
<path d="M72.3282 73.7286L71.6489 71.9578H71.6143L70.91 73.7286H69.5283C69.7554 73.2484 69.9863 72.7681 70.2249 72.2898C70.4635 71.8115 70.6964 71.3294 70.9215 70.8491L69.588 68.0879H71.0062L71.6393 69.7536H71.6624C71.7727 69.4723 71.876 69.1928 71.9722 68.9151C72.0703 68.6375 72.1742 68.3524 72.282 68.0879H73.6771L72.3416 70.8491C72.5764 71.3294 72.8073 71.8096 73.0382 72.2898C73.2691 72.77 73.4981 73.2484 73.7233 73.7286H72.3282Z" fill="white"/>
<path d="M72.3282 73.7286L71.6489 71.9578H71.6143L70.91 73.7286H69.5283C69.7554 73.2484 69.9863 72.7681 70.2249 72.2898C70.4635 71.8115 70.6964 71.3294 70.9215 70.8491L69.588 68.0879H71.0062L71.6393 69.7536H71.6624C71.7727 69.4723 71.876 69.1928 71.9722 68.9151C72.0703 68.6375 72.1742 68.3524 72.282 68.0879H73.6771L72.3416 70.8491C72.5764 71.3294 72.8073 71.8096 73.0382 72.2898C73.2691 72.77 73.4981 73.2484 73.7233 73.7286H72.3282Z" fill="#005695"/>
<path d="M75.4437 71.1863C75.4437 71.3989 75.4437 71.6034 75.4437 71.7997C75.4417 71.952 75.4598 72.104 75.4976 72.2518C75.5202 72.365 75.5842 72.4663 75.6776 72.537C75.771 72.6077 75.8875 72.643 76.0056 72.6363C76.3154 72.6363 76.4886 72.4206 76.5271 71.9854L77.7817 72.173C77.7767 72.6158 77.5968 73.0397 77.2795 73.3567C76.9213 73.6591 76.4554 73.812 75.9825 73.7825C75.7453 73.7876 75.5087 73.7553 75.2821 73.6868C75.1027 73.6296 74.9347 73.5427 74.7856 73.4298C74.6552 73.3293 74.5461 73.2051 74.4642 73.064C74.39 72.9341 74.3312 72.7962 74.2891 72.6532C74.2624 72.5401 74.2431 72.4254 74.2314 72.3099C74.216 72.173 74.2045 72.0267 74.1968 71.8691C74.1891 71.7115 74.1833 71.554 74.1794 71.3908C74.1756 71.2276 74.1794 71.0738 74.1794 70.9274C74.1794 70.5635 74.1929 70.1984 74.2199 69.8319C74.231 69.5447 74.2841 69.2604 74.3776 68.9878C74.4822 68.6886 74.6851 68.4315 74.9549 68.2562C75.2798 68.0595 75.6582 67.9633 76.0402 67.9805C76.6175 67.9805 77.0524 68.138 77.3488 68.4494C77.6451 68.7608 77.7933 69.1998 77.7933 69.7738V71.1863H75.4437ZM75.5476 69.4774C75.5092 69.583 75.4878 69.6937 75.4841 69.8057C75.4726 69.9557 75.463 70.1339 75.4553 70.3422H76.5213V69.8732C76.5243 69.7027 76.4909 69.5334 76.4232 69.3761C76.3867 69.3023 76.3273 69.2415 76.2533 69.2024C76.1794 69.1634 76.0948 69.148 76.0114 69.1585C75.9081 69.1548 75.8065 69.1846 75.7225 69.2434C75.6385 69.3021 75.577 69.3864 75.5476 69.483V69.4774Z" fill="white"/>
<path d="M75.4437 71.1863C75.4437 71.3989 75.4437 71.6034 75.4437 71.7997C75.4417 71.952 75.4598 72.104 75.4976 72.2518C75.5202 72.365 75.5842 72.4663 75.6776 72.537C75.771 72.6077 75.8875 72.643 76.0056 72.6363C76.3154 72.6363 76.4886 72.4206 76.5271 71.9854L77.7817 72.173C77.7767 72.6158 77.5968 73.0397 77.2795 73.3567C76.9213 73.6591 76.4554 73.812 75.9825 73.7825C75.7453 73.7876 75.5087 73.7553 75.2821 73.6868C75.1027 73.6296 74.9347 73.5427 74.7856 73.4298C74.6552 73.3293 74.5461 73.2051 74.4642 73.064C74.39 72.9341 74.3312 72.7962 74.2891 72.6532C74.2624 72.5401 74.2431 72.4254 74.2314 72.3099C74.216 72.173 74.2045 72.0267 74.1968 71.8691C74.1891 71.7115 74.1833 71.554 74.1794 71.3908C74.1756 71.2276 74.1794 71.0738 74.1794 70.9274C74.1794 70.5635 74.1929 70.1984 74.2199 69.8319C74.231 69.5447 74.2841 69.2604 74.3776 68.9878C74.4822 68.6886 74.6851 68.4315 74.9549 68.2562C75.2798 68.0595 75.6582 67.9633 76.0402 67.9805C76.6175 67.9805 77.0524 68.138 77.3488 68.4494C77.6451 68.7608 77.7933 69.1998 77.7933 69.7738V71.1863H75.4437ZM75.5476 69.4774C75.5092 69.583 75.4878 69.6937 75.4841 69.8057C75.4726 69.9557 75.463 70.1339 75.4553 70.3422H76.5213V69.8732C76.5243 69.7027 76.4909 69.5334 76.4232 69.3761C76.3867 69.3023 76.3273 69.2415 76.2533 69.2024C76.1794 69.1634 76.0948 69.148 76.0114 69.1585C75.9081 69.1548 75.8065 69.1846 75.7225 69.2434C75.6385 69.3021 75.577 69.3864 75.5476 69.483V69.4774Z" fill="#005695"/>
<path d="M80.393 73.7965C80.1586 73.8013 79.9248 73.7703 79.7003 73.7046C79.5189 73.6519 79.3492 73.5667 79.1999 73.4532C79.069 73.3541 78.9575 73.2327 78.8709 73.0949C78.7888 72.9618 78.7272 72.8177 78.6881 72.6672C78.6614 72.5541 78.6421 72.4394 78.6304 72.3239C78.615 72.187 78.6034 72.0407 78.6015 71.8831C78.5996 71.7255 78.6015 71.568 78.588 71.4048C78.5745 71.2416 78.588 71.0915 78.588 70.9527C78.588 70.7651 78.588 70.5775 78.6015 70.3899C78.615 70.2023 78.6207 70.0147 78.6361 69.8365C78.6515 69.6583 78.6708 69.497 78.6939 69.3451C78.7114 69.2201 78.743 69.0975 78.7881 68.9793C78.903 68.6922 79.1042 68.4456 79.3654 68.2721C79.6898 68.0743 80.0686 67.9781 80.4507 67.9963C81.0396 67.9963 81.4725 68.1558 81.7496 68.4709C82.0465 68.8388 82.195 69.2999 82.1672 69.7671L81.5341 69.8365C81.3186 69.859 81.1069 69.8853 80.9029 69.9172C80.9192 69.7142 80.8729 69.5111 80.7702 69.3338C80.7323 69.2758 80.6799 69.2282 80.618 69.1954C80.5561 69.1626 80.4866 69.1457 80.4161 69.1462C80.3088 69.1419 80.2033 69.1733 80.1168 69.2354C80.0304 69.2975 79.9683 69.3865 79.9408 69.4876C79.9064 69.6376 79.8852 69.79 79.8773 69.9435C79.8581 70.1704 79.8484 70.4349 79.8484 70.7388V71.1496C79.8484 71.3697 79.8484 71.5836 79.8484 71.7912C79.8451 71.951 79.8665 72.1103 79.9119 72.2639C79.9441 72.3737 80.0043 72.4738 80.087 72.5547C80.176 72.6308 80.2921 72.6698 80.4103 72.6635C80.7336 72.6635 80.8972 72.4196 80.8972 71.9319C81.1088 71.9713 81.3224 72.0013 81.536 72.0219C81.7496 72.0425 81.9613 72.0763 82.173 72.1157C82.1837 72.3417 82.1482 72.5676 82.0686 72.7801C81.989 72.9927 81.8668 73.1877 81.7092 73.3538C81.4103 73.6489 80.9716 73.7965 80.393 73.7965Z" fill="white"/>
<path d="M80.393 73.7965C80.1586 73.8013 79.9248 73.7703 79.7003 73.7046C79.5189 73.6519 79.3492 73.5667 79.1999 73.4532C79.069 73.3541 78.9575 73.2327 78.8709 73.0949C78.7888 72.9618 78.7272 72.8177 78.6881 72.6672C78.6614 72.5541 78.6421 72.4394 78.6304 72.3239C78.615 72.187 78.6034 72.0407 78.6015 71.8831C78.5996 71.7255 78.6015 71.568 78.588 71.4048C78.5745 71.2416 78.588 71.0915 78.588 70.9527C78.588 70.7651 78.588 70.5775 78.6015 70.3899C78.615 70.2023 78.6207 70.0147 78.6361 69.8365C78.6515 69.6583 78.6708 69.497 78.6939 69.3451C78.7114 69.2201 78.743 69.0975 78.7881 68.9793C78.903 68.6922 79.1042 68.4456 79.3654 68.2721C79.6898 68.0743 80.0686 67.9781 80.4507 67.9963C81.0396 67.9963 81.4725 68.1558 81.7496 68.4709C82.0465 68.8388 82.195 69.2999 82.1672 69.7671L81.5341 69.8365C81.3186 69.859 81.1069 69.8853 80.9029 69.9172C80.9192 69.7142 80.8729 69.5111 80.7702 69.3338C80.7323 69.2758 80.6799 69.2282 80.618 69.1954C80.5561 69.1626 80.4866 69.1457 80.4161 69.1462C80.3088 69.1419 80.2033 69.1733 80.1168 69.2354C80.0304 69.2975 79.9683 69.3865 79.9408 69.4876C79.9064 69.6376 79.8852 69.79 79.8773 69.9435C79.8581 70.1704 79.8484 70.4349 79.8484 70.7388V71.1496C79.8484 71.3697 79.8484 71.5836 79.8484 71.7912C79.8451 71.951 79.8665 72.1103 79.9119 72.2639C79.9441 72.3737 80.0043 72.4738 80.087 72.5547C80.176 72.6308 80.2921 72.6698 80.4103 72.6635C80.7336 72.6635 80.8972 72.4196 80.8972 71.9319C81.1088 71.9713 81.3224 72.0013 81.536 72.0219C81.7496 72.0425 81.9613 72.0763 82.173 72.1157C82.1837 72.3417 82.1482 72.5676 82.0686 72.7801C81.989 72.9927 81.8668 73.1877 81.7092 73.3538C81.4103 73.6489 80.9716 73.7965 80.393 73.7965Z" fill="#005695"/>
<path d="M85.2464 73.2253C85.2409 73.2275 85.2347 73.2275 85.2291 73.2253C85.2197 73.2223 85.2096 73.2223 85.2003 73.2253C85.0769 73.3958 84.9149 73.5364 84.7269 73.6361C84.5347 73.7412 84.318 73.7961 84.0976 73.7956C83.893 73.8025 83.6893 73.7653 83.5011 73.6868C83.348 73.6205 83.2154 73.5164 83.1162 73.3848C83.0152 73.2462 82.9456 73.0883 82.9123 72.9214C82.8727 72.7319 82.8534 72.5389 82.8545 72.3455V68.0742H84.1207V71.991C84.1043 72.16 84.1522 72.3289 84.2554 72.4656C84.3074 72.5154 84.3696 72.5539 84.4379 72.5784C84.5062 72.603 84.5792 72.6131 84.6518 72.6082C84.7307 72.6084 84.8088 72.5929 84.8813 72.5625C84.9538 72.5322 85.0191 72.4877 85.0733 72.4318C85.1359 72.3671 85.1844 72.2907 85.2158 72.2072C85.2473 72.1237 85.2609 72.0348 85.2561 71.946V68.0742H86.5203V73.728H85.2464V73.2253Z" fill="white"/>
<path d="M85.2464 73.2253C85.2409 73.2275 85.2347 73.2275 85.2291 73.2253C85.2197 73.2223 85.2096 73.2223 85.2003 73.2253C85.0769 73.3958 84.9149 73.5364 84.7269 73.6361C84.5347 73.7412 84.318 73.7961 84.0976 73.7956C83.893 73.8025 83.6893 73.7653 83.5011 73.6868C83.348 73.6205 83.2154 73.5164 83.1162 73.3848C83.0152 73.2462 82.9456 73.0883 82.9123 72.9214C82.8727 72.7319 82.8534 72.5389 82.8545 72.3455V68.0742H84.1207V71.991C84.1043 72.16 84.1522 72.3289 84.2554 72.4656C84.3074 72.5154 84.3696 72.5539 84.4379 72.5784C84.5062 72.603 84.5792 72.6131 84.6518 72.6082C84.7307 72.6084 84.8088 72.5929 84.8813 72.5625C84.9538 72.5322 85.0191 72.4877 85.0733 72.4318C85.1359 72.3671 85.1844 72.2907 85.2158 72.2072C85.2473 72.1237 85.2609 72.0348 85.2561 71.946V68.0742H86.5203V73.728H85.2464V73.2253Z" fill="#005695"/>
<path d="M89.0444 73.7288C88.8193 73.7361 88.5953 73.6951 88.3883 73.6088C88.2268 73.5369 88.0846 73.4297 87.9726 73.2955C87.8679 73.1672 87.7918 73.019 87.7494 72.8603C87.7069 72.7036 87.6849 72.5422 87.684 72.3801V69.0467H87.1221V68.075H87.6994V66.6475H88.9194V68.075H89.6217V69.0467H88.9194V71.9711C88.9063 72.1316 88.9425 72.2922 89.0233 72.4326C89.0794 72.4877 89.1479 72.5293 89.2234 72.554C89.2989 72.5788 89.3793 72.586 89.4582 72.5752H89.6102V73.7288H89.0444Z" fill="white"/>
<path d="M89.0444 73.7288C88.8193 73.7361 88.5953 73.6951 88.3883 73.6088C88.2268 73.5369 88.0846 73.4297 87.9726 73.2955C87.8679 73.1672 87.7918 73.019 87.7494 72.8603C87.7069 72.7036 87.6849 72.5422 87.684 72.3801V69.0467H87.1221V68.075H87.6994V66.6475H88.9194V68.075H89.6217V69.0467H88.9194V71.9711C88.9063 72.1316 88.9425 72.2922 89.0233 72.4326C89.0794 72.4877 89.1479 72.5293 89.2234 72.554C89.2989 72.5788 89.3793 72.586 89.4582 72.5752H89.6102V73.7288H89.0444Z" fill="#005695"/>
<path d="M90.4961 66.9789V65.7803H91.7623V66.9789H90.4961ZM90.4961 73.732V68.0876H91.7623V73.7283L90.4961 73.732Z" fill="white"/>
<path d="M90.4961 66.9789V65.7803H91.7623V66.9789H90.4961ZM90.4961 73.732V68.0876H91.7623V73.7283L90.4961 73.732Z" fill="#005695"/>
<path d="M95.2049 73.7287H93.754C93.527 72.7783 93.3005 71.8404 93.0748 70.915C92.849 69.9895 92.6219 69.0516 92.3936 68.1012H93.7771C93.8464 68.4763 93.9176 68.8515 93.9869 69.2267C94.0561 69.6019 94.1235 69.977 94.1793 70.3522C94.2255 70.6411 94.2736 70.9262 94.3198 71.2095C94.366 71.4927 94.4179 71.7722 94.4718 72.0649H94.5295L94.8124 70.3635L95.1972 68.0918H96.5693L95.2049 73.7287Z" fill="white"/>
<path d="M95.2049 73.7287H93.754C93.527 72.7783 93.3005 71.8404 93.0748 70.915C92.849 69.9895 92.6219 69.0516 92.3936 68.1012H93.7771C93.8464 68.4763 93.9176 68.8515 93.9869 69.2267C94.0561 69.6019 94.1235 69.977 94.1793 70.3522C94.2255 70.6411 94.2736 70.9262 94.3198 71.2095C94.366 71.4927 94.4179 71.7722 94.4718 72.0649H94.5295L94.8124 70.3635L95.1972 68.0918H96.5693L95.2049 73.7287Z" fill="#005695"/>
<path d="M98.0524 71.1869C98.0524 71.3995 98.0524 71.604 98.0524 71.8003C98.0508 71.9525 98.0683 72.1043 98.1044 72.2524C98.1274 72.3657 98.1917 72.4671 98.2855 72.5378C98.3792 72.6084 98.496 72.6437 98.6143 72.6369C98.9222 72.6369 99.0973 72.4212 99.1358 71.986L100.388 72.1736C100.384 72.6166 100.204 73.0408 99.8863 73.3573C99.5288 73.6597 99.0635 73.8127 98.5912 73.7831C98.3533 73.788 98.1162 73.7557 97.8888 73.6874C97.7098 73.6306 97.5425 73.5436 97.3943 73.4304C97.2634 73.3304 97.1542 73.2061 97.0729 73.0646C96.9979 72.935 96.9391 72.7971 96.8978 72.6538C96.8711 72.5407 96.8518 72.426 96.8401 72.3105C96.8228 72.1736 96.8112 72.0273 96.8035 71.8697C96.7958 71.7121 96.792 71.5621 96.792 71.4045C96.792 71.2469 96.792 71.0875 96.792 70.9412C96.792 70.5772 96.8055 70.2121 96.8324 69.8457C96.8445 69.5585 96.8976 69.2744 96.9902 69.0015C97.0954 68.7027 97.2982 68.4457 97.5675 68.2699C97.8929 68.0729 98.272 67.9768 98.6547 67.9942C99.232 67.9942 99.6669 68.1518 99.9632 68.4632C100.26 68.7746 100.406 69.2135 100.406 69.7875V71.1869H98.0524ZM98.1563 69.478C98.1179 69.5836 98.0965 69.6943 98.0928 69.8063C98.0813 69.9563 98.0716 70.1345 98.0639 70.3428H99.13V69.8738C99.1321 69.7033 99.0987 69.5342 99.0319 69.3767C98.9951 69.303 98.9357 69.2425 98.8618 69.2034C98.788 69.1644 98.7034 69.1489 98.6201 69.1591C98.5167 69.155 98.4149 69.1848 98.3309 69.2436C98.2469 69.3024 98.1854 69.3869 98.1563 69.4836V69.478Z" fill="white"/>
<path d="M98.0524 71.1869C98.0524 71.3995 98.0524 71.604 98.0524 71.8003C98.0508 71.9525 98.0683 72.1043 98.1044 72.2524C98.1274 72.3657 98.1917 72.4671 98.2855 72.5378C98.3792 72.6084 98.496 72.6437 98.6143 72.6369C98.9222 72.6369 99.0973 72.4212 99.1358 71.986L100.388 72.1736C100.384 72.6166 100.204 73.0408 99.8863 73.3573C99.5288 73.6597 99.0635 73.8127 98.5912 73.7831C98.3533 73.788 98.1162 73.7557 97.8888 73.6874C97.7098 73.6306 97.5425 73.5436 97.3943 73.4304C97.2634 73.3304 97.1542 73.2061 97.0729 73.0646C96.9979 72.935 96.9391 72.7971 96.8978 72.6538C96.8711 72.5407 96.8518 72.426 96.8401 72.3105C96.8228 72.1736 96.8112 72.0273 96.8035 71.8697C96.7958 71.7121 96.792 71.5621 96.792 71.4045C96.792 71.2469 96.792 71.0875 96.792 70.9412C96.792 70.5772 96.8055 70.2121 96.8324 69.8457C96.8445 69.5585 96.8976 69.2744 96.9902 69.0015C97.0954 68.7027 97.2982 68.4457 97.5675 68.2699C97.8929 68.0729 98.272 67.9768 98.6547 67.9942C99.232 67.9942 99.6669 68.1518 99.9632 68.4632C100.26 68.7746 100.406 69.2135 100.406 69.7875V71.1869H98.0524ZM98.1563 69.478C98.1179 69.5836 98.0965 69.6943 98.0928 69.8063C98.0813 69.9563 98.0716 70.1345 98.0639 70.3428H99.13V69.8738C99.1321 69.7033 99.0987 69.5342 99.0319 69.3767C98.9951 69.303 98.9357 69.2425 98.8618 69.2034C98.788 69.1644 98.7034 69.1489 98.6201 69.1591C98.5167 69.155 98.4149 69.1848 98.3309 69.2436C98.2469 69.3024 98.1854 69.3869 98.1563 69.4836V69.478Z" fill="#005695"/>
<path d="M105.676 65.7803C106.341 65.7803 106.86 65.961 107.235 66.3224C107.61 66.6838 107.797 67.2722 107.797 68.0876C107.809 68.5211 107.736 68.9529 107.581 69.3594C107.431 69.7118 107.159 70.0015 106.812 70.1773L108.018 73.7283H106.729L105.676 70.4361H105.08V73.7245H103.815V65.7803H105.676ZM105.08 66.9321V69.2637H105.595C105.73 69.2745 105.866 69.2546 105.992 69.2058C106.118 69.157 106.23 69.0805 106.321 68.9824C106.473 68.7152 106.553 68.4147 106.553 68.1091C106.553 67.8036 106.473 67.5031 106.321 67.2359C106.23 67.1293 106.114 67.0458 105.982 66.9928C105.851 66.9399 105.708 66.919 105.567 66.9321H105.08Z" fill="white"/>
<path d="M105.676 65.7803C106.341 65.7803 106.86 65.961 107.235 66.3224C107.61 66.6838 107.797 67.2722 107.797 68.0876C107.809 68.5211 107.736 68.9529 107.581 69.3594C107.431 69.7118 107.159 70.0015 106.812 70.1773L108.018 73.7283H106.729L105.676 70.4361H105.08V73.7245H103.815V65.7803H105.676ZM105.08 66.9321V69.2637H105.595C105.73 69.2745 105.866 69.2546 105.992 69.2058C106.118 69.157 106.23 69.0805 106.321 68.9824C106.473 68.7152 106.553 68.4147 106.553 68.1091C106.553 67.8036 106.473 67.5031 106.321 67.2359C106.23 67.1293 106.114 67.0458 105.982 66.9928C105.851 66.9399 105.708 66.919 105.567 66.9321H105.08Z" fill="#005695"/>
<path d="M109.66 71.1867C109.66 71.3993 109.66 71.6037 109.66 71.8001C109.657 71.9524 109.676 72.1044 109.713 72.2522C109.736 72.3653 109.8 72.4667 109.893 72.5374C109.987 72.6081 110.103 72.6434 110.221 72.6367C110.531 72.6367 110.704 72.421 110.743 71.9858L111.998 72.1734C111.993 72.6164 111.813 73.0406 111.495 73.357C111.137 73.6598 110.671 73.8128 110.198 73.7829C109.961 73.7878 109.725 73.7555 109.498 73.6872C109.318 73.63 109.151 73.543 109.001 73.4302C108.872 73.3292 108.763 73.205 108.68 73.0644C108.607 72.934 108.548 72.7963 108.505 72.6536C108.478 72.5405 108.459 72.4258 108.447 72.3103C108.432 72.1734 108.42 72.0271 108.413 71.8695C108.405 71.7119 108.399 71.5543 108.395 71.3911C108.391 71.2279 108.395 71.0741 108.395 70.9278C108.395 70.5639 108.409 70.1987 108.436 69.8323C108.447 69.545 108.5 69.2608 108.593 68.9882C108.698 68.689 108.901 68.4318 109.171 68.2566C109.499 68.0647 109.88 67.9745 110.262 67.9977C110.839 67.9977 111.274 68.1553 111.568 68.4667C111.863 68.7781 112.013 69.217 112.013 69.791V71.1867H109.66ZM109.763 69.4778C109.725 69.5834 109.704 69.6941 109.7 69.8061C109.688 69.9561 109.679 70.1343 109.671 70.3425H110.737V69.8736C110.74 69.703 110.707 69.5338 110.639 69.3765C110.603 69.3026 110.543 69.2419 110.469 69.2028C110.395 69.1638 110.311 69.1484 110.227 69.1589C110.124 69.1551 110.022 69.185 109.938 69.2437C109.854 69.3025 109.793 69.3868 109.763 69.4834V69.4778Z" fill="white"/>
<path d="M109.66 71.1867C109.66 71.3993 109.66 71.6037 109.66 71.8001C109.657 71.9524 109.676 72.1044 109.713 72.2522C109.736 72.3653 109.8 72.4667 109.893 72.5374C109.987 72.6081 110.103 72.6434 110.221 72.6367C110.531 72.6367 110.704 72.421 110.743 71.9858L111.998 72.1734C111.993 72.6164 111.813 73.0406 111.495 73.357C111.137 73.6598 110.671 73.8128 110.198 73.7829C109.961 73.7878 109.725 73.7555 109.498 73.6872C109.318 73.63 109.151 73.543 109.001 73.4302C108.872 73.3292 108.763 73.205 108.68 73.0644C108.607 72.934 108.548 72.7963 108.505 72.6536C108.478 72.5405 108.459 72.4258 108.447 72.3103C108.432 72.1734 108.42 72.0271 108.413 71.8695C108.405 71.7119 108.399 71.5543 108.395 71.3911C108.391 71.2279 108.395 71.0741 108.395 70.9278C108.395 70.5639 108.409 70.1987 108.436 69.8323C108.447 69.545 108.5 69.2608 108.593 68.9882C108.698 68.689 108.901 68.4318 109.171 68.2566C109.499 68.0647 109.88 67.9745 110.262 67.9977C110.839 67.9977 111.274 68.1553 111.568 68.4667C111.863 68.7781 112.013 69.217 112.013 69.791V71.1867H109.66ZM109.763 69.4778C109.725 69.5834 109.704 69.6941 109.7 69.8061C109.688 69.9561 109.679 70.1343 109.671 70.3425H110.737V69.8736C110.74 69.703 110.707 69.5338 110.639 69.3765C110.603 69.3026 110.543 69.2419 110.469 69.2028C110.395 69.1638 110.311 69.1484 110.227 69.1589C110.124 69.1551 110.022 69.185 109.938 69.2437C109.854 69.3025 109.793 69.3868 109.763 69.4834V69.4778Z" fill="#005695"/>
<path d="M114.609 73.7957C114.375 73.8003 114.141 73.7693 113.916 73.7038C113.735 73.6512 113.565 73.5659 113.416 73.4524C113.285 73.3533 113.174 73.2319 113.087 73.0941C113.005 72.9613 112.944 72.8171 112.906 72.6664C112.878 72.5536 112.858 72.4388 112.846 72.3231C112.831 72.1862 112.821 72.0399 112.817 71.8823C112.814 71.7247 112.817 71.5672 112.806 71.404C112.794 71.2408 112.806 71.0907 112.806 70.9519C112.806 70.7643 112.806 70.5767 112.819 70.3891C112.833 70.2015 112.839 70.014 112.854 69.8357C112.869 69.6575 112.889 69.4962 112.914 69.3443C112.93 69.2193 112.961 69.0965 113.006 68.9785C113.121 68.6914 113.322 68.4448 113.583 68.2713C113.908 68.0743 114.287 67.9787 114.669 67.9974C115.256 67.9974 115.689 68.1569 115.966 68.472C116.262 68.8399 116.411 69.3009 116.383 69.7682L115.752 69.8376C115.535 69.8601 115.323 69.8864 115.119 69.9183C115.135 69.7153 115.089 69.5122 114.986 69.3349C114.948 69.2769 114.896 69.2293 114.834 69.1965C114.772 69.1637 114.703 69.1467 114.632 69.1473C114.525 69.1433 114.419 69.1749 114.333 69.2369C114.247 69.299 114.185 69.3877 114.157 69.4887C114.122 69.6386 114.101 69.7911 114.093 69.9446C114.074 70.1715 114.064 70.436 114.064 70.7399V71.1507C114.064 71.3708 114.064 71.5847 114.064 71.7923C114.061 71.9521 114.082 72.1114 114.128 72.265C114.16 72.3748 114.22 72.4749 114.303 72.5557C114.392 72.6319 114.508 72.6709 114.626 72.6645C114.95 72.6645 115.113 72.4207 115.113 71.933C115.325 71.9724 115.538 72.0024 115.752 72.023C115.966 72.0436 116.177 72.0774 116.391 72.1168C116.401 72.3429 116.365 72.5687 116.285 72.7812C116.205 72.9937 116.083 73.1887 115.925 73.3549C115.628 73.6487 115.189 73.7957 114.609 73.7957Z" fill="white"/>
<path d="M114.609 73.7957C114.375 73.8003 114.141 73.7693 113.916 73.7038C113.735 73.6512 113.565 73.5659 113.416 73.4524C113.285 73.3533 113.174 73.2319 113.087 73.0941C113.005 72.9613 112.944 72.8171 112.906 72.6664C112.878 72.5536 112.858 72.4388 112.846 72.3231C112.831 72.1862 112.821 72.0399 112.817 71.8823C112.814 71.7247 112.817 71.5672 112.806 71.404C112.794 71.2408 112.806 71.0907 112.806 70.9519C112.806 70.7643 112.806 70.5767 112.819 70.3891C112.833 70.2015 112.839 70.014 112.854 69.8357C112.869 69.6575 112.889 69.4962 112.914 69.3443C112.93 69.2193 112.961 69.0965 113.006 68.9785C113.121 68.6914 113.322 68.4448 113.583 68.2713C113.908 68.0743 114.287 67.9787 114.669 67.9974C115.256 67.9974 115.689 68.1569 115.966 68.472C116.262 68.8399 116.411 69.3009 116.383 69.7682L115.752 69.8376C115.535 69.8601 115.323 69.8864 115.119 69.9183C115.135 69.7153 115.089 69.5122 114.986 69.3349C114.948 69.2769 114.896 69.2293 114.834 69.1965C114.772 69.1637 114.703 69.1467 114.632 69.1473C114.525 69.1433 114.419 69.1749 114.333 69.2369C114.247 69.299 114.185 69.3877 114.157 69.4887C114.122 69.6386 114.101 69.7911 114.093 69.9446C114.074 70.1715 114.064 70.436 114.064 70.7399V71.1507C114.064 71.3708 114.064 71.5847 114.064 71.7923C114.061 71.9521 114.082 72.1114 114.128 72.265C114.16 72.3748 114.22 72.4749 114.303 72.5557C114.392 72.6319 114.508 72.6709 114.626 72.6645C114.95 72.6645 115.113 72.4207 115.113 71.933C115.325 71.9724 115.538 72.0024 115.752 72.023C115.966 72.0436 116.177 72.0774 116.391 72.1168C116.401 72.3429 116.365 72.5687 116.285 72.7812C116.205 72.9937 116.083 73.1887 115.925 73.3549C115.628 73.6487 115.189 73.7957 114.609 73.7957Z" fill="#005695"/>
<path d="M117.189 68.0751H118.456V68.7035H118.49C118.594 68.4618 118.78 68.2628 119.018 68.1407C119.247 68.0477 119.494 68.003 119.743 68.0094H119.86V69.3225L119.691 69.3112C119.635 69.3112 119.581 69.3112 119.526 69.3112C119.244 69.2942 118.965 69.3768 118.74 69.5438C118.548 69.7014 118.463 69.9772 118.463 70.373V73.7495H117.189V68.0751Z" fill="white"/>
<path d="M117.189 68.0751H118.456V68.7035H118.49C118.594 68.4618 118.78 68.2628 119.018 68.1407C119.247 68.0477 119.494 68.003 119.743 68.0094H119.86V69.3225L119.691 69.3112C119.635 69.3112 119.581 69.3112 119.526 69.3112C119.244 69.2942 118.965 69.3768 118.74 69.5438C118.548 69.7014 118.463 69.9772 118.463 70.373V73.7495H117.189V68.0751Z" fill="#005695"/>
<path d="M122.814 73.2253C122.808 73.2275 122.802 73.2275 122.797 73.2253C122.787 73.2223 122.777 73.2223 122.768 73.2253C122.644 73.3958 122.482 73.5364 122.294 73.6361C122.103 73.7412 121.887 73.7961 121.667 73.7956C121.462 73.8026 121.257 73.7655 121.069 73.6868C120.916 73.6205 120.783 73.5164 120.684 73.3848C120.585 73.2461 120.519 73.0879 120.491 72.9214C120.451 72.732 120.431 72.539 120.432 72.3455V68.0742H121.698V71.991C121.682 72.1602 121.731 72.3292 121.834 72.4656C121.886 72.5156 121.948 72.5542 122.017 72.5788C122.085 72.6034 122.158 72.6134 122.231 72.6082C122.309 72.6081 122.387 72.5925 122.459 72.5622C122.531 72.5318 122.596 72.4875 122.65 72.4318C122.713 72.3674 122.762 72.291 122.794 72.2074C122.825 72.1239 122.839 72.0349 122.833 71.946V68.0742H124.099V73.728H122.822L122.814 73.2253Z" fill="white"/>
<path d="M122.814 73.2253C122.808 73.2275 122.802 73.2275 122.797 73.2253C122.787 73.2223 122.777 73.2223 122.768 73.2253C122.644 73.3958 122.482 73.5364 122.294 73.6361C122.103 73.7412 121.887 73.7961 121.667 73.7956C121.462 73.8026 121.257 73.7655 121.069 73.6868C120.916 73.6205 120.783 73.5164 120.684 73.3848C120.585 73.2461 120.519 73.0879 120.491 72.9214C120.451 72.732 120.431 72.539 120.432 72.3455V68.0742H121.698V71.991C121.682 72.1602 121.731 72.3292 121.834 72.4656C121.886 72.5156 121.948 72.5542 122.017 72.5788C122.085 72.6034 122.158 72.6134 122.231 72.6082C122.309 72.6081 122.387 72.5925 122.459 72.5622C122.531 72.5318 122.596 72.4875 122.65 72.4318C122.713 72.3674 122.762 72.291 122.794 72.2074C122.825 72.1239 122.839 72.0349 122.833 71.946V68.0742H124.099V73.728H122.822L122.814 73.2253Z" fill="#005695"/>
<path d="M125.099 66.9789V65.7803H126.363V66.9789H125.099ZM125.099 73.732V68.0876H126.363V73.7283L125.099 73.732Z" fill="white"/>
<path d="M125.099 66.9789V65.7803H126.363V66.9789H125.099ZM125.099 73.732V68.0876H126.363V73.7283L125.099 73.732Z" fill="#005695"/>
<path d="M129.01 73.7288C128.785 73.7361 128.561 73.6951 128.354 73.6088C128.193 73.5358 128.051 73.4288 127.938 73.2955C127.834 73.1668 127.758 73.0187 127.715 72.8603C127.673 72.7035 127.652 72.5421 127.652 72.3801V69.0467H127.09V68.075H127.667V66.6475H128.885V68.075H129.588V69.0467H128.885V71.9711C128.872 72.1319 128.909 72.2928 128.991 72.4326C129.047 72.4877 129.115 72.5293 129.19 72.554C129.265 72.5788 129.345 72.586 129.424 72.5752H129.578V73.7288H129.01Z" fill="white"/>
<path d="M129.01 73.7288C128.785 73.7361 128.561 73.6951 128.354 73.6088C128.193 73.5358 128.051 73.4288 127.938 73.2955C127.834 73.1668 127.758 73.0187 127.715 72.8603C127.673 72.7035 127.652 72.5421 127.652 72.3801V69.0467H127.09V68.075H127.667V66.6475H128.885V68.075H129.588V69.0467H128.885V71.9711C128.872 72.1319 128.909 72.2928 128.991 72.4326C129.047 72.4877 129.115 72.5293 129.19 72.554C129.265 72.5788 129.345 72.586 129.424 72.5752H129.578V73.7288H129.01Z" fill="#005695"/>
<path d="M135.126 68.0181C135.329 68.0116 135.531 68.0487 135.717 68.1269C135.87 68.1932 136.003 68.2973 136.102 68.4289C136.203 68.5662 136.275 68.7218 136.313 68.8867C136.357 69.0713 136.378 69.2601 136.377 69.4494V73.7207H135.113V69.8227C135.124 69.6609 135.076 69.5005 134.976 69.3706C134.93 69.3192 134.872 69.2787 134.807 69.252C134.743 69.2254 134.673 69.2134 134.603 69.2168C134.529 69.2149 134.456 69.2282 134.387 69.2556C134.319 69.2831 134.257 69.3242 134.206 69.3763C134.095 69.4952 134.034 69.6506 134.035 69.8115V73.7282H132.777V69.8227C132.789 69.6612 132.741 69.5008 132.642 69.3706C132.597 69.3191 132.54 69.2784 132.476 69.2517C132.412 69.2251 132.342 69.2131 132.272 69.2168C132.197 69.2158 132.122 69.2311 132.054 69.2616C131.985 69.2921 131.925 69.337 131.876 69.3931C131.76 69.5289 131.701 69.7025 131.711 69.879V73.7282H130.446V68.0744H131.711V68.5884L131.755 68.6015C131.874 68.4389 132.023 68.299 132.194 68.1888C132.368 68.0751 132.573 68.0155 132.782 68.0181C133.032 68.0059 133.281 68.0673 133.494 68.1945C133.672 68.3109 133.811 68.4761 133.893 68.6691C134.048 68.4766 134.24 68.3155 134.458 68.1945C134.661 68.08 134.892 68.0192 135.126 68.0181Z" fill="white"/>
<path d="M135.126 68.0181C135.329 68.0116 135.531 68.0487 135.717 68.1269C135.87 68.1932 136.003 68.2973 136.102 68.4289C136.203 68.5662 136.275 68.7218 136.313 68.8867C136.357 69.0713 136.378 69.2601 136.377 69.4494V73.7207H135.113V69.8227C135.124 69.6609 135.076 69.5005 134.976 69.3706C134.93 69.3192 134.872 69.2787 134.807 69.252C134.743 69.2254 134.673 69.2134 134.603 69.2168C134.529 69.2149 134.456 69.2282 134.387 69.2556C134.319 69.2831 134.257 69.3242 134.206 69.3763C134.095 69.4952 134.034 69.6506 134.035 69.8115V73.7282H132.777V69.8227C132.789 69.6612 132.741 69.5008 132.642 69.3706C132.597 69.3191 132.54 69.2784 132.476 69.2517C132.412 69.2251 132.342 69.2131 132.272 69.2168C132.197 69.2158 132.122 69.2311 132.054 69.2616C131.985 69.2921 131.925 69.337 131.876 69.3931C131.76 69.5289 131.701 69.7025 131.711 69.879V73.7282H130.446V68.0744H131.711V68.5884L131.755 68.6015C131.874 68.4389 132.023 68.299 132.194 68.1888C132.368 68.0751 132.573 68.0155 132.782 68.0181C133.032 68.0059 133.281 68.0673 133.494 68.1945C133.672 68.3109 133.811 68.4761 133.893 68.6691C134.048 68.4766 134.24 68.3155 134.458 68.1945C134.661 68.08 134.892 68.0192 135.126 68.0181Z" fill="#005695"/>
<path d="M138.549 71.1864C138.549 71.399 138.549 71.6034 138.549 71.7998C138.548 71.952 138.566 72.1039 138.603 72.2518C138.626 72.3652 138.69 72.4665 138.784 72.5372C138.878 72.6079 138.995 72.6431 139.113 72.6364C139.421 72.6364 139.596 72.4207 139.634 71.9855L140.887 72.1731C140.883 72.6161 140.703 73.0402 140.385 73.3567C140.027 73.6595 139.561 73.8125 139.088 73.7825C138.851 73.7876 138.615 73.7553 138.389 73.6869C138.21 73.6305 138.042 73.5435 137.893 73.4299C137.762 73.3299 137.653 73.2056 137.572 73.0641C137.497 72.9345 137.438 72.7966 137.397 72.6533C137.368 72.5404 137.348 72.4257 137.337 72.31C137.321 72.1731 137.31 72.0267 137.302 71.8692C137.295 71.7116 137.289 71.554 137.285 71.3908C137.281 71.2276 137.285 71.0738 137.285 70.9275C137.285 70.5636 137.298 70.1984 137.325 69.832C137.337 69.5448 137.391 69.2607 137.483 68.9879C137.588 68.689 137.791 68.432 138.06 68.2563C138.386 68.0593 138.765 67.9631 139.148 67.9805C139.725 67.9805 140.16 68.1381 140.456 68.4495C140.752 68.7609 140.899 69.1998 140.899 69.7738V71.1864H138.549ZM138.653 69.4775C138.616 69.5833 138.594 69.6939 138.59 69.8057C138.578 69.9558 138.57 70.134 138.561 70.3422H139.629V69.8733C139.632 69.7025 139.598 69.533 139.529 69.3762C139.492 69.3023 139.433 69.2416 139.359 69.2025C139.285 69.1634 139.2 69.1481 139.117 69.1586C139.015 69.1568 138.915 69.1876 138.833 69.2461C138.751 69.3047 138.69 69.3879 138.661 69.4831L138.653 69.4775Z" fill="white"/>
<path d="M138.549 71.1864C138.549 71.399 138.549 71.6034 138.549 71.7998C138.548 71.952 138.566 72.1039 138.603 72.2518C138.626 72.3652 138.69 72.4665 138.784 72.5372C138.878 72.6079 138.995 72.6431 139.113 72.6364C139.421 72.6364 139.596 72.4207 139.634 71.9855L140.887 72.1731C140.883 72.6161 140.703 73.0402 140.385 73.3567C140.027 73.6595 139.561 73.8125 139.088 73.7825C138.851 73.7876 138.615 73.7553 138.389 73.6869C138.21 73.6305 138.042 73.5435 137.893 73.4299C137.762 73.3299 137.653 73.2056 137.572 73.0641C137.497 72.9345 137.438 72.7966 137.397 72.6533C137.368 72.5404 137.348 72.4257 137.337 72.31C137.321 72.1731 137.31 72.0267 137.302 71.8692C137.295 71.7116 137.289 71.554 137.285 71.3908C137.281 71.2276 137.285 71.0738 137.285 70.9275C137.285 70.5636 137.298 70.1984 137.325 69.832C137.337 69.5448 137.391 69.2607 137.483 68.9879C137.588 68.689 137.791 68.432 138.06 68.2563C138.386 68.0593 138.765 67.9631 139.148 67.9805C139.725 67.9805 140.16 68.1381 140.456 68.4495C140.752 68.7609 140.899 69.1998 140.899 69.7738V71.1864H138.549ZM138.653 69.4775C138.616 69.5833 138.594 69.6939 138.59 69.8057C138.578 69.9558 138.57 70.134 138.561 70.3422H139.629V69.8733C139.632 69.7025 139.598 69.533 139.529 69.3762C139.492 69.3023 139.433 69.2416 139.359 69.2025C139.285 69.1634 139.2 69.1481 139.117 69.1586C139.015 69.1568 138.915 69.1876 138.833 69.2461C138.751 69.3047 138.69 69.3879 138.661 69.4831L138.653 69.4775Z" fill="#005695"/>
<path d="M143.021 68.5885H143.067C143.192 68.4222 143.352 68.284 143.537 68.1833C143.725 68.0746 143.94 68.0176 144.158 68.0182C144.361 68.0122 144.563 68.0493 144.749 68.127C144.902 68.1954 145.035 68.3014 145.134 68.4346C145.234 68.5744 145.305 68.7317 145.344 68.898C145.388 69.0824 145.41 69.2713 145.409 69.4607V73.7208H144.143V69.8228C144.143 69.4195 143.968 69.2169 143.616 69.2169C143.535 69.2137 143.454 69.2279 143.379 69.2584C143.304 69.2888 143.237 69.3348 143.183 69.3932C143.067 69.5292 143.009 69.7028 143.019 69.8791V73.7283H141.753V68.0876H143.019L143.021 68.5885Z" fill="white"/>
<path d="M143.021 68.5885H143.067C143.192 68.4222 143.352 68.284 143.537 68.1833C143.725 68.0746 143.94 68.0176 144.158 68.0182C144.361 68.0122 144.563 68.0493 144.749 68.127C144.902 68.1954 145.035 68.3014 145.134 68.4346C145.234 68.5744 145.305 68.7317 145.344 68.898C145.388 69.0824 145.41 69.2713 145.409 69.4607V73.7208H144.143V69.8228C144.143 69.4195 143.968 69.2169 143.616 69.2169C143.535 69.2137 143.454 69.2279 143.379 69.2584C143.304 69.2888 143.237 69.3348 143.183 69.3932C143.067 69.5292 143.009 69.7028 143.019 69.8791V73.7283H141.753V68.0876H143.019L143.021 68.5885Z" fill="#005695"/>
<path d="M147.954 73.7288C147.729 73.7361 147.505 73.6951 147.297 73.6088C147.137 73.5358 146.995 73.4288 146.882 73.2955C146.777 73.1672 146.701 73.019 146.659 72.8603C146.617 72.7035 146.595 72.5421 146.595 72.3801V69.0467H146.033V68.075H146.61V66.6475H147.829V68.075H148.531V69.0467H147.825V71.9711C147.811 72.1319 147.848 72.2928 147.931 72.4326C147.986 72.4877 148.054 72.5293 148.13 72.554C148.205 72.5788 148.285 72.586 148.364 72.5752H148.516V73.7288H147.954Z" fill="white"/>
<path d="M147.954 73.7288C147.729 73.7361 147.505 73.6951 147.297 73.6088C147.137 73.5358 146.995 73.4288 146.882 73.2955C146.777 73.1672 146.701 73.019 146.659 72.8603C146.617 72.7035 146.595 72.5421 146.595 72.3801V69.0467H146.033V68.075H146.61V66.6475H147.829V68.075H148.531V69.0467H147.825V71.9711C147.811 72.1319 147.848 72.2928 147.931 72.4326C147.986 72.4877 148.054 72.5293 148.13 72.554C148.205 72.5788 148.285 72.586 148.364 72.5752H148.516V73.7288H147.954Z" fill="#005695"/>
<path d="M153.353 67.5152C153.361 67.7234 153.406 67.9285 153.488 68.1211C153.591 68.3753 153.71 68.6228 153.846 68.8621L155.146 71.1131C155.195 70.9644 155.231 70.8119 155.252 70.6573C155.275 70.4903 155.291 70.314 155.298 70.132H156.399C156.389 70.4955 156.34 70.857 156.253 71.2106C156.172 71.5611 156.048 71.9006 155.883 72.2217L156.774 73.7224H155.379L155.075 73.2084C154.867 73.4306 154.601 73.5939 154.306 73.6811C154.038 73.7543 153.762 73.7909 153.484 73.7899C153.243 73.7948 153.005 73.7467 152.786 73.6493C152.567 73.5518 152.373 73.4076 152.22 73.2272C152.056 73.0309 151.933 72.8062 151.856 72.565C151.768 72.2874 151.724 71.9983 151.727 71.7077C151.719 71.2851 151.82 70.8673 152.019 70.4922C152.236 70.1113 152.514 69.7662 152.841 69.4698L152.629 69.104C152.501 68.8682 152.396 68.6214 152.314 68.3668C152.219 68.0892 152.171 67.7984 152.171 67.5058C152.17 67.2672 152.21 67.03 152.289 66.8043C152.363 66.5977 152.476 66.4067 152.624 66.2415C152.77 66.0811 152.95 65.9532 153.151 65.8663C153.367 65.7739 153.6 65.7272 153.836 65.7294C154.218 65.7189 154.597 65.8035 154.937 65.9751C155.269 66.1622 155.529 66.451 155.676 66.7967L154.633 67.3089C154.577 67.1576 154.475 67.0267 154.34 66.9337C154.218 66.8561 154.076 66.815 153.93 66.8155C153.84 66.8063 153.75 66.8228 153.669 66.8632C153.589 66.9035 153.523 66.9658 153.478 67.0425C153.398 67.1881 153.355 67.3502 153.353 67.5152ZM153.424 70.4622C153.272 70.6397 153.142 70.835 153.039 71.0437C152.949 71.2373 152.903 71.448 152.905 71.6608C152.898 71.9183 152.969 72.1721 153.109 72.3905C153.168 72.4872 153.253 72.5667 153.355 72.6211C153.456 72.6754 153.57 72.7027 153.686 72.7001C153.845 72.6997 154.001 72.6624 154.142 72.5913C154.286 72.524 154.415 72.4289 154.521 72.3118L153.424 70.4622Z" fill="white"/>
<path d="M153.353 67.5152C153.361 67.7234 153.406 67.9285 153.488 68.1211C153.591 68.3753 153.71 68.6228 153.846 68.8621L155.146 71.1131C155.195 70.9644 155.231 70.8119 155.252 70.6573C155.275 70.4903 155.291 70.314 155.298 70.132H156.399C156.389 70.4955 156.34 70.857 156.253 71.2106C156.172 71.5611 156.048 71.9006 155.883 72.2217L156.774 73.7224H155.379L155.075 73.2084C154.867 73.4306 154.601 73.5939 154.306 73.6811C154.038 73.7543 153.762 73.7909 153.484 73.7899C153.243 73.7948 153.005 73.7467 152.786 73.6493C152.567 73.5518 152.373 73.4076 152.22 73.2272C152.056 73.0309 151.933 72.8062 151.856 72.565C151.768 72.2874 151.724 71.9983 151.727 71.7077C151.719 71.2851 151.82 70.8673 152.019 70.4922C152.236 70.1113 152.514 69.7662 152.841 69.4698L152.629 69.104C152.501 68.8682 152.396 68.6214 152.314 68.3668C152.219 68.0892 152.171 67.7984 152.171 67.5058C152.17 67.2672 152.21 67.03 152.289 66.8043C152.363 66.5977 152.476 66.4067 152.624 66.2415C152.77 66.0811 152.95 65.9532 153.151 65.8663C153.367 65.7739 153.6 65.7272 153.836 65.7294C154.218 65.7189 154.597 65.8035 154.937 65.9751C155.269 66.1622 155.529 66.451 155.676 66.7967L154.633 67.3089C154.577 67.1576 154.475 67.0267 154.34 66.9337C154.218 66.8561 154.076 66.815 153.93 66.8155C153.84 66.8063 153.75 66.8228 153.669 66.8632C153.589 66.9035 153.523 66.9658 153.478 67.0425C153.398 67.1881 153.355 67.3502 153.353 67.5152ZM153.424 70.4622C153.272 70.6397 153.142 70.835 153.039 71.0437C152.949 71.2373 152.903 71.448 152.905 71.6608C152.898 71.9183 152.969 72.1721 153.109 72.3905C153.168 72.4872 153.253 72.5667 153.355 72.6211C153.456 72.6754 153.57 72.7027 153.686 72.7001C153.845 72.6997 154.001 72.6624 154.142 72.5913C154.286 72.524 154.415 72.4289 154.521 72.3118L153.424 70.4622Z" fill="#005695"/>
<path d="M161.893 66.9321V73.7283H160.627V66.9321H159.314V65.7803H163.205V66.9321H161.893Z" fill="white"/>
<path d="M161.893 66.9321V73.7283H160.627V66.9321H159.314V65.7803H163.205V66.9321H161.893Z" fill="#005695"/>
<path d="M164.564 71.1866C164.564 71.3992 164.564 71.6037 164.564 71.8C164.562 71.9522 164.58 72.104 164.616 72.2521C164.639 72.3656 164.704 72.467 164.798 72.5376C164.892 72.6083 165.009 72.6435 165.128 72.6367C165.436 72.6367 165.609 72.4209 165.647 71.9857L166.902 72.1733C166.896 72.616 166.716 73.0396 166.4 73.357C166.041 73.6594 165.576 73.8123 165.103 73.7828C164.865 73.7877 164.629 73.7554 164.402 73.6871C164.225 73.6316 164.059 73.5472 163.912 73.4376C163.781 73.3371 163.672 73.2129 163.59 73.0718C163.516 72.9419 163.457 72.804 163.415 72.661C163.388 72.5479 163.369 72.4333 163.357 72.3178C163.342 72.1808 163.33 72.0345 163.323 71.8769C163.315 71.7194 163.307 71.5618 163.303 71.3986C163.3 71.2354 163.303 71.0816 163.303 70.9352C163.303 70.5713 163.317 70.2062 163.344 69.8397C163.355 69.5525 163.408 69.2682 163.502 68.9956C163.606 68.6964 163.809 68.4393 164.079 68.264C164.404 68.0673 164.782 67.9711 165.164 67.9883C165.742 67.9883 166.176 68.1459 166.473 68.4572C166.769 68.7686 166.917 69.2076 166.917 69.7816V71.1866H164.564ZM164.668 69.4777C164.629 69.5833 164.608 69.694 164.604 69.806C164.593 69.9561 164.583 70.1343 164.575 70.3425H165.641V69.8735C165.644 69.703 165.611 69.5337 165.543 69.3764C165.507 69.3026 165.447 69.2418 165.374 69.2028C165.3 69.1637 165.215 69.1483 165.132 69.1588C165.028 69.1554 164.927 69.1854 164.843 69.2441C164.759 69.3028 164.697 69.3869 164.668 69.4833V69.4777Z" fill="white"/>
<path d="M164.564 71.1866C164.564 71.3992 164.564 71.6037 164.564 71.8C164.562 71.9522 164.58 72.104 164.616 72.2521C164.639 72.3656 164.704 72.467 164.798 72.5376C164.892 72.6083 165.009 72.6435 165.128 72.6367C165.436 72.6367 165.609 72.4209 165.647 71.9857L166.902 72.1733C166.896 72.616 166.716 73.0396 166.4 73.357C166.041 73.6594 165.576 73.8123 165.103 73.7828C164.865 73.7877 164.629 73.7554 164.402 73.6871C164.225 73.6316 164.059 73.5472 163.912 73.4376C163.781 73.3371 163.672 73.2129 163.59 73.0718C163.516 72.9419 163.457 72.804 163.415 72.661C163.388 72.5479 163.369 72.4333 163.357 72.3178C163.342 72.1808 163.33 72.0345 163.323 71.8769C163.315 71.7194 163.307 71.5618 163.303 71.3986C163.3 71.2354 163.303 71.0816 163.303 70.9352C163.303 70.5713 163.317 70.2062 163.344 69.8397C163.355 69.5525 163.408 69.2682 163.502 68.9956C163.606 68.6964 163.809 68.4393 164.079 68.264C164.404 68.0673 164.782 67.9711 165.164 67.9883C165.742 67.9883 166.176 68.1459 166.473 68.4572C166.769 68.7686 166.917 69.2076 166.917 69.7816V71.1866H164.564ZM164.668 69.4777C164.629 69.5833 164.608 69.694 164.604 69.806C164.593 69.9561 164.583 70.1343 164.575 70.3425H165.641V69.8735C165.644 69.703 165.611 69.5337 165.543 69.3764C165.507 69.3026 165.447 69.2418 165.374 69.2028C165.3 69.1637 165.215 69.1483 165.132 69.1588C165.028 69.1554 164.927 69.1854 164.843 69.2441C164.759 69.3028 164.697 69.3869 164.668 69.4833V69.4777Z" fill="#005695"/>
<path d="M170.069 73.2824C169.953 73.4512 169.791 73.5856 169.602 73.6707C169.415 73.7547 169.211 73.7976 169.005 73.7964C168.779 73.8037 168.555 73.7566 168.353 73.6594C168.182 73.5707 168.037 73.4417 167.931 73.2842C167.822 73.1183 167.747 72.9337 167.708 72.7402C167.665 72.5221 167.643 72.3003 167.645 72.0781C167.644 71.8582 167.674 71.6393 167.733 71.4271C167.787 71.2221 167.885 71.0305 168.02 70.8644C168.161 70.6931 168.342 70.5563 168.547 70.4648C168.805 70.3535 169.085 70.3003 169.367 70.3091H170.108V69.6939C170.116 69.5524 170.072 69.4127 169.985 69.2999C169.923 69.2447 169.849 69.2033 169.769 69.1787C169.689 69.1541 169.604 69.1468 169.521 69.1574C169.395 69.1598 169.273 69.199 169.171 69.2699C169.105 69.3198 169.05 69.3821 169.01 69.453C168.97 69.5239 168.944 69.602 168.936 69.6826L167.781 69.3393C167.864 68.9521 168.081 68.6047 168.397 68.3564C168.743 68.1098 169.165 67.9855 169.594 68.0037C170.176 68.0037 170.618 68.1331 170.918 68.392C171.218 68.6509 171.367 69.0848 171.366 69.6939V73.7251H170.108V73.2917L170.069 73.2824ZM170.106 71.2396H169.602C169.422 71.2392 169.247 71.3003 169.109 71.4121C169.027 71.4908 168.965 71.5865 168.926 71.6921C168.888 71.7977 168.875 71.9105 168.888 72.0218C168.876 72.1893 168.933 72.3545 169.045 72.4814C169.101 72.5363 169.168 72.5791 169.241 72.6069C169.315 72.6347 169.394 72.6469 169.473 72.6427C169.56 72.6484 169.648 72.6344 169.73 72.6019C169.811 72.5694 169.884 72.5192 169.942 72.4551C170.06 72.3076 170.118 72.1238 170.108 71.9374L170.106 71.2396Z" fill="white"/>
<path d="M170.069 73.2824C169.953 73.4512 169.791 73.5856 169.602 73.6707C169.415 73.7547 169.211 73.7976 169.005 73.7964C168.779 73.8037 168.555 73.7566 168.353 73.6594C168.182 73.5707 168.037 73.4417 167.931 73.2842C167.822 73.1183 167.747 72.9337 167.708 72.7402C167.665 72.5221 167.643 72.3003 167.645 72.0781C167.644 71.8582 167.674 71.6393 167.733 71.4271C167.787 71.2221 167.885 71.0305 168.02 70.8644C168.161 70.6931 168.342 70.5563 168.547 70.4648C168.805 70.3535 169.085 70.3003 169.367 70.3091H170.108V69.6939C170.116 69.5524 170.072 69.4127 169.985 69.2999C169.923 69.2447 169.849 69.2033 169.769 69.1787C169.689 69.1541 169.604 69.1468 169.521 69.1574C169.395 69.1598 169.273 69.199 169.171 69.2699C169.105 69.3198 169.05 69.3821 169.01 69.453C168.97 69.5239 168.944 69.602 168.936 69.6826L167.781 69.3393C167.864 68.9521 168.081 68.6047 168.397 68.3564C168.743 68.1098 169.165 67.9855 169.594 68.0037C170.176 68.0037 170.618 68.1331 170.918 68.392C171.218 68.6509 171.367 69.0848 171.366 69.6939V73.7251H170.108V73.2917L170.069 73.2824ZM170.106 71.2396H169.602C169.422 71.2392 169.247 71.3003 169.109 71.4121C169.027 71.4908 168.965 71.5865 168.926 71.6921C168.888 71.7977 168.875 71.9105 168.888 72.0218C168.876 72.1893 168.933 72.3545 169.045 72.4814C169.101 72.5363 169.168 72.5791 169.241 72.6069C169.315 72.6347 169.394 72.6469 169.473 72.6427C169.56 72.6484 169.648 72.6344 169.73 72.6019C169.811 72.5694 169.884 72.5192 169.942 72.4551C170.06 72.3076 170.118 72.1238 170.108 71.9374L170.106 71.2396Z" fill="#005695"/>
<path d="M177.035 68.0181C177.238 68.0118 177.44 68.0489 177.626 68.1269C177.779 68.194 177.911 68.2979 178.011 68.4289C178.112 68.5662 178.184 68.7218 178.223 68.8867C178.266 69.0713 178.287 69.2601 178.286 69.4494V73.7207H177.035V69.8227C177.047 69.6609 176.998 69.5005 176.899 69.3706C176.852 69.3193 176.795 69.2789 176.73 69.2522C176.666 69.2256 176.596 69.2135 176.525 69.2168C176.452 69.2149 176.378 69.2282 176.31 69.2556C176.242 69.2831 176.18 69.3242 176.129 69.3763C176.018 69.4954 175.956 69.6505 175.956 69.8115V73.7282H174.692V69.8227C174.704 69.6612 174.656 69.5008 174.557 69.3706C174.511 69.3193 174.454 69.2788 174.39 69.2521C174.326 69.2255 174.257 69.2134 174.187 69.2168C174.112 69.2158 174.038 69.2311 173.969 69.2616C173.9 69.2921 173.84 69.337 173.791 69.3931C173.675 69.5289 173.616 69.7025 173.626 69.879V73.7282H172.361V68.0744H173.626V68.5884L173.67 68.6015C173.788 68.439 173.936 68.2991 174.107 68.1888C174.281 68.075 174.487 68.0155 174.697 68.0181C174.948 68.0059 175.196 68.0673 175.409 68.1945C175.587 68.3111 175.725 68.4762 175.806 68.6691C175.962 68.4766 176.155 68.3154 176.373 68.1945C176.575 68.081 176.803 68.0202 177.035 68.0181Z" fill="white"/>
<path d="M177.035 68.0181C177.238 68.0118 177.44 68.0489 177.626 68.1269C177.779 68.194 177.911 68.2979 178.011 68.4289C178.112 68.5662 178.184 68.7218 178.223 68.8867C178.266 69.0713 178.287 69.2601 178.286 69.4494V73.7207H177.035V69.8227C177.047 69.6609 176.998 69.5005 176.899 69.3706C176.852 69.3193 176.795 69.2789 176.73 69.2522C176.666 69.2256 176.596 69.2135 176.525 69.2168C176.452 69.2149 176.378 69.2282 176.31 69.2556C176.242 69.2831 176.18 69.3242 176.129 69.3763C176.018 69.4954 175.956 69.6505 175.956 69.8115V73.7282H174.692V69.8227C174.704 69.6612 174.656 69.5008 174.557 69.3706C174.511 69.3193 174.454 69.2788 174.39 69.2521C174.326 69.2255 174.257 69.2134 174.187 69.2168C174.112 69.2158 174.038 69.2311 173.969 69.2616C173.9 69.2921 173.84 69.337 173.791 69.3931C173.675 69.5289 173.616 69.7025 173.626 69.879V73.7282H172.361V68.0744H173.626V68.5884L173.67 68.6015C173.788 68.439 173.936 68.2991 174.107 68.1888C174.281 68.075 174.487 68.0155 174.697 68.0181C174.948 68.0059 175.196 68.0673 175.409 68.1945C175.587 68.3111 175.725 68.4762 175.806 68.6691C175.962 68.4766 176.155 68.3154 176.373 68.1945C176.575 68.081 176.803 68.0202 177.035 68.0181Z" fill="#005695"/>
<path d="M183.853 65.7802C184.25 65.7603 184.645 65.8452 184.996 66.0259C185.293 66.2166 185.501 66.514 185.573 66.8532C185.67 67.2322 185.715 67.622 185.706 68.0124C185.706 68.502 185.706 69.0798 185.706 69.742C185.706 70.4042 185.706 70.9594 185.695 71.4303C185.701 71.8105 185.65 72.1897 185.545 72.5558C185.495 72.7478 185.407 72.9284 185.285 73.0872C185.164 73.2459 185.011 73.3796 184.836 73.4806C184.496 73.6519 184.117 73.7383 183.734 73.7319H181.81V65.7802H183.853ZM184.455 67.8624C184.469 67.6233 184.409 67.3857 184.284 67.1796C184.173 67.0145 183.955 66.932 183.636 66.932H183.097V72.5745H183.636C183.947 72.5745 184.163 72.4939 184.28 72.3325C184.41 72.1227 184.471 71.8793 184.455 71.6347V67.8624Z" fill="white"/>
<path d="M183.853 65.7802C184.25 65.7603 184.645 65.8452 184.996 66.0259C185.293 66.2166 185.501 66.514 185.573 66.8532C185.67 67.2322 185.715 67.622 185.706 68.0124C185.706 68.502 185.706 69.0798 185.706 69.742C185.706 70.4042 185.706 70.9594 185.695 71.4303C185.701 71.8105 185.65 72.1897 185.545 72.5558C185.495 72.7478 185.407 72.9284 185.285 73.0872C185.164 73.2459 185.011 73.3796 184.836 73.4806C184.496 73.6519 184.117 73.7383 183.734 73.7319H181.81V65.7802H183.853ZM184.455 67.8624C184.469 67.6233 184.409 67.3857 184.284 67.1796C184.173 67.0145 183.955 66.932 183.636 66.932H183.097V72.5745H183.636C183.947 72.5745 184.163 72.4939 184.28 72.3325C184.41 72.1227 184.471 71.8793 184.455 71.6347V67.8624Z" fill="#005695"/>
<path d="M187.969 71.1871C187.969 71.3997 187.969 71.6042 187.969 71.8005C187.968 71.9528 187.986 72.1046 188.023 72.2526C188.046 72.3659 188.11 72.4673 188.204 72.538C188.298 72.6087 188.415 72.6439 188.533 72.6372C188.841 72.6372 189.016 72.4215 189.054 71.9863L190.307 72.1738C190.303 72.6168 190.123 73.041 189.805 73.3575C189.447 73.66 188.982 73.813 188.51 73.7833C188.273 73.7885 188.036 73.7562 187.809 73.6877C187.63 73.6312 187.462 73.5442 187.313 73.4307C187.182 73.3307 187.073 73.2063 186.992 73.0649C186.916 72.9353 186.858 72.7973 186.816 72.6541C186.788 72.5412 186.768 72.4265 186.757 72.3108C186.741 72.1738 186.73 72.0275 186.722 71.87C186.714 71.7124 186.709 71.5548 186.705 71.3916C186.701 71.2284 186.705 71.0746 186.705 70.9283C186.705 70.5644 186.718 70.1992 186.745 69.8328C186.757 69.5456 186.81 69.2615 186.903 68.9886C187.008 68.6898 187.211 68.4328 187.48 68.2571C187.806 68.067 188.183 67.9769 188.562 67.9982C189.139 67.9982 189.574 68.1558 189.87 68.4672C190.167 68.7785 190.313 69.2175 190.313 69.7915V71.1871H187.969ZM188.075 69.4782C188.037 69.5839 188.015 69.6945 188.01 69.8065C187.998 69.9566 187.99 70.1348 187.981 70.343H189.049V69.874C189.052 69.7033 189.018 69.5338 188.949 69.3769C188.912 69.3031 188.853 69.2423 188.779 69.2033C188.705 69.1642 188.62 69.1489 188.537 69.1593C188.434 69.1557 188.332 69.1856 188.249 69.2444C188.165 69.3032 188.104 69.3874 188.075 69.4839V69.4782Z" fill="white"/>
<path d="M187.969 71.1871C187.969 71.3997 187.969 71.6042 187.969 71.8005C187.968 71.9528 187.986 72.1046 188.023 72.2526C188.046 72.3659 188.11 72.4673 188.204 72.538C188.298 72.6087 188.415 72.6439 188.533 72.6372C188.841 72.6372 189.016 72.4215 189.054 71.9863L190.307 72.1738C190.303 72.6168 190.123 73.041 189.805 73.3575C189.447 73.66 188.982 73.813 188.51 73.7833C188.273 73.7885 188.036 73.7562 187.809 73.6877C187.63 73.6312 187.462 73.5442 187.313 73.4307C187.182 73.3307 187.073 73.2063 186.992 73.0649C186.916 72.9353 186.858 72.7973 186.816 72.6541C186.788 72.5412 186.768 72.4265 186.757 72.3108C186.741 72.1738 186.73 72.0275 186.722 71.87C186.714 71.7124 186.709 71.5548 186.705 71.3916C186.701 71.2284 186.705 71.0746 186.705 70.9283C186.705 70.5644 186.718 70.1992 186.745 69.8328C186.757 69.5456 186.81 69.2615 186.903 68.9886C187.008 68.6898 187.211 68.4328 187.48 68.2571C187.806 68.067 188.183 67.9769 188.562 67.9982C189.139 67.9982 189.574 68.1558 189.87 68.4672C190.167 68.7785 190.313 69.2175 190.313 69.7915V71.1871H187.969ZM188.075 69.4782C188.037 69.5839 188.015 69.6945 188.01 69.8065C187.998 69.9566 187.99 70.1348 187.981 70.343H189.049V69.874C189.052 69.7033 189.018 69.5338 188.949 69.3769C188.912 69.3031 188.853 69.2423 188.779 69.2033C188.705 69.1642 188.62 69.1489 188.537 69.1593C188.434 69.1557 188.332 69.1856 188.249 69.2444C188.165 69.3032 188.104 69.3874 188.075 69.4839V69.4782Z" fill="#005695"/>
<path d="M193.594 73.7287H192.141C191.914 72.7783 191.687 71.8404 191.461 70.915C191.236 69.9895 191.009 69.0516 190.782 68.1012H192.164C192.233 68.4763 192.304 68.8515 192.374 69.2267C192.443 69.6019 192.512 69.977 192.566 70.3522C192.614 70.6411 192.66 70.9262 192.707 71.2095C192.753 71.4927 192.805 71.7722 192.859 72.0649H192.918L193.199 70.3635L193.584 68.0918H194.954L193.594 73.7287Z" fill="white"/>
<path d="M193.594 73.7287H192.141C191.914 72.7783 191.687 71.8404 191.461 70.915C191.236 69.9895 191.009 69.0516 190.782 68.1012H192.164C192.233 68.4763 192.304 68.8515 192.374 69.2267C192.443 69.6019 192.512 69.977 192.566 70.3522C192.614 70.6411 192.66 70.9262 192.707 71.2095C192.753 71.4927 192.805 71.7722 192.859 72.0649H192.918L193.199 70.3635L193.584 68.0918H194.954L193.594 73.7287Z" fill="#005695"/>
<path d="M196.44 71.1864C196.44 71.399 196.44 71.6034 196.44 71.7998C196.439 71.952 196.457 72.1039 196.494 72.2518C196.517 72.3652 196.581 72.4665 196.675 72.5372C196.769 72.6079 196.885 72.6431 197.004 72.6364C197.312 72.6364 197.487 72.4207 197.525 71.9855L198.778 72.1731C198.774 72.6161 198.594 73.0402 198.276 73.3567C197.917 73.6591 197.452 73.8121 196.979 73.7825C196.741 73.7875 196.505 73.7552 196.278 73.6869C196.099 73.6301 195.932 73.5431 195.784 73.4299C195.653 73.3299 195.543 73.2056 195.462 73.0641C195.387 72.9345 195.328 72.7966 195.287 72.6533C195.259 72.5404 195.239 72.4257 195.227 72.31C195.212 72.1731 195.201 72.0267 195.193 71.8692C195.185 71.7116 195.179 71.554 195.176 71.3908C195.172 71.2276 195.176 71.0738 195.176 70.9275C195.176 70.5636 195.189 70.1984 195.216 69.832C195.228 69.5448 195.281 69.2607 195.374 68.9879C195.479 68.689 195.682 68.432 195.951 68.2563C196.276 68.0593 196.656 67.9631 197.038 67.9805C197.616 67.9805 198.049 68.1381 198.347 68.4495C198.645 68.7609 198.789 69.1998 198.789 69.7738V71.1864H196.44ZM196.544 69.4775C196.506 69.5833 196.485 69.6939 196.48 69.8057C196.469 69.9558 196.459 70.134 196.451 70.3422H197.519V69.8733C197.522 69.7026 197.488 69.5333 197.419 69.3762C197.383 69.3023 197.323 69.2416 197.249 69.2025C197.175 69.1634 197.091 69.1481 197.007 69.1586C196.904 69.1551 196.803 69.1851 196.719 69.2438C196.635 69.3025 196.573 69.3867 196.544 69.4831V69.4775Z" fill="white"/>
<path d="M196.44 71.1864C196.44 71.399 196.44 71.6034 196.44 71.7998C196.439 71.952 196.457 72.1039 196.494 72.2518C196.517 72.3652 196.581 72.4665 196.675 72.5372C196.769 72.6079 196.885 72.6431 197.004 72.6364C197.312 72.6364 197.487 72.4207 197.525 71.9855L198.778 72.1731C198.774 72.6161 198.594 73.0402 198.276 73.3567C197.917 73.6591 197.452 73.8121 196.979 73.7825C196.741 73.7875 196.505 73.7552 196.278 73.6869C196.099 73.6301 195.932 73.5431 195.784 73.4299C195.653 73.3299 195.543 73.2056 195.462 73.0641C195.387 72.9345 195.328 72.7966 195.287 72.6533C195.259 72.5404 195.239 72.4257 195.227 72.31C195.212 72.1731 195.201 72.0267 195.193 71.8692C195.185 71.7116 195.179 71.554 195.176 71.3908C195.172 71.2276 195.176 71.0738 195.176 70.9275C195.176 70.5636 195.189 70.1984 195.216 69.832C195.228 69.5448 195.281 69.2607 195.374 68.9879C195.479 68.689 195.682 68.432 195.951 68.2563C196.276 68.0593 196.656 67.9631 197.038 67.9805C197.616 67.9805 198.049 68.1381 198.347 68.4495C198.645 68.7609 198.789 69.1998 198.789 69.7738V71.1864H196.44ZM196.544 69.4775C196.506 69.5833 196.485 69.6939 196.48 69.8057C196.469 69.9558 196.459 70.134 196.451 70.3422H197.519V69.8733C197.522 69.7026 197.488 69.5333 197.419 69.3762C197.383 69.3023 197.323 69.2416 197.249 69.2025C197.175 69.1634 197.091 69.1481 197.007 69.1586C196.904 69.1551 196.803 69.1851 196.719 69.2438C196.635 69.3025 196.573 69.3867 196.544 69.4831V69.4775Z" fill="#005695"/>
<path d="M201.337 73.7963C201.092 73.8 200.846 73.7754 200.606 73.7232C200.415 73.6816 200.237 73.5931 200.091 73.4662C199.946 73.334 199.841 73.1661 199.786 72.9803C199.713 72.7368 199.68 72.4836 199.686 72.23V65.4375H200.951V72.0499C200.937 72.2143 200.973 72.379 201.053 72.5245C201.099 72.5778 201.159 72.6188 201.226 72.6437C201.294 72.6686 201.366 72.6766 201.438 72.667H201.582V73.7926L201.337 73.7963Z" fill="white"/>
<path d="M201.337 73.7963C201.092 73.8 200.846 73.7754 200.606 73.7232C200.415 73.6816 200.237 73.5931 200.091 73.4662C199.946 73.334 199.841 73.1661 199.786 72.9803C199.713 72.7368 199.68 72.4836 199.686 72.23V65.4375H200.951V72.0499C200.937 72.2143 200.973 72.379 201.053 72.5245C201.099 72.5778 201.159 72.6188 201.226 72.6437C201.294 72.6686 201.366 72.6766 201.438 72.667H201.582V73.7926L201.337 73.7963Z" fill="#005695"/>
<path d="M204.067 67.9978C204.336 67.9914 204.603 68.0327 204.856 68.1197C205.056 68.1893 205.238 68.2999 205.389 68.4443C205.529 68.5786 205.636 68.743 205.699 68.9245C205.768 69.1164 205.81 69.3164 205.824 69.5191C205.856 69.7611 205.874 70.0048 205.876 70.2488C205.876 70.5152 205.876 70.7591 205.876 70.9804V71.2768C205.876 71.4513 205.876 71.6257 205.859 71.802C205.841 71.9784 205.834 72.1491 205.818 72.316C205.792 72.5858 205.706 72.8469 205.566 73.0814C205.45 73.2647 205.294 73.4205 205.108 73.5372C204.931 73.6439 204.736 73.7177 204.531 73.7548C204.334 73.7917 204.135 73.8105 203.934 73.8111C203.693 73.8162 203.453 73.78 203.224 73.7042C203.039 73.6387 202.868 73.5394 202.72 73.4115C202.588 73.2939 202.481 73.1525 202.405 72.9951C202.329 72.8372 202.276 72.6699 202.247 72.498C202.231 72.3986 202.218 72.286 202.206 72.1622C202.195 72.0384 202.183 71.9052 202.176 71.7683C202.168 71.6313 202.164 71.4925 202.164 71.3518V70.956C202.164 70.7684 202.164 70.5809 202.176 70.3933C202.187 70.2057 202.195 70.0181 202.212 69.8399C202.229 69.6617 202.247 69.5004 202.27 69.3484C202.286 69.2232 202.317 69.1003 202.364 68.9826C202.473 68.6924 202.676 68.4443 202.941 68.2754C203.279 68.0741 203.672 67.9773 204.067 67.9978ZM204.067 69.1402C203.985 69.1358 203.903 69.1525 203.83 69.1888C203.757 69.225 203.694 69.2794 203.65 69.3466C203.595 69.4393 203.554 69.5391 203.528 69.6429C203.499 69.7632 203.48 69.8855 203.471 70.0087C203.459 70.1457 203.453 70.2995 203.453 70.4721V71.1511C203.453 71.3575 203.453 71.5544 203.453 71.7439C203.453 71.8979 203.47 72.0515 203.505 72.2016C203.541 72.3242 203.607 72.4363 203.698 72.528C203.793 72.6077 203.913 72.6533 204.038 72.6574C204.163 72.6615 204.286 72.6238 204.387 72.5505C204.473 72.4803 204.536 72.3861 204.566 72.2804C204.566 72.2504 204.583 72.1922 204.594 72.1041C204.606 72.0159 204.616 71.9165 204.623 71.7852C204.631 71.6539 204.639 71.5244 204.643 71.38C204.646 71.2355 204.643 71.0911 204.643 70.9448C204.643 70.6784 204.639 70.4195 204.631 70.1682C204.629 69.9792 204.609 69.7908 204.571 69.6054C204.56 69.5318 204.532 69.4614 204.491 69.3991C204.455 69.3176 204.394 69.2487 204.317 69.2018C204.24 69.1548 204.15 69.132 204.059 69.1365L204.067 69.1402Z" fill="white"/>
<path d="M204.067 67.9978C204.336 67.9914 204.603 68.0327 204.856 68.1197C205.056 68.1893 205.238 68.2999 205.389 68.4443C205.529 68.5786 205.636 68.743 205.699 68.9245C205.768 69.1164 205.81 69.3164 205.824 69.5191C205.856 69.7611 205.874 70.0048 205.876 70.2488C205.876 70.5152 205.876 70.7591 205.876 70.9804V71.2768C205.876 71.4513 205.876 71.6257 205.859 71.802C205.841 71.9784 205.834 72.1491 205.818 72.316C205.792 72.5858 205.706 72.8469 205.566 73.0814C205.45 73.2647 205.294 73.4205 205.108 73.5372C204.931 73.6439 204.736 73.7177 204.531 73.7548C204.334 73.7917 204.135 73.8105 203.934 73.8111C203.693 73.8162 203.453 73.78 203.224 73.7042C203.039 73.6387 202.868 73.5394 202.72 73.4115C202.588 73.2939 202.481 73.1525 202.405 72.9951C202.329 72.8372 202.276 72.6699 202.247 72.498C202.231 72.3986 202.218 72.286 202.206 72.1622C202.195 72.0384 202.183 71.9052 202.176 71.7683C202.168 71.6313 202.164 71.4925 202.164 71.3518V70.956C202.164 70.7684 202.164 70.5809 202.176 70.3933C202.187 70.2057 202.195 70.0181 202.212 69.8399C202.229 69.6617 202.247 69.5004 202.27 69.3484C202.286 69.2232 202.317 69.1003 202.364 68.9826C202.473 68.6924 202.676 68.4443 202.941 68.2754C203.279 68.0741 203.672 67.9773 204.067 67.9978ZM204.067 69.1402C203.985 69.1358 203.903 69.1525 203.83 69.1888C203.757 69.225 203.694 69.2794 203.65 69.3466C203.595 69.4393 203.554 69.5391 203.528 69.6429C203.499 69.7632 203.48 69.8855 203.471 70.0087C203.459 70.1457 203.453 70.2995 203.453 70.4721V71.1511C203.453 71.3575 203.453 71.5544 203.453 71.7439C203.453 71.8979 203.47 72.0515 203.505 72.2016C203.541 72.3242 203.607 72.4363 203.698 72.528C203.793 72.6077 203.913 72.6533 204.038 72.6574C204.163 72.6615 204.286 72.6238 204.387 72.5505C204.473 72.4803 204.536 72.3861 204.566 72.2804C204.566 72.2504 204.583 72.1922 204.594 72.1041C204.606 72.0159 204.616 71.9165 204.623 71.7852C204.631 71.6539 204.639 71.5244 204.643 71.38C204.646 71.2355 204.643 71.0911 204.643 70.9448C204.643 70.6784 204.639 70.4195 204.631 70.1682C204.629 69.9792 204.609 69.7908 204.571 69.6054C204.56 69.5318 204.532 69.4614 204.491 69.3991C204.455 69.3176 204.394 69.2487 204.317 69.2018C204.24 69.1548 204.15 69.132 204.059 69.1365L204.067 69.1402Z" fill="#005695"/>
<path d="M208.94 68.0071C209.096 68.0071 209.251 68.0279 209.401 68.069C209.556 68.1117 209.698 68.188 209.817 68.2922C209.955 68.4169 210.065 68.5683 210.14 68.7368C210.24 68.9697 210.301 69.2167 210.321 69.4683C210.337 69.6353 210.348 69.8435 210.356 70.0968C210.364 70.35 210.369 70.6032 210.369 70.8621C210.369 71.196 210.358 71.5374 210.339 71.8826C210.328 72.1692 210.291 72.4542 210.227 72.7342C210.197 72.8699 210.152 73.002 210.092 73.1281C210.034 73.2541 209.952 73.3686 209.852 73.4658C209.741 73.5697 209.61 73.6507 209.467 73.704C209.287 73.7694 209.097 73.8006 208.905 73.7959C208.735 73.7955 208.566 73.7663 208.407 73.7097C208.234 73.651 208.082 73.5463 207.968 73.4076H207.931V75.9082H206.669V68.0746H207.912V68.4985L207.947 68.521C208.038 68.348 208.184 68.208 208.362 68.1215C208.544 68.0426 208.741 68.0035 208.94 68.0071ZM208.482 69.2057C208.401 69.2006 208.32 69.215 208.247 69.2478C208.173 69.2805 208.109 69.3305 208.06 69.3933C207.962 69.5368 207.913 69.7068 207.92 69.8792V71.6725C207.92 71.7975 207.92 71.9176 207.92 72.0326C207.919 72.1208 207.937 72.2083 207.972 72.2896C208.008 72.3894 208.077 72.4747 208.168 72.5323C208.26 72.5899 208.368 72.6167 208.476 72.6085C208.569 72.6149 208.661 72.5931 208.741 72.5461C208.821 72.499 208.883 72.4291 208.92 72.3459C208.988 72.1653 209.026 71.9753 209.032 71.7832C209.053 71.5243 209.061 71.2204 209.061 70.8452C209.061 70.4701 209.061 70.2131 209.038 69.9767C209.037 69.8042 209.001 69.6335 208.934 69.474C208.9 69.3862 208.838 69.312 208.755 69.2633C208.673 69.2147 208.577 69.1944 208.482 69.2057Z" fill="white"/>
<path d="M208.94 68.0071C209.096 68.0071 209.251 68.0279 209.401 68.069C209.556 68.1117 209.698 68.188 209.817 68.2922C209.955 68.4169 210.065 68.5683 210.14 68.7368C210.24 68.9697 210.301 69.2167 210.321 69.4683C210.337 69.6353 210.348 69.8435 210.356 70.0968C210.364 70.35 210.369 70.6032 210.369 70.8621C210.369 71.196 210.358 71.5374 210.339 71.8826C210.328 72.1692 210.291 72.4542 210.227 72.7342C210.197 72.8699 210.152 73.002 210.092 73.1281C210.034 73.2541 209.952 73.3686 209.852 73.4658C209.741 73.5697 209.61 73.6507 209.467 73.704C209.287 73.7694 209.097 73.8006 208.905 73.7959C208.735 73.7955 208.566 73.7663 208.407 73.7097C208.234 73.651 208.082 73.5463 207.968 73.4076H207.931V75.9082H206.669V68.0746H207.912V68.4985L207.947 68.521C208.038 68.348 208.184 68.208 208.362 68.1215C208.544 68.0426 208.741 68.0035 208.94 68.0071ZM208.482 69.2057C208.401 69.2006 208.32 69.215 208.247 69.2478C208.173 69.2805 208.109 69.3305 208.06 69.3933C207.962 69.5368 207.913 69.7068 207.92 69.8792V71.6725C207.92 71.7975 207.92 71.9176 207.92 72.0326C207.919 72.1208 207.937 72.2083 207.972 72.2896C208.008 72.3894 208.077 72.4747 208.168 72.5323C208.26 72.5899 208.368 72.6167 208.476 72.6085C208.569 72.6149 208.661 72.5931 208.741 72.5461C208.821 72.499 208.883 72.4291 208.92 72.3459C208.988 72.1653 209.026 71.9753 209.032 71.7832C209.053 71.5243 209.061 71.2204 209.061 70.8452C209.061 70.4701 209.061 70.2131 209.038 69.9767C209.037 69.8042 209.001 69.6335 208.934 69.474C208.9 69.3862 208.838 69.312 208.755 69.2633C208.673 69.2147 208.577 69.1944 208.482 69.2057Z" fill="#005695"/>
<path d="M215.967 68.0181C216.17 68.0115 216.371 68.0486 216.558 68.1269C216.71 68.1941 216.843 68.298 216.943 68.4289C217.043 68.5666 217.114 68.7221 217.152 68.8866C217.196 69.0712 217.217 69.26 217.216 69.4493V73.7207H215.952V69.8226C215.963 69.6609 215.915 69.5004 215.815 69.3706C215.769 69.3193 215.712 69.2788 215.647 69.2522C215.583 69.2256 215.513 69.2134 215.444 69.2167C215.369 69.2148 215.296 69.228 215.227 69.2555C215.159 69.283 215.097 69.3241 215.045 69.3762C214.934 69.4951 214.873 69.6505 214.874 69.8114V73.7282H213.608V69.8226C213.62 69.6611 213.572 69.5007 213.473 69.3706C213.428 69.3193 213.371 69.2787 213.308 69.2521C213.244 69.2254 213.175 69.2133 213.106 69.2167C213.03 69.2157 212.955 69.231 212.886 69.2615C212.817 69.292 212.756 69.3369 212.707 69.3931C212.592 69.5291 212.533 69.7026 212.544 69.8789V73.7282H211.287V68.0743H212.553V68.5883L212.596 68.6015C212.715 68.4388 212.863 68.299 213.034 68.1888C213.208 68.075 213.414 68.0155 213.623 68.0181C213.874 68.0061 214.123 68.0675 214.337 68.1944C214.514 68.311 214.652 68.4761 214.734 68.669C214.889 68.477 215.081 68.3159 215.299 68.1944C215.502 68.08 215.732 68.0192 215.967 68.0181Z" fill="white"/>
<path d="M215.967 68.0181C216.17 68.0115 216.371 68.0486 216.558 68.1269C216.71 68.1941 216.843 68.298 216.943 68.4289C217.043 68.5666 217.114 68.7221 217.152 68.8866C217.196 69.0712 217.217 69.26 217.216 69.4493V73.7207H215.952V69.8226C215.963 69.6609 215.915 69.5004 215.815 69.3706C215.769 69.3193 215.712 69.2788 215.647 69.2522C215.583 69.2256 215.513 69.2134 215.444 69.2167C215.369 69.2148 215.296 69.228 215.227 69.2555C215.159 69.283 215.097 69.3241 215.045 69.3762C214.934 69.4951 214.873 69.6505 214.874 69.8114V73.7282H213.608V69.8226C213.62 69.6611 213.572 69.5007 213.473 69.3706C213.428 69.3193 213.371 69.2787 213.308 69.2521C213.244 69.2254 213.175 69.2133 213.106 69.2167C213.03 69.2157 212.955 69.231 212.886 69.2615C212.817 69.292 212.756 69.3369 212.707 69.3931C212.592 69.5291 212.533 69.7026 212.544 69.8789V73.7282H211.287V68.0743H212.553V68.5883L212.596 68.6015C212.715 68.4388 212.863 68.299 213.034 68.1888C213.208 68.075 213.414 68.0155 213.623 68.0181C213.874 68.0061 214.123 68.0675 214.337 68.1944C214.514 68.311 214.652 68.4761 214.734 68.669C214.889 68.477 215.081 68.3159 215.299 68.1944C215.502 68.08 215.732 68.0192 215.967 68.0181Z" fill="#005695"/>
<path d="M219.399 71.1864C219.399 71.3983 219.399 71.6028 219.399 71.7998C219.397 71.952 219.415 72.1038 219.451 72.2518C219.474 72.3652 219.538 72.4665 219.632 72.5372C219.726 72.6079 219.842 72.6431 219.961 72.6364C220.269 72.6364 220.444 72.4207 220.482 71.9855L221.735 72.1731C221.731 72.6161 221.551 73.0402 221.233 73.3567C220.875 73.6594 220.41 73.8124 219.938 73.7825C219.7 73.7876 219.464 73.7553 219.237 73.6869C219.058 73.6301 218.89 73.5431 218.741 73.4299C218.61 73.3299 218.501 73.2056 218.419 73.0641C218.344 72.9345 218.285 72.7966 218.244 72.6533C218.217 72.5402 218.197 72.4256 218.185 72.31C218.169 72.1731 218.158 72.0267 218.15 71.8692C218.142 71.7116 218.136 71.554 218.133 71.3908C218.129 71.2276 218.133 71.0738 218.133 70.9275C218.133 70.5636 218.147 70.1984 218.175 69.832C218.187 69.5449 218.239 69.2608 218.331 68.9879C218.436 68.689 218.639 68.432 218.908 68.2563C219.234 68.0593 219.613 67.9631 219.995 67.9805C220.573 67.9805 221.007 68.1381 221.304 68.4495C221.6 68.7609 221.746 69.1998 221.746 69.7738V71.1864H219.399ZM219.505 69.4775C219.466 69.583 219.445 69.6938 219.441 69.8057C219.428 69.9558 219.42 70.134 219.412 70.3422H220.478V69.8733C220.481 69.7027 220.448 69.5334 220.38 69.3762C220.343 69.3025 220.284 69.2419 220.21 69.2029C220.136 69.1639 220.052 69.1484 219.968 69.1586C219.865 69.1545 219.763 69.1842 219.679 69.243C219.595 69.3018 219.534 69.3863 219.505 69.4831V69.4775Z" fill="white"/>
<path d="M219.399 71.1864C219.399 71.3983 219.399 71.6028 219.399 71.7998C219.397 71.952 219.415 72.1038 219.451 72.2518C219.474 72.3652 219.538 72.4665 219.632 72.5372C219.726 72.6079 219.842 72.6431 219.961 72.6364C220.269 72.6364 220.444 72.4207 220.482 71.9855L221.735 72.1731C221.731 72.6161 221.551 73.0402 221.233 73.3567C220.875 73.6594 220.41 73.8124 219.938 73.7825C219.7 73.7876 219.464 73.7553 219.237 73.6869C219.058 73.6301 218.89 73.5431 218.741 73.4299C218.61 73.3299 218.501 73.2056 218.419 73.0641C218.344 72.9345 218.285 72.7966 218.244 72.6533C218.217 72.5402 218.197 72.4256 218.185 72.31C218.169 72.1731 218.158 72.0267 218.15 71.8692C218.142 71.7116 218.136 71.554 218.133 71.3908C218.129 71.2276 218.133 71.0738 218.133 70.9275C218.133 70.5636 218.147 70.1984 218.175 69.832C218.187 69.5449 218.239 69.2608 218.331 68.9879C218.436 68.689 218.639 68.432 218.908 68.2563C219.234 68.0593 219.613 67.9631 219.995 67.9805C220.573 67.9805 221.007 68.1381 221.304 68.4495C221.6 68.7609 221.746 69.1998 221.746 69.7738V71.1864H219.399ZM219.505 69.4775C219.466 69.583 219.445 69.6938 219.441 69.8057C219.428 69.9558 219.42 70.134 219.412 70.3422H220.478V69.8733C220.481 69.7027 220.448 69.5334 220.38 69.3762C220.343 69.3025 220.284 69.2419 220.21 69.2029C220.136 69.1639 220.052 69.1484 219.968 69.1586C219.865 69.1545 219.763 69.1842 219.679 69.243C219.595 69.3018 219.534 69.3863 219.505 69.4831V69.4775Z" fill="#005695"/>
<path d="M223.863 68.5886H223.909C224.032 68.4236 224.19 68.2861 224.373 68.1853C224.561 68.0769 224.776 68.0199 224.994 68.0202C225.197 68.014 225.399 68.0511 225.585 68.129C225.738 68.1974 225.871 68.3034 225.97 68.4366C226.071 68.5762 226.143 68.7336 226.182 68.9C226.225 69.0846 226.246 69.2734 226.245 69.4627V73.7228H224.981V69.8229C224.981 69.4196 224.804 69.217 224.454 69.217C224.372 69.2136 224.291 69.2276 224.216 69.2581C224.141 69.2885 224.073 69.3347 224.019 69.3933C223.903 69.5294 223.845 69.7029 223.855 69.8792V73.7284H222.589V68.0877H223.855L223.863 68.5886Z" fill="white"/>
<path d="M223.863 68.5886H223.909C224.032 68.4236 224.19 68.2861 224.373 68.1853C224.561 68.0769 224.776 68.0199 224.994 68.0202C225.197 68.014 225.399 68.0511 225.585 68.129C225.738 68.1974 225.871 68.3034 225.97 68.4366C226.071 68.5762 226.143 68.7336 226.182 68.9C226.225 69.0846 226.246 69.2734 226.245 69.4627V73.7228H224.981V69.8229C224.981 69.4196 224.804 69.217 224.454 69.217C224.372 69.2136 224.291 69.2276 224.216 69.2581C224.141 69.2885 224.073 69.3347 224.019 69.3933C223.903 69.5294 223.845 69.7029 223.855 69.8792V73.7284H222.589V68.0877H223.855L223.863 68.5886Z" fill="#005695"/>
<path d="M228.798 73.7288C228.573 73.7361 228.349 73.6951 228.142 73.6088C227.981 73.5358 227.839 73.4288 227.726 73.2955C227.622 73.1668 227.546 73.0187 227.503 72.8603C227.461 72.7035 227.44 72.5421 227.44 72.3801V69.0467H226.874V68.075H227.451V66.6475H228.669V68.075H229.376V69.0467H228.673V71.9711C228.66 72.1319 228.697 72.2928 228.779 72.4326C228.835 72.4878 228.904 72.5295 228.979 72.5543C229.055 72.579 229.135 72.5862 229.214 72.5752H229.366V73.7288H228.798Z" fill="white"/>
<path d="M228.798 73.7288C228.573 73.7361 228.349 73.6951 228.142 73.6088C227.981 73.5358 227.839 73.4288 227.726 73.2955C227.622 73.1668 227.546 73.0187 227.503 72.8603C227.461 72.7035 227.44 72.5421 227.44 72.3801V69.0467H226.874V68.075H227.451V66.6475H228.669V68.075H229.376V69.0467H228.673V71.9711C228.66 72.1319 228.697 72.2928 228.779 72.4326C228.835 72.4878 228.904 72.5295 228.979 72.5543C229.055 72.579 229.135 72.5862 229.214 72.5752H229.366V73.7288H228.798Z" fill="#005695"/>
</g>
<defs>
<clipPath id="clip0_188_426">
<rect width="231" height="76" fill="white"/>
</clipPath>
</defs>
</svg>
