<svg width="201" height="52" viewBox="0 0 201 52" fill="none" xmlns="http://www.w3.org/2000/svg">
<path d="M22.3422 23.9934C22.2343 23.7948 22.0748 23.6289 21.8805 23.5134C21.6863 23.3979 21.4645 23.337 21.2385 23.3372H15.0878C14.8617 23.3364 14.6397 23.3971 14.4453 23.5127C14.251 23.6282 14.0916 23.7944 13.9842 23.9934L0.151571 49.3966C0.0480185 49.5883 -0.00411444 49.8036 0.000253557 50.0215C0.00462156 50.2393 0.0653415 50.4524 0.176495 50.6398C0.287648 50.8272 0.445443 50.9826 0.634499 51.0908C0.823555 51.1991 1.03742 51.2565 1.25525 51.2575H6.70789C6.93554 51.2579 7.15901 51.1963 7.35439 51.0794C7.54976 50.9626 7.70969 50.7947 7.81705 50.5939L10.3826 45.8046H25.9419L28.5093 50.5939C28.7286 51.0034 29.1543 51.2575 29.6185 51.2575H35.0711C35.3111 51.2624 35.5475 51.1984 35.7524 51.0732C35.9572 50.948 36.1219 50.7667 36.2271 50.5508C36.3322 50.3349 36.3733 50.0934 36.3456 49.8549C36.3179 49.6163 36.2225 49.3907 36.0706 49.2047L22.3422 23.9934ZM22.1174 38.8291H14.2162L18.1814 31.488L22.1174 38.8291ZM72.2875 41.0757C75.9128 39.6938 77.8187 36.8111 77.8187 32.6506C77.8187 29.8429 76.874 27.5616 75.0138 25.8579C73.1865 24.1853 70.7343 23.339 67.7248 23.339H47.2043C47.039 23.3387 46.8754 23.3711 46.7226 23.4342C46.5699 23.4973 46.4311 23.5899 46.3142 23.7067C46.1972 23.8235 46.1045 23.9622 46.0412 24.1149C45.9779 24.2676 45.9453 24.4313 45.9453 24.5966V49.998C45.9453 50.6944 46.5081 51.2556 47.2043 51.2556H52.1581C52.8524 51.2556 53.4171 50.6944 53.4171 49.998V41.9202H64.1232L70.3963 50.7255C70.632 51.0582 71.0121 51.2556 71.4195 51.2556H77.0969C77.3492 51.2609 77.5972 51.19 77.8087 51.0523C78.0202 50.9146 78.1854 50.7165 78.2828 50.4836C78.3802 50.2507 78.4052 49.9939 78.3547 49.7466C78.3042 49.4992 78.1805 49.2728 77.9996 49.0968L72.2875 41.0757ZM53.4153 30.3163H66.6905C70.2227 30.3163 70.2227 31.9487 70.2227 32.7347C70.2227 33.5061 70.2227 34.9447 66.9811 34.9447H53.4153V30.3163ZM121.432 34.8606H103.803C103.469 34.8606 103.149 34.9933 102.913 35.2295C102.676 35.4657 102.544 35.7861 102.544 36.1201V40.5803C102.544 41.2768 103.107 41.838 103.803 41.838H113.027C111.335 43.9803 108.641 45.0205 104.857 45.0205C101.689 45.0205 99.1267 44.2618 97.2392 42.7702C95.4155 41.3243 94.5293 39.5073 94.5293 37.2151C94.5293 35.0087 95.4393 33.2173 97.3159 31.744C99.2583 30.2194 101.793 29.4462 104.852 29.4462C108.349 29.4462 111.203 30.5613 113.573 32.8517C113.953 33.221 114.525 33.3087 115.004 33.0747L119.678 30.7605C119.854 30.6738 120.007 30.547 120.125 30.3903C120.243 30.2336 120.323 30.0514 120.358 29.8583C120.393 29.6652 120.382 29.4666 120.326 29.2786C120.27 29.0905 120.171 28.9181 120.036 28.7753C116.119 24.5893 111.114 22.4707 105.162 22.4707C100.26 22.4707 96.0916 23.7046 92.7769 26.1413C88.9012 28.9673 86.9351 32.7018 86.9351 37.237C86.9351 41.827 88.9012 45.5889 92.7769 48.4131C96.0404 50.795 100.108 51.9996 104.874 51.9996C110.165 51.9996 114.489 50.6104 117.723 47.8739C121.02 45.0826 122.691 41.3956 122.691 36.908V36.1238C122.692 35.9581 122.659 35.7941 122.596 35.6409C122.533 35.4878 122.44 35.3486 122.323 35.2313C122.207 35.1141 122.068 35.021 121.915 34.9573C121.762 34.8937 121.598 34.8609 121.432 34.8606ZM162.342 44.2783H141.218V40.2696H154.866C155.2 40.2696 155.521 40.1369 155.757 39.9007C155.993 39.6645 156.125 39.3441 156.125 39.0101V34.5499C156.125 34.3846 156.093 34.2209 156.03 34.0682C155.966 33.9155 155.873 33.7768 155.757 33.6599C155.64 33.5431 155.501 33.4505 155.348 33.3875C155.195 33.3244 155.032 33.292 154.866 33.2922H141.218V30.3163H161.392C161.725 30.3158 162.045 30.183 162.281 29.9469C162.517 29.7108 162.65 29.3907 162.651 29.0569V24.5966C162.651 24.4313 162.618 24.2676 162.555 24.1149C162.491 23.9622 162.399 23.8235 162.282 23.7067C162.165 23.5899 162.026 23.4973 161.873 23.4342C161.721 23.3711 161.557 23.3387 161.392 23.339H135.007C134.842 23.3387 134.679 23.3711 134.526 23.4342C134.373 23.4973 134.235 23.59 134.118 23.7068C134.001 23.8236 133.909 23.9624 133.845 24.1151C133.782 24.2678 133.75 24.4314 133.75 24.5966V49.9998C133.75 50.6963 134.311 51.2575 135.007 51.2575H162.342C162.507 51.2577 162.671 51.2253 162.824 51.1623C162.976 51.0992 163.115 51.0066 163.232 50.8898C163.349 50.7729 163.442 50.6342 163.505 50.4815C163.568 50.3288 163.601 50.1651 163.601 49.9998V45.5378C163.6 45.2039 163.468 44.8838 163.232 44.6477C162.996 44.4116 162.676 44.2788 162.342 44.2783ZM199.743 44.2783H181.388V24.5966C181.388 24.4313 181.355 24.2676 181.292 24.1149C181.229 23.9622 181.136 23.8235 181.019 23.7067C180.902 23.5899 180.763 23.4973 180.61 23.4342C180.458 23.3711 180.294 23.3387 180.129 23.339H175.173C175.008 23.3387 174.844 23.3711 174.692 23.4342C174.539 23.4973 174.4 23.59 174.284 23.7068C174.167 23.8236 174.074 23.9624 174.011 24.1151C173.948 24.2678 173.916 24.4314 173.916 24.5966V49.9998C173.916 50.6963 174.479 51.2575 175.173 51.2575H199.743C199.908 51.2575 200.071 51.2249 200.224 51.1617C200.376 51.0985 200.515 51.0059 200.632 50.8891C200.749 50.7723 200.841 50.6337 200.904 50.4811C200.967 50.3285 201 50.165 201 49.9998V45.5378C201 45.2042 200.867 44.8844 200.631 44.6484C200.396 44.4123 200.076 44.2793 199.743 44.2783Z" fill="white"/>
<path d="M120.815 11.3955C123.96 11.3955 126.51 8.84455 126.51 5.69776C126.51 2.55097 123.96 0 120.815 0C117.669 0 115.119 2.55097 115.119 5.69776C115.119 8.84455 117.669 11.3955 120.815 11.3955Z" fill="white"/>
<path d="M122.541 23.4438C124.819 23.4438 126.665 21.5967 126.665 19.3181C126.665 17.0395 124.819 15.1924 122.541 15.1924C120.263 15.1924 118.417 17.0395 118.417 19.3181C118.417 21.5967 120.263 23.4438 122.541 23.4438Z" fill="white"/>
<path d="M112.249 16.9617C113.592 16.9617 114.681 15.8724 114.681 14.5287C114.681 13.185 113.592 12.0957 112.249 12.0957C110.905 12.0957 109.816 13.185 109.816 14.5287C109.816 15.8724 110.905 16.9617 112.249 16.9617Z" fill="white"/>
</svg>
